<svg width="520" height="320" viewBox="0 0 520 320" fill="none" xmlns="http://www.w3.org/2000/svg">
<g clip-path="url(#clip0_4403_55377)">
<path d="M6.78835 35H0.856534L9.89489 8.81818H17.0284L26.054 35H20.1222L13.5639 14.8011H13.3594L6.78835 35ZM6.41761 24.7088H20.429V29.0298H6.41761V24.7088ZM29.2053 35V8.81818H39.5348C41.5121 8.81818 43.1996 9.17187 44.5973 9.87926C46.0036 10.5781 47.0732 11.571 47.8061 12.858C48.5476 14.1364 48.9183 15.6406 48.9183 17.3707C48.9183 19.1094 48.5433 20.6051 47.7933 21.858C47.0433 23.1023 45.9567 24.0568 44.5334 24.7216C43.1186 25.3864 41.4055 25.7188 39.3942 25.7188H32.478V21.2699H38.4993C39.5561 21.2699 40.4339 21.125 41.1328 20.8352C41.8317 20.5455 42.3516 20.1108 42.6925 19.5312C43.0419 18.9517 43.2166 18.2315 43.2166 17.3707C43.2166 16.5014 43.0419 15.7685 42.6925 15.1719C42.3516 14.5753 41.8274 14.1236 41.12 13.8168C40.4212 13.5014 39.5391 13.3438 38.4737 13.3438H34.7408V35H29.2053ZM43.3445 23.0852L49.8516 35H43.7408L37.3743 23.0852H43.3445ZM58.3658 8.81818V35H52.8303V8.81818H58.3658ZM67.4329 35H61.5011L70.5394 8.81818H77.6729L86.6985 35H80.7667L74.2085 14.8011H74.0039L67.4329 35ZM67.0621 24.7088H81.0735V29.0298H67.0621V24.7088Z" fill="white"/>
<g clip-path="url(#clip1_4403_55377)">
<g clip-path="url(#clip2_4403_55377)">
<rect width="348" height="236" transform="translate(0 84)" fill="#F2F2F2"/>
<path d="M31 192C31 187.582 34.5817 184 39 184H107C111.418 184 115 187.582 115 192V212C115 216.418 111.418 220 107 220H39C34.5817 220 31 216.418 31 212V192Z" fill="white" fill-opacity="0.01"/>
<path d="M39 184.5H107C111.142 184.5 114.5 187.858 114.5 192V212C114.5 216.142 111.142 219.5 107 219.5H39C34.8579 219.5 31.5 216.142 31.5 212V192C31.5 187.858 34.8579 184.5 39 184.5Z" stroke="white" stroke-opacity="0.01"/>
<path d="M58.3045 195.391H43.6957C43.3115 195.391 43 195.702 43 196.086V196.782C43 197.166 43.3115 197.478 43.6957 197.478H58.3045C58.6887 197.478 59.0001 197.166 59.0001 196.782V196.086C59.0001 195.702 58.6887 195.391 58.3045 195.391Z" fill="#002147"/>
<path d="M58.3045 200.956H43.6957C43.3115 200.956 43 201.267 43 201.652V202.347C43 202.731 43.3115 203.043 43.6957 203.043H58.3045C58.6887 203.043 59.0001 202.731 59.0001 202.347V201.652C59.0001 201.267 58.6887 200.956 58.3045 200.956Z" fill="#002147"/>
<path d="M58.3045 206.521H43.6957C43.3115 206.521 43 206.833 43 207.217V207.912C43 208.297 43.3115 208.608 43.6957 208.608H58.3045C58.6887 208.608 59.0001 208.297 59.0001 207.912V207.217C59.0001 206.833 58.6887 206.521 58.3045 206.521Z" fill="#002147"/>
<path d="M68.833 207.5V197.506H69.9951V206.461H74.4316V207.5H68.833ZM78.7793 199.885C79.6725 199.885 80.3356 200.085 80.7686 200.486C81.2015 200.887 81.418 201.528 81.418 202.407V207.5H80.5908L80.3721 206.393H80.3174C80.1077 206.666 79.889 206.896 79.6611 207.083C79.4333 207.265 79.1689 207.404 78.8682 207.5C78.5719 207.591 78.2074 207.637 77.7744 207.637C77.3187 207.637 76.9131 207.557 76.5576 207.397C76.2067 207.238 75.9287 206.996 75.7236 206.673C75.5231 206.349 75.4229 205.939 75.4229 205.442C75.4229 204.695 75.7191 204.121 76.3115 203.72C76.904 203.319 77.8063 203.1 79.0186 203.063L80.3105 203.009V202.551C80.3105 201.904 80.1715 201.45 79.8936 201.19C79.6156 200.931 79.2236 200.801 78.7178 200.801C78.3258 200.801 77.9521 200.858 77.5967 200.972C77.2412 201.086 76.904 201.22 76.585 201.375L76.2363 200.514C76.5736 200.34 76.9609 200.192 77.3984 200.069C77.8359 199.946 78.2962 199.885 78.7793 199.885ZM80.2969 203.809L79.1553 203.856C78.221 203.893 77.5625 204.046 77.1797 204.314C76.7969 204.583 76.6055 204.964 76.6055 205.456C76.6055 205.884 76.7354 206.201 76.9951 206.406C77.2549 206.611 77.599 206.714 78.0273 206.714C78.6927 206.714 79.2373 206.529 79.6611 206.16C80.085 205.791 80.2969 205.237 80.2969 204.499V203.809ZM84.8906 196.863V199.522C84.8906 199.828 84.8815 200.124 84.8633 200.411C84.8496 200.698 84.8382 200.922 84.8291 201.081H84.8906C85.0957 200.744 85.3919 200.459 85.7793 200.227C86.1667 199.994 86.6611 199.878 87.2627 199.878C88.2015 199.878 88.9489 200.204 89.5049 200.855C90.0654 201.503 90.3457 202.466 90.3457 203.747C90.3457 204.59 90.2181 205.301 89.9629 205.88C89.7077 206.459 89.3477 206.896 88.8828 207.192C88.418 207.489 87.8688 207.637 87.2354 207.637C86.6429 207.637 86.1553 207.527 85.7725 207.309C85.3942 207.085 85.1025 206.814 84.8975 206.495H84.8086L84.5762 207.5H83.7559V196.863H84.8906ZM87.0781 200.828C86.5358 200.828 86.1051 200.935 85.7861 201.149C85.4671 201.359 85.237 201.678 85.0957 202.106C84.959 202.53 84.8906 203.068 84.8906 203.72V203.781C84.8906 204.725 85.0479 205.447 85.3623 205.948C85.6768 206.445 86.2487 206.693 87.0781 206.693C87.7754 206.693 88.2972 206.438 88.6436 205.928C88.9945 205.417 89.1699 204.688 89.1699 203.74C89.1699 202.774 88.9967 202.047 88.6504 201.56C88.3086 201.072 87.7845 200.828 87.0781 200.828ZM95.2129 199.871C95.8509 199.871 96.3978 200.012 96.8535 200.295C97.3092 200.577 97.6579 200.974 97.8994 201.484C98.141 201.99 98.2617 202.583 98.2617 203.262V203.966H93.0869C93.1006 204.845 93.3193 205.515 93.7432 205.976C94.167 206.436 94.764 206.666 95.5342 206.666C96.0081 206.666 96.4274 206.623 96.792 206.536C97.1566 206.45 97.5348 206.322 97.9268 206.153V207.151C97.5485 207.32 97.1725 207.443 96.7988 207.521C96.4297 207.598 95.9922 207.637 95.4863 207.637C94.7663 207.637 94.1374 207.491 93.5996 207.199C93.0664 206.903 92.6517 206.47 92.3555 205.9C92.0592 205.331 91.9111 204.633 91.9111 203.809C91.9111 203.002 92.0456 202.305 92.3145 201.717C92.5879 201.124 92.9707 200.669 93.4629 200.35C93.9596 200.031 94.543 199.871 95.2129 199.871ZM95.1992 200.801C94.5931 200.801 94.11 200.999 93.75 201.396C93.39 201.792 93.1758 202.346 93.1074 203.057H97.0723C97.0677 202.61 96.9971 202.218 96.8604 201.881C96.7282 201.539 96.5254 201.275 96.252 201.088C95.9785 200.896 95.6276 200.801 95.1992 200.801ZM101.331 207.5H100.189V196.863H101.331V207.5Z" fill="#002147"/>
<path d="M205 192C205 187.582 208.582 184 213 184H237C241.418 184 245 187.582 245 192V212C245 216.418 241.418 220 237 220H213C208.582 220 205 216.418 205 212V192Z" fill="white" fill-opacity="0.01"/>
<path d="M213 184.5H237C241.142 184.5 244.5 187.858 244.5 192V212C244.5 216.142 241.142 219.5 237 219.5H213C208.858 219.5 205.5 216.142 205.5 212V192C205.5 187.858 208.858 184.5 213 184.5Z" stroke="white" stroke-opacity="0.01"/>
<path d="M232.304 195.391H217.696C217.311 195.391 217 195.702 217 196.086V196.782C217 197.166 217.311 197.478 217.696 197.478H232.304C232.689 197.478 233 197.166 233 196.782V196.086C233 195.702 232.689 195.391 232.304 195.391Z" fill="#002147"/>
<path d="M232.304 200.956H217.696C217.311 200.956 217 201.267 217 201.652V202.347C217 202.731 217.311 203.043 217.696 203.043H232.304C232.689 203.043 233 202.731 233 202.347V201.652C233 201.267 232.689 200.956 232.304 200.956Z" fill="#002147"/>
<path d="M232.304 206.521H217.696C217.311 206.521 217 206.833 217 207.217V207.912C217 208.297 217.311 208.608 217.696 208.608H232.304C232.689 208.608 233 208.297 233 207.912V207.217C233 206.833 232.689 206.521 232.304 206.521Z" fill="#002147"/>
<g clip-path="url(#clip3_4403_55377)">
<path d="M59.5 237L75.5 221L91.5 237L59.5 237Z" fill="#237EA3"/>
<rect width="72" height="48" transform="translate(39.5 237)" fill="#237EA3"/>
<path d="M59.8229 249.432C60.5349 249.432 61.1309 249.5 61.6109 249.636C62.0989 249.772 62.4629 249.996 62.7029 250.308C62.9509 250.62 63.0749 251.036 63.0749 251.556C63.0749 251.892 63.0109 252.192 62.8829 252.456C62.7629 252.712 62.5789 252.928 62.3309 253.104C62.0909 253.272 61.7949 253.388 61.4429 253.452V253.512C61.8029 253.568 62.1269 253.672 62.4149 253.824C62.7109 253.976 62.9429 254.192 63.1109 254.472C63.2789 254.752 63.3629 255.116 63.3629 255.564C63.3629 256.084 63.2429 256.528 63.0029 256.896C62.7629 257.256 62.4189 257.532 61.9709 257.724C61.5309 257.908 61.0029 258 60.3869 258H57.3749V249.432H59.8229ZM60.0389 253.08C60.7749 253.08 61.2789 252.964 61.5509 252.732C61.8229 252.492 61.9589 252.14 61.9589 251.676C61.9589 251.204 61.7909 250.868 61.4549 250.668C61.1269 250.46 60.5989 250.356 59.8709 250.356H58.4549V253.08H60.0389ZM58.4549 253.98V257.088H60.1829C60.9429 257.088 61.4709 256.94 61.7669 256.644C62.0629 256.348 62.2109 255.96 62.2109 255.48C62.2109 255.176 62.1429 254.912 62.0069 254.688C61.8789 254.464 61.6589 254.292 61.3469 254.172C61.0429 254.044 60.6269 253.98 60.0989 253.98H58.4549ZM70.4116 251.568V258H69.5476L69.3916 257.148H69.3436C69.2076 257.372 69.0316 257.556 68.8156 257.7C68.5996 257.844 68.3636 257.948 68.1076 258.012C67.8516 258.084 67.5836 258.12 67.3036 258.12C66.7916 258.12 66.3596 258.04 66.0076 257.88C65.6636 257.712 65.4036 257.456 65.2276 257.112C65.0516 256.768 64.9636 256.324 64.9636 255.78V251.568H66.0316V255.708C66.0316 256.22 66.1476 256.604 66.3796 256.86C66.6116 257.116 66.9716 257.244 67.4596 257.244C67.9396 257.244 68.3156 257.156 68.5876 256.98C68.8676 256.796 69.0636 256.532 69.1756 256.188C69.2956 255.836 69.3556 255.412 69.3556 254.916V251.568H70.4116ZM74.6016 257.256C74.7616 257.256 74.9256 257.244 75.0936 257.22C75.2616 257.188 75.3976 257.156 75.5016 257.124V257.928C75.3896 257.984 75.2296 258.028 75.0216 258.06C74.8136 258.1 74.6136 258.12 74.4216 258.12C74.0856 258.12 73.7736 258.064 73.4856 257.952C73.2056 257.832 72.9776 257.628 72.8016 257.34C72.6256 257.052 72.5376 256.648 72.5376 256.128V252.384H71.6256V251.88L72.5496 251.46L72.9696 250.092H73.5936V251.568H75.4536V252.384H73.5936V256.104C73.5936 256.496 73.6856 256.788 73.8696 256.98C74.0616 257.164 74.3056 257.256 74.6016 257.256ZM78.9375 257.256C79.0975 257.256 79.2615 257.244 79.4295 257.22C79.5975 257.188 79.7335 257.156 79.8375 257.124V257.928C79.7255 257.984 79.5655 258.028 79.3575 258.06C79.1495 258.1 78.9495 258.12 78.7575 258.12C78.4215 258.12 78.1095 258.064 77.8215 257.952C77.5415 257.832 77.3135 257.628 77.1375 257.34C76.9615 257.052 76.8735 256.648 76.8735 256.128V252.384H75.9615V251.88L76.8855 251.46L77.3055 250.092H77.9295V251.568H79.7895V252.384H77.9295V256.104C77.9295 256.496 78.0215 256.788 78.2055 256.98C78.3975 257.164 78.6415 257.256 78.9375 257.256ZM86.7175 254.772C86.7175 255.308 86.6455 255.784 86.5015 256.2C86.3655 256.608 86.1655 256.956 85.9015 257.244C85.6455 257.532 85.3295 257.752 84.9535 257.904C84.5855 258.048 84.1735 258.12 83.7175 258.12C83.2935 258.12 82.9015 258.048 82.5415 257.904C82.1815 257.752 81.8695 257.532 81.6055 257.244C81.3415 256.956 81.1335 256.608 80.9815 256.2C80.8375 255.784 80.7655 255.308 80.7655 254.772C80.7655 254.06 80.8855 253.46 81.1255 252.972C81.3655 252.476 81.7095 252.1 82.1575 251.844C82.6055 251.58 83.1375 251.448 83.7535 251.448C84.3375 251.448 84.8495 251.58 85.2895 251.844C85.7375 252.1 86.0855 252.476 86.3335 252.972C86.5895 253.46 86.7175 254.06 86.7175 254.772ZM81.8575 254.772C81.8575 255.276 81.9215 255.716 82.0495 256.092C82.1855 256.46 82.3935 256.744 82.6735 256.944C82.9535 257.144 83.3095 257.244 83.7415 257.244C84.1735 257.244 84.5295 257.144 84.8095 256.944C85.0895 256.744 85.2935 256.46 85.4215 256.092C85.5575 255.716 85.6255 255.276 85.6255 254.772C85.6255 254.26 85.5575 253.824 85.4215 253.464C85.2855 253.104 85.0775 252.828 84.7975 252.636C84.5255 252.436 84.1695 252.336 83.7295 252.336C83.0735 252.336 82.5975 252.552 82.3015 252.984C82.0055 253.416 81.8575 254.012 81.8575 254.772ZM91.4871 251.448C92.2551 251.448 92.8351 251.636 93.2271 252.012C93.6191 252.38 93.8151 252.98 93.8151 253.812V258H92.7711V253.884C92.7711 253.364 92.6551 252.976 92.4231 252.72C92.1911 252.464 91.8271 252.336 91.3311 252.336C90.6191 252.336 90.1271 252.536 89.8551 252.936C89.5831 253.336 89.4471 253.912 89.4471 254.664V258H88.3911V251.568H89.2431L89.3991 252.444H89.4591C89.6031 252.22 89.7791 252.036 89.9871 251.892C90.2031 251.74 90.4391 251.628 90.6951 251.556C90.9511 251.484 91.2151 251.448 91.4871 251.448ZM51.6821 267.448C51.8021 267.448 51.9301 267.456 52.0661 267.472C52.2101 267.48 52.3341 267.496 52.4381 267.52L52.3061 268.492C52.2021 268.468 52.0861 268.448 51.9581 268.432C51.8381 268.416 51.7221 268.408 51.6101 268.408C51.3621 268.408 51.1261 268.46 50.9021 268.564C50.6781 268.668 50.4781 268.816 50.3021 269.008C50.1261 269.192 49.9861 269.416 49.8821 269.68C49.7861 269.944 49.7381 270.24 49.7381 270.568V274H48.6821V267.568H49.5461L49.6661 268.744H49.7141C49.8501 268.504 50.0141 268.288 50.2061 268.096C50.3981 267.896 50.6181 267.74 50.8661 267.628C51.1141 267.508 51.3861 267.448 51.6821 267.448ZM58.9968 270.772C58.9968 271.308 58.9248 271.784 58.7808 272.2C58.6448 272.608 58.4448 272.956 58.1808 273.244C57.9248 273.532 57.6088 273.752 57.2328 273.904C56.8648 274.048 56.4528 274.12 55.9968 274.12C55.5728 274.12 55.1808 274.048 54.8208 273.904C54.4608 273.752 54.1488 273.532 53.8848 273.244C53.6208 272.956 53.4128 272.608 53.2608 272.2C53.1168 271.784 53.0448 271.308 53.0448 270.772C53.0448 270.06 53.1648 269.46 53.4048 268.972C53.6448 268.476 53.9888 268.1 54.4368 267.844C54.8848 267.58 55.4168 267.448 56.0328 267.448C56.6168 267.448 57.1288 267.58 57.5688 267.844C58.0168 268.1 58.3648 268.476 58.6128 268.972C58.8688 269.46 58.9968 270.06 58.9968 270.772ZM54.1368 270.772C54.1368 271.276 54.2008 271.716 54.3288 272.092C54.4648 272.46 54.6728 272.744 54.9528 272.944C55.2328 273.144 55.5888 273.244 56.0208 273.244C56.4528 273.244 56.8088 273.144 57.0888 272.944C57.3688 272.744 57.5728 272.46 57.7008 272.092C57.8368 271.716 57.9048 271.276 57.9048 270.772C57.9048 270.26 57.8368 269.824 57.7008 269.464C57.5648 269.104 57.3568 268.828 57.0768 268.636C56.8048 268.436 56.4488 268.336 56.0088 268.336C55.3528 268.336 54.8768 268.552 54.5808 268.984C54.2848 269.416 54.1368 270.012 54.1368 270.772ZM61.7264 274H60.6704V264.88H61.7264V274ZM66.2481 267.448C66.8001 267.448 67.2721 267.568 67.6641 267.808C68.0641 268.048 68.3681 268.388 68.5761 268.828C68.7921 269.26 68.9001 269.768 68.9001 270.352V270.988H64.4961C64.5121 271.716 64.6961 272.272 65.0481 272.656C65.4081 273.032 65.9081 273.22 66.5481 273.22C66.9561 273.22 67.3161 273.184 67.6281 273.112C67.9481 273.032 68.2761 272.92 68.6121 272.776V273.7C68.2841 273.844 67.9601 273.948 67.6401 274.012C67.3201 274.084 66.9401 274.12 66.5001 274.12C65.8921 274.12 65.3521 273.996 64.8801 273.748C64.4161 273.5 64.0521 273.132 63.7881 272.644C63.5321 272.148 63.4041 271.544 63.4041 270.832C63.4041 270.128 63.5201 269.524 63.7521 269.02C63.9921 268.516 64.3241 268.128 64.7481 267.856C65.1801 267.584 65.6801 267.448 66.2481 267.448ZM66.2361 268.312C65.7321 268.312 65.3321 268.476 65.0361 268.804C64.7481 269.124 64.5761 269.572 64.5201 270.148H67.7961C67.7961 269.78 67.7401 269.46 67.6281 269.188C67.5161 268.916 67.3441 268.704 67.1121 268.552C66.8881 268.392 66.5961 268.312 66.2361 268.312ZM70.1896 269.008V268.156H75.6856V269.008H70.1896ZM70.1896 271.396V270.544H75.6856V271.396H70.1896ZM80.5488 265.564C80.4768 265.844 80.3848 266.148 80.2728 266.476C80.1608 266.804 80.0368 267.132 79.9008 267.46C79.7728 267.78 79.6448 268.084 79.5168 268.372H78.7248C78.8048 268.068 78.8808 267.744 78.9528 267.4C79.0328 267.048 79.1048 266.704 79.1688 266.368C79.2408 266.024 79.2968 265.712 79.3368 265.432H80.4648L80.5488 265.564ZM78.3288 265.564C78.2568 265.844 78.1648 266.148 78.0528 266.476C77.9408 266.804 77.8168 267.132 77.6808 267.46C77.5528 267.78 77.4248 268.084 77.2968 268.372H76.5288C76.5848 268.148 76.6408 267.908 76.6968 267.652C76.7528 267.396 76.8048 267.14 76.8528 266.884C76.9088 266.62 76.9568 266.364 76.9968 266.116C77.0448 265.868 77.0848 265.64 77.1168 265.432H78.2448L78.3288 265.564ZM83.8653 273.256C84.0253 273.256 84.1893 273.244 84.3573 273.22C84.5253 273.188 84.6613 273.156 84.7653 273.124V273.928C84.6533 273.984 84.4933 274.028 84.2853 274.06C84.0773 274.1 83.8773 274.12 83.6853 274.12C83.3493 274.12 83.0373 274.064 82.7493 273.952C82.4693 273.832 82.2413 273.628 82.0653 273.34C81.8893 273.052 81.8013 272.648 81.8013 272.128V268.384H80.8893V267.88L81.8133 267.46L82.2333 266.092H82.8573V267.568H84.7173V268.384H82.8573V272.104C82.8573 272.496 82.9493 272.788 83.1333 272.98C83.3253 273.164 83.5693 273.256 83.8653 273.256ZM88.4892 267.46C89.2732 267.46 89.8532 267.632 90.2292 267.976C90.6052 268.32 90.7932 268.868 90.7932 269.62V274H90.0252L89.8212 273.088H89.7732C89.5892 273.32 89.3972 273.516 89.1972 273.676C89.0052 273.828 88.7812 273.94 88.5252 274.012C88.2772 274.084 87.9732 274.12 87.6132 274.12C87.2292 274.12 86.8812 274.052 86.5692 273.916C86.2652 273.78 86.0252 273.572 85.8492 273.292C85.6732 273.004 85.5852 272.644 85.5852 272.212C85.5852 271.572 85.8372 271.08 86.3412 270.736C86.8452 270.384 87.6212 270.192 88.6692 270.16L89.7612 270.124V269.74C89.7612 269.204 89.6452 268.832 89.4132 268.624C89.1812 268.416 88.8532 268.312 88.4292 268.312C88.0932 268.312 87.7732 268.364 87.4692 268.468C87.1652 268.564 86.8812 268.676 86.6172 268.804L86.2932 268.012C86.5732 267.86 86.9052 267.732 87.2892 267.628C87.6732 267.516 88.0732 267.46 88.4892 267.46ZM88.8012 270.892C88.0012 270.924 87.4452 271.052 87.1332 271.276C86.8292 271.5 86.6772 271.816 86.6772 272.224C86.6772 272.584 86.7852 272.848 87.0012 273.016C87.2252 273.184 87.5092 273.268 87.8532 273.268C88.3972 273.268 88.8492 273.12 89.2092 272.824C89.5692 272.52 89.7492 272.056 89.7492 271.432V270.856L88.8012 270.892ZM93.8358 267.1C93.8358 267.372 93.8278 267.628 93.8118 267.868C93.8038 268.1 93.7918 268.284 93.7758 268.42H93.8358C94.0198 268.148 94.2718 267.92 94.5918 267.736C94.9118 267.552 95.3238 267.46 95.8278 267.46C96.6278 267.46 97.2678 267.74 97.7478 268.3C98.2358 268.852 98.4798 269.68 98.4798 270.784C98.4798 271.52 98.3678 272.136 98.1438 272.632C97.9278 273.128 97.6198 273.5 97.2198 273.748C96.8198 273.996 96.3558 274.12 95.8278 274.12C95.3238 274.12 94.9118 274.028 94.5918 273.844C94.2718 273.66 94.0198 273.44 93.8358 273.184H93.7518L93.5358 274H92.7798V264.88H93.8358V267.1ZM95.6478 268.336C95.1918 268.336 94.8318 268.424 94.5678 268.6C94.3038 268.768 94.1158 269.032 94.0038 269.392C93.8918 269.744 93.8358 270.196 93.8358 270.748V270.796C93.8358 271.588 93.9638 272.196 94.2198 272.62C94.4838 273.036 94.9678 273.244 95.6718 273.244C96.2478 273.244 96.6758 273.032 96.9558 272.608C97.2438 272.184 97.3878 271.572 97.3878 270.772C97.3878 269.964 97.2438 269.356 96.9558 268.948C96.6758 268.54 96.2398 268.336 95.6478 268.336ZM103.189 265.564C103.117 265.844 103.025 266.148 102.913 266.476C102.801 266.804 102.677 267.132 102.541 267.46C102.413 267.78 102.285 268.084 102.157 268.372H101.365C101.445 268.068 101.521 267.744 101.593 267.4C101.673 267.048 101.745 266.704 101.809 266.368C101.881 266.024 101.937 265.712 101.977 265.432H103.105L103.189 265.564ZM100.969 265.564C100.897 265.844 100.805 266.148 100.693 266.476C100.581 266.804 100.457 267.132 100.321 267.46C100.193 267.78 100.065 268.084 99.9374 268.372H99.1694C99.2254 268.148 99.2814 267.908 99.3374 267.652C99.3934 267.396 99.4454 267.14 99.4934 266.884C99.5494 266.62 99.5974 266.364 99.6374 266.116C99.6854 265.868 99.7254 265.64 99.7574 265.432H100.885L100.969 265.564Z" fill="white"/>
</g>
<g clip-path="url(#clip4_4403_55377)">
<rect width="48" height="32" transform="translate(27 136)" fill="#767676"/>
<path d="M41.6611 157L40.6291 154.348H37.2331L36.2131 157H35.1211L38.4691 148.396H39.4411L42.7771 157H41.6611ZM39.3451 150.796C39.3211 150.732 39.2811 150.616 39.2251 150.448C39.1691 150.28 39.1131 150.108 39.0571 149.932C39.0091 149.748 38.9691 149.608 38.9371 149.512C38.8971 149.672 38.8531 149.836 38.8051 150.004C38.7651 150.164 38.7211 150.312 38.6731 150.448C38.6331 150.584 38.5971 150.7 38.5651 150.796L37.5931 153.388H40.3051L39.3451 150.796ZM44.8612 157H43.8052V147.88H44.8612V157ZM49.0469 156.256C49.2069 156.256 49.3709 156.244 49.5389 156.22C49.7069 156.188 49.8429 156.156 49.9469 156.124V156.928C49.8349 156.984 49.6749 157.028 49.4669 157.06C49.2589 157.1 49.0589 157.12 48.8669 157.12C48.5309 157.12 48.2189 157.064 47.9309 156.952C47.6509 156.832 47.4229 156.628 47.2469 156.34C47.0709 156.052 46.9829 155.648 46.9829 155.128V151.384H46.0709V150.88L46.9949 150.46L47.4149 149.092H48.0389V150.568H49.8989V151.384H48.0389V155.104C48.0389 155.496 48.1309 155.788 48.3149 155.98C48.5069 156.164 48.7509 156.256 49.0469 156.256ZM50.8868 152.008V151.156H56.3828V152.008H50.8868ZM50.8868 154.396V153.544H56.3828V154.396H50.8868ZM59.002 148.432L58.762 151.528H58.102L57.862 148.432H59.002ZM61.198 148.432L60.958 151.528H60.298L60.058 148.432H61.198ZM63.9005 148.432L63.6605 151.528H63.0005L62.7605 148.432H63.9005ZM66.0965 148.432L65.8565 151.528H65.1965L64.9565 148.432H66.0965Z" fill="white"/>
<path d="M67 168L51 184L35 168L67 168Z" fill="#767676"/>
</g>
<g clip-path="url(#clip5_4403_55377)">
<path d="M208.5 237L224.5 221L240.5 237L208.5 237Z" fill="#237EA3"/>
<rect width="193" height="48" transform="translate(128 237)" fill="#237EA3"/>
<path d="M139.776 249.432C140.488 249.432 141.084 249.5 141.564 249.636C142.052 249.772 142.416 249.996 142.656 250.308C142.904 250.62 143.028 251.036 143.028 251.556C143.028 251.892 142.964 252.192 142.836 252.456C142.716 252.712 142.532 252.928 142.284 253.104C142.044 253.272 141.748 253.388 141.396 253.452V253.512C141.756 253.568 142.08 253.672 142.368 253.824C142.664 253.976 142.896 254.192 143.064 254.472C143.232 254.752 143.316 255.116 143.316 255.564C143.316 256.084 143.196 256.528 142.956 256.896C142.716 257.256 142.372 257.532 141.924 257.724C141.484 257.908 140.956 258 140.34 258H137.328V249.432H139.776ZM139.992 253.08C140.728 253.08 141.232 252.964 141.504 252.732C141.776 252.492 141.912 252.14 141.912 251.676C141.912 251.204 141.744 250.868 141.408 250.668C141.08 250.46 140.552 250.356 139.824 250.356H138.408V253.08H139.992ZM138.408 253.98V257.088H140.136C140.896 257.088 141.424 256.94 141.72 256.644C142.016 256.348 142.164 255.96 142.164 255.48C142.164 255.176 142.096 254.912 141.96 254.688C141.832 254.464 141.612 254.292 141.3 254.172C140.996 254.044 140.58 253.98 140.052 253.98H138.408ZM150.365 251.568V258H149.501L149.345 257.148H149.297C149.161 257.372 148.985 257.556 148.769 257.7C148.553 257.844 148.317 257.948 148.061 258.012C147.805 258.084 147.537 258.12 147.257 258.12C146.745 258.12 146.313 258.04 145.961 257.88C145.617 257.712 145.357 257.456 145.181 257.112C145.005 256.768 144.917 256.324 144.917 255.78V251.568H145.985V255.708C145.985 256.22 146.101 256.604 146.333 256.86C146.565 257.116 146.925 257.244 147.413 257.244C147.893 257.244 148.269 257.156 148.541 256.98C148.821 256.796 149.017 256.532 149.129 256.188C149.249 255.836 149.309 255.412 149.309 254.916V251.568H150.365ZM154.555 257.256C154.715 257.256 154.879 257.244 155.047 257.22C155.215 257.188 155.351 257.156 155.455 257.124V257.928C155.343 257.984 155.183 258.028 154.975 258.06C154.767 258.1 154.567 258.12 154.375 258.12C154.039 258.12 153.727 258.064 153.439 257.952C153.159 257.832 152.931 257.628 152.755 257.34C152.579 257.052 152.491 256.648 152.491 256.128V252.384H151.579V251.88L152.503 251.46L152.923 250.092H153.547V251.568H155.407V252.384H153.547V256.104C153.547 256.496 153.639 256.788 153.823 256.98C154.015 257.164 154.259 257.256 154.555 257.256ZM158.891 257.256C159.051 257.256 159.215 257.244 159.383 257.22C159.551 257.188 159.687 257.156 159.791 257.124V257.928C159.679 257.984 159.519 258.028 159.311 258.06C159.103 258.1 158.903 258.12 158.711 258.12C158.375 258.12 158.063 258.064 157.775 257.952C157.495 257.832 157.267 257.628 157.091 257.34C156.915 257.052 156.827 256.648 156.827 256.128V252.384H155.915V251.88L156.839 251.46L157.259 250.092H157.883V251.568H159.743V252.384H157.883V256.104C157.883 256.496 157.975 256.788 158.159 256.98C158.351 257.164 158.595 257.256 158.891 257.256ZM166.671 254.772C166.671 255.308 166.599 255.784 166.455 256.2C166.319 256.608 166.119 256.956 165.855 257.244C165.599 257.532 165.283 257.752 164.907 257.904C164.539 258.048 164.127 258.12 163.671 258.12C163.247 258.12 162.855 258.048 162.495 257.904C162.135 257.752 161.823 257.532 161.559 257.244C161.295 256.956 161.087 256.608 160.935 256.2C160.791 255.784 160.719 255.308 160.719 254.772C160.719 254.06 160.839 253.46 161.079 252.972C161.319 252.476 161.663 252.1 162.111 251.844C162.559 251.58 163.091 251.448 163.707 251.448C164.291 251.448 164.803 251.58 165.243 251.844C165.691 252.1 166.039 252.476 166.287 252.972C166.543 253.46 166.671 254.06 166.671 254.772ZM161.811 254.772C161.811 255.276 161.875 255.716 162.003 256.092C162.139 256.46 162.347 256.744 162.627 256.944C162.907 257.144 163.263 257.244 163.695 257.244C164.127 257.244 164.483 257.144 164.763 256.944C165.043 256.744 165.247 256.46 165.375 256.092C165.511 255.716 165.579 255.276 165.579 254.772C165.579 254.26 165.511 253.824 165.375 253.464C165.239 253.104 165.031 252.828 164.751 252.636C164.479 252.436 164.123 252.336 163.683 252.336C163.027 252.336 162.551 252.552 162.255 252.984C161.959 253.416 161.811 254.012 161.811 254.772ZM171.44 251.448C172.208 251.448 172.788 251.636 173.18 252.012C173.572 252.38 173.768 252.98 173.768 253.812V258H172.724V253.884C172.724 253.364 172.608 252.976 172.376 252.72C172.144 252.464 171.78 252.336 171.284 252.336C170.572 252.336 170.08 252.536 169.808 252.936C169.536 253.336 169.4 253.912 169.4 254.664V258H168.344V251.568H169.196L169.352 252.444H169.412C169.556 252.22 169.732 252.036 169.94 251.892C170.156 251.74 170.392 251.628 170.648 251.556C170.904 251.484 171.168 251.448 171.44 251.448ZM179.935 258H178.879V248.88H179.935V258ZM184.409 251.46C185.193 251.46 185.773 251.632 186.149 251.976C186.525 252.32 186.713 252.868 186.713 253.62V258H185.945L185.741 257.088H185.693C185.509 257.32 185.317 257.516 185.117 257.676C184.925 257.828 184.701 257.94 184.445 258.012C184.197 258.084 183.893 258.12 183.533 258.12C183.149 258.12 182.801 258.052 182.489 257.916C182.185 257.78 181.945 257.572 181.769 257.292C181.593 257.004 181.505 256.644 181.505 256.212C181.505 255.572 181.757 255.08 182.261 254.736C182.765 254.384 183.541 254.192 184.589 254.16L185.681 254.124V253.74C185.681 253.204 185.565 252.832 185.333 252.624C185.101 252.416 184.773 252.312 184.349 252.312C184.013 252.312 183.693 252.364 183.389 252.468C183.085 252.564 182.801 252.676 182.537 252.804L182.213 252.012C182.493 251.86 182.825 251.732 183.209 251.628C183.593 251.516 183.993 251.46 184.409 251.46ZM184.721 254.892C183.921 254.924 183.365 255.052 183.053 255.276C182.749 255.5 182.597 255.816 182.597 256.224C182.597 256.584 182.705 256.848 182.921 257.016C183.145 257.184 183.429 257.268 183.773 257.268C184.317 257.268 184.769 257.12 185.129 256.824C185.489 256.52 185.669 256.056 185.669 255.432V254.856L184.721 254.892ZM189.756 251.1C189.756 251.372 189.748 251.628 189.732 251.868C189.724 252.1 189.712 252.284 189.696 252.42H189.756C189.94 252.148 190.192 251.92 190.512 251.736C190.832 251.552 191.244 251.46 191.748 251.46C192.548 251.46 193.188 251.74 193.668 252.3C194.156 252.852 194.4 253.68 194.4 254.784C194.4 255.52 194.288 256.136 194.064 256.632C193.848 257.128 193.54 257.5 193.14 257.748C192.74 257.996 192.276 258.12 191.748 258.12C191.244 258.12 190.832 258.028 190.512 257.844C190.192 257.66 189.94 257.44 189.756 257.184H189.672L189.456 258H188.7V248.88H189.756V251.1ZM191.568 252.336C191.112 252.336 190.752 252.424 190.488 252.6C190.224 252.768 190.036 253.032 189.924 253.392C189.812 253.744 189.756 254.196 189.756 254.748V254.796C189.756 255.588 189.884 256.196 190.14 256.62C190.404 257.036 190.888 257.244 191.592 257.244C192.168 257.244 192.596 257.032 192.876 256.608C193.164 256.184 193.308 255.572 193.308 254.772C193.308 253.964 193.164 253.356 192.876 252.948C192.596 252.54 192.16 252.336 191.568 252.336ZM198.567 251.448C199.119 251.448 199.591 251.568 199.983 251.808C200.383 252.048 200.687 252.388 200.895 252.828C201.111 253.26 201.219 253.768 201.219 254.352V254.988H196.815C196.831 255.716 197.015 256.272 197.367 256.656C197.727 257.032 198.227 257.22 198.867 257.22C199.275 257.22 199.635 257.184 199.947 257.112C200.267 257.032 200.595 256.92 200.931 256.776V257.7C200.603 257.844 200.279 257.948 199.959 258.012C199.639 258.084 199.259 258.12 198.819 258.12C198.211 258.12 197.671 257.996 197.199 257.748C196.735 257.5 196.371 257.132 196.107 256.644C195.851 256.148 195.723 255.544 195.723 254.832C195.723 254.128 195.839 253.524 196.071 253.02C196.311 252.516 196.643 252.128 197.067 251.856C197.499 251.584 197.999 251.448 198.567 251.448ZM198.555 252.312C198.051 252.312 197.651 252.476 197.355 252.804C197.067 253.124 196.895 253.572 196.839 254.148H200.115C200.115 253.78 200.059 253.46 199.947 253.188C199.835 252.916 199.663 252.704 199.431 252.552C199.207 252.392 198.915 252.312 198.555 252.312ZM203.912 258H202.856V248.88H203.912V258ZM205.602 253.008V252.156H211.098V253.008H205.602ZM205.602 255.396V254.544H211.098V255.396H205.602ZM213.717 249.432L213.477 252.528H212.817L212.577 249.432H213.717ZM215.913 249.432L215.673 252.528H215.013L214.773 249.432H215.913ZM220.871 259.896C220.383 259.888 219.959 259.816 219.599 259.68C219.247 259.544 218.975 259.332 218.783 259.044C218.591 258.764 218.495 258.412 218.495 257.988V256.224C218.495 255.952 218.439 255.736 218.327 255.576C218.215 255.408 218.051 255.288 217.835 255.216C217.619 255.136 217.351 255.096 217.031 255.096V254.22C217.351 254.212 217.619 254.172 217.835 254.1C218.051 254.028 218.215 253.912 218.327 253.752C218.439 253.584 218.495 253.368 218.495 253.104V251.328C218.495 251.008 218.551 250.732 218.663 250.5C218.783 250.26 218.947 250.064 219.155 249.912C219.371 249.752 219.623 249.632 219.911 249.552C220.199 249.472 220.519 249.432 220.871 249.432V250.296C220.599 250.304 220.363 250.348 220.163 250.428C219.963 250.508 219.807 250.628 219.695 250.788C219.591 250.948 219.539 251.16 219.539 251.424V253.152C219.539 253.56 219.431 253.888 219.215 254.136C218.999 254.376 218.671 254.536 218.231 254.616V254.688C218.679 254.768 219.007 254.932 219.215 255.18C219.431 255.42 219.539 255.744 219.539 256.152V257.916C219.539 258.172 219.591 258.38 219.695 258.54C219.799 258.708 219.951 258.828 220.151 258.9C220.351 258.98 220.591 259.024 220.871 259.032V259.896ZM224.422 257.256C224.582 257.256 224.746 257.244 224.914 257.22C225.082 257.188 225.218 257.156 225.322 257.124V257.928C225.21 257.984 225.05 258.028 224.842 258.06C224.634 258.1 224.434 258.12 224.242 258.12C223.906 258.12 223.594 258.064 223.306 257.952C223.026 257.832 222.798 257.628 222.622 257.34C222.446 257.052 222.358 256.648 222.358 256.128V252.384H221.446V251.88L222.37 251.46L222.79 250.092H223.414V251.568H225.274V252.384H223.414V256.104C223.414 256.496 223.506 256.788 223.69 256.98C223.882 257.164 224.126 257.256 224.422 257.256ZM232.202 254.772C232.202 255.308 232.13 255.784 231.986 256.2C231.85 256.608 231.65 256.956 231.386 257.244C231.13 257.532 230.814 257.752 230.438 257.904C230.07 258.048 229.658 258.12 229.202 258.12C228.778 258.12 228.386 258.048 228.026 257.904C227.666 257.752 227.354 257.532 227.09 257.244C226.826 256.956 226.618 256.608 226.466 256.2C226.322 255.784 226.25 255.308 226.25 254.772C226.25 254.06 226.37 253.46 226.61 252.972C226.85 252.476 227.194 252.1 227.642 251.844C228.09 251.58 228.622 251.448 229.238 251.448C229.822 251.448 230.334 251.58 230.774 251.844C231.222 252.1 231.57 252.476 231.818 252.972C232.074 253.46 232.202 254.06 232.202 254.772ZM227.342 254.772C227.342 255.276 227.406 255.716 227.534 256.092C227.67 256.46 227.878 256.744 228.158 256.944C228.438 257.144 228.794 257.244 229.226 257.244C229.658 257.244 230.014 257.144 230.294 256.944C230.574 256.744 230.778 256.46 230.906 256.092C231.042 255.716 231.11 255.276 231.11 254.772C231.11 254.26 231.042 253.824 230.906 253.464C230.77 253.104 230.562 252.828 230.282 252.636C230.01 252.436 229.654 252.336 229.214 252.336C228.558 252.336 228.082 252.552 227.786 252.984C227.49 253.416 227.342 254.012 227.342 254.772ZM238.049 251.1C238.049 251.372 238.041 251.628 238.025 251.868C238.017 252.1 238.005 252.284 237.989 252.42H238.049C238.233 252.148 238.485 251.92 238.805 251.736C239.125 251.552 239.537 251.46 240.041 251.46C240.841 251.46 241.481 251.74 241.961 252.3C242.449 252.852 242.693 253.68 242.693 254.784C242.693 255.52 242.581 256.136 242.357 256.632C242.141 257.128 241.833 257.5 241.433 257.748C241.033 257.996 240.569 258.12 240.041 258.12C239.537 258.12 239.125 258.028 238.805 257.844C238.485 257.66 238.233 257.44 238.049 257.184H237.965L237.749 258H236.993V248.88H238.049V251.1ZM239.861 252.336C239.405 252.336 239.045 252.424 238.781 252.6C238.517 252.768 238.329 253.032 238.217 253.392C238.105 253.744 238.049 254.196 238.049 254.748V254.796C238.049 255.588 238.177 256.196 238.433 256.62C238.697 257.036 239.181 257.244 239.885 257.244C240.461 257.244 240.889 257.032 241.169 256.608C241.457 256.184 241.601 255.572 241.601 254.772C241.601 253.964 241.457 253.356 241.169 252.948C240.889 252.54 240.453 252.336 239.861 252.336ZM246.859 251.448C247.411 251.448 247.883 251.568 248.275 251.808C248.675 252.048 248.979 252.388 249.187 252.828C249.403 253.26 249.511 253.768 249.511 254.352V254.988H245.107C245.123 255.716 245.307 256.272 245.659 256.656C246.019 257.032 246.519 257.22 247.159 257.22C247.567 257.22 247.927 257.184 248.239 257.112C248.559 257.032 248.887 256.92 249.223 256.776V257.7C248.895 257.844 248.571 257.948 248.251 258.012C247.931 258.084 247.551 258.12 247.111 258.12C246.503 258.12 245.963 257.996 245.491 257.748C245.027 257.5 244.663 257.132 244.399 256.644C244.143 256.148 244.015 255.544 244.015 254.832C244.015 254.128 244.131 253.524 244.363 253.02C244.603 252.516 244.935 252.128 245.359 251.856C245.791 251.584 246.291 251.448 246.859 251.448ZM246.847 252.312C246.343 252.312 245.943 252.476 245.647 252.804C245.359 253.124 245.187 253.572 245.131 254.148H248.407C248.407 253.78 248.351 253.46 248.239 253.188C248.127 252.916 247.955 252.704 247.723 252.552C247.499 252.392 247.207 252.312 246.847 252.312ZM258.454 256.224C258.454 256.64 258.35 256.988 258.142 257.268C257.934 257.548 257.638 257.76 257.254 257.904C256.87 258.048 256.414 258.12 255.886 258.12C255.438 258.12 255.05 258.084 254.722 258.012C254.402 257.94 254.118 257.84 253.87 257.712V256.752C254.126 256.88 254.434 257 254.794 257.112C255.162 257.216 255.534 257.268 255.91 257.268C256.446 257.268 256.834 257.184 257.074 257.016C257.314 256.84 257.434 256.608 257.434 256.32C257.434 256.16 257.39 256.016 257.302 255.888C257.214 255.76 257.054 255.632 256.822 255.504C256.598 255.376 256.274 255.232 255.85 255.072C255.434 254.912 255.078 254.752 254.782 254.592C254.486 254.432 254.258 254.24 254.098 254.016C253.938 253.792 253.858 253.504 253.858 253.152C253.858 252.608 254.078 252.188 254.518 251.892C254.966 251.596 255.55 251.448 256.27 251.448C256.662 251.448 257.026 251.488 257.362 251.568C257.706 251.64 258.026 251.744 258.322 251.88L257.962 252.72C257.786 252.64 257.598 252.572 257.398 252.516C257.206 252.452 257.01 252.404 256.81 252.372C256.61 252.332 256.406 252.312 256.198 252.312C255.766 252.312 255.434 252.384 255.202 252.528C254.978 252.664 254.866 252.852 254.866 253.092C254.866 253.268 254.918 253.42 255.022 253.548C255.126 253.668 255.298 253.788 255.538 253.908C255.786 254.02 256.114 254.156 256.522 254.316C256.93 254.468 257.278 254.624 257.566 254.784C257.854 254.944 258.074 255.14 258.226 255.372C258.378 255.596 258.454 255.88 258.454 256.224ZM263.068 251.448C263.86 251.448 264.496 251.724 264.976 252.276C265.464 252.828 265.708 253.66 265.708 254.772C265.708 255.5 265.596 256.116 265.372 256.62C265.156 257.116 264.848 257.492 264.448 257.748C264.056 257.996 263.592 258.12 263.056 258.12C262.728 258.12 262.436 258.076 262.18 257.988C261.924 257.9 261.704 257.788 261.52 257.652C261.344 257.508 261.192 257.352 261.064 257.184H260.992C261.008 257.32 261.024 257.492 261.04 257.7C261.056 257.908 261.064 258.088 261.064 258.24V260.88H260.008V251.568H260.872L261.016 252.444H261.064C261.192 252.26 261.344 252.092 261.52 251.94C261.704 251.788 261.92 251.668 262.168 251.58C262.424 251.492 262.724 251.448 263.068 251.448ZM262.876 252.336C262.444 252.336 262.096 252.42 261.832 252.588C261.568 252.748 261.376 252.992 261.256 253.32C261.136 253.648 261.072 254.064 261.064 254.568V254.772C261.064 255.3 261.12 255.748 261.232 256.116C261.344 256.484 261.532 256.764 261.796 256.956C262.068 257.148 262.436 257.244 262.9 257.244C263.292 257.244 263.612 257.136 263.86 256.92C264.116 256.704 264.304 256.412 264.424 256.044C264.552 255.668 264.616 255.24 264.616 254.76C264.616 254.024 264.472 253.436 264.184 252.996C263.904 252.556 263.468 252.336 262.876 252.336ZM269.875 251.448C270.427 251.448 270.899 251.568 271.291 251.808C271.691 252.048 271.995 252.388 272.203 252.828C272.419 253.26 272.527 253.768 272.527 254.352V254.988H268.123C268.139 255.716 268.323 256.272 268.675 256.656C269.035 257.032 269.535 257.22 270.175 257.22C270.583 257.22 270.943 257.184 271.255 257.112C271.575 257.032 271.903 256.92 272.239 256.776V257.7C271.911 257.844 271.587 257.948 271.267 258.012C270.947 258.084 270.567 258.12 270.127 258.12C269.519 258.12 268.979 257.996 268.507 257.748C268.043 257.5 267.679 257.132 267.415 256.644C267.159 256.148 267.031 255.544 267.031 254.832C267.031 254.128 267.147 253.524 267.379 253.02C267.619 252.516 267.951 252.128 268.375 251.856C268.807 251.584 269.307 251.448 269.875 251.448ZM269.863 252.312C269.359 252.312 268.959 252.476 268.663 252.804C268.375 253.124 268.203 253.572 268.147 254.148H271.423C271.423 253.78 271.367 253.46 271.255 253.188C271.143 252.916 270.971 252.704 270.739 252.552C270.515 252.392 270.223 252.312 269.863 252.312ZM276.745 258.12C276.177 258.12 275.669 258.004 275.221 257.772C274.781 257.54 274.433 257.18 274.177 256.692C273.929 256.204 273.805 255.58 273.805 254.82C273.805 254.028 273.937 253.384 274.201 252.888C274.465 252.392 274.821 252.028 275.269 251.796C275.725 251.564 276.241 251.448 276.817 251.448C277.145 251.448 277.461 251.484 277.765 251.556C278.069 251.62 278.317 251.7 278.509 251.796L278.185 252.672C277.993 252.6 277.769 252.532 277.513 252.468C277.257 252.404 277.017 252.372 276.793 252.372C276.361 252.372 276.005 252.464 275.725 252.648C275.445 252.832 275.237 253.104 275.101 253.464C274.965 253.824 274.897 254.272 274.897 254.808C274.897 255.32 274.965 255.756 275.101 256.116C275.237 256.476 275.441 256.748 275.713 256.932C275.985 257.116 276.325 257.208 276.733 257.208C277.085 257.208 277.393 257.172 277.657 257.1C277.929 257.028 278.177 256.94 278.401 256.836V257.772C278.185 257.884 277.945 257.968 277.681 258.024C277.425 258.088 277.113 258.12 276.745 258.12ZM280.986 251.568V258H279.93V251.568H280.986ZM280.47 249.156C280.63 249.156 280.77 249.212 280.89 249.324C281.018 249.428 281.082 249.596 281.082 249.828C281.082 250.052 281.018 250.22 280.89 250.332C280.77 250.444 280.63 250.5 280.47 250.5C280.294 250.5 280.146 250.444 280.026 250.332C279.906 250.22 279.846 250.052 279.846 249.828C279.846 249.596 279.906 249.428 280.026 249.324C280.146 249.212 280.294 249.156 280.47 249.156ZM285.988 252.384H284.368V258H283.312V252.384H282.184V251.892L283.312 251.532V251.16C283.312 250.608 283.392 250.16 283.552 249.816C283.72 249.472 283.96 249.22 284.272 249.06C284.584 248.9 284.96 248.82 285.4 248.82C285.656 248.82 285.888 248.844 286.096 248.892C286.312 248.932 286.496 248.98 286.648 249.036L286.372 249.864C286.244 249.824 286.096 249.784 285.928 249.744C285.76 249.704 285.588 249.684 285.412 249.684C285.06 249.684 284.796 249.804 284.62 250.044C284.452 250.276 284.368 250.644 284.368 251.148V251.568H285.988V252.384ZM288.205 251.568V258H287.149V251.568H288.205ZM287.689 249.156C287.849 249.156 287.989 249.212 288.109 249.324C288.237 249.428 288.301 249.596 288.301 249.828C288.301 250.052 288.237 250.22 288.109 250.332C287.989 250.444 287.849 250.5 287.689 250.5C287.513 250.5 287.365 250.444 287.245 250.332C287.125 250.22 287.065 250.052 287.065 249.828C287.065 249.596 287.125 249.428 287.245 249.324C287.365 249.212 287.513 249.156 287.689 249.156ZM292.727 251.448C293.279 251.448 293.751 251.568 294.143 251.808C294.543 252.048 294.847 252.388 295.055 252.828C295.271 253.26 295.379 253.768 295.379 254.352V254.988H290.975C290.991 255.716 291.175 256.272 291.527 256.656C291.887 257.032 292.387 257.22 293.027 257.22C293.435 257.22 293.795 257.184 294.107 257.112C294.427 257.032 294.755 256.92 295.091 256.776V257.7C294.763 257.844 294.439 257.948 294.119 258.012C293.799 258.084 293.419 258.12 292.979 258.12C292.371 258.12 291.831 257.996 291.359 257.748C290.895 257.5 290.531 257.132 290.267 256.644C290.011 256.148 289.883 255.544 289.883 254.832C289.883 254.128 289.999 253.524 290.231 253.02C290.471 252.516 290.803 252.128 291.227 251.856C291.659 251.584 292.159 251.448 292.727 251.448ZM292.715 252.312C292.211 252.312 291.811 252.476 291.515 252.804C291.227 253.124 291.055 253.572 290.999 254.148H294.275C294.275 253.78 294.219 253.46 294.107 253.188C293.995 252.916 293.823 252.704 293.591 252.552C293.367 252.392 293.075 252.312 292.715 252.312ZM299.296 258.12C298.496 258.12 297.856 257.844 297.376 257.292C296.896 256.732 296.656 255.9 296.656 254.796C296.656 253.692 296.896 252.86 297.376 252.3C297.864 251.732 298.508 251.448 299.308 251.448C299.644 251.448 299.936 251.492 300.184 251.58C300.432 251.66 300.648 251.772 300.832 251.916C301.016 252.06 301.172 252.22 301.3 252.396H301.372C301.364 252.292 301.348 252.14 301.324 251.94C301.308 251.732 301.3 251.568 301.3 251.448V248.88H302.356V258H301.504L301.348 257.136H301.3C301.172 257.32 301.016 257.488 300.832 257.64C300.648 257.784 300.428 257.9 300.172 257.988C299.924 258.076 299.632 258.12 299.296 258.12ZM299.464 257.244C300.144 257.244 300.62 257.06 300.892 256.692C301.172 256.316 301.312 255.752 301.312 255V254.808C301.312 254.008 301.18 253.396 300.916 252.972C300.652 252.54 300.164 252.324 299.452 252.324C298.884 252.324 298.456 252.552 298.168 253.008C297.888 253.456 297.748 254.06 297.748 254.82C297.748 255.588 297.888 256.184 298.168 256.608C298.456 257.032 298.888 257.244 299.464 257.244ZM303.763 259.032C304.043 259.024 304.279 258.98 304.471 258.9C304.671 258.82 304.823 258.696 304.927 258.528C305.039 258.368 305.095 258.16 305.095 257.904V256.164C305.095 255.756 305.203 255.432 305.419 255.192C305.635 254.944 305.963 254.78 306.403 254.7V254.628C305.963 254.548 305.635 254.388 305.419 254.148C305.203 253.9 305.095 253.572 305.095 253.164V251.412C305.095 251.148 305.043 250.936 304.939 250.776C304.835 250.616 304.683 250.496 304.483 250.416C304.291 250.336 304.051 250.296 303.763 250.296V249.432C304.131 249.432 304.459 249.472 304.747 249.552C305.043 249.632 305.295 249.752 305.503 249.912C305.711 250.064 305.867 250.26 305.971 250.5C306.083 250.74 306.139 251.02 306.139 251.34V253.092C306.139 253.364 306.195 253.584 306.307 253.752C306.419 253.912 306.583 254.032 306.799 254.112C307.023 254.184 307.291 254.22 307.603 254.22V255.096C307.291 255.096 307.023 255.136 306.799 255.216C306.583 255.288 306.419 255.404 306.307 255.564C306.195 255.724 306.139 255.94 306.139 256.212V258C306.139 258.424 306.039 258.776 305.839 259.056C305.639 259.336 305.359 259.544 304.999 259.68C304.647 259.824 304.235 259.896 303.763 259.896V259.032ZM309.858 249.432L309.618 252.528H308.958L308.718 249.432H309.858ZM312.054 249.432L311.814 252.528H311.154L310.914 249.432H312.054ZM200.682 267.448C200.802 267.448 200.93 267.456 201.066 267.472C201.21 267.48 201.334 267.496 201.438 267.52L201.306 268.492C201.202 268.468 201.086 268.448 200.958 268.432C200.838 268.416 200.722 268.408 200.61 268.408C200.362 268.408 200.126 268.46 199.902 268.564C199.678 268.668 199.478 268.816 199.302 269.008C199.126 269.192 198.986 269.416 198.882 269.68C198.786 269.944 198.738 270.24 198.738 270.568V274H197.682V267.568H198.546L198.666 268.744H198.714C198.85 268.504 199.014 268.288 199.206 268.096C199.398 267.896 199.618 267.74 199.866 267.628C200.114 267.508 200.386 267.448 200.682 267.448ZM207.997 270.772C207.997 271.308 207.925 271.784 207.781 272.2C207.645 272.608 207.445 272.956 207.181 273.244C206.925 273.532 206.609 273.752 206.233 273.904C205.865 274.048 205.453 274.12 204.997 274.12C204.573 274.12 204.181 274.048 203.821 273.904C203.461 273.752 203.149 273.532 202.885 273.244C202.621 272.956 202.413 272.608 202.261 272.2C202.117 271.784 202.045 271.308 202.045 270.772C202.045 270.06 202.165 269.46 202.405 268.972C202.645 268.476 202.989 268.1 203.437 267.844C203.885 267.58 204.417 267.448 205.033 267.448C205.617 267.448 206.129 267.58 206.569 267.844C207.017 268.1 207.365 268.476 207.613 268.972C207.869 269.46 207.997 270.06 207.997 270.772ZM203.137 270.772C203.137 271.276 203.201 271.716 203.329 272.092C203.465 272.46 203.673 272.744 203.953 272.944C204.233 273.144 204.589 273.244 205.021 273.244C205.453 273.244 205.809 273.144 206.089 272.944C206.369 272.744 206.573 272.46 206.701 272.092C206.837 271.716 206.905 271.276 206.905 270.772C206.905 270.26 206.837 269.824 206.701 269.464C206.565 269.104 206.357 268.828 206.077 268.636C205.805 268.436 205.449 268.336 205.009 268.336C204.353 268.336 203.877 268.552 203.581 268.984C203.285 269.416 203.137 270.012 203.137 270.772ZM210.726 274H209.67V264.88H210.726V274ZM215.248 267.448C215.8 267.448 216.272 267.568 216.664 267.808C217.064 268.048 217.368 268.388 217.576 268.828C217.792 269.26 217.9 269.768 217.9 270.352V270.988H213.496C213.512 271.716 213.696 272.272 214.048 272.656C214.408 273.032 214.908 273.22 215.548 273.22C215.956 273.22 216.316 273.184 216.628 273.112C216.948 273.032 217.276 272.92 217.612 272.776V273.7C217.284 273.844 216.96 273.948 216.64 274.012C216.32 274.084 215.94 274.12 215.5 274.12C214.892 274.12 214.352 273.996 213.88 273.748C213.416 273.5 213.052 273.132 212.788 272.644C212.532 272.148 212.404 271.544 212.404 270.832C212.404 270.128 212.52 269.524 212.752 269.02C212.992 268.516 213.324 268.128 213.748 267.856C214.18 267.584 214.68 267.448 215.248 267.448ZM215.236 268.312C214.732 268.312 214.332 268.476 214.036 268.804C213.748 269.124 213.576 269.572 213.52 270.148H216.796C216.796 269.78 216.74 269.46 216.628 269.188C216.516 268.916 216.344 268.704 216.112 268.552C215.888 268.392 215.596 268.312 215.236 268.312ZM219.19 269.008V268.156H224.686V269.008H219.19ZM219.19 271.396V270.544H224.686V271.396H219.19ZM229.549 265.564C229.477 265.844 229.385 266.148 229.273 266.476C229.161 266.804 229.037 267.132 228.901 267.46C228.773 267.78 228.645 268.084 228.517 268.372H227.725C227.805 268.068 227.881 267.744 227.953 267.4C228.033 267.048 228.105 266.704 228.169 266.368C228.241 266.024 228.297 265.712 228.337 265.432H229.465L229.549 265.564ZM227.329 265.564C227.257 265.844 227.165 266.148 227.053 266.476C226.941 266.804 226.817 267.132 226.681 267.46C226.553 267.78 226.425 268.084 226.297 268.372H225.529C225.585 268.148 225.641 267.908 225.697 267.652C225.753 267.396 225.805 267.14 225.853 266.884C225.909 266.62 225.957 266.364 225.997 266.116C226.045 265.868 226.085 265.64 226.117 265.432H227.245L227.329 265.564ZM232.865 273.256C233.025 273.256 233.189 273.244 233.357 273.22C233.525 273.188 233.661 273.156 233.765 273.124V273.928C233.653 273.984 233.493 274.028 233.285 274.06C233.077 274.1 232.877 274.12 232.685 274.12C232.349 274.12 232.037 274.064 231.749 273.952C231.469 273.832 231.241 273.628 231.065 273.34C230.889 273.052 230.801 272.648 230.801 272.128V268.384H229.889V267.88L230.813 267.46L231.233 266.092H231.857V267.568H233.717V268.384H231.857V272.104C231.857 272.496 231.949 272.788 232.133 272.98C232.325 273.164 232.569 273.256 232.865 273.256ZM237.489 267.46C238.273 267.46 238.853 267.632 239.229 267.976C239.605 268.32 239.793 268.868 239.793 269.62V274H239.025L238.821 273.088H238.773C238.589 273.32 238.397 273.516 238.197 273.676C238.005 273.828 237.781 273.94 237.525 274.012C237.277 274.084 236.973 274.12 236.613 274.12C236.229 274.12 235.881 274.052 235.569 273.916C235.265 273.78 235.025 273.572 234.849 273.292C234.673 273.004 234.585 272.644 234.585 272.212C234.585 271.572 234.837 271.08 235.341 270.736C235.845 270.384 236.621 270.192 237.669 270.16L238.761 270.124V269.74C238.761 269.204 238.645 268.832 238.413 268.624C238.181 268.416 237.853 268.312 237.429 268.312C237.093 268.312 236.773 268.364 236.469 268.468C236.165 268.564 235.881 268.676 235.617 268.804L235.293 268.012C235.573 267.86 235.905 267.732 236.289 267.628C236.673 267.516 237.073 267.46 237.489 267.46ZM237.801 270.892C237.001 270.924 236.445 271.052 236.133 271.276C235.829 271.5 235.677 271.816 235.677 272.224C235.677 272.584 235.785 272.848 236.001 273.016C236.225 273.184 236.509 273.268 236.853 273.268C237.397 273.268 237.849 273.12 238.209 272.824C238.569 272.52 238.749 272.056 238.749 271.432V270.856L237.801 270.892ZM242.836 267.1C242.836 267.372 242.828 267.628 242.812 267.868C242.804 268.1 242.792 268.284 242.776 268.42H242.836C243.02 268.148 243.272 267.92 243.592 267.736C243.912 267.552 244.324 267.46 244.828 267.46C245.628 267.46 246.268 267.74 246.748 268.3C247.236 268.852 247.48 269.68 247.48 270.784C247.48 271.52 247.368 272.136 247.144 272.632C246.928 273.128 246.62 273.5 246.22 273.748C245.82 273.996 245.356 274.12 244.828 274.12C244.324 274.12 243.912 274.028 243.592 273.844C243.272 273.66 243.02 273.44 242.836 273.184H242.752L242.536 274H241.78V264.88H242.836V267.1ZM244.648 268.336C244.192 268.336 243.832 268.424 243.568 268.6C243.304 268.768 243.116 269.032 243.004 269.392C242.892 269.744 242.836 270.196 242.836 270.748V270.796C242.836 271.588 242.964 272.196 243.22 272.62C243.484 273.036 243.968 273.244 244.672 273.244C245.248 273.244 245.676 273.032 245.956 272.608C246.244 272.184 246.388 271.572 246.388 270.772C246.388 269.964 246.244 269.356 245.956 268.948C245.676 268.54 245.24 268.336 244.648 268.336ZM252.189 265.564C252.117 265.844 252.025 266.148 251.913 266.476C251.801 266.804 251.677 267.132 251.541 267.46C251.413 267.78 251.285 268.084 251.157 268.372H250.365C250.445 268.068 250.521 267.744 250.593 267.4C250.673 267.048 250.745 266.704 250.809 266.368C250.881 266.024 250.937 265.712 250.977 265.432H252.105L252.189 265.564ZM249.969 265.564C249.897 265.844 249.805 266.148 249.693 266.476C249.581 266.804 249.457 267.132 249.321 267.46C249.193 267.78 249.065 268.084 248.937 268.372H248.169C248.225 268.148 248.281 267.908 248.337 267.652C248.393 267.396 248.445 267.14 248.493 266.884C248.549 266.62 248.597 266.364 248.637 266.116C248.685 265.868 248.725 265.64 248.757 265.432H249.885L249.969 265.564Z" fill="white"/>
</g>
<g clip-path="url(#clip6_4403_55377)">
<rect width="48" height="32" transform="translate(200 136)" fill="#767676"/>
<path d="M214.661 157L213.629 154.348H210.233L209.213 157H208.121L211.469 148.396H212.441L215.777 157H214.661ZM212.345 150.796C212.321 150.732 212.281 150.616 212.225 150.448C212.169 150.28 212.113 150.108 212.057 149.932C212.009 149.748 211.969 149.608 211.937 149.512C211.897 149.672 211.853 149.836 211.805 150.004C211.765 150.164 211.721 150.312 211.673 150.448C211.633 150.584 211.597 150.7 211.565 150.796L210.593 153.388H213.305L212.345 150.796ZM217.861 157H216.805V147.88H217.861V157ZM222.047 156.256C222.207 156.256 222.371 156.244 222.539 156.22C222.707 156.188 222.843 156.156 222.947 156.124V156.928C222.835 156.984 222.675 157.028 222.467 157.06C222.259 157.1 222.059 157.12 221.867 157.12C221.531 157.12 221.219 157.064 220.931 156.952C220.651 156.832 220.423 156.628 220.247 156.34C220.071 156.052 219.983 155.648 219.983 155.128V151.384H219.071V150.88L219.995 150.46L220.415 149.092H221.039V150.568H222.899V151.384H221.039V155.104C221.039 155.496 221.131 155.788 221.315 155.98C221.507 156.164 221.751 156.256 222.047 156.256ZM223.887 152.008V151.156H229.383V152.008H223.887ZM223.887 154.396V153.544H229.383V154.396H223.887ZM232.002 148.432L231.762 151.528H231.102L230.862 148.432H232.002ZM234.198 148.432L233.958 151.528H233.298L233.058 148.432H234.198ZM236.9 148.432L236.66 151.528H236L235.76 148.432H236.9ZM239.096 148.432L238.856 151.528H238.196L237.956 148.432H239.096Z" fill="white"/>
<path d="M240 168L224 184L208 168L240 168Z" fill="#767676"/>
</g>
<g clip-path="url(#clip7_4403_55377)">
<g clip-path="url(#clip8_4403_55377)">
<g clip-path="url(#clip9_4403_55377)">
<g clip-path="url(#clip10_4403_55377)">
<path d="M414 93.9451L421.945 86L429.89 93.9451L421.945 101.89L414 93.9451Z" stroke="#6B6B6B"/>
<path d="M438.568 89.392V87.3636H448.125V89.392H444.562V99H442.131V89.392H438.568ZM450.955 99.1648C450.398 99.1648 449.902 99.0682 449.466 98.875C449.03 98.678 448.686 98.3883 448.432 98.0057C448.182 97.6193 448.057 97.1383 448.057 96.5625C448.057 96.0777 448.146 95.6705 448.324 95.3409C448.502 95.0114 448.744 94.7462 449.051 94.5455C449.358 94.3447 449.706 94.1932 450.097 94.0909C450.491 93.9886 450.903 93.9167 451.335 93.875C451.843 93.822 452.252 93.7727 452.562 93.7273C452.873 93.678 453.098 93.6061 453.239 93.5114C453.379 93.4167 453.449 93.2765 453.449 93.0909V93.0568C453.449 92.697 453.335 92.4186 453.108 92.2216C452.884 92.0246 452.566 91.9261 452.153 91.9261C451.718 91.9261 451.371 92.0227 451.114 92.2159C450.856 92.4053 450.686 92.6439 450.602 92.9318L448.364 92.75C448.477 92.2197 448.701 91.7614 449.034 91.375C449.367 90.9848 449.797 90.6856 450.324 90.4773C450.854 90.2652 451.468 90.1591 452.165 90.1591C452.65 90.1591 453.114 90.2159 453.557 90.3295C454.004 90.4432 454.4 90.6193 454.744 90.858C455.093 91.0966 455.367 91.4034 455.568 91.7784C455.769 92.1496 455.869 92.5947 455.869 93.1136V99H453.574V97.7898H453.506C453.366 98.0625 453.178 98.303 452.943 98.5114C452.708 98.7159 452.426 98.8769 452.097 98.9943C451.767 99.108 451.386 99.1648 450.955 99.1648ZM451.648 97.4943C452.004 97.4943 452.318 97.4242 452.591 97.2841C452.864 97.1402 453.078 96.947 453.233 96.7045C453.388 96.4621 453.466 96.1875 453.466 95.8807V94.9545C453.39 95.0038 453.286 95.0492 453.153 95.0909C453.025 95.1288 452.879 95.1648 452.716 95.1989C452.553 95.2292 452.39 95.2576 452.227 95.2841C452.064 95.3068 451.917 95.3277 451.784 95.3466C451.5 95.3883 451.252 95.4545 451.04 95.5455C450.828 95.6364 450.663 95.7595 450.545 95.9148C450.428 96.0663 450.369 96.2557 450.369 96.483C450.369 96.8125 450.489 97.0644 450.727 97.2386C450.97 97.4091 451.277 97.4943 451.648 97.4943ZM457.793 99V87.3636H460.213V91.7386H460.287C460.393 91.5038 460.546 91.2652 460.747 91.0227C460.952 90.7765 461.217 90.572 461.543 90.4091C461.872 90.2424 462.281 90.1591 462.77 90.1591C463.406 90.1591 463.993 90.3258 464.531 90.6591C465.069 90.9886 465.499 91.4867 465.821 92.1534C466.143 92.8163 466.304 93.6477 466.304 94.6477C466.304 95.6212 466.147 96.4432 465.832 97.1136C465.522 97.7803 465.098 98.286 464.56 98.6307C464.026 98.9716 463.427 99.142 462.764 99.142C462.295 99.142 461.895 99.0644 461.565 98.9091C461.24 98.7538 460.973 98.5587 460.764 98.3239C460.556 98.0852 460.397 97.8447 460.287 97.6023H460.179V99H457.793ZM460.162 94.6364C460.162 95.1553 460.234 95.608 460.378 95.9943C460.522 96.3807 460.73 96.6818 461.003 96.8977C461.276 97.1098 461.607 97.2159 461.997 97.2159C462.391 97.2159 462.724 97.108 462.997 96.892C463.27 96.6723 463.476 96.3693 463.616 95.983C463.76 95.5928 463.832 95.1439 463.832 94.6364C463.832 94.1326 463.762 93.6894 463.622 93.3068C463.482 92.9242 463.276 92.625 463.003 92.4091C462.73 92.1932 462.395 92.0852 461.997 92.0852C461.603 92.0852 461.27 92.1894 460.997 92.3977C460.728 92.6061 460.522 92.9015 460.378 93.2841C460.234 93.6667 460.162 94.1174 460.162 94.6364ZM467.964 99V87.3636H472.624C473.48 87.3636 474.194 87.4905 474.766 87.7443C475.338 87.9981 475.768 88.3504 476.055 88.8011C476.343 89.2481 476.487 89.7633 476.487 90.3466C476.487 90.8011 476.396 91.2008 476.214 91.5455C476.033 91.8864 475.783 92.1667 475.464 92.3864C475.15 92.6023 474.79 92.7557 474.385 92.8466V92.9602C474.828 92.9792 475.243 93.1042 475.629 93.3352C476.019 93.5663 476.336 93.8902 476.578 94.3068C476.821 94.7197 476.942 95.2121 476.942 95.7841C476.942 96.4015 476.788 96.9527 476.482 97.4375C476.179 97.9186 475.73 98.2992 475.135 98.5795C474.54 98.8598 473.807 99 472.936 99H467.964ZM470.425 96.9886H472.43C473.116 96.9886 473.616 96.858 473.93 96.5966C474.245 96.3314 474.402 95.9792 474.402 95.5398C474.402 95.2178 474.324 94.9337 474.169 94.6875C474.014 94.4413 473.792 94.2481 473.504 94.108C473.22 93.9678 472.881 93.8977 472.487 93.8977H470.425V96.9886ZM470.425 92.233H472.249C472.586 92.233 472.885 92.1742 473.146 92.0568C473.411 91.9356 473.62 91.7652 473.771 91.5455C473.927 91.3258 474.004 91.0625 474.004 90.7557C474.004 90.3352 473.855 89.9962 473.555 89.7386C473.26 89.4811 472.839 89.3523 472.294 89.3523H470.425V92.233ZM484.094 95.2841V90.2727H486.514V99H484.19V97.4148H484.099C483.902 97.9261 483.575 98.3371 483.116 98.6477C482.662 98.9583 482.107 99.1136 481.452 99.1136C480.868 99.1136 480.355 98.9811 479.912 98.7159C479.469 98.4508 479.122 98.0739 478.872 97.5852C478.626 97.0966 478.501 96.5114 478.497 95.8295V90.2727H480.918V95.3977C480.921 95.9129 481.06 96.3201 481.332 96.6193C481.605 96.9186 481.971 97.0682 482.429 97.0682C482.721 97.0682 482.993 97.0019 483.247 96.8693C483.501 96.733 483.705 96.5322 483.861 96.267C484.02 96.0019 484.098 95.6742 484.094 95.2841ZM493.092 90.2727V92.0909H487.837V90.2727H493.092ZM489.03 88.1818H491.45V96.3182C491.45 96.5417 491.484 96.7159 491.553 96.8409C491.621 96.9621 491.715 97.0473 491.837 97.0966C491.962 97.1458 492.106 97.1705 492.268 97.1705C492.382 97.1705 492.496 97.161 492.609 97.142C492.723 97.1193 492.81 97.1023 492.871 97.0909L493.251 98.892C493.13 98.9299 492.96 98.9735 492.74 99.0227C492.52 99.0758 492.253 99.108 491.939 99.1193C491.356 99.142 490.844 99.0644 490.405 98.8864C489.969 98.7083 489.63 98.4318 489.388 98.0568C489.145 97.6818 489.026 97.2083 489.03 96.6364V88.1818ZM499.311 90.2727V92.0909H494.055V90.2727H499.311ZM495.249 88.1818H497.669V96.3182C497.669 96.5417 497.703 96.7159 497.771 96.8409C497.839 96.9621 497.934 97.0473 498.055 97.0966C498.18 97.1458 498.324 97.1705 498.487 97.1705C498.601 97.1705 498.714 97.161 498.828 97.142C498.942 97.1193 499.029 97.1023 499.089 97.0909L499.47 98.892C499.349 98.9299 499.179 98.9735 498.959 99.0227C498.739 99.0758 498.472 99.108 498.158 99.1193C497.574 99.142 497.063 99.0644 496.624 98.8864C496.188 98.7083 495.849 98.4318 495.607 98.0568C495.364 97.6818 495.245 97.2083 495.249 96.6364V88.1818ZM504.737 99.1705C503.855 99.1705 503.091 98.983 502.447 98.608C501.807 98.2292 501.313 97.7027 500.964 97.0284C500.616 96.3504 500.442 95.5644 500.442 94.6705C500.442 93.7689 500.616 92.9811 500.964 92.3068C501.313 91.6288 501.807 91.1023 502.447 90.7273C503.091 90.3485 503.855 90.1591 504.737 90.1591C505.62 90.1591 506.381 90.3485 507.021 90.7273C507.665 91.1023 508.161 91.6288 508.51 92.3068C508.858 92.9811 509.033 93.7689 509.033 94.6705C509.033 95.5644 508.858 96.3504 508.51 97.0284C508.161 97.7027 507.665 98.2292 507.021 98.608C506.381 98.983 505.62 99.1705 504.737 99.1705ZM504.749 97.2955C505.15 97.2955 505.485 97.1818 505.754 96.9545C506.023 96.7235 506.226 96.4091 506.362 96.0114C506.502 95.6136 506.572 95.161 506.572 94.6534C506.572 94.1458 506.502 93.6932 506.362 93.2955C506.226 92.8977 506.023 92.5833 505.754 92.3523C505.485 92.1212 505.15 92.0057 504.749 92.0057C504.343 92.0057 504.002 92.1212 503.726 92.3523C503.453 92.5833 503.247 92.8977 503.107 93.2955C502.97 93.6932 502.902 94.1458 502.902 94.6534C502.902 95.161 502.97 95.6136 503.107 96.0114C503.247 96.4091 503.453 96.7235 503.726 96.9545C504.002 97.1818 504.343 97.2955 504.749 97.2955ZM513.027 93.9545V99H510.607V90.2727H512.913V91.8125H513.016C513.209 91.3049 513.533 90.9034 513.987 90.608C514.442 90.3087 514.993 90.1591 515.641 90.1591C516.247 90.1591 516.775 90.2917 517.226 90.5568C517.677 90.822 518.027 91.2008 518.277 91.6932C518.527 92.1818 518.652 92.7652 518.652 93.4432V99H516.232V93.875C516.235 93.3409 516.099 92.9242 515.822 92.625C515.546 92.322 515.165 92.1705 514.68 92.1705C514.355 92.1705 514.067 92.2405 513.817 92.3807C513.571 92.5208 513.377 92.7254 513.237 92.9943C513.101 93.2595 513.031 93.5795 513.027 93.9545Z" fill="white"/>
</g>
<g clip-path="url(#clip11_4403_55377)">
<g clip-path="url(#clip12_4403_55377)">
<path d="M413.415 124H412.307L415.511 115.273H416.602L419.807 124H418.699L416.091 116.653H416.023L413.415 124ZM413.824 120.591H418.29V121.528H413.824V120.591ZM425.666 118.92L424.763 119.176C424.706 119.026 424.622 118.879 424.511 118.737C424.403 118.592 424.256 118.473 424.068 118.379C423.881 118.286 423.641 118.239 423.348 118.239C422.947 118.239 422.614 118.331 422.347 118.516C422.082 118.697 421.95 118.929 421.95 119.21C421.95 119.46 422.041 119.658 422.223 119.803C422.405 119.947 422.689 120.068 423.075 120.165L424.047 120.403C424.632 120.545 425.068 120.763 425.355 121.055C425.642 121.345 425.786 121.719 425.786 122.176C425.786 122.551 425.678 122.886 425.462 123.182C425.249 123.477 424.95 123.71 424.567 123.881C424.183 124.051 423.737 124.136 423.229 124.136C422.561 124.136 422.009 123.991 421.571 123.702C421.134 123.412 420.857 122.989 420.74 122.432L421.695 122.193C421.786 122.545 421.957 122.81 422.21 122.986C422.466 123.162 422.8 123.25 423.212 123.25C423.68 123.25 424.053 123.151 424.328 122.952C424.607 122.75 424.746 122.509 424.746 122.227C424.746 122 424.666 121.81 424.507 121.656C424.348 121.5 424.104 121.384 423.774 121.307L422.683 121.051C422.084 120.909 421.643 120.689 421.362 120.391C421.084 120.089 420.945 119.713 420.945 119.261C420.945 118.892 421.048 118.565 421.256 118.281C421.466 117.997 421.751 117.774 422.112 117.612C422.476 117.45 422.888 117.369 423.348 117.369C423.996 117.369 424.504 117.511 424.874 117.795C425.246 118.08 425.51 118.455 425.666 118.92ZM431.68 115.273V124H430.674V115.273H431.68ZM435.448 124.153C435.033 124.153 434.657 124.075 434.319 123.919C433.981 123.76 433.712 123.531 433.513 123.233C433.315 122.932 433.215 122.568 433.215 122.142C433.215 121.767 433.289 121.463 433.437 121.23C433.585 120.994 433.782 120.81 434.029 120.676C434.276 120.543 434.549 120.443 434.847 120.378C435.148 120.31 435.451 120.256 435.755 120.216C436.153 120.165 436.475 120.126 436.722 120.101C436.972 120.072 437.154 120.026 437.268 119.96C437.384 119.895 437.442 119.781 437.442 119.619V119.585C437.442 119.165 437.327 118.838 437.097 118.605C436.87 118.372 436.525 118.256 436.062 118.256C435.582 118.256 435.205 118.361 434.933 118.571C434.66 118.781 434.468 119.006 434.357 119.244L433.403 118.903C433.573 118.506 433.8 118.196 434.085 117.974C434.371 117.75 434.684 117.594 435.022 117.506C435.363 117.415 435.698 117.369 436.028 117.369C436.238 117.369 436.479 117.395 436.752 117.446C437.028 117.494 437.293 117.595 437.549 117.749C437.808 117.902 438.022 118.134 438.192 118.443C438.363 118.753 438.448 119.168 438.448 119.688V124H437.442V123.114H437.391C437.323 123.256 437.21 123.408 437.05 123.57C436.891 123.732 436.68 123.869 436.415 123.983C436.151 124.097 435.829 124.153 435.448 124.153ZM435.602 123.25C435.999 123.25 436.335 123.172 436.607 123.016C436.883 122.859 437.09 122.658 437.229 122.411C437.371 122.163 437.442 121.903 437.442 121.631V120.71C437.4 120.761 437.306 120.808 437.161 120.851C437.019 120.891 436.854 120.926 436.667 120.957C436.482 120.986 436.302 121.011 436.126 121.034C435.952 121.054 435.812 121.071 435.704 121.085C435.442 121.119 435.198 121.175 434.971 121.251C434.746 121.325 434.565 121.437 434.425 121.588C434.289 121.736 434.221 121.937 434.221 122.193C434.221 122.543 434.35 122.807 434.609 122.986C434.87 123.162 435.201 123.25 435.602 123.25ZM440.42 124V115.273H441.426V118.494H441.511C441.585 118.381 441.687 118.236 441.818 118.06C441.951 117.881 442.142 117.722 442.389 117.582C442.639 117.44 442.977 117.369 443.403 117.369C443.954 117.369 444.44 117.507 444.86 117.783C445.281 118.058 445.609 118.449 445.845 118.955C446.081 119.46 446.199 120.057 446.199 120.744C446.199 121.438 446.081 122.038 445.845 122.547C445.609 123.053 445.282 123.445 444.865 123.723C444.447 123.999 443.966 124.136 443.42 124.136C443 124.136 442.663 124.067 442.41 123.928C442.157 123.786 441.963 123.625 441.826 123.446C441.69 123.264 441.585 123.114 441.511 122.994H441.392V124H440.42ZM441.409 120.727C441.409 121.222 441.481 121.658 441.626 122.036C441.771 122.411 441.983 122.705 442.261 122.918C442.539 123.128 442.88 123.233 443.284 123.233C443.704 123.233 444.055 123.122 444.336 122.901C444.62 122.676 444.833 122.375 444.975 121.997C445.12 121.616 445.193 121.193 445.193 120.727C445.193 120.267 445.122 119.852 444.98 119.483C444.841 119.111 444.629 118.817 444.345 118.601C444.064 118.382 443.71 118.273 443.284 118.273C442.875 118.273 442.531 118.376 442.252 118.584C441.974 118.788 441.764 119.075 441.622 119.445C441.48 119.811 441.409 120.239 441.409 120.727ZM450.481 124.136C449.85 124.136 449.306 123.997 448.849 123.719C448.395 123.438 448.044 123.045 447.797 122.543C447.552 122.037 447.43 121.449 447.43 120.778C447.43 120.108 447.552 119.517 447.797 119.006C448.044 118.491 448.387 118.091 448.828 117.804C449.271 117.514 449.788 117.369 450.379 117.369C450.72 117.369 451.056 117.426 451.389 117.54C451.721 117.653 452.024 117.838 452.297 118.094C452.569 118.347 452.787 118.682 452.949 119.099C453.11 119.517 453.191 120.031 453.191 120.642V121.068H448.146V120.199H452.169C452.169 119.83 452.095 119.5 451.947 119.21C451.802 118.92 451.595 118.692 451.325 118.524C451.058 118.357 450.743 118.273 450.379 118.273C449.978 118.273 449.632 118.372 449.339 118.571C449.049 118.767 448.826 119.023 448.67 119.338C448.514 119.653 448.436 119.991 448.436 120.352V120.932C448.436 121.426 448.521 121.845 448.691 122.189C448.865 122.53 449.105 122.79 449.412 122.969C449.718 123.145 450.075 123.233 450.481 123.233C450.745 123.233 450.984 123.196 451.197 123.122C451.413 123.045 451.599 122.932 451.755 122.781C451.912 122.628 452.032 122.437 452.118 122.21L453.089 122.483C452.987 122.812 452.815 123.102 452.574 123.352C452.332 123.599 452.034 123.793 451.679 123.932C451.324 124.068 450.924 124.136 450.481 124.136ZM455.727 115.273V124H454.721V115.273H455.727ZM458.575 115.273V124H457.569V115.273H458.575ZM463.161 124.136C462.53 124.136 461.986 123.997 461.529 123.719C461.074 123.438 460.723 123.045 460.476 122.543C460.232 122.037 460.11 121.449 460.11 120.778C460.11 120.108 460.232 119.517 460.476 119.006C460.723 118.491 461.067 118.091 461.507 117.804C461.951 117.514 462.468 117.369 463.059 117.369C463.4 117.369 463.736 117.426 464.069 117.54C464.401 117.653 464.703 117.838 464.976 118.094C465.249 118.347 465.466 118.682 465.628 119.099C465.79 119.517 465.871 120.031 465.871 120.642V121.068H460.826V120.199H464.848C464.848 119.83 464.775 119.5 464.627 119.21C464.482 118.92 464.275 118.692 464.005 118.524C463.738 118.357 463.422 118.273 463.059 118.273C462.658 118.273 462.311 118.372 462.019 118.571C461.729 118.767 461.506 119.023 461.35 119.338C461.194 119.653 461.115 119.991 461.115 120.352V120.932C461.115 121.426 461.201 121.845 461.371 122.189C461.544 122.53 461.784 122.79 462.091 122.969C462.398 123.145 462.755 123.233 463.161 123.233C463.425 123.233 463.664 123.196 463.877 123.122C464.093 123.045 464.279 122.932 464.435 122.781C464.591 122.628 464.712 122.437 464.797 122.21L465.769 122.483C465.667 122.812 465.495 123.102 465.253 123.352C465.012 123.599 464.713 123.793 464.358 123.932C464.003 124.068 463.604 124.136 463.161 124.136ZM469.873 124.136C469.327 124.136 468.846 123.999 468.428 123.723C468.01 123.445 467.684 123.053 467.448 122.547C467.212 122.038 467.094 121.438 467.094 120.744C467.094 120.057 467.212 119.46 467.448 118.955C467.684 118.449 468.012 118.058 468.432 117.783C468.853 117.507 469.338 117.369 469.89 117.369C470.316 117.369 470.652 117.44 470.9 117.582C471.15 117.722 471.34 117.881 471.471 118.06C471.604 118.236 471.708 118.381 471.782 118.494H471.867V115.273H472.873V124H471.901V122.994H471.782C471.708 123.114 471.603 123.264 471.466 123.446C471.33 123.625 471.135 123.786 470.882 123.928C470.63 124.067 470.293 124.136 469.873 124.136ZM470.009 123.233C470.412 123.233 470.753 123.128 471.032 122.918C471.31 122.705 471.522 122.411 471.667 122.036C471.811 121.658 471.884 121.222 471.884 120.727C471.884 120.239 471.813 119.811 471.671 119.445C471.529 119.075 471.319 118.788 471.04 118.584C470.762 118.376 470.418 118.273 470.009 118.273C469.583 118.273 469.228 118.382 468.944 118.601C468.662 118.817 468.451 119.111 468.309 119.483C468.169 119.852 468.1 120.267 468.1 120.727C468.1 121.193 468.171 121.616 468.313 121.997C468.458 122.375 468.671 122.676 468.952 122.901C469.236 123.122 469.588 123.233 470.009 123.233Z" fill="white"/>
</g>
</g>
</g>
</g>
</g>
</g>
</g>
</g>
<defs>
<clipPath id="clip0_4403_55377">
<rect width="520" height="320" fill="white"/>
</clipPath>
<clipPath id="clip1_4403_55377">
<rect width="520" height="236" fill="white" transform="translate(0 84)"/>
</clipPath>
<clipPath id="clip2_4403_55377">
<rect width="520" height="236" fill="white" transform="translate(0 84)"/>
</clipPath>
<clipPath id="clip3_4403_55377">
<rect width="72" height="64" fill="white" transform="translate(39.5 221)"/>
</clipPath>
<clipPath id="clip4_4403_55377">
<rect width="48" height="48" fill="white" transform="translate(27 136)"/>
</clipPath>
<clipPath id="clip5_4403_55377">
<rect width="193" height="64" fill="white" transform="translate(128 221)"/>
</clipPath>
<clipPath id="clip6_4403_55377">
<rect width="48" height="48" fill="white" transform="translate(200 136)"/>
</clipPath>
<clipPath id="clip7_4403_55377">
<rect width="108" height="43" fill="white" transform="translate(412 84)"/>
</clipPath>
<clipPath id="clip8_4403_55377">
<rect width="108" height="43" fill="white" transform="translate(412 84)"/>
</clipPath>
<clipPath id="clip9_4403_55377">
<rect width="108" height="43" fill="white" transform="translate(412 84)"/>
</clipPath>
<clipPath id="clip10_4403_55377">
<rect width="108" height="20" fill="white" transform="translate(412 84)"/>
</clipPath>
<clipPath id="clip11_4403_55377">
<rect width="62" height="15" fill="white" transform="translate(412 112)"/>
</clipPath>
<clipPath id="clip12_4403_55377">
<rect width="62" height="15" fill="white" transform="translate(412 112)"/>
</clipPath>
</defs>
</svg>
