<svg width="508" height="44" viewBox="0 0 508 44" fill="none" xmlns="http://www.w3.org/2000/svg">
<rect x="0.5" y="0.5" width="507" height="43" rx="11.5" fill="white"/>
<rect x="0.5" y="0.5" width="507" height="43" rx="11.5" stroke="#CCD3DA"/>
<path d="M12 4.5H81C85.1421 4.5 88.5 7.85786 88.5 12V32C88.5 36.1421 85.1421 39.5 81 39.5H12C7.85786 39.5 4.5 36.1421 4.5 32V12C4.5 7.85786 7.85786 4.5 12 4.5Z" fill="#FFE12D"/>
<path d="M12 4.5H81C85.1421 4.5 88.5 7.85786 88.5 12V32C88.5 36.1421 85.1421 39.5 81 39.5H12C7.85786 39.5 4.5 36.1421 4.5 32V12C4.5 7.85786 7.85786 4.5 12 4.5Z" stroke="#002147"/>
<path d="M29.5947 27.5V17.5059H31.2354V26.1055H35.4805V27.5H29.5947ZM40.0127 19.7891C40.9697 19.7891 41.6921 20.001 42.1797 20.4248C42.6719 20.8486 42.918 21.5094 42.918 22.4072V27.5H41.7764L41.4688 26.4268H41.4141C41.1999 26.7002 40.9788 26.9258 40.751 27.1035C40.5231 27.2812 40.2588 27.4134 39.958 27.5C39.6618 27.5911 39.2995 27.6367 38.8711 27.6367C38.4199 27.6367 38.0166 27.5547 37.6611 27.3906C37.3057 27.222 37.0254 26.9668 36.8203 26.625C36.6152 26.2832 36.5127 25.8503 36.5127 25.3262C36.5127 24.5469 36.8021 23.9613 37.3809 23.5693C37.9642 23.1774 38.8438 22.9609 40.0195 22.9199L41.332 22.8721V22.4756C41.332 21.9515 41.209 21.5778 40.9629 21.3545C40.7214 21.1312 40.3796 21.0195 39.9375 21.0195C39.5592 21.0195 39.1924 21.0742 38.8369 21.1836C38.4814 21.293 38.1351 21.4274 37.7979 21.5869L37.2783 20.4521C37.6475 20.2562 38.0667 20.0967 38.5361 19.9736C39.0101 19.8506 39.5023 19.7891 40.0127 19.7891ZM41.3252 23.8838L40.3477 23.918C39.5456 23.9453 38.9827 24.082 38.6592 24.3281C38.3356 24.5742 38.1738 24.9115 38.1738 25.3398C38.1738 25.7135 38.2855 25.987 38.5088 26.1602C38.7321 26.3288 39.026 26.4131 39.3906 26.4131C39.9466 26.4131 40.4069 26.2559 40.7715 25.9414C41.1406 25.6224 41.3252 25.1553 41.3252 24.54V23.8838ZM46.7734 16.8633V19.4268C46.7734 19.723 46.7643 20.0146 46.7461 20.3018C46.7324 20.5843 46.7188 20.8053 46.7051 20.9648H46.7734C46.9785 20.6367 47.2633 20.361 47.6279 20.1377C47.9971 19.9098 48.4688 19.7959 49.043 19.7959C49.9408 19.7959 50.6631 20.1263 51.21 20.7871C51.7568 21.4434 52.0303 22.4163 52.0303 23.7061C52.0303 24.5628 51.9049 25.2829 51.6543 25.8662C51.4036 26.4495 51.0505 26.8916 50.5947 27.1924C50.1436 27.4886 49.6126 27.6367 49.002 27.6367C48.4277 27.6367 47.9629 27.5319 47.6074 27.3223C47.2565 27.1081 46.9808 26.8597 46.7803 26.5771H46.6641L46.3701 27.5H45.167V16.8633H46.7734ZM48.6191 21.1016C48.1634 21.1016 47.8011 21.1927 47.5322 21.375C47.2679 21.5573 47.0765 21.8307 46.958 22.1953C46.8395 22.5553 46.778 23.0133 46.7734 23.5693V23.7129C46.7734 24.556 46.9056 25.2008 47.1699 25.6475C47.4388 26.0941 47.9264 26.3174 48.6328 26.3174C49.1934 26.3174 49.624 26.0918 49.9248 25.6406C50.2256 25.1849 50.376 24.5332 50.376 23.6855C50.376 22.8288 50.2256 22.1839 49.9248 21.751C49.6286 21.318 49.1934 21.1016 48.6191 21.1016ZM56.9043 19.7891C57.5788 19.7891 58.1576 19.9281 58.6406 20.2061C59.1237 20.484 59.4951 20.8783 59.7549 21.3887C60.0146 21.8991 60.1445 22.5098 60.1445 23.2207V24.082H55.0928C55.111 24.8158 55.307 25.3809 55.6807 25.7773C56.0589 26.1738 56.5876 26.3721 57.2666 26.3721C57.7497 26.3721 58.1826 26.3265 58.5654 26.2354C58.9528 26.1396 59.3516 26.0007 59.7617 25.8184V27.124C59.3835 27.3018 58.9984 27.4316 58.6064 27.5137C58.2145 27.5957 57.7451 27.6367 57.1982 27.6367C56.4554 27.6367 55.8014 27.4932 55.2363 27.2061C54.6758 26.9144 54.236 26.4814 53.917 25.9072C53.6025 25.333 53.4453 24.6198 53.4453 23.7676C53.4453 22.9199 53.5889 22.1999 53.876 21.6074C54.1631 21.015 54.5664 20.5638 55.0859 20.2539C55.6055 19.944 56.2116 19.7891 56.9043 19.7891ZM56.9043 20.999C56.3984 20.999 55.9883 21.1631 55.6738 21.4912C55.3639 21.8193 55.1816 22.3001 55.127 22.9336H58.5723C58.5677 22.5553 58.5039 22.2204 58.3809 21.9287C58.2624 21.637 58.0801 21.4092 57.834 21.2451C57.5924 21.0811 57.2826 20.999 56.9043 20.999ZM63.5693 27.5H61.9561V16.8633H63.5693V27.5Z" fill="#002147"/>
<path d="M93 12C93 7.58172 96.5817 4 101 4H223C227.418 4 231 7.58172 231 12V32C231 36.4183 227.418 40 223 40H101C96.5817 40 93 36.4183 93 32V12Z" fill="white" fill-opacity="0.01"/>
<path d="M101 4.5H223C227.142 4.5 230.5 7.85786 230.5 12V32C230.5 36.1421 227.142 39.5 223 39.5H101C96.8579 39.5 93.5 36.1421 93.5 32V12C93.5 7.85786 96.8579 4.5 101 4.5Z" stroke="white" stroke-opacity="0.01"/>
<path d="M125.004 27.5L123.76 24.3213H119.754L118.523 27.5H117.348L121.299 17.4648H122.276L126.207 27.5H125.004ZM123.397 23.2754L122.235 20.1787C122.085 19.7868 121.93 19.306 121.771 18.7363C121.67 19.1738 121.527 19.6546 121.34 20.1787L120.164 23.2754H123.397ZM132.182 27.5H131.047V16.8633H132.182V27.5ZM141.055 23.7471C141.055 24.9684 140.747 25.9232 140.132 26.6113C139.517 27.2949 138.667 27.6367 137.582 27.6367C136.912 27.6367 136.317 27.4795 135.798 27.165C135.278 26.8506 134.877 26.3994 134.595 25.8115C134.312 25.2236 134.171 24.5355 134.171 23.7471C134.171 22.5257 134.476 21.5755 135.087 20.8965C135.698 20.2129 136.545 19.8711 137.63 19.8711C138.678 19.8711 139.51 20.2197 140.125 20.917C140.745 21.6143 141.055 22.5576 141.055 23.7471ZM135.347 23.7471C135.347 24.7041 135.538 25.4333 135.921 25.9346C136.304 26.4359 136.867 26.6865 137.609 26.6865C138.352 26.6865 138.915 26.4382 139.298 25.9414C139.685 25.4401 139.879 24.7087 139.879 23.7471C139.879 22.7946 139.685 22.0723 139.298 21.5801C138.915 21.0833 138.348 20.835 137.596 20.835C136.853 20.835 136.292 21.0788 135.914 21.5664C135.536 22.054 135.347 22.7809 135.347 23.7471ZM148.178 27.5V22.6533C148.178 22.0426 148.039 21.5869 147.761 21.2861C147.483 20.9854 147.048 20.835 146.455 20.835C145.671 20.835 145.097 21.0469 144.732 21.4707C144.368 21.8945 144.186 22.5941 144.186 23.5693V27.5H143.051V20.0078H143.974L144.158 21.0332H144.213C144.445 20.6641 144.771 20.3792 145.19 20.1787C145.61 19.9736 146.077 19.8711 146.592 19.8711C147.494 19.8711 148.173 20.0898 148.629 20.5273C149.085 20.9603 149.312 21.6553 149.312 22.6123V27.5H148.178ZM157.782 20.0078V20.7256L156.395 20.8896C156.522 21.0492 156.636 21.2588 156.736 21.5186C156.837 21.7738 156.887 22.0632 156.887 22.3867C156.887 23.1204 156.636 23.7061 156.135 24.1436C155.633 24.5811 154.945 24.7998 154.07 24.7998C153.847 24.7998 153.637 24.7816 153.441 24.7451C152.958 25.0003 152.717 25.3216 152.717 25.709C152.717 25.9141 152.801 26.0667 152.97 26.167C153.138 26.2627 153.428 26.3105 153.838 26.3105H155.164C155.975 26.3105 156.597 26.4814 157.03 26.8232C157.468 27.165 157.687 27.6618 157.687 28.3135C157.687 29.1429 157.354 29.7741 156.688 30.207C156.023 30.6445 155.052 30.8633 153.776 30.8633C152.797 30.8633 152.04 30.681 151.507 30.3164C150.978 29.9518 150.714 29.4368 150.714 28.7715C150.714 28.3158 150.86 27.9215 151.151 27.5889C151.443 27.2562 151.853 27.0306 152.382 26.9121C152.19 26.8255 152.029 26.6911 151.896 26.5088C151.769 26.3265 151.705 26.1146 151.705 25.873C151.705 25.5996 151.778 25.3604 151.924 25.1553C152.07 24.9502 152.3 24.752 152.614 24.5605C152.227 24.401 151.91 24.1299 151.664 23.7471C151.423 23.3643 151.302 22.9268 151.302 22.4346C151.302 21.6143 151.548 20.9831 152.04 20.541C152.532 20.0944 153.229 19.8711 154.132 19.8711C154.524 19.8711 154.877 19.9167 155.191 20.0078H157.782ZM151.808 28.7578C151.808 29.1634 151.979 29.471 152.32 29.6807C152.662 29.8903 153.152 29.9951 153.79 29.9951C154.743 29.9951 155.447 29.8516 155.902 29.5645C156.363 29.2819 156.593 28.8968 156.593 28.4092C156.593 28.0036 156.467 27.721 156.217 27.5615C155.966 27.4066 155.494 27.3291 154.802 27.3291H153.441C152.926 27.3291 152.525 27.4521 152.238 27.6982C151.951 27.9443 151.808 28.2975 151.808 28.7578ZM152.423 22.4072C152.423 22.9313 152.571 23.3278 152.867 23.5967C153.163 23.8656 153.576 24 154.104 24C155.212 24 155.766 23.4622 155.766 22.3867C155.766 21.2611 155.205 20.6982 154.084 20.6982C153.551 20.6982 153.141 20.8418 152.854 21.1289C152.566 21.416 152.423 21.8421 152.423 22.4072ZM162.485 27.6367C161.378 27.6367 160.503 27.2995 159.86 26.625C159.222 25.9505 158.903 25.014 158.903 23.8154C158.903 22.6077 159.2 21.6484 159.792 20.9375C160.389 20.2266 161.189 19.8711 162.191 19.8711C163.13 19.8711 163.873 20.181 164.42 20.8008C164.967 21.416 165.24 22.2295 165.24 23.2412V23.959H160.079C160.102 24.8385 160.323 25.5062 160.742 25.9619C161.166 26.4176 161.761 26.6455 162.526 26.6455C163.333 26.6455 164.131 26.4769 164.919 26.1396V27.1514C164.518 27.3245 164.137 27.4476 163.777 27.5205C163.422 27.598 162.991 27.6367 162.485 27.6367ZM162.178 20.8213C161.576 20.8213 161.095 21.0173 160.735 21.4092C160.38 21.8011 160.17 22.3434 160.106 23.0361H164.023C164.023 22.3206 163.864 21.7738 163.545 21.3955C163.226 21.0127 162.77 20.8213 162.178 20.8213ZM170.6 19.8711C170.932 19.8711 171.231 19.8984 171.495 19.9531L171.338 21.0059C171.028 20.9375 170.755 20.9033 170.518 20.9033C169.911 20.9033 169.392 21.1494 168.959 21.6416C168.531 22.1338 168.316 22.7467 168.316 23.4805V27.5H167.182V20.0078H168.118L168.248 21.3955H168.303C168.581 20.9079 168.916 20.5319 169.308 20.2676C169.7 20.0033 170.13 19.8711 170.6 19.8711ZM177.668 27.5H176.533V16.8633H177.668V27.5ZM184.682 27.5L184.456 26.4336H184.401C184.028 26.903 183.654 27.222 183.28 27.3906C182.911 27.5547 182.449 27.6367 181.893 27.6367C181.15 27.6367 180.566 27.4453 180.143 27.0625C179.723 26.6797 179.514 26.1351 179.514 25.4287C179.514 23.9157 180.724 23.1227 183.144 23.0498L184.415 23.0088V22.5439C184.415 21.9561 184.287 21.5231 184.032 21.2451C183.782 20.9626 183.378 20.8213 182.822 20.8213C182.198 20.8213 181.492 21.0127 180.703 21.3955L180.354 20.5273C180.724 20.3268 181.127 20.1696 181.564 20.0557C182.007 19.9417 182.449 19.8848 182.891 19.8848C183.784 19.8848 184.445 20.083 184.873 20.4795C185.306 20.876 185.522 21.5117 185.522 22.3867V27.5H184.682ZM182.118 26.7002C182.825 26.7002 183.378 26.5065 183.779 26.1191C184.185 25.7318 184.388 25.1895 184.388 24.4922V23.8154L183.253 23.8633C182.351 23.8952 181.699 24.0365 181.298 24.2871C180.901 24.5332 180.703 24.9183 180.703 25.4424C180.703 25.8525 180.826 26.1647 181.072 26.3789C181.323 26.5931 181.672 26.7002 182.118 26.7002ZM191.354 19.8848C192.338 19.8848 193.101 20.222 193.644 20.8965C194.19 21.5664 194.464 22.5166 194.464 23.7471C194.464 24.9775 194.188 25.9346 193.637 26.6182C193.09 27.2972 192.329 27.6367 191.354 27.6367C190.866 27.6367 190.419 27.5479 190.014 27.3701C189.613 27.1878 189.275 26.9098 189.002 26.5361H188.92L188.681 27.5H187.867V16.8633H189.002V19.4473C189.002 20.026 188.984 20.5456 188.947 21.0059H189.002C189.531 20.2585 190.314 19.8848 191.354 19.8848ZM191.189 20.835C190.415 20.835 189.856 21.0583 189.515 21.5049C189.173 21.9469 189.002 22.6943 189.002 23.7471C189.002 24.7998 189.177 25.554 189.528 26.0098C189.879 26.4609 190.442 26.6865 191.217 26.6865C191.914 26.6865 192.434 26.4336 192.775 25.9277C193.117 25.4173 193.288 24.6859 193.288 23.7334C193.288 22.7581 193.117 22.0312 192.775 21.5527C192.434 21.0742 191.905 20.835 191.189 20.835ZM199.618 27.6367C198.511 27.6367 197.636 27.2995 196.993 26.625C196.355 25.9505 196.036 25.014 196.036 23.8154C196.036 22.6077 196.332 21.6484 196.925 20.9375C197.522 20.2266 198.322 19.8711 199.324 19.8711C200.263 19.8711 201.006 20.181 201.553 20.8008C202.1 21.416 202.373 22.2295 202.373 23.2412V23.959H197.212C197.235 24.8385 197.456 25.5062 197.875 25.9619C198.299 26.4176 198.894 26.6455 199.659 26.6455C200.466 26.6455 201.263 26.4769 202.052 26.1396V27.1514C201.651 27.3245 201.27 27.4476 200.91 27.5205C200.555 27.598 200.124 27.6367 199.618 27.6367ZM199.311 20.8213C198.709 20.8213 198.228 21.0173 197.868 21.4092C197.513 21.8011 197.303 22.3434 197.239 23.0361H201.156C201.156 22.3206 200.997 21.7738 200.678 21.3955C200.359 21.0127 199.903 20.8213 199.311 20.8213ZM205.449 27.5H204.314V16.8633H205.449V27.5Z" fill="#002147"/>
<path d="M235 12C235 7.58172 238.582 4 243 4H408C412.418 4 416 7.58172 416 12V32C416 36.4183 412.418 40 408 40H243C238.582 40 235 36.4183 235 32V12Z" fill="white" fill-opacity="0.01"/>
<path d="M243 4.5H408C412.142 4.5 415.5 7.85786 415.5 12V32C415.5 36.1421 412.142 39.5 408 39.5H243C238.858 39.5 235.5 36.1421 235.5 32V12C235.5 7.85786 238.858 4.5 243 4.5Z" stroke="white" stroke-opacity="0.01"/>
<path d="M266.718 27.5L265.474 24.3213H261.468L260.237 27.5H259.062L263.013 17.4648H263.99L267.921 27.5H266.718ZM265.111 23.2754L263.949 20.1787C263.799 19.7868 263.644 19.306 263.484 18.7363C263.384 19.1738 263.241 19.6546 263.054 20.1787L261.878 23.2754H265.111ZM274.251 27.5V22.6533C274.251 22.0426 274.112 21.5869 273.834 21.2861C273.556 20.9854 273.121 20.835 272.528 20.835C271.744 20.835 271.17 21.0469 270.806 21.4707C270.441 21.8945 270.259 22.5941 270.259 23.5693V27.5H269.124V20.0078H270.047L270.231 21.0332H270.286C270.519 20.6641 270.844 20.3792 271.264 20.1787C271.683 19.9736 272.15 19.8711 272.665 19.8711C273.567 19.8711 274.246 20.0898 274.702 20.5273C275.158 20.9603 275.386 21.6553 275.386 22.6123V27.5H274.251ZM284.525 27.6367C283.418 27.6367 282.543 27.2995 281.9 26.625C281.262 25.9505 280.943 25.014 280.943 23.8154C280.943 22.6077 281.24 21.6484 281.832 20.9375C282.429 20.2266 283.229 19.8711 284.231 19.8711C285.17 19.8711 285.913 20.181 286.46 20.8008C287.007 21.416 287.28 22.2295 287.28 23.2412V23.959H282.119C282.142 24.8385 282.363 25.5062 282.782 25.9619C283.206 26.4176 283.801 26.6455 284.566 26.6455C285.373 26.6455 286.171 26.4769 286.959 26.1396V27.1514C286.558 27.3245 286.177 27.4476 285.817 27.5205C285.462 27.598 285.031 27.6367 284.525 27.6367ZM284.218 20.8213C283.616 20.8213 283.135 21.0173 282.775 21.4092C282.42 21.8011 282.21 22.3434 282.146 23.0361H286.063C286.063 22.3206 285.904 21.7738 285.585 21.3955C285.266 21.0127 284.81 20.8213 284.218 20.8213ZM290.862 27.5L288.019 20.0078H289.235L290.849 24.4512C291.213 25.4902 291.427 26.1647 291.491 26.4746H291.546C291.596 26.2331 291.753 25.734 292.018 24.9775C292.286 24.2165 292.886 22.5599 293.815 20.0078H295.032L292.188 27.5H290.862ZM299.4 27.6367C298.293 27.6367 297.418 27.2995 296.775 26.625C296.137 25.9505 295.818 25.014 295.818 23.8154C295.818 22.6077 296.115 21.6484 296.707 20.9375C297.304 20.2266 298.104 19.8711 299.106 19.8711C300.045 19.8711 300.788 20.181 301.335 20.8008C301.882 21.416 302.155 22.2295 302.155 23.2412V23.959H296.994C297.017 24.8385 297.238 25.5062 297.657 25.9619C298.081 26.4176 298.676 26.6455 299.441 26.6455C300.248 26.6455 301.046 26.4769 301.834 26.1396V27.1514C301.433 27.3245 301.052 27.4476 300.692 27.5205C300.337 27.598 299.906 27.6367 299.4 27.6367ZM299.093 20.8213C298.491 20.8213 298.01 21.0173 297.65 21.4092C297.295 21.8011 297.085 22.3434 297.021 23.0361H300.938C300.938 22.3206 300.779 21.7738 300.46 21.3955C300.141 21.0127 299.685 20.8213 299.093 20.8213ZM309.224 27.5V22.6533C309.224 22.0426 309.085 21.5869 308.807 21.2861C308.529 20.9854 308.093 20.835 307.501 20.835C306.717 20.835 306.143 21.0469 305.778 21.4707C305.414 21.8945 305.231 22.5941 305.231 23.5693V27.5H304.097V20.0078H305.02L305.204 21.0332H305.259C305.491 20.6641 305.817 20.3792 306.236 20.1787C306.656 19.9736 307.123 19.8711 307.638 19.8711C308.54 19.8711 309.219 20.0898 309.675 20.5273C310.131 20.9603 310.358 21.6553 310.358 22.6123V27.5H309.224ZM317.468 27.5H316.333V16.8633H317.468V27.5ZM326.341 23.7471C326.341 24.9684 326.033 25.9232 325.418 26.6113C324.803 27.2949 323.953 27.6367 322.868 27.6367C322.198 27.6367 321.604 27.4795 321.084 27.165C320.564 26.8506 320.163 26.3994 319.881 25.8115C319.598 25.2236 319.457 24.5355 319.457 23.7471C319.457 22.5257 319.762 21.5755 320.373 20.8965C320.984 20.2129 321.831 19.8711 322.916 19.8711C323.964 19.8711 324.796 20.2197 325.411 20.917C326.031 21.6143 326.341 22.5576 326.341 23.7471ZM320.633 23.7471C320.633 24.7041 320.824 25.4333 321.207 25.9346C321.59 26.4359 322.153 26.6865 322.896 26.6865C323.638 26.6865 324.201 26.4382 324.584 25.9414C324.971 25.4401 325.165 24.7087 325.165 23.7471C325.165 22.7946 324.971 22.0723 324.584 21.5801C324.201 21.0833 323.634 20.835 322.882 20.835C322.139 20.835 321.578 21.0788 321.2 21.5664C320.822 22.054 320.633 22.7809 320.633 23.7471ZM333.464 27.5V22.6533C333.464 22.0426 333.325 21.5869 333.047 21.2861C332.769 20.9854 332.334 20.835 331.741 20.835C330.957 20.835 330.383 21.0469 330.019 21.4707C329.654 21.8945 329.472 22.5941 329.472 23.5693V27.5H328.337V20.0078H329.26L329.444 21.0332H329.499C329.731 20.6641 330.057 20.3792 330.477 20.1787C330.896 19.9736 331.363 19.8711 331.878 19.8711C332.78 19.8711 333.459 20.0898 333.915 20.5273C334.371 20.9603 334.599 21.6553 334.599 22.6123V27.5H333.464ZM343.068 20.0078V20.7256L341.681 20.8896C341.808 21.0492 341.922 21.2588 342.022 21.5186C342.123 21.7738 342.173 22.0632 342.173 22.3867C342.173 23.1204 341.922 23.7061 341.421 24.1436C340.92 24.5811 340.231 24.7998 339.356 24.7998C339.133 24.7998 338.924 24.7816 338.728 24.7451C338.244 25.0003 338.003 25.3216 338.003 25.709C338.003 25.9141 338.087 26.0667 338.256 26.167C338.424 26.2627 338.714 26.3105 339.124 26.3105H340.45C341.261 26.3105 341.883 26.4814 342.316 26.8232C342.754 27.165 342.973 27.6618 342.973 28.3135C342.973 29.1429 342.64 29.7741 341.975 30.207C341.309 30.6445 340.339 30.8633 339.062 30.8633C338.083 30.8633 337.326 30.681 336.793 30.3164C336.264 29.9518 336 29.4368 336 28.7715C336 28.3158 336.146 27.9215 336.438 27.5889C336.729 27.2562 337.139 27.0306 337.668 26.9121C337.477 26.8255 337.315 26.6911 337.183 26.5088C337.055 26.3265 336.991 26.1146 336.991 25.873C336.991 25.5996 337.064 25.3604 337.21 25.1553C337.356 24.9502 337.586 24.752 337.9 24.5605C337.513 24.401 337.196 24.1299 336.95 23.7471C336.709 23.3643 336.588 22.9268 336.588 22.4346C336.588 21.6143 336.834 20.9831 337.326 20.541C337.818 20.0944 338.516 19.8711 339.418 19.8711C339.81 19.8711 340.163 19.9167 340.478 20.0078H343.068ZM337.094 28.7578C337.094 29.1634 337.265 29.471 337.606 29.6807C337.948 29.8903 338.438 29.9951 339.076 29.9951C340.029 29.9951 340.733 29.8516 341.188 29.5645C341.649 29.2819 341.879 28.8968 341.879 28.4092C341.879 28.0036 341.754 27.721 341.503 27.5615C341.252 27.4066 340.781 27.3291 340.088 27.3291H338.728C338.213 27.3291 337.812 27.4521 337.524 27.6982C337.237 27.9443 337.094 28.2975 337.094 28.7578ZM337.709 22.4072C337.709 22.9313 337.857 23.3278 338.153 23.5967C338.45 23.8656 338.862 24 339.391 24C340.498 24 341.052 23.4622 341.052 22.3867C341.052 21.2611 340.491 20.6982 339.37 20.6982C338.837 20.6982 338.427 20.8418 338.14 21.1289C337.853 21.416 337.709 21.8421 337.709 22.4072ZM347.771 27.6367C346.664 27.6367 345.789 27.2995 345.146 26.625C344.508 25.9505 344.189 25.014 344.189 23.8154C344.189 22.6077 344.486 21.6484 345.078 20.9375C345.675 20.2266 346.475 19.8711 347.478 19.8711C348.416 19.8711 349.159 20.181 349.706 20.8008C350.253 21.416 350.526 22.2295 350.526 23.2412V23.959H345.365C345.388 24.8385 345.609 25.5062 346.028 25.9619C346.452 26.4176 347.047 26.6455 347.812 26.6455C348.619 26.6455 349.417 26.4769 350.205 26.1396V27.1514C349.804 27.3245 349.424 27.4476 349.063 27.5205C348.708 27.598 348.277 27.6367 347.771 27.6367ZM347.464 20.8213C346.862 20.8213 346.382 21.0173 346.021 21.4092C345.666 21.8011 345.456 22.3434 345.393 23.0361H349.31C349.31 22.3206 349.15 21.7738 348.831 21.3955C348.512 21.0127 348.056 20.8213 347.464 20.8213ZM355.886 19.8711C356.218 19.8711 356.517 19.8984 356.781 19.9531L356.624 21.0059C356.314 20.9375 356.041 20.9033 355.804 20.9033C355.198 20.9033 354.678 21.1494 354.245 21.6416C353.817 22.1338 353.603 22.7467 353.603 23.4805V27.5H352.468V20.0078H353.404L353.534 21.3955H353.589C353.867 20.9079 354.202 20.5319 354.594 20.2676C354.986 20.0033 355.416 19.8711 355.886 19.8711ZM362.954 27.5H361.819V16.8633H362.954V27.5ZM369.968 27.5L369.742 26.4336H369.688C369.314 26.903 368.94 27.222 368.566 27.3906C368.197 27.5547 367.735 27.6367 367.179 27.6367C366.436 27.6367 365.853 27.4453 365.429 27.0625C365.009 26.6797 364.8 26.1351 364.8 25.4287C364.8 23.9157 366.01 23.1227 368.43 23.0498L369.701 23.0088V22.5439C369.701 21.9561 369.574 21.5231 369.318 21.2451C369.068 20.9626 368.664 20.8213 368.108 20.8213C367.484 20.8213 366.778 21.0127 365.989 21.3955L365.641 20.5273C366.01 20.3268 366.413 20.1696 366.851 20.0557C367.293 19.9417 367.735 19.8848 368.177 19.8848C369.07 19.8848 369.731 20.083 370.159 20.4795C370.592 20.876 370.809 21.5117 370.809 22.3867V27.5H369.968ZM367.404 26.7002C368.111 26.7002 368.664 26.5065 369.065 26.1191C369.471 25.7318 369.674 25.1895 369.674 24.4922V23.8154L368.539 23.8633C367.637 23.8952 366.985 24.0365 366.584 24.2871C366.188 24.5332 365.989 24.9183 365.989 25.4424C365.989 25.8525 366.112 26.1647 366.358 26.3789C366.609 26.5931 366.958 26.7002 367.404 26.7002ZM376.64 19.8848C377.624 19.8848 378.387 20.222 378.93 20.8965C379.477 21.5664 379.75 22.5166 379.75 23.7471C379.75 24.9775 379.474 25.9346 378.923 26.6182C378.376 27.2972 377.615 27.6367 376.64 27.6367C376.152 27.6367 375.705 27.5479 375.3 27.3701C374.899 27.1878 374.562 26.9098 374.288 26.5361H374.206L373.967 27.5H373.153V16.8633H374.288V19.4473C374.288 20.026 374.27 20.5456 374.233 21.0059H374.288C374.817 20.2585 375.601 19.8848 376.64 19.8848ZM376.476 20.835C375.701 20.835 375.143 21.0583 374.801 21.5049C374.459 21.9469 374.288 22.6943 374.288 23.7471C374.288 24.7998 374.464 25.554 374.814 26.0098C375.165 26.4609 375.728 26.6865 376.503 26.6865C377.2 26.6865 377.72 26.4336 378.062 25.9277C378.403 25.4173 378.574 24.6859 378.574 23.7334C378.574 22.7581 378.403 22.0312 378.062 21.5527C377.72 21.0742 377.191 20.835 376.476 20.835ZM384.904 27.6367C383.797 27.6367 382.922 27.2995 382.279 26.625C381.641 25.9505 381.322 25.014 381.322 23.8154C381.322 22.6077 381.618 21.6484 382.211 20.9375C382.808 20.2266 383.608 19.8711 384.61 19.8711C385.549 19.8711 386.292 20.181 386.839 20.8008C387.386 21.416 387.659 22.2295 387.659 23.2412V23.959H382.498C382.521 24.8385 382.742 25.5062 383.161 25.9619C383.585 26.4176 384.18 26.6455 384.945 26.6455C385.752 26.6455 386.549 26.4769 387.338 26.1396V27.1514C386.937 27.3245 386.556 27.4476 386.196 27.5205C385.841 27.598 385.41 27.6367 384.904 27.6367ZM384.597 20.8213C383.995 20.8213 383.514 21.0173 383.154 21.4092C382.799 21.8011 382.589 22.3434 382.525 23.0361H386.442C386.442 22.3206 386.283 21.7738 385.964 21.3955C385.645 21.0127 385.189 20.8213 384.597 20.8213ZM390.735 27.5H389.601V16.8633H390.735V27.5Z" fill="#002147"/>
<path d="M420 12C420 7.58172 423.582 4 428 4H496C500.418 4 504 7.58172 504 12V32C504 36.4183 500.418 40 496 40H428C423.582 40 420 36.4183 420 32V12Z" fill="white" fill-opacity="0.01"/>
<path d="M428 4.5H496C500.142 4.5 503.5 7.85786 503.5 12V32C503.5 36.1421 500.142 39.5 496 39.5H428C423.858 39.5 420.5 36.1421 420.5 32V12C420.5 7.85786 423.858 4.5 428 4.5Z" stroke="white" stroke-opacity="0.01"/>
<path d="M445.833 27.5V17.5059H446.995V26.4609H451.432V27.5H445.833ZM455.779 19.8848C456.673 19.8848 457.336 20.0853 457.769 20.4863C458.201 20.8874 458.418 21.5277 458.418 22.4072V27.5H457.591L457.372 26.3926H457.317C457.108 26.666 456.889 26.8962 456.661 27.083C456.433 27.2653 456.169 27.4043 455.868 27.5C455.572 27.5911 455.207 27.6367 454.774 27.6367C454.319 27.6367 453.913 27.557 453.558 27.3975C453.207 27.238 452.929 26.9964 452.724 26.6729C452.523 26.3493 452.423 25.9391 452.423 25.4424C452.423 24.695 452.719 24.1208 453.312 23.7197C453.904 23.3187 454.806 23.0999 456.019 23.0635L457.311 23.0088V22.5508C457.311 21.9036 457.172 21.4502 456.894 21.1904C456.616 20.9307 456.224 20.8008 455.718 20.8008C455.326 20.8008 454.952 20.8577 454.597 20.9717C454.241 21.0856 453.904 21.2201 453.585 21.375L453.236 20.5137C453.574 20.3405 453.961 20.1924 454.398 20.0693C454.836 19.9463 455.296 19.8848 455.779 19.8848ZM457.297 23.8086L456.155 23.8564C455.221 23.8929 454.562 24.0456 454.18 24.3145C453.797 24.5833 453.605 24.9639 453.605 25.4561C453.605 25.8844 453.735 26.2012 453.995 26.4062C454.255 26.6113 454.599 26.7139 455.027 26.7139C455.693 26.7139 456.237 26.5293 456.661 26.1602C457.085 25.791 457.297 25.2373 457.297 24.499V23.8086ZM461.891 16.8633V19.5225C461.891 19.8278 461.882 20.124 461.863 20.4111C461.85 20.6982 461.838 20.9215 461.829 21.0811H461.891C462.096 20.7438 462.392 20.459 462.779 20.2266C463.167 19.9941 463.661 19.8779 464.263 19.8779C465.201 19.8779 465.949 20.2038 466.505 20.8555C467.065 21.5026 467.346 22.4665 467.346 23.7471C467.346 24.5902 467.218 25.3011 466.963 25.8799C466.708 26.4587 466.348 26.8962 465.883 27.1924C465.418 27.4886 464.869 27.6367 464.235 27.6367C463.643 27.6367 463.155 27.5273 462.772 27.3086C462.394 27.0853 462.103 26.8141 461.897 26.4951H461.809L461.576 27.5H460.756V16.8633H461.891ZM464.078 20.8281C463.536 20.8281 463.105 20.9352 462.786 21.1494C462.467 21.359 462.237 21.6781 462.096 22.1064C461.959 22.5303 461.891 23.068 461.891 23.7197V23.7812C461.891 24.7246 462.048 25.4469 462.362 25.9482C462.677 26.445 463.249 26.6934 464.078 26.6934C464.775 26.6934 465.297 26.4382 465.644 25.9277C465.994 25.4173 466.17 24.6882 466.17 23.7402C466.17 22.7741 465.997 22.0472 465.65 21.5596C465.309 21.0719 464.785 20.8281 464.078 20.8281ZM472.213 19.8711C472.851 19.8711 473.398 20.0124 473.854 20.2949C474.309 20.5775 474.658 20.974 474.899 21.4844C475.141 21.9902 475.262 22.5827 475.262 23.2617V23.9658H470.087C470.101 24.8454 470.319 25.5153 470.743 25.9756C471.167 26.4359 471.764 26.666 472.534 26.666C473.008 26.666 473.427 26.6227 473.792 26.5361C474.157 26.4495 474.535 26.3219 474.927 26.1533V27.1514C474.549 27.32 474.173 27.443 473.799 27.5205C473.43 27.598 472.992 27.6367 472.486 27.6367C471.766 27.6367 471.137 27.4909 470.6 27.1992C470.066 26.903 469.652 26.4701 469.355 25.9004C469.059 25.3307 468.911 24.6335 468.911 23.8086C468.911 23.002 469.046 22.3047 469.314 21.7168C469.588 21.1243 469.971 20.6686 470.463 20.3496C470.96 20.0306 471.543 19.8711 472.213 19.8711ZM472.199 20.8008C471.593 20.8008 471.11 20.999 470.75 21.3955C470.39 21.792 470.176 22.3457 470.107 23.0566H474.072C474.068 22.61 473.997 22.2181 473.86 21.8809C473.728 21.5391 473.525 21.2747 473.252 21.0879C472.979 20.8965 472.628 20.8008 472.199 20.8008ZM478.331 27.5H477.189V16.8633H478.331V27.5Z" fill="#002147"/>
</svg>
