<svg width="640" height="440" viewBox="0 0 640 440" fill="none" xmlns="http://www.w3.org/2000/svg">
  <defs>
    <filter id="cardShadow" x="-20%" y="-20%" width="140%" height="140%">
      <feDropShadow dx="0" dy="2" stdDeviation="4" flood-color="#26A69A" flood-opacity="0.08"/>
    </filter>
    <filter id="cardShadowLifted" x="-20%" y="-20%" width="140%" height="140%">
      <feDropShadow dx="0" dy="4" stdDeviation="8" flood-color="#1A2035" flood-opacity="0.1"/>
    </filter>
  </defs>

  <rect width="640" height="440" rx="16" fill="#F7F9FB"/>

  <text x="36" y="40" font-family="'Inter', system-ui, sans-serif" font-size="10" font-weight="700" letter-spacing="0.18em" fill="#26A69A">CARD GALLERY · 6 VARIANTS · ONE PRIMITIVE</text>
  <text x="36" y="56" font-family="'Inter', system-ui, sans-serif" font-size="10" fill="#8A97B0">Same five slots, filled differently — no component was forked to build this page</text>

  <!-- Row 1 -->
  <!-- Content Card -->
  <g filter="url(#cardShadow)">
    <rect x="36" y="82" width="184" height="150" rx="10" fill="#FFFFFF"/>
  </g>
  <rect x="36" y="82" width="184" height="72" rx="10" fill="#F0FAF9"/>
  <rect x="36" y="150" width="184" height="4" fill="#F0FAF9"/>
  <text x="52" y="114" font-family="'Inter', system-ui, sans-serif" font-size="12" font-weight="700" fill="#26A69A">LESSON · 12 MIN</text>
  <text x="52" y="180" font-family="'Inter', system-ui, sans-serif" font-size="13" font-weight="600" fill="#1A2035">Academic writing — thesis statements</text>
  <text x="52" y="198" font-family="'Inter', system-ui, sans-serif" font-size="11" fill="#8A97B0">Unit 4 · Dr. Rebecca Liu</text>
  <line x1="52" y1="210" x2="204" y2="210" stroke="#E4E9F0"/>
  <text x="52" y="224" font-family="'Menlo', 'Consolas', monospace" font-size="9" fill="#26A69A">Content Card · raised</text>

  <!-- Skill Card -->
  <g filter="url(#cardShadow)">
    <rect x="228" y="82" width="184" height="150" rx="10" fill="#FFFFFF"/>
  </g>
  <!-- Mastery badge overlay -->
  <rect x="384" y="94" width="20" height="14" rx="7" fill="#26A69A"/>
  <text x="394" y="104" font-family="'Inter', system-ui, sans-serif" font-size="8" font-weight="700" fill="#FFFFFF" text-anchor="middle">B2</text>
  <!-- Ring -->
  <g transform="translate(270, 128)">
    <circle cx="0" cy="0" r="20" stroke="#EEF2F7" stroke-width="4" fill="none"/>
    <circle cx="0" cy="0" r="20" stroke="#26A69A" stroke-width="4" fill="none" stroke-linecap="round" stroke-dasharray="84 42" stroke-dashoffset="31" transform="rotate(-90)"/>
    <text x="0" y="4" font-family="'Inter', system-ui, sans-serif" font-size="12" font-weight="700" fill="#1A2035" text-anchor="middle">67</text>
  </g>
  <text x="302" y="118" font-family="'Inter', system-ui, sans-serif" font-size="13" font-weight="600" fill="#1A2035">Grammar</text>
  <text x="302" y="134" font-family="'Inter', system-ui, sans-serif" font-size="11" fill="#8A97B0">38 of 56 drills</text>
  <line x1="244" y1="168" x2="396" y2="168" stroke="#E4E9F0"/>
  <text x="244" y="184" font-family="'Inter', system-ui, sans-serif" font-size="11" fill="#8A97B0">Last session 2 days ago</text>
  <text x="244" y="222" font-family="'Menlo', 'Consolas', monospace" font-size="9" fill="#26A69A">Skill Card · raised · overlay</text>

  <!-- Dashboard Metric -->
  <g filter="url(#cardShadow)">
    <rect x="420" y="82" width="184" height="150" rx="10" fill="#FFFFFF"/>
  </g>
  <text x="436" y="108" font-family="'Inter', system-ui, sans-serif" font-size="10" font-weight="700" letter-spacing="0.1em" fill="#8A97B0">ACTIVE LEARNERS</text>
  <text x="436" y="150" font-family="'Inter', system-ui, sans-serif" font-size="30" font-weight="700" fill="#1A2035">12,847</text>
  <text x="436" y="170" font-family="'Inter', system-ui, sans-serif" font-size="11" fill="#26A69A">↑ 8.2% vs last week</text>
  <!-- Sparkline -->
  <polyline points="436,200 448,194 460,198 472,186 484,190 496,180 508,174 520,168 532,172 544,162 556,158 568,152 580,148 592,140"
    stroke="#26A69A" stroke-width="1.5" fill="none" stroke-linecap="round"/>
  <text x="436" y="222" font-family="'Menlo', 'Consolas', monospace" font-size="9" fill="#26A69A">Metric Card · flat</text>

  <!-- Row 2 -->
  <!-- Base Card -->
  <rect x="36" y="252" width="184" height="150" rx="10" fill="#FFFFFF" stroke="#E4E9F0"/>
  <text x="52" y="284" font-family="'Inter', system-ui, sans-serif" font-size="13" font-weight="600" fill="#1A2035">Base card</text>
  <text x="52" y="302" font-family="'Inter', system-ui, sans-serif" font-size="11" fill="#8A97B0">Five slots, no content — the</text>
  <text x="52" y="316" font-family="'Inter', system-ui, sans-serif" font-size="11" fill="#8A97B0">primitive every other variant</text>
  <text x="52" y="330" font-family="'Inter', system-ui, sans-serif" font-size="11" fill="#8A97B0">composes from.</text>
  <line x1="52" y1="348" x2="204" y2="348" stroke="#E4E9F0"/>
  <rect x="52" y="360" width="68" height="24" rx="4" fill="#1A2035"/>
  <text x="86" y="375" font-family="'Inter', system-ui, sans-serif" font-size="10" font-weight="600" fill="#FFFFFF" text-anchor="middle">Action</text>
  <text x="52" y="396" font-family="'Menlo', 'Consolas', monospace" font-size="9" fill="#26A69A" opacity="0">hidden</text>

  <!-- Loading Skeleton -->
  <rect x="228" y="252" width="184" height="150" rx="10" fill="#FFFFFF" stroke="#E4E9F0"/>
  <rect x="244" y="268" width="152" height="60" rx="4" fill="#EEF2F7"/>
  <rect x="244" y="340" width="112" height="10" rx="3" fill="#EEF2F7"/>
  <rect x="244" y="356" width="70" height="8" rx="3" fill="#EEF2F7"/>
  <rect x="244" y="376" width="40" height="14" rx="3" fill="#EEF2F7"/>
  <text x="228" y="422" font-family="'Menlo', 'Consolas', monospace" font-size="9" fill="#26A69A">Skeleton · same slots, no content</text>

  <!-- Empty State -->
  <rect x="420" y="252" width="184" height="150" rx="10" fill="#FFFFFF" stroke="#E4E9F0" stroke-dasharray="4 3"/>
  <circle cx="512" cy="300" r="20" fill="#F0FAF9"/>
  <text x="512" y="306" font-family="'Inter', system-ui, sans-serif" font-size="20" font-weight="700" fill="#26A69A" text-anchor="middle">+</text>
  <text x="512" y="342" font-family="'Inter', system-ui, sans-serif" font-size="12" font-weight="600" fill="#1A2035" text-anchor="middle">No skills yet</text>
  <text x="512" y="358" font-family="'Inter', system-ui, sans-serif" font-size="10" fill="#8A97B0" text-anchor="middle">Add one to start tracking</text>
  <text x="420" y="422" font-family="'Menlo', 'Consolas', monospace" font-size="9" fill="#26A69A">Empty state · same slots, call-to-fill</text>

  <!-- Legend footer -->
  <text x="220" y="396" font-family="'Menlo', 'Consolas', monospace" font-size="9" fill="#26A69A" text-anchor="end">Base Card · flat</text>
</svg>
