<svg width="420" height="260" viewBox="0 0 420 260" fill="none" xmlns="http://www.w3.org/2000/svg">
  <rect width="420" height="260" rx="16" fill="#0A0C14"/>

  <text x="36" y="40" font-family="'Inter', system-ui, sans-serif" font-size="10" font-weight="700" letter-spacing="0.18em" fill="#26A69A">MOTION</text>
  <text x="36" y="56" font-family="'Inter', system-ui, sans-serif" font-size="10" fill="#5A6784">ease-out-quart · 400ms · motion-safe</text>

  <!-- Curve axes -->
  <line x1="60" y1="198" x2="384" y2="198" stroke="#161A2A"/>
  <line x1="60" y1="88" x2="60" y2="198" stroke="#161A2A"/>

  <!-- Axis labels -->
  <text x="60" y="218" font-family="'Menlo', 'Consolas', monospace" font-size="9" fill="#5A6784">0ms</text>
  <text x="384" y="218" font-family="'Menlo', 'Consolas', monospace" font-size="9" fill="#5A6784" text-anchor="end">400ms</text>
  <text x="52" y="92" font-family="'Menlo', 'Consolas', monospace" font-size="9" fill="#5A6784" text-anchor="end">67%</text>
  <text x="52" y="202" font-family="'Menlo', 'Consolas', monospace" font-size="9" fill="#5A6784" text-anchor="end">0%</text>

  <!-- Grid -->
  <line x1="162" y1="88" x2="162" y2="198" stroke="#161A2A" stroke-dasharray="2 3" opacity="0.5"/>
  <line x1="264" y1="88" x2="264" y2="198" stroke="#161A2A" stroke-dasharray="2 3" opacity="0.5"/>

  <!-- Ease-out-quart curve: starts fast, eases to end -->
  <path d="M 60 198 C 92 198 122 130 162 108 S 264 92 384 92"
        stroke="#26A69A" stroke-width="2" fill="none" stroke-linecap="round"/>

  <!-- Start + end dots -->
  <circle cx="60" cy="198" r="4" fill="#26A69A"/>
  <circle cx="384" cy="92" r="4" fill="#26A69A"/>

  <!-- Mid tick where animation is most-visible -->
  <circle cx="162" cy="108" r="3" fill="#F0F4F8"/>
  <text x="170" y="108" font-family="'Menlo', 'Consolas', monospace" font-size="9" fill="#F0F4F8" dominant-baseline="middle">80% done at 180ms</text>

  <!-- reduced-motion fallback note -->
  <line x1="36" y1="230" x2="384" y2="230" stroke="#161A2A"/>
  <text x="36" y="248" font-family="'Menlo', 'Consolas', monospace" font-size="9" fill="#6B7A9A">@media (prefers-reduced-motion: reduce) → transition: none</text>
</svg>
