<svg width="428" height="214" viewBox="0 0 428 214" fill="none" xmlns="http://www.w3.org/2000/svg">
<rect x="0.5" y="0.5" width="427" height="213" rx="4.5" stroke="#9747FF" stroke-dasharray="10 5"/>
<path d="M62 22.5C74.9787 22.5 85.5 33.0213 85.5 46C85.5 58.9787 74.9787 69.5 62 69.5C49.0213 69.5 38.5 58.9787 38.5 46C38.5 33.0213 49.0213 22.5 62 22.5ZM62 33.5C55.0964 33.5 49.5 39.0964 49.5 46C49.5 52.9036 55.0964 58.5 62 58.5C68.9036 58.5 74.5 52.9036 74.5 46C74.5 39.0964 68.9036 33.5 62 33.5Z" stroke="#99A6B5"/>
<path d="M80 46C80 48.3638 79.5344 50.7044 78.6298 52.8883C77.7252 55.0722 76.3994 57.0565 74.7279 58.7279C73.0565 60.3994 71.0722 61.7252 68.8883 62.6298C66.7044 63.5344 64.3638 64 62 64C59.6362 64 57.2956 63.5344 55.1117 62.6298C52.9278 61.7252 50.9435 60.3994 49.2721 58.7279C47.6006 57.0565 46.2748 55.0722 45.3702 52.8883C44.4656 50.7044 44 48.3638 44 46C44 43.6362 44.4656 41.2956 45.3702 39.1117C46.2748 36.9278 47.6006 34.9435 49.2721 33.2721C50.9435 31.6006 52.9278 30.2747 55.1117 29.3702C57.2956 28.4656 59.6362 28 62 28C64.3638 28 66.7045 28.4656 68.8883 29.3702C71.0722 30.2748 73.0565 31.6006 74.7279 33.2721C76.3994 34.9435 77.7253 36.9278 78.6298 39.1117C79.5344 41.2956 80 43.6362 80 46L80 46Z" stroke="#FAFBFB" stroke-width="8" stroke-linecap="round" stroke-linejoin="round"/>
<path d="M60.2031 84.8613C60.2031 87.3548 59.793 89.2005 58.9727 90.3984C58.1589 91.5964 56.9023 92.1953 55.2031 92.1953C53.556 92.1953 52.3125 91.5768 51.4727 90.3398C50.6393 89.1029 50.2227 87.2767 50.2227 84.8613C50.2227 82.3418 50.6296 80.4863 51.4434 79.2949C52.2572 78.097 53.5104 77.498 55.2031 77.498C56.8503 77.498 58.0938 78.123 58.9336 79.373C59.7799 80.623 60.2031 82.4525 60.2031 84.8613ZM53.2207 84.8613C53.2207 86.6126 53.3704 87.8691 53.6699 88.6309C53.9759 89.3861 54.487 89.7637 55.2031 89.7637C55.9062 89.7637 56.4141 89.3796 56.7266 88.6113C57.0391 87.8431 57.1953 86.5931 57.1953 84.8613C57.1953 83.11 57.0358 81.8535 56.7168 81.0918C56.4043 80.3236 55.8997 79.9395 55.2031 79.9395C54.4935 79.9395 53.9857 80.3236 53.6797 81.0918C53.3737 81.8535 53.2207 83.11 53.2207 84.8613Z" fill="#04977E"/>
<path d="M63.6533 85C63.6533 85.5788 63.7035 86.0117 63.8037 86.2988C63.9085 86.5814 64.0749 86.7227 64.3027 86.7227C64.7402 86.7227 64.959 86.1484 64.959 85C64.959 83.8607 64.7402 83.291 64.3027 83.291C64.0749 83.291 63.9085 83.4323 63.8037 83.7148C63.7035 83.9928 63.6533 84.4212 63.6533 85ZM66.6816 84.9863C66.6816 86.0345 66.4788 86.8229 66.0732 87.3516C65.6676 87.8757 65.0729 88.1377 64.2891 88.1377C63.5371 88.1377 62.9561 87.8688 62.5459 87.3311C62.1357 86.7887 61.9307 86.0072 61.9307 84.9863C61.9307 82.9036 62.7168 81.8623 64.2891 81.8623C65.0592 81.8623 65.6494 82.1335 66.0596 82.6758C66.4743 83.2135 66.6816 83.9837 66.6816 84.9863ZM71.3848 82.0059L65.8408 92H64.2002L69.7441 82.0059H71.3848ZM70.6533 88.9922C70.6533 89.571 70.7035 90.0039 70.8037 90.291C70.9085 90.5736 71.0749 90.7148 71.3027 90.7148C71.7402 90.7148 71.959 90.1406 71.959 88.9922C71.959 87.8529 71.7402 87.2832 71.3027 87.2832C71.0749 87.2832 70.9085 87.4245 70.8037 87.707C70.7035 87.985 70.6533 88.4134 70.6533 88.9922ZM73.6816 88.9785C73.6816 90.0221 73.4788 90.8083 73.0732 91.3369C72.6676 91.861 72.0729 92.123 71.2891 92.123C70.5371 92.123 69.9561 91.8542 69.5459 91.3164C69.1357 90.7741 68.9307 89.9948 68.9307 88.9785C68.9307 86.8958 69.7168 85.8545 71.2891 85.8545C72.0592 85.8545 72.6494 86.1257 73.0596 86.668C73.4743 87.2057 73.6816 87.9759 73.6816 88.9785Z" fill="#04977E"/>
<path d="M130 22.5C142.979 22.5 153.5 33.0213 153.5 46C153.5 58.9787 142.979 69.5 130 69.5C117.021 69.5 106.5 58.9787 106.5 46C106.5 33.0213 117.021 22.5 130 22.5ZM130 33.5C123.096 33.5 117.5 39.0964 117.5 46C117.5 52.9036 123.096 58.5 130 58.5C136.904 58.5 142.5 52.9036 142.5 46C142.5 39.0964 136.904 33.5 130 33.5Z" stroke="#8090A3"/>
<path d="M148 46C148 48.3638 147.534 50.7044 146.63 52.8883C145.725 55.0722 144.399 57.0565 142.728 58.7279C141.056 60.3994 139.072 61.7252 136.888 62.6298C134.704 63.5344 132.364 64 130 64C127.636 64 125.296 63.5344 123.112 62.6298C120.928 61.7252 118.944 60.3994 117.272 58.7279C115.601 57.0565 114.275 55.0722 113.37 52.8883C112.466 50.7044 112 48.3638 112 46C112 43.6362 112.466 41.2956 113.37 39.1117C114.275 36.9278 115.601 34.9435 117.272 33.2721C118.944 31.6006 120.928 30.2747 123.112 29.3702C125.296 28.4656 127.636 28 130 28C132.364 28 134.704 28.4656 136.888 29.3702C139.072 30.2748 141.056 31.6006 142.728 33.2721C144.399 34.9435 145.725 36.9278 146.63 39.1117C147.534 41.2956 148 43.6362 148 46L148 46Z" stroke="#FAFBFB" stroke-width="8" stroke-linecap="round" stroke-linejoin="round"/>
<path d="M130 28C132.364 28 134.704 28.4656 136.888 29.3702C139.072 30.2748 141.056 31.6006 142.728 33.2721C144.399 34.9435 145.725 36.9278 146.63 39.1117C147.534 41.2956 148 43.6362 148 46" stroke="#04977E" stroke-width="8"/>
<path d="M122.781 92H112.801V89.9004L116.385 86.2773C117.446 85.1901 118.139 84.4382 118.465 84.0215C118.79 83.5983 119.025 83.2077 119.168 82.8496C119.311 82.4915 119.383 82.1204 119.383 81.7363C119.383 81.1634 119.223 80.737 118.904 80.457C118.592 80.1771 118.172 80.0371 117.645 80.0371C117.091 80.0371 116.554 80.1641 116.033 80.418C115.512 80.6719 114.969 81.0332 114.402 81.502L112.762 79.5586C113.465 78.9596 114.048 78.5365 114.51 78.2891C114.972 78.0417 115.477 77.8529 116.023 77.7227C116.57 77.5859 117.182 77.5176 117.859 77.5176C118.751 77.5176 119.539 77.6803 120.223 78.0059C120.906 78.3314 121.437 78.7871 121.814 79.373C122.192 79.959 122.381 80.6296 122.381 81.3848C122.381 82.0423 122.264 82.6608 122.029 83.2402C121.801 83.8132 121.443 84.4023 120.955 85.0078C120.473 85.6133 119.62 86.4759 118.396 87.5957L116.561 89.3242V89.4609H122.781V92ZM129.422 82.8789C130.802 82.8789 131.899 83.2663 132.713 84.041C133.533 84.8158 133.943 85.877 133.943 87.2246C133.943 88.8197 133.452 90.0469 132.469 90.9062C131.486 91.7656 130.079 92.1953 128.25 92.1953C126.661 92.1953 125.379 91.9382 124.402 91.4238V88.8164C124.917 89.0898 125.516 89.3145 126.199 89.4902C126.883 89.6595 127.531 89.7441 128.143 89.7441C129.985 89.7441 130.906 88.9889 130.906 87.4785C130.906 86.0397 129.952 85.3203 128.045 85.3203C127.7 85.3203 127.319 85.3561 126.902 85.4277C126.486 85.4928 126.147 85.5645 125.887 85.6426L124.686 84.998L125.223 77.7227H132.967V80.2812H127.869L127.605 83.084L127.947 83.0156C128.344 82.9245 128.836 82.8789 129.422 82.8789Z" fill="#04977E"/>
<path d="M137.153 85C137.153 85.5788 137.203 86.0117 137.304 86.2988C137.409 86.5814 137.575 86.7227 137.803 86.7227C138.24 86.7227 138.459 86.1484 138.459 85C138.459 83.8607 138.24 83.291 137.803 83.291C137.575 83.291 137.409 83.4323 137.304 83.7148C137.203 83.9928 137.153 84.4212 137.153 85ZM140.182 84.9863C140.182 86.0345 139.979 86.8229 139.573 87.3516C139.168 87.8757 138.573 88.1377 137.789 88.1377C137.037 88.1377 136.456 87.8688 136.046 87.3311C135.636 86.7887 135.431 86.0072 135.431 84.9863C135.431 82.9036 136.217 81.8623 137.789 81.8623C138.559 81.8623 139.149 82.1335 139.56 82.6758C139.974 83.2135 140.182 83.9837 140.182 84.9863ZM144.885 82.0059L139.341 92H137.7L143.244 82.0059H144.885ZM144.153 88.9922C144.153 89.571 144.203 90.0039 144.304 90.291C144.409 90.5736 144.575 90.7148 144.803 90.7148C145.24 90.7148 145.459 90.1406 145.459 88.9922C145.459 87.8529 145.24 87.2832 144.803 87.2832C144.575 87.2832 144.409 87.4245 144.304 87.707C144.203 87.985 144.153 88.4134 144.153 88.9922ZM147.182 88.9785C147.182 90.0221 146.979 90.8083 146.573 91.3369C146.168 91.861 145.573 92.123 144.789 92.123C144.037 92.123 143.456 91.8542 143.046 91.3164C142.636 90.7741 142.431 89.9948 142.431 88.9785C142.431 86.8958 143.217 85.8545 144.789 85.8545C145.559 85.8545 146.149 86.1257 146.56 86.668C146.974 87.2057 147.182 87.9759 147.182 88.9785Z" fill="#04977E"/>
<path d="M203 22.5C215.979 22.5 226.5 33.0213 226.5 46C226.5 58.9787 215.979 69.5 203 69.5C190.021 69.5 179.5 58.9787 179.5 46C179.5 33.0213 190.021 22.5 203 22.5ZM203 33.5C196.096 33.5 190.5 39.0964 190.5 46C190.5 52.9036 196.096 58.5 203 58.5C209.904 58.5 215.5 52.9036 215.5 46C215.5 39.0964 209.904 33.5 203 33.5Z" stroke="#8090A3"/>
<path d="M221 46C221 48.3638 220.534 50.7044 219.63 52.8883C218.725 55.0722 217.399 57.0565 215.728 58.7279C214.056 60.3994 212.072 61.7252 209.888 62.6298C207.704 63.5344 205.364 64 203 64C200.636 64 198.296 63.5344 196.112 62.6298C193.928 61.7252 191.944 60.3994 190.272 58.7279C188.601 57.0565 187.275 55.0722 186.37 52.8883C185.466 50.7044 185 48.3638 185 46C185 43.6362 185.466 41.2956 186.37 39.1117C187.275 36.9278 188.601 34.9435 190.272 33.2721C191.944 31.6006 193.928 30.2747 196.112 29.3702C198.296 28.4656 200.636 28 203 28C205.364 28 207.704 28.4656 209.888 29.3702C212.072 30.2748 214.056 31.6006 215.728 33.2721C217.399 34.9435 218.725 36.9278 219.63 39.1117C220.534 41.2956 221 43.6362 221 46L221 46Z" stroke="#FAFBFB" stroke-width="8" stroke-linecap="round" stroke-linejoin="round"/>
<path d="M203 28C205.364 28 207.704 28.4656 209.888 29.3702C212.072 30.2748 214.056 31.6006 215.728 33.2721C217.399 34.9435 218.725 36.9278 219.63 39.1117C220.534 41.2956 221 43.6362 221 46C221 48.3638 220.534 50.7044 219.63 52.8883C218.725 55.0722 217.399 57.0565 215.728 58.7279C214.056 60.3994 212.072 61.7252 209.888 62.6298C207.704 63.5344 205.364 64 203 64" stroke="#04977E" stroke-width="8"/>
<path d="M190.996 82.8789C192.376 82.8789 193.473 83.2663 194.287 84.041C195.107 84.8158 195.518 85.877 195.518 87.2246C195.518 88.8197 195.026 90.0469 194.043 90.9062C193.06 91.7656 191.654 92.1953 189.824 92.1953C188.236 92.1953 186.953 91.9382 185.977 91.4238V88.8164C186.491 89.0898 187.09 89.3145 187.773 89.4902C188.457 89.6595 189.105 89.7441 189.717 89.7441C191.559 89.7441 192.48 88.9889 192.48 87.4785C192.48 86.0397 191.527 85.3203 189.619 85.3203C189.274 85.3203 188.893 85.3561 188.477 85.4277C188.06 85.4928 187.721 85.5645 187.461 85.6426L186.26 84.998L186.797 77.7227H194.541V80.2812H189.443L189.18 83.084L189.521 83.0156C189.919 82.9245 190.41 82.8789 190.996 82.8789ZM207.129 84.8613C207.129 87.3548 206.719 89.2005 205.898 90.3984C205.085 91.5964 203.828 92.1953 202.129 92.1953C200.482 92.1953 199.238 91.5768 198.398 90.3398C197.565 89.1029 197.148 87.2767 197.148 84.8613C197.148 82.3418 197.555 80.4863 198.369 79.2949C199.183 78.097 200.436 77.498 202.129 77.498C203.776 77.498 205.02 78.123 205.859 79.373C206.706 80.623 207.129 82.4525 207.129 84.8613ZM200.146 84.8613C200.146 86.6126 200.296 87.8691 200.596 88.6309C200.902 89.3861 201.413 89.7637 202.129 89.7637C202.832 89.7637 203.34 89.3796 203.652 88.6113C203.965 87.8431 204.121 86.5931 204.121 84.8613C204.121 83.11 203.962 81.8535 203.643 81.0918C203.33 80.3236 202.826 79.9395 202.129 79.9395C201.419 79.9395 200.911 80.3236 200.605 81.0918C200.299 81.8535 200.146 83.11 200.146 84.8613Z" fill="#04977E"/>
<path d="M210.153 85C210.153 85.5788 210.203 86.0117 210.304 86.2988C210.409 86.5814 210.575 86.7227 210.803 86.7227C211.24 86.7227 211.459 86.1484 211.459 85C211.459 83.8607 211.24 83.291 210.803 83.291C210.575 83.291 210.409 83.4323 210.304 83.7148C210.203 83.9928 210.153 84.4212 210.153 85ZM213.182 84.9863C213.182 86.0345 212.979 86.8229 212.573 87.3516C212.168 87.8757 211.573 88.1377 210.789 88.1377C210.037 88.1377 209.456 87.8688 209.046 87.3311C208.636 86.7887 208.431 86.0072 208.431 84.9863C208.431 82.9036 209.217 81.8623 210.789 81.8623C211.559 81.8623 212.149 82.1335 212.56 82.6758C212.974 83.2135 213.182 83.9837 213.182 84.9863ZM217.885 82.0059L212.341 92H210.7L216.244 82.0059H217.885ZM217.153 88.9922C217.153 89.571 217.203 90.0039 217.304 90.291C217.409 90.5736 217.575 90.7148 217.803 90.7148C218.24 90.7148 218.459 90.1406 218.459 88.9922C218.459 87.8529 218.24 87.2832 217.803 87.2832C217.575 87.2832 217.409 87.4245 217.304 87.707C217.203 87.985 217.153 88.4134 217.153 88.9922ZM220.182 88.9785C220.182 90.0221 219.979 90.8083 219.573 91.3369C219.168 91.861 218.573 92.123 217.789 92.123C217.037 92.123 216.456 91.8542 216.046 91.3164C215.636 90.7741 215.431 89.9948 215.431 88.9785C215.431 86.8958 216.217 85.8545 217.789 85.8545C218.559 85.8545 219.149 86.1257 219.56 86.668C219.974 87.2057 220.182 87.9759 220.182 88.9785Z" fill="#04977E"/>
<path d="M349 22.5C361.979 22.5 372.5 33.0213 372.5 46C372.5 58.9787 361.979 69.5 349 69.5C336.021 69.5 325.5 58.9787 325.5 46C325.5 33.0213 336.021 22.5 349 22.5ZM349 33.5C342.096 33.5 336.5 39.0964 336.5 46C336.5 52.9036 342.096 58.5 349 58.5C355.904 58.5 361.5 52.9036 361.5 46C361.5 39.0964 355.904 33.5 349 33.5Z" stroke="#8090A3"/>
<path d="M367 46C367 48.3638 366.534 50.7044 365.63 52.8883C364.725 55.0722 363.399 57.0565 361.728 58.7279C360.056 60.3994 358.072 61.7252 355.888 62.6298C353.704 63.5344 351.364 64 349 64C346.636 64 344.296 63.5344 342.112 62.6298C339.928 61.7252 337.944 60.3994 336.272 58.7279C334.601 57.0565 333.275 55.0722 332.37 52.8883C331.466 50.7044 331 48.3638 331 46C331 43.6362 331.466 41.2956 332.37 39.1117C333.275 36.9278 334.601 34.9435 336.272 33.2721C337.944 31.6006 339.928 30.2747 342.112 29.3702C344.296 28.4656 346.636 28 349 28C351.364 28 353.704 28.4656 355.888 29.3702C358.072 30.2748 360.056 31.6006 361.728 33.2721C363.399 34.9435 364.725 36.9278 365.63 39.1117C366.534 41.2956 367 43.6362 367 46L367 46Z" stroke="#FAFBFB" stroke-width="8" stroke-linecap="round" stroke-linejoin="round"/>
<path d="M349 28C351.364 28 353.704 28.4656 355.888 29.3702C358.072 30.2748 360.056 31.6006 361.728 33.2721C363.399 34.9435 364.725 36.9278 365.63 39.1117C366.534 41.2956 367 43.6362 367 46C367 48.3638 366.534 50.7044 365.63 52.8883C364.725 55.0722 363.399 57.0565 361.728 58.7279C360.056 60.3994 358.072 61.7252 355.888 62.6298C353.704 63.5344 351.364 64 349 64C346.636 64 344.296 63.5344 342.112 62.6298C339.928 61.7252 337.944 60.3994 336.272 58.7279C334.601 57.0565 333.275 55.0722 332.37 52.8883C331.466 50.7044 331 48.3638 331 46C331 43.6362 331.466 41.2955 332.37 39.1117C333.275 36.9278 334.601 34.9435 336.272 33.2721C337.944 31.6006 339.928 30.2747 342.112 29.3702C344.296 28.4656 346.636 28 349 28L349 28Z" stroke="#04977E" stroke-width="8"/>
<path d="M333.262 92H330.244V83.7383L330.273 82.3809L330.322 80.8965C329.821 81.3978 329.473 81.7266 329.277 81.8828L327.637 83.2012L326.182 81.3848L330.781 77.7227H333.262V92ZM347.129 84.8613C347.129 87.3548 346.719 89.2005 345.898 90.3984C345.085 91.5964 343.828 92.1953 342.129 92.1953C340.482 92.1953 339.238 91.5768 338.398 90.3398C337.565 89.1029 337.148 87.2767 337.148 84.8613C337.148 82.3418 337.555 80.4863 338.369 79.2949C339.183 78.097 340.436 77.498 342.129 77.498C343.776 77.498 345.02 78.123 345.859 79.373C346.706 80.623 347.129 82.4525 347.129 84.8613ZM340.146 84.8613C340.146 86.6126 340.296 87.8691 340.596 88.6309C340.902 89.3861 341.413 89.7637 342.129 89.7637C342.832 89.7637 343.34 89.3796 343.652 88.6113C343.965 87.8431 344.121 86.5931 344.121 84.8613C344.121 83.11 343.962 81.8535 343.643 81.0918C343.33 80.3236 342.826 79.9395 342.129 79.9395C341.419 79.9395 340.911 80.3236 340.605 81.0918C340.299 81.8535 340.146 83.11 340.146 84.8613ZM358.555 84.8613C358.555 87.3548 358.145 89.2005 357.324 90.3984C356.51 91.5964 355.254 92.1953 353.555 92.1953C351.908 92.1953 350.664 91.5768 349.824 90.3398C348.991 89.1029 348.574 87.2767 348.574 84.8613C348.574 82.3418 348.981 80.4863 349.795 79.2949C350.609 78.097 351.862 77.498 353.555 77.498C355.202 77.498 356.445 78.123 357.285 79.373C358.132 80.623 358.555 82.4525 358.555 84.8613ZM351.572 84.8613C351.572 86.6126 351.722 87.8691 352.021 88.6309C352.327 89.3861 352.839 89.7637 353.555 89.7637C354.258 89.7637 354.766 89.3796 355.078 88.6113C355.391 87.8431 355.547 86.5931 355.547 84.8613C355.547 83.11 355.387 81.8535 355.068 81.0918C354.756 80.3236 354.251 79.9395 353.555 79.9395C352.845 79.9395 352.337 80.3236 352.031 81.0918C351.725 81.8535 351.572 83.11 351.572 84.8613Z" fill="#04977E"/>
<path d="M362.153 85C362.153 85.5788 362.203 86.0117 362.304 86.2988C362.409 86.5814 362.575 86.7227 362.803 86.7227C363.24 86.7227 363.459 86.1484 363.459 85C363.459 83.8607 363.24 83.291 362.803 83.291C362.575 83.291 362.409 83.4323 362.304 83.7148C362.203 83.9928 362.153 84.4212 362.153 85ZM365.182 84.9863C365.182 86.0345 364.979 86.8229 364.573 87.3516C364.168 87.8757 363.573 88.1377 362.789 88.1377C362.037 88.1377 361.456 87.8688 361.046 87.3311C360.636 86.7887 360.431 86.0072 360.431 84.9863C360.431 82.9036 361.217 81.8623 362.789 81.8623C363.559 81.8623 364.149 82.1335 364.56 82.6758C364.974 83.2135 365.182 83.9837 365.182 84.9863ZM369.885 82.0059L364.341 92H362.7L368.244 82.0059H369.885ZM369.153 88.9922C369.153 89.571 369.203 90.0039 369.304 90.291C369.409 90.5736 369.575 90.7148 369.803 90.7148C370.24 90.7148 370.459 90.1406 370.459 88.9922C370.459 87.8529 370.24 87.2832 369.803 87.2832C369.575 87.2832 369.409 87.4245 369.304 87.707C369.203 87.985 369.153 88.4134 369.153 88.9922ZM372.182 88.9785C372.182 90.0221 371.979 90.8083 371.573 91.3369C371.168 91.861 370.573 92.123 369.789 92.123C369.037 92.123 368.456 91.8542 368.046 91.3164C367.636 90.7741 367.431 89.9948 367.431 88.9785C367.431 86.8958 368.217 85.8545 369.789 85.8545C370.559 85.8545 371.149 86.1257 371.56 86.668C371.974 87.2057 372.182 87.9759 372.182 88.9785Z" fill="#04977E"/>
<path d="M62 121.5C74.9787 121.5 85.5 132.021 85.5 145C85.5 157.979 74.9787 168.5 62 168.5C49.0213 168.5 38.5 157.979 38.5 145C38.5 132.021 49.0213 121.5 62 121.5ZM62 132.5C55.0964 132.5 49.5 138.096 49.5 145C49.5 151.904 55.0964 157.5 62 157.5C68.9036 157.5 74.5 151.904 74.5 145C74.5 138.096 68.9036 132.5 62 132.5Z" stroke="#8090A3"/>
<path d="M80 145C80 147.364 79.5344 149.704 78.6298 151.888C77.7252 154.072 76.3994 156.056 74.7279 157.728C73.0565 159.399 71.0722 160.725 68.8883 161.63C66.7044 162.534 64.3638 163 62 163C59.6362 163 57.2956 162.534 55.1117 161.63C52.9278 160.725 50.9435 159.399 49.2721 157.728C47.6006 156.056 46.2748 154.072 45.3702 151.888C44.4656 149.704 44 147.364 44 145C44 142.636 44.4656 140.296 45.3702 138.112C46.2748 135.928 47.6006 133.944 49.2721 132.272C50.9435 130.601 52.9278 129.275 55.1117 128.37C57.2956 127.466 59.6362 127 62 127C64.3638 127 66.7045 127.466 68.8883 128.37C71.0722 129.275 73.0565 130.601 74.7279 132.272C76.3994 133.944 77.7253 135.928 78.6298 138.112C79.5344 140.296 80 142.636 80 145L80 145Z" stroke="#FAFBFB" stroke-width="8" stroke-linecap="round" stroke-linejoin="round"/>
<path d="M51.7031 183.861C51.7031 186.355 51.293 188.201 50.4727 189.398C49.6589 190.596 48.4023 191.195 46.7031 191.195C45.056 191.195 43.8125 190.577 42.9727 189.34C42.1393 188.103 41.7227 186.277 41.7227 183.861C41.7227 181.342 42.1296 179.486 42.9434 178.295C43.7572 177.097 45.0104 176.498 46.7031 176.498C48.3503 176.498 49.5938 177.123 50.4336 178.373C51.2799 179.623 51.7031 181.452 51.7031 183.861ZM44.7207 183.861C44.7207 185.613 44.8704 186.869 45.1699 187.631C45.4759 188.386 45.987 188.764 46.7031 188.764C47.4062 188.764 47.9141 188.38 48.2266 187.611C48.5391 186.843 48.6953 185.593 48.6953 183.861C48.6953 182.11 48.5358 180.854 48.2168 180.092C47.9043 179.324 47.3997 178.939 46.7031 178.939C45.9935 178.939 45.4857 179.324 45.1797 180.092C44.8737 180.854 44.7207 182.11 44.7207 183.861Z" fill="#04977E"/>
<path d="M58.7148 181.006L54.9893 191H53.0957L56.8213 181.006H58.7148Z" fill="#8090A3"/>
<path d="M64.7832 191H62.6709V185.217L62.6914 184.267L62.7256 183.228C62.3747 183.578 62.1309 183.809 61.9941 183.918L60.8457 184.841L59.8271 183.569L63.0469 181.006H64.7832V191ZM74.4902 186.003C74.4902 187.748 74.2031 189.04 73.6289 189.879C73.0592 190.717 72.1797 191.137 70.9902 191.137C69.8372 191.137 68.9668 190.704 68.3789 189.838C67.7956 188.972 67.5039 187.694 67.5039 186.003C67.5039 184.239 67.7887 182.94 68.3584 182.106C68.9281 181.268 69.8053 180.849 70.9902 180.849C72.1432 180.849 73.0137 181.286 73.6016 182.161C74.194 183.036 74.4902 184.317 74.4902 186.003ZM69.6025 186.003C69.6025 187.229 69.7074 188.108 69.917 188.642C70.1312 189.17 70.4889 189.435 70.9902 189.435C71.4824 189.435 71.8379 189.166 72.0566 188.628C72.2754 188.09 72.3848 187.215 72.3848 186.003C72.3848 184.777 72.2731 183.897 72.0498 183.364C71.8311 182.826 71.4779 182.558 70.9902 182.558C70.4935 182.558 70.138 182.826 69.9238 183.364C69.7096 183.897 69.6025 184.777 69.6025 186.003ZM82.4883 186.003C82.4883 187.748 82.2012 189.04 81.627 189.879C81.0573 190.717 80.1777 191.137 78.9883 191.137C77.8353 191.137 76.9648 190.704 76.377 189.838C75.7936 188.972 75.502 187.694 75.502 186.003C75.502 184.239 75.7868 182.94 76.3564 182.106C76.9261 181.268 77.8034 180.849 78.9883 180.849C80.1413 180.849 81.0117 181.286 81.5996 182.161C82.1921 183.036 82.4883 184.317 82.4883 186.003ZM77.6006 186.003C77.6006 187.229 77.7054 188.108 77.915 188.642C78.1292 189.17 78.487 189.435 78.9883 189.435C79.4805 189.435 79.8359 189.166 80.0547 188.628C80.2734 188.09 80.3828 187.215 80.3828 186.003C80.3828 184.777 80.2712 183.897 80.0479 183.364C79.8291 182.826 79.4759 182.558 78.9883 182.558C78.4915 182.558 78.1361 182.826 77.9219 183.364C77.7077 183.897 77.6006 184.777 77.6006 186.003Z" fill="#8090A3"/>
<path d="M132.5 121.5C145.479 121.5 156 132.021 156 145C156 157.979 145.479 168.5 132.5 168.5C119.521 168.5 109 157.979 109 145C109 132.021 119.521 121.5 132.5 121.5ZM132.5 132.5C125.596 132.5 120 138.096 120 145C120 151.904 125.596 157.5 132.5 157.5C139.404 157.5 145 151.904 145 145C145 138.096 139.404 132.5 132.5 132.5Z" stroke="#8090A3"/>
<path d="M150.5 145C150.5 147.364 150.034 149.704 149.13 151.888C148.225 154.072 146.899 156.056 145.228 157.728C143.556 159.399 141.572 160.725 139.388 161.63C137.204 162.534 134.864 163 132.5 163C130.136 163 127.796 162.534 125.612 161.63C123.428 160.725 121.444 159.399 119.772 157.728C118.101 156.056 116.775 154.072 115.87 151.888C114.966 149.704 114.5 147.364 114.5 145C114.5 142.636 114.966 140.296 115.87 138.112C116.775 135.928 118.101 133.944 119.772 132.272C121.444 130.601 123.428 129.275 125.612 128.37C127.796 127.466 130.136 127 132.5 127C134.864 127 137.204 127.466 139.388 128.37C141.572 129.275 143.556 130.601 145.228 132.272C146.899 133.944 148.225 135.928 149.13 138.112C150.034 140.296 150.5 142.636 150.5 145L150.5 145Z" stroke="#FAFBFB" stroke-width="8" stroke-linecap="round" stroke-linejoin="round"/>
<path d="M132.5 127C134.864 127 137.204 127.466 139.388 128.37C141.572 129.275 143.556 130.601 145.228 132.272C146.899 133.944 148.225 135.928 149.13 138.112C150.034 140.296 150.5 142.636 150.5 145" stroke="#04977E" stroke-width="8"/>
<path d="M116.781 191H106.801V188.9L110.385 185.277C111.446 184.19 112.139 183.438 112.465 183.021C112.79 182.598 113.025 182.208 113.168 181.85C113.311 181.492 113.383 181.12 113.383 180.736C113.383 180.163 113.223 179.737 112.904 179.457C112.592 179.177 112.172 179.037 111.645 179.037C111.091 179.037 110.554 179.164 110.033 179.418C109.512 179.672 108.969 180.033 108.402 180.502L106.762 178.559C107.465 177.96 108.048 177.536 108.51 177.289C108.972 177.042 109.477 176.853 110.023 176.723C110.57 176.586 111.182 176.518 111.859 176.518C112.751 176.518 113.539 176.68 114.223 177.006C114.906 177.331 115.437 177.787 115.814 178.373C116.192 178.959 116.381 179.63 116.381 180.385C116.381 181.042 116.264 181.661 116.029 182.24C115.801 182.813 115.443 183.402 114.955 184.008C114.473 184.613 113.62 185.476 112.396 186.596L110.561 188.324V188.461H116.781V191ZM123.422 181.879C124.802 181.879 125.899 182.266 126.713 183.041C127.533 183.816 127.943 184.877 127.943 186.225C127.943 187.82 127.452 189.047 126.469 189.906C125.486 190.766 124.079 191.195 122.25 191.195C120.661 191.195 119.379 190.938 118.402 190.424V187.816C118.917 188.09 119.516 188.314 120.199 188.49C120.883 188.66 121.531 188.744 122.143 188.744C123.985 188.744 124.906 187.989 124.906 186.479C124.906 185.04 123.952 184.32 122.045 184.32C121.7 184.32 121.319 184.356 120.902 184.428C120.486 184.493 120.147 184.564 119.887 184.643L118.686 183.998L119.223 176.723H126.967V179.281H121.869L121.605 182.084L121.947 182.016C122.344 181.924 122.836 181.879 123.422 181.879Z" fill="#04977E"/>
<path d="M134.715 181.006L130.989 191H129.096L132.821 181.006H134.715Z" fill="#8090A3"/>
<path d="M140.783 191H138.671V185.217L138.691 184.267L138.726 183.228C138.375 183.578 138.131 183.809 137.994 183.918L136.846 184.841L135.827 183.569L139.047 181.006H140.783V191ZM150.49 186.003C150.49 187.748 150.203 189.04 149.629 189.879C149.059 190.717 148.18 191.137 146.99 191.137C145.837 191.137 144.967 190.704 144.379 189.838C143.796 188.972 143.504 187.694 143.504 186.003C143.504 184.239 143.789 182.94 144.358 182.106C144.928 181.268 145.805 180.849 146.99 180.849C148.143 180.849 149.014 181.286 149.602 182.161C150.194 183.036 150.49 184.317 150.49 186.003ZM145.603 186.003C145.603 187.229 145.707 188.108 145.917 188.642C146.131 189.17 146.489 189.435 146.99 189.435C147.482 189.435 147.838 189.166 148.057 188.628C148.275 188.09 148.385 187.215 148.385 186.003C148.385 184.777 148.273 183.897 148.05 183.364C147.831 182.826 147.478 182.558 146.99 182.558C146.493 182.558 146.138 182.826 145.924 183.364C145.71 183.897 145.603 184.777 145.603 186.003ZM158.488 186.003C158.488 187.748 158.201 189.04 157.627 189.879C157.057 190.717 156.178 191.137 154.988 191.137C153.835 191.137 152.965 190.704 152.377 189.838C151.794 188.972 151.502 187.694 151.502 186.003C151.502 184.239 151.787 182.94 152.356 182.106C152.926 181.268 153.803 180.849 154.988 180.849C156.141 180.849 157.012 181.286 157.6 182.161C158.192 183.036 158.488 184.317 158.488 186.003ZM153.601 186.003C153.601 187.229 153.705 188.108 153.915 188.642C154.129 189.17 154.487 189.435 154.988 189.435C155.48 189.435 155.836 189.166 156.055 188.628C156.273 188.09 156.383 187.215 156.383 186.003C156.383 184.777 156.271 183.897 156.048 183.364C155.829 182.826 155.476 182.558 154.988 182.558C154.492 182.558 154.136 182.826 153.922 183.364C153.708 183.897 153.601 184.777 153.601 186.003Z" fill="#8090A3"/>
<path d="M205.5 121.5C218.479 121.5 229 132.021 229 145C229 157.979 218.479 168.5 205.5 168.5C192.521 168.5 182 157.979 182 145C182 132.021 192.521 121.5 205.5 121.5ZM205.5 132.5C198.596 132.5 193 138.096 193 145C193 151.904 198.596 157.5 205.5 157.5C212.404 157.5 218 151.904 218 145C218 138.096 212.404 132.5 205.5 132.5Z" stroke="#8090A3"/>
<path d="M223.5 145C223.5 147.364 223.034 149.704 222.13 151.888C221.225 154.072 219.899 156.056 218.228 157.728C216.556 159.399 214.572 160.725 212.388 161.63C210.204 162.534 207.864 163 205.5 163C203.136 163 200.796 162.534 198.612 161.63C196.428 160.725 194.444 159.399 192.772 157.728C191.101 156.056 189.775 154.072 188.87 151.888C187.966 149.704 187.5 147.364 187.5 145C187.5 142.636 187.966 140.296 188.87 138.112C189.775 135.928 191.101 133.944 192.772 132.272C194.444 130.601 196.428 129.275 198.612 128.37C200.796 127.466 203.136 127 205.5 127C207.864 127 210.204 127.466 212.388 128.37C214.572 129.275 216.556 130.601 218.228 132.272C219.899 133.944 221.225 135.928 222.13 138.112C223.034 140.296 223.5 142.636 223.5 145L223.5 145Z" stroke="#FAFBFB" stroke-width="8" stroke-linecap="round" stroke-linejoin="round"/>
<path d="M205.5 127C207.864 127 210.204 127.466 212.388 128.37C214.572 129.275 216.556 130.601 218.228 132.272C219.899 133.944 221.225 135.928 222.13 138.112C223.034 140.296 223.5 142.636 223.5 145C223.5 147.364 223.034 149.704 222.13 151.888C221.225 154.072 219.899 156.056 218.228 157.728C216.556 159.399 214.572 160.725 212.388 161.63C210.204 162.534 207.864 163 205.5 163" stroke="#04977E" stroke-width="8"/>
<path d="M184.996 181.879C186.376 181.879 187.473 182.266 188.287 183.041C189.107 183.816 189.518 184.877 189.518 186.225C189.518 187.82 189.026 189.047 188.043 189.906C187.06 190.766 185.654 191.195 183.824 191.195C182.236 191.195 180.953 190.938 179.977 190.424V187.816C180.491 188.09 181.09 188.314 181.773 188.49C182.457 188.66 183.105 188.744 183.717 188.744C185.559 188.744 186.48 187.989 186.48 186.479C186.48 185.04 185.527 184.32 183.619 184.32C183.274 184.32 182.893 184.356 182.477 184.428C182.06 184.493 181.721 184.564 181.461 184.643L180.26 183.998L180.797 176.723H188.541V179.281H183.443L183.18 182.084L183.521 182.016C183.919 181.924 184.41 181.879 184.996 181.879ZM201.129 183.861C201.129 186.355 200.719 188.201 199.898 189.398C199.085 190.596 197.828 191.195 196.129 191.195C194.482 191.195 193.238 190.577 192.398 189.34C191.565 188.103 191.148 186.277 191.148 183.861C191.148 181.342 191.555 179.486 192.369 178.295C193.183 177.097 194.436 176.498 196.129 176.498C197.776 176.498 199.02 177.123 199.859 178.373C200.706 179.623 201.129 181.452 201.129 183.861ZM194.146 183.861C194.146 185.613 194.296 186.869 194.596 187.631C194.902 188.386 195.413 188.764 196.129 188.764C196.832 188.764 197.34 188.38 197.652 187.611C197.965 186.843 198.121 185.593 198.121 183.861C198.121 182.11 197.962 180.854 197.643 180.092C197.33 179.324 196.826 178.939 196.129 178.939C195.419 178.939 194.911 179.324 194.605 180.092C194.299 180.854 194.146 182.11 194.146 183.861Z" fill="#04977E"/>
<path d="M207.715 181.006L203.989 191H202.096L205.821 181.006H207.715Z" fill="#8090A3"/>
<path d="M213.783 191H211.671V185.217L211.691 184.267L211.726 183.228C211.375 183.578 211.131 183.809 210.994 183.918L209.846 184.841L208.827 183.569L212.047 181.006H213.783V191ZM223.49 186.003C223.49 187.748 223.203 189.04 222.629 189.879C222.059 190.717 221.18 191.137 219.99 191.137C218.837 191.137 217.967 190.704 217.379 189.838C216.796 188.972 216.504 187.694 216.504 186.003C216.504 184.239 216.789 182.94 217.358 182.106C217.928 181.268 218.805 180.849 219.99 180.849C221.143 180.849 222.014 181.286 222.602 182.161C223.194 183.036 223.49 184.317 223.49 186.003ZM218.603 186.003C218.603 187.229 218.707 188.108 218.917 188.642C219.131 189.17 219.489 189.435 219.99 189.435C220.482 189.435 220.838 189.166 221.057 188.628C221.275 188.09 221.385 187.215 221.385 186.003C221.385 184.777 221.273 183.897 221.05 183.364C220.831 182.826 220.478 182.558 219.99 182.558C219.493 182.558 219.138 182.826 218.924 183.364C218.71 183.897 218.603 184.777 218.603 186.003ZM231.488 186.003C231.488 187.748 231.201 189.04 230.627 189.879C230.057 190.717 229.178 191.137 227.988 191.137C226.835 191.137 225.965 190.704 225.377 189.838C224.794 188.972 224.502 187.694 224.502 186.003C224.502 184.239 224.787 182.94 225.356 182.106C225.926 181.268 226.803 180.849 227.988 180.849C229.141 180.849 230.012 181.286 230.6 182.161C231.192 183.036 231.488 184.317 231.488 186.003ZM226.601 186.003C226.601 187.229 226.705 188.108 226.915 188.642C227.129 189.17 227.487 189.435 227.988 189.435C228.48 189.435 228.836 189.166 229.055 188.628C229.273 188.09 229.383 187.215 229.383 186.003C229.383 184.777 229.271 183.897 229.048 183.364C228.829 182.826 228.476 182.558 227.988 182.558C227.492 182.558 227.136 182.826 226.922 183.364C226.708 183.897 226.601 184.777 226.601 186.003Z" fill="#8090A3"/>
<path d="M278.5 121.5C291.479 121.5 302 132.021 302 145C302 157.979 291.479 168.5 278.5 168.5C265.521 168.5 255 157.979 255 145C255 132.021 265.521 121.5 278.5 121.5ZM278.5 132.5C271.596 132.5 266 138.096 266 145C266 151.904 271.596 157.5 278.5 157.5C285.404 157.5 291 151.904 291 145C291 138.096 285.404 132.5 278.5 132.5Z" stroke="#8090A3"/>
<path d="M296.5 145C296.5 147.364 296.034 149.704 295.13 151.888C294.225 154.072 292.899 156.056 291.228 157.728C289.556 159.399 287.572 160.725 285.388 161.63C283.204 162.534 280.864 163 278.5 163C276.136 163 273.796 162.534 271.612 161.63C269.428 160.725 267.444 159.399 265.772 157.728C264.101 156.056 262.775 154.072 261.87 151.888C260.966 149.704 260.5 147.364 260.5 145C260.5 142.636 260.966 140.296 261.87 138.112C262.775 135.928 264.101 133.944 265.772 132.272C267.444 130.601 269.428 129.275 271.612 128.37C273.796 127.466 276.136 127 278.5 127C280.864 127 283.204 127.466 285.388 128.37C287.572 129.275 289.556 130.601 291.228 132.272C292.899 133.944 294.225 135.928 295.13 138.112C296.034 140.296 296.5 142.636 296.5 145L296.5 145Z" stroke="#FAFBFB" stroke-width="8" stroke-linecap="round" stroke-linejoin="round"/>
<path d="M278.5 127C282.06 127 285.54 128.056 288.5 130.034C291.46 132.011 293.767 134.823 295.13 138.112C296.492 141.401 296.849 145.02 296.154 148.512C295.46 152.003 293.745 155.211 291.228 157.728C288.711 160.245 285.503 161.96 282.012 162.654C278.52 163.349 274.901 162.992 271.612 161.63C268.323 160.267 265.511 157.96 263.534 155C261.556 152.04 260.5 148.56 260.5 145" stroke="#04977E" stroke-width="8"/>
<path d="M254.217 191L259.578 179.281H252.537V176.742H262.781V178.637L257.381 191H254.217ZM269.422 181.879C270.802 181.879 271.899 182.266 272.713 183.041C273.533 183.816 273.943 184.877 273.943 186.225C273.943 187.82 273.452 189.047 272.469 189.906C271.486 190.766 270.079 191.195 268.25 191.195C266.661 191.195 265.379 190.938 264.402 190.424V187.816C264.917 188.09 265.516 188.314 266.199 188.49C266.883 188.66 267.531 188.744 268.143 188.744C269.985 188.744 270.906 187.989 270.906 186.479C270.906 185.04 269.952 184.32 268.045 184.32C267.7 184.32 267.319 184.356 266.902 184.428C266.486 184.493 266.147 184.564 265.887 184.643L264.686 183.998L265.223 176.723H272.967V179.281H267.869L267.605 182.084L267.947 182.016C268.344 181.924 268.836 181.879 269.422 181.879Z" fill="#04977E"/>
<path d="M280.715 181.006L276.989 191H275.096L278.821 181.006H280.715Z" fill="#8090A3"/>
<path d="M286.783 191H284.671V185.217L284.691 184.267L284.726 183.228C284.375 183.578 284.131 183.809 283.994 183.918L282.846 184.841L281.827 183.569L285.047 181.006H286.783V191ZM296.49 186.003C296.49 187.748 296.203 189.04 295.629 189.879C295.059 190.717 294.18 191.137 292.99 191.137C291.837 191.137 290.967 190.704 290.379 189.838C289.796 188.972 289.504 187.694 289.504 186.003C289.504 184.239 289.789 182.94 290.358 182.106C290.928 181.268 291.805 180.849 292.99 180.849C294.143 180.849 295.014 181.286 295.602 182.161C296.194 183.036 296.49 184.317 296.49 186.003ZM291.603 186.003C291.603 187.229 291.707 188.108 291.917 188.642C292.131 189.17 292.489 189.435 292.99 189.435C293.482 189.435 293.838 189.166 294.057 188.628C294.275 188.09 294.385 187.215 294.385 186.003C294.385 184.777 294.273 183.897 294.05 183.364C293.831 182.826 293.478 182.558 292.99 182.558C292.493 182.558 292.138 182.826 291.924 183.364C291.71 183.897 291.603 184.777 291.603 186.003ZM304.488 186.003C304.488 187.748 304.201 189.04 303.627 189.879C303.057 190.717 302.178 191.137 300.988 191.137C299.835 191.137 298.965 190.704 298.377 189.838C297.794 188.972 297.502 187.694 297.502 186.003C297.502 184.239 297.787 182.94 298.356 182.106C298.926 181.268 299.803 180.849 300.988 180.849C302.141 180.849 303.012 181.286 303.6 182.161C304.192 183.036 304.488 184.317 304.488 186.003ZM299.601 186.003C299.601 187.229 299.705 188.108 299.915 188.642C300.129 189.17 300.487 189.435 300.988 189.435C301.48 189.435 301.836 189.166 302.055 188.628C302.273 188.09 302.383 187.215 302.383 186.003C302.383 184.777 302.271 183.897 302.048 183.364C301.829 182.826 301.476 182.558 300.988 182.558C300.492 182.558 300.136 182.826 299.922 183.364C299.708 183.897 299.601 184.777 299.601 186.003Z" fill="#8090A3"/>
<path d="M357.5 121.5C370.479 121.5 381 132.021 381 145C381 157.979 370.479 168.5 357.5 168.5C344.521 168.5 334 157.979 334 145C334 132.021 344.521 121.5 357.5 121.5ZM357.5 132.5C350.596 132.5 345 138.096 345 145C345 151.904 350.596 157.5 357.5 157.5C364.404 157.5 370 151.904 370 145C370 138.096 364.404 132.5 357.5 132.5Z" stroke="#8090A3"/>
<path d="M375.5 145C375.5 147.364 375.034 149.704 374.13 151.888C373.225 154.072 371.899 156.056 370.228 157.728C368.556 159.399 366.572 160.725 364.388 161.63C362.204 162.534 359.864 163 357.5 163C355.136 163 352.796 162.534 350.612 161.63C348.428 160.725 346.444 159.399 344.772 157.728C343.101 156.056 341.775 154.072 340.87 151.888C339.966 149.704 339.5 147.364 339.5 145C339.5 142.636 339.966 140.296 340.87 138.112C341.775 135.928 343.101 133.944 344.772 132.272C346.444 130.601 348.428 129.275 350.612 128.37C352.796 127.466 355.136 127 357.5 127C359.864 127 362.204 127.466 364.388 128.37C366.572 129.275 368.556 130.601 370.228 132.272C371.899 133.944 373.225 135.928 374.13 138.112C375.034 140.296 375.5 142.636 375.5 145L375.5 145Z" stroke="#FAFBFB" stroke-width="8" stroke-linecap="round" stroke-linejoin="round"/>
<path d="M357.5 127C359.864 127 362.204 127.466 364.388 128.37C366.572 129.275 368.556 130.601 370.228 132.272C371.899 133.944 373.225 135.928 374.13 138.112C375.034 140.296 375.5 142.636 375.5 145C375.5 147.364 375.034 149.704 374.13 151.888C373.225 154.072 371.899 156.056 370.228 157.728C368.556 159.399 366.572 160.725 364.388 161.63C362.204 162.534 359.864 163 357.5 163C355.136 163 352.796 162.534 350.612 161.63C348.428 160.725 346.444 159.399 344.772 157.728C343.101 156.056 341.775 154.072 340.87 151.888C339.966 149.704 339.5 147.364 339.5 145C339.5 142.636 339.966 140.296 340.87 138.112C341.775 135.928 343.101 133.944 344.772 132.272C346.444 130.601 348.428 129.275 350.612 128.37C352.796 127.466 355.136 127 357.5 127L357.5 127Z" stroke="#04977E" stroke-width="8"/>
<path d="M333.262 191H330.244V182.738L330.273 181.381L330.322 179.896C329.821 180.398 329.473 180.727 329.277 180.883L327.637 182.201L326.182 180.385L330.781 176.723H333.262V191ZM347.129 183.861C347.129 186.355 346.719 188.201 345.898 189.398C345.085 190.596 343.828 191.195 342.129 191.195C340.482 191.195 339.238 190.577 338.398 189.34C337.565 188.103 337.148 186.277 337.148 183.861C337.148 181.342 337.555 179.486 338.369 178.295C339.183 177.097 340.436 176.498 342.129 176.498C343.776 176.498 345.02 177.123 345.859 178.373C346.706 179.623 347.129 181.452 347.129 183.861ZM340.146 183.861C340.146 185.613 340.296 186.869 340.596 187.631C340.902 188.386 341.413 188.764 342.129 188.764C342.832 188.764 343.34 188.38 343.652 187.611C343.965 186.843 344.121 185.593 344.121 183.861C344.121 182.11 343.962 180.854 343.643 180.092C343.33 179.324 342.826 178.939 342.129 178.939C341.419 178.939 340.911 179.324 340.605 180.092C340.299 180.854 340.146 182.11 340.146 183.861ZM358.555 183.861C358.555 186.355 358.145 188.201 357.324 189.398C356.51 190.596 355.254 191.195 353.555 191.195C351.908 191.195 350.664 190.577 349.824 189.34C348.991 188.103 348.574 186.277 348.574 183.861C348.574 181.342 348.981 179.486 349.795 178.295C350.609 177.097 351.862 176.498 353.555 176.498C355.202 176.498 356.445 177.123 357.285 178.373C358.132 179.623 358.555 181.452 358.555 183.861ZM351.572 183.861C351.572 185.613 351.722 186.869 352.021 187.631C352.327 188.386 352.839 188.764 353.555 188.764C354.258 188.764 354.766 188.38 355.078 187.611C355.391 186.843 355.547 185.593 355.547 183.861C355.547 182.11 355.387 180.854 355.068 180.092C354.756 179.324 354.251 178.939 353.555 178.939C352.845 178.939 352.337 179.324 352.031 180.092C351.725 180.854 351.572 182.11 351.572 183.861Z" fill="#04977E"/>
<path d="M365.715 181.006L361.989 191H360.096L363.821 181.006H365.715Z" fill="#8090A3"/>
<path d="M371.783 191H369.671V185.217L369.691 184.267L369.726 183.228C369.375 183.578 369.131 183.809 368.994 183.918L367.846 184.841L366.827 183.569L370.047 181.006H371.783V191ZM381.49 186.003C381.49 187.748 381.203 189.04 380.629 189.879C380.059 190.717 379.18 191.137 377.99 191.137C376.837 191.137 375.967 190.704 375.379 189.838C374.796 188.972 374.504 187.694 374.504 186.003C374.504 184.239 374.789 182.94 375.358 182.106C375.928 181.268 376.805 180.849 377.99 180.849C379.143 180.849 380.014 181.286 380.602 182.161C381.194 183.036 381.49 184.317 381.49 186.003ZM376.603 186.003C376.603 187.229 376.707 188.108 376.917 188.642C377.131 189.17 377.489 189.435 377.99 189.435C378.482 189.435 378.838 189.166 379.057 188.628C379.275 188.09 379.385 187.215 379.385 186.003C379.385 184.777 379.273 183.897 379.05 183.364C378.831 182.826 378.478 182.558 377.99 182.558C377.493 182.558 377.138 182.826 376.924 183.364C376.71 183.897 376.603 184.777 376.603 186.003ZM389.488 186.003C389.488 187.748 389.201 189.04 388.627 189.879C388.057 190.717 387.178 191.137 385.988 191.137C384.835 191.137 383.965 190.704 383.377 189.838C382.794 188.972 382.502 187.694 382.502 186.003C382.502 184.239 382.787 182.94 383.356 182.106C383.926 181.268 384.803 180.849 385.988 180.849C387.141 180.849 388.012 181.286 388.6 182.161C389.192 183.036 389.488 184.317 389.488 186.003ZM384.601 186.003C384.601 187.229 384.705 188.108 384.915 188.642C385.129 189.17 385.487 189.435 385.988 189.435C386.48 189.435 386.836 189.166 387.055 188.628C387.273 188.09 387.383 187.215 387.383 186.003C387.383 184.777 387.271 183.897 387.048 183.364C386.829 182.826 386.476 182.558 385.988 182.558C385.492 182.558 385.136 182.826 384.922 183.364C384.708 183.897 384.601 184.777 384.601 186.003Z" fill="#8090A3"/>
<path d="M276 22.5C288.979 22.5 299.5 33.0213 299.5 46C299.5 58.9787 288.979 69.5 276 69.5C263.021 69.5 252.5 58.9787 252.5 46C252.5 33.0213 263.021 22.5 276 22.5ZM276 33.5C269.096 33.5 263.5 39.0964 263.5 46C263.5 52.9036 269.096 58.5 276 58.5C282.904 58.5 288.5 52.9036 288.5 46C288.5 39.0964 282.904 33.5 276 33.5Z" stroke="#8090A3"/>
<path d="M294 46C294 48.3638 293.534 50.7044 292.63 52.8883C291.725 55.0722 290.399 57.0565 288.728 58.7279C287.056 60.3994 285.072 61.7252 282.888 62.6298C280.704 63.5344 278.364 64 276 64C273.636 64 271.296 63.5344 269.112 62.6298C266.928 61.7252 264.944 60.3994 263.272 58.7279C261.601 57.0565 260.275 55.0722 259.37 52.8883C258.466 50.7044 258 48.3638 258 46C258 43.6362 258.466 41.2956 259.37 39.1117C260.275 36.9278 261.601 34.9435 263.272 33.2721C264.944 31.6006 266.928 30.2747 269.112 29.3702C271.296 28.4656 273.636 28 276 28C278.364 28 280.704 28.4656 282.888 29.3702C285.072 30.2748 287.056 31.6006 288.728 33.2721C290.399 34.9435 291.725 36.9278 292.63 39.1117C293.534 41.2956 294 43.6362 294 46L294 46Z" stroke="#FAFBFB" stroke-width="8" stroke-linecap="round" stroke-linejoin="round"/>
<path d="M276 28C279.56 28 283.04 29.0557 286 31.0335C288.96 33.0114 291.267 35.8226 292.63 39.1117C293.992 42.4008 294.349 46.02 293.654 49.5116C292.96 53.0033 291.245 56.2106 288.728 58.7279C286.211 61.2453 283.003 62.9596 279.512 63.6541C276.02 64.3487 272.401 63.9922 269.112 62.6298C265.823 61.2675 263.011 58.9603 261.034 56.0003C259.056 53.0402 258 49.5601 258 46" stroke="#04977E" stroke-width="8"/>
<path d="M260.217 92L265.578 80.2812H258.537V77.7422H268.781V79.6367L263.381 92H260.217ZM275.422 82.8789C276.802 82.8789 277.899 83.2663 278.713 84.041C279.533 84.8158 279.943 85.877 279.943 87.2246C279.943 88.8197 279.452 90.0469 278.469 90.9062C277.486 91.7656 276.079 92.1953 274.25 92.1953C272.661 92.1953 271.379 91.9382 270.402 91.4238V88.8164C270.917 89.0898 271.516 89.3145 272.199 89.4902C272.883 89.6595 273.531 89.7441 274.143 89.7441C275.985 89.7441 276.906 88.9889 276.906 87.4785C276.906 86.0397 275.952 85.3203 274.045 85.3203C273.7 85.3203 273.319 85.3561 272.902 85.4277C272.486 85.4928 272.147 85.5645 271.887 85.6426L270.686 84.998L271.223 77.7227H278.967V80.2812H273.869L273.605 83.084L273.947 83.0156C274.344 82.9245 274.836 82.8789 275.422 82.8789Z" fill="#04977E"/>
<path d="M283.153 85C283.153 85.5788 283.203 86.0117 283.304 86.2988C283.409 86.5814 283.575 86.7227 283.803 86.7227C284.24 86.7227 284.459 86.1484 284.459 85C284.459 83.8607 284.24 83.291 283.803 83.291C283.575 83.291 283.409 83.4323 283.304 83.7148C283.203 83.9928 283.153 84.4212 283.153 85ZM286.182 84.9863C286.182 86.0345 285.979 86.8229 285.573 87.3516C285.168 87.8757 284.573 88.1377 283.789 88.1377C283.037 88.1377 282.456 87.8688 282.046 87.3311C281.636 86.7887 281.431 86.0072 281.431 84.9863C281.431 82.9036 282.217 81.8623 283.789 81.8623C284.559 81.8623 285.149 82.1335 285.56 82.6758C285.974 83.2135 286.182 83.9837 286.182 84.9863ZM290.885 82.0059L285.341 92H283.7L289.244 82.0059H290.885ZM290.153 88.9922C290.153 89.571 290.203 90.0039 290.304 90.291C290.409 90.5736 290.575 90.7148 290.803 90.7148C291.24 90.7148 291.459 90.1406 291.459 88.9922C291.459 87.8529 291.24 87.2832 290.803 87.2832C290.575 87.2832 290.409 87.4245 290.304 87.707C290.203 87.985 290.153 88.4134 290.153 88.9922ZM293.182 88.9785C293.182 90.0221 292.979 90.8083 292.573 91.3369C292.168 91.861 291.573 92.123 290.789 92.123C290.037 92.123 289.456 91.8542 289.046 91.3164C288.636 90.7741 288.431 89.9948 288.431 88.9785C288.431 86.8958 289.217 85.8545 290.789 85.8545C291.559 85.8545 292.149 86.1257 292.56 86.668C292.974 87.2057 293.182 87.9759 293.182 88.9785Z" fill="#04977E"/>
</svg>
