<svg width="506" height="2252" viewBox="0 0 506 2252" fill="none" xmlns="http://www.w3.org/2000/svg">
<g clip-path="url(#clip0_4419_29801)">
<g clip-path="url(#clip1_4419_29801)">
<rect width="293" height="272" fill="#FFFFFF"/>
<path d="M147 100.5C159.979 100.5 170.5 111.021 170.5 124C170.5 136.979 159.979 147.5 147 147.5C134.021 147.5 123.5 136.979 123.5 124C123.5 111.021 134.021 100.5 147 100.5ZM147 111.5C140.096 111.5 134.5 117.096 134.5 124C134.5 130.904 140.096 136.5 147 136.5C153.904 136.5 159.5 130.904 159.5 124C159.5 117.096 153.904 111.5 147 111.5Z" stroke="#99A6B5"/>
<path d="M165 124C165 126.364 164.534 128.704 163.63 130.888C162.725 133.072 161.399 135.056 159.728 136.728C158.056 138.399 156.072 139.725 153.888 140.63C151.704 141.534 149.364 142 147 142C144.636 142 142.296 141.534 140.112 140.63C137.928 139.725 135.944 138.399 134.272 136.728C132.601 135.056 131.275 133.072 130.37 130.888C129.466 128.704 129 126.364 129 124C129 121.636 129.466 119.296 130.37 117.112C131.275 114.928 132.601 112.944 134.272 111.272C135.944 109.601 137.928 108.275 140.112 107.37C142.296 106.466 144.636 106 147 106C149.364 106 151.704 106.466 153.888 107.37C156.072 108.275 158.056 109.601 159.728 111.272C161.399 112.944 162.725 114.928 163.63 117.112C164.534 119.296 165 121.636 165 124L165 124Z" stroke="#FAFBFB" stroke-width="8" stroke-linecap="round" stroke-linejoin="round"/>
<path d="M145.203 162.861C145.203 164.014 145.112 165.042 144.93 165.947C144.754 166.852 144.467 167.62 144.07 168.252C143.68 168.883 143.165 169.365 142.527 169.697C141.889 170.029 141.115 170.195 140.203 170.195C139.057 170.195 138.117 169.906 137.381 169.326C136.645 168.74 136.102 167.9 135.75 166.807C135.398 165.706 135.223 164.391 135.223 162.861C135.223 161.318 135.382 160 135.701 158.906C136.027 157.806 136.554 156.963 137.283 156.377C138.012 155.791 138.986 155.498 140.203 155.498C141.342 155.498 142.28 155.791 143.016 156.377C143.758 156.956 144.308 157.796 144.666 158.896C145.024 159.99 145.203 161.312 145.203 162.861ZM138.221 162.861C138.221 163.949 138.279 164.857 138.396 165.586C138.52 166.309 138.725 166.852 139.012 167.217C139.298 167.581 139.695 167.764 140.203 167.764C140.704 167.764 141.098 167.585 141.385 167.227C141.678 166.862 141.886 166.318 142.01 165.596C142.133 164.867 142.195 163.955 142.195 162.861C142.195 161.774 142.133 160.866 142.01 160.137C141.886 159.408 141.678 158.861 141.385 158.496C141.098 158.125 140.704 157.939 140.203 157.939C139.695 157.939 139.298 158.125 139.012 158.496C138.725 158.861 138.52 159.408 138.396 160.137C138.279 160.866 138.221 161.774 138.221 162.861Z" fill="#04977E"/>
<path d="M149.289 159.862C150.073 159.862 150.668 160.136 151.073 160.683C151.479 161.229 151.682 161.997 151.682 162.986C151.682 163.975 151.49 164.748 151.107 165.304C150.725 165.86 150.118 166.138 149.289 166.138C148.519 166.138 147.933 165.86 147.532 165.304C147.131 164.748 146.931 163.975 146.931 162.986C146.931 161.997 147.118 161.229 147.491 160.683C147.869 160.136 148.469 159.862 149.289 159.862ZM149.303 161.291C149.079 161.291 148.915 161.432 148.811 161.715C148.706 161.997 148.653 162.426 148.653 163C148.653 163.574 148.706 164.005 148.811 164.292C148.915 164.579 149.079 164.723 149.303 164.723C149.526 164.723 149.69 164.581 149.795 164.299C149.904 164.012 149.959 163.579 149.959 163C149.959 162.426 149.904 161.997 149.795 161.715C149.69 161.432 149.526 161.291 149.303 161.291ZM156.385 160.006L150.841 170H149.2L154.744 160.006H156.385ZM156.289 163.854C157.073 163.854 157.668 164.128 158.073 164.675C158.479 165.222 158.682 165.99 158.682 166.979C158.682 167.963 158.49 168.733 158.107 169.289C157.725 169.845 157.118 170.123 156.289 170.123C155.519 170.123 154.933 169.845 154.532 169.289C154.131 168.733 153.931 167.963 153.931 166.979C153.931 165.99 154.118 165.222 154.491 164.675C154.869 164.128 155.469 163.854 156.289 163.854ZM156.303 165.283C156.079 165.283 155.915 165.424 155.811 165.707C155.706 165.99 155.653 166.418 155.653 166.992C155.653 167.566 155.706 167.997 155.811 168.284C155.915 168.571 156.079 168.715 156.303 168.715C156.526 168.715 156.69 168.574 156.795 168.291C156.904 168.004 156.959 167.571 156.959 166.992C156.959 166.418 156.904 165.99 156.795 165.707C156.69 165.424 156.526 165.283 156.303 165.283Z" fill="#04977E"/>
<g clip-path="url(#clip2_4419_29801)">
<g clip-path="url(#clip3_4419_29801)">
<g clip-path="url(#clip4_4419_29801)">
<path d="M365.259 23.3835C363.793 23.3778 362.531 23.017 361.474 22.3011C360.423 21.5852 359.614 20.5483 359.045 19.1903C358.483 17.8324 358.205 16.1989 358.21 14.2898C358.21 12.3864 358.491 10.7642 359.054 9.42329C359.622 8.08239 360.432 7.0625 361.483 6.36364C362.54 5.65909 363.798 5.30682 365.259 5.30682C366.719 5.30682 367.974 5.65909 369.026 6.36364C370.082 7.06818 370.895 8.09091 371.463 9.43182C372.031 10.767 372.313 12.3864 372.307 14.2898C372.307 16.2045 372.023 17.8409 371.455 19.1989C370.892 20.5568 370.085 21.5937 369.034 22.3097C367.983 23.0256 366.724 23.3835 365.259 23.3835ZM365.259 20.3239C366.259 20.3239 367.057 19.821 367.653 18.8153C368.25 17.8097 368.545 16.3011 368.54 14.2898C368.54 12.9659 368.403 11.8636 368.131 10.983C367.864 10.1023 367.483 9.44034 366.989 8.99716C366.5 8.55398 365.923 8.33239 365.259 8.33239C364.264 8.33239 363.469 8.82955 362.872 9.82386C362.276 10.8182 361.974 12.3068 361.969 14.2898C361.969 15.6307 362.102 16.75 362.369 17.6477C362.642 18.5398 363.026 19.2102 363.52 19.6591C364.014 20.1023 364.594 20.3239 365.259 20.3239ZM384.492 19.7273V18.8068C384.492 18.108 384.64 17.4659 384.935 16.8807C385.237 16.2898 385.671 15.8182 386.239 15.4659C386.813 15.108 387.512 14.929 388.336 14.929C389.171 14.929 389.873 15.1051 390.441 15.4574C391.015 15.8097 391.447 16.2812 391.737 16.8722C392.032 17.4574 392.18 18.1023 392.18 18.8068V19.7273C392.18 20.4261 392.032 21.071 391.737 21.6619C391.441 22.2472 391.006 22.7159 390.433 23.0682C389.859 23.4261 389.16 23.6051 388.336 23.6051C387.501 23.6051 386.799 23.4261 386.231 23.0682C385.663 22.7159 385.231 22.2472 384.935 21.6619C384.64 21.071 384.492 20.4261 384.492 19.7273ZM386.972 18.8068V19.7273C386.972 20.1307 387.069 20.5114 387.262 20.8693C387.461 21.2273 387.819 21.4062 388.336 21.4062C388.853 21.4062 389.205 21.2301 389.393 20.8778C389.586 20.5256 389.683 20.142 389.683 19.7273V18.8068C389.683 18.392 389.592 18.0057 389.41 17.6477C389.228 17.2898 388.87 17.1108 388.336 17.1108C387.825 17.1108 387.469 17.2898 387.271 17.6477C387.072 18.0057 386.972 18.392 386.972 18.8068ZM375.535 9.73864V8.81818C375.535 8.11364 375.685 7.46875 375.987 6.88352C376.288 6.29261 376.722 5.82102 377.29 5.46875C377.864 5.11648 378.558 4.94034 379.37 4.94034C380.211 4.94034 380.915 5.11648 381.484 5.46875C382.052 5.82102 382.484 6.29261 382.779 6.88352C383.075 7.46875 383.222 8.11364 383.222 8.81818V9.73864C383.222 10.4432 383.072 11.0881 382.771 11.6733C382.475 12.2585 382.04 12.7273 381.467 13.0795C380.898 13.4261 380.2 13.5994 379.37 13.5994C378.54 13.5994 377.839 13.4233 377.265 13.071C376.697 12.7131 376.265 12.2443 375.969 11.6648C375.68 11.0795 375.535 10.4375 375.535 9.73864ZM378.032 8.81818V9.73864C378.032 10.1534 378.129 10.5369 378.322 10.8892C378.521 11.2415 378.87 11.4176 379.37 11.4176C379.893 11.4176 380.248 11.2415 380.435 10.8892C380.629 10.5369 380.725 10.1534 380.725 9.73864V8.81818C380.725 8.40341 380.634 8.01705 380.452 7.65909C380.271 7.30114 379.91 7.12216 379.37 7.12216C378.864 7.12216 378.515 7.30398 378.322 7.66761C378.129 8.03125 378.032 8.41477 378.032 8.81818ZM376.66 23L388.66 5.54545H390.893L378.893 23H376.66Z" fill="black"/>
</g>
</g>
</g>
</g>
<g clip-path="url(#clip5_4419_29801)">
<rect width="293" height="272" transform="translate(0 312)" fill="#FFFFFF"/>
<path d="M147 412.5C159.979 412.5 170.5 423.021 170.5 436C170.5 448.979 159.979 459.5 147 459.5C134.021 459.5 123.5 448.979 123.5 436C123.5 423.021 134.021 412.5 147 412.5ZM147 423.5C140.096 423.5 134.5 429.096 134.5 436C134.5 442.904 140.096 448.5 147 448.5C153.904 448.5 159.5 442.904 159.5 436C159.5 429.096 153.904 423.5 147 423.5Z" stroke="#8090A3"/>
<path d="M165 436C165 438.364 164.534 440.704 163.63 442.888C162.725 445.072 161.399 447.056 159.728 448.728C158.056 450.399 156.072 451.725 153.888 452.63C151.704 453.534 149.364 454 147 454C144.636 454 142.296 453.534 140.112 452.63C137.928 451.725 135.944 450.399 134.272 448.728C132.601 447.056 131.275 445.072 130.37 442.888C129.466 440.704 129 438.364 129 436C129 433.636 129.466 431.296 130.37 429.112C131.275 426.928 132.601 424.944 134.272 423.272C135.944 421.601 137.928 420.275 140.112 419.37C142.296 418.466 144.636 418 147 418C149.364 418 151.704 418.466 153.888 419.37C156.072 420.275 158.056 421.601 159.728 423.272C161.399 424.944 162.725 426.928 163.63 429.112C164.534 431.296 165 433.636 165 436L165 436Z" stroke="#FAFBFB" stroke-width="8" stroke-linecap="round" stroke-linejoin="round"/>
<path d="M147 418C149.364 418 151.704 418.466 153.888 419.37C156.072 420.275 158.056 421.601 159.728 423.272C161.399 424.944 162.725 426.928 163.63 429.112C164.534 431.296 165 433.636 165 436C165 438.364 164.534 440.704 163.63 442.888C162.725 445.072 161.399 447.056 159.728 448.728C158.056 450.399 156.072 451.725 153.888 452.63C151.704 453.534 149.364 454 147 454" stroke="#04977E" stroke-width="8"/>
<path d="M134.996 472.879C135.868 472.879 136.643 473.045 137.32 473.377C138.004 473.709 138.541 474.197 138.932 474.842C139.322 475.486 139.518 476.281 139.518 477.225C139.518 478.253 139.303 479.142 138.873 479.891C138.45 480.633 137.815 481.202 136.969 481.6C136.129 481.997 135.081 482.195 133.824 482.195C133.076 482.195 132.369 482.13 131.705 482C131.048 481.876 130.471 481.684 129.977 481.424V478.816C130.471 479.077 131.064 479.298 131.754 479.48C132.451 479.656 133.105 479.744 133.717 479.744C134.316 479.744 134.82 479.666 135.23 479.51C135.641 479.347 135.95 479.1 136.158 478.768C136.373 478.429 136.48 477.999 136.48 477.479C136.48 476.782 136.246 476.248 135.777 475.877C135.309 475.506 134.589 475.32 133.619 475.32C133.248 475.32 132.861 475.356 132.457 475.428C132.06 475.499 131.728 475.571 131.461 475.643L130.26 474.998L130.797 467.723H138.541V470.281H133.443L133.18 473.084C133.401 473.038 133.642 472.993 133.902 472.947C134.163 472.902 134.527 472.879 134.996 472.879ZM151.148 474.861C151.148 476.014 151.057 477.042 150.875 477.947C150.699 478.852 150.413 479.62 150.016 480.252C149.625 480.883 149.111 481.365 148.473 481.697C147.835 482.029 147.06 482.195 146.148 482.195C145.003 482.195 144.062 481.906 143.326 481.326C142.59 480.74 142.047 479.9 141.695 478.807C141.344 477.706 141.168 476.391 141.168 474.861C141.168 473.318 141.327 472 141.646 470.906C141.972 469.806 142.499 468.963 143.229 468.377C143.958 467.791 144.931 467.498 146.148 467.498C147.288 467.498 148.225 467.791 148.961 468.377C149.703 468.956 150.253 469.796 150.611 470.896C150.969 471.99 151.148 473.312 151.148 474.861ZM144.166 474.861C144.166 475.949 144.225 476.857 144.342 477.586C144.465 478.309 144.671 478.852 144.957 479.217C145.243 479.581 145.641 479.764 146.148 479.764C146.65 479.764 147.044 479.585 147.33 479.227C147.623 478.862 147.831 478.318 147.955 477.596C148.079 476.867 148.141 475.955 148.141 474.861C148.141 473.774 148.079 472.866 147.955 472.137C147.831 471.408 147.623 470.861 147.33 470.496C147.044 470.125 146.65 469.939 146.148 469.939C145.641 469.939 145.243 470.125 144.957 470.496C144.671 470.861 144.465 471.408 144.342 472.137C144.225 472.866 144.166 473.774 144.166 474.861Z" fill="#04977E"/>
<path d="M154.789 471.862C155.573 471.862 156.168 472.136 156.573 472.683C156.979 473.229 157.182 473.997 157.182 474.986C157.182 475.975 156.99 476.748 156.607 477.304C156.225 477.86 155.618 478.138 154.789 478.138C154.019 478.138 153.433 477.86 153.032 477.304C152.631 476.748 152.431 475.975 152.431 474.986C152.431 473.997 152.618 473.229 152.991 472.683C153.369 472.136 153.969 471.862 154.789 471.862ZM154.803 473.291C154.579 473.291 154.415 473.432 154.311 473.715C154.206 473.997 154.153 474.426 154.153 475C154.153 475.574 154.206 476.005 154.311 476.292C154.415 476.579 154.579 476.723 154.803 476.723C155.026 476.723 155.19 476.581 155.295 476.299C155.404 476.012 155.459 475.579 155.459 475C155.459 474.426 155.404 473.997 155.295 473.715C155.19 473.432 155.026 473.291 154.803 473.291ZM161.885 472.006L156.341 482H154.7L160.244 472.006H161.885ZM161.789 475.854C162.573 475.854 163.168 476.128 163.573 476.675C163.979 477.222 164.182 477.99 164.182 478.979C164.182 479.963 163.99 480.733 163.607 481.289C163.225 481.845 162.618 482.123 161.789 482.123C161.019 482.123 160.433 481.845 160.032 481.289C159.631 480.733 159.431 479.963 159.431 478.979C159.431 477.99 159.618 477.222 159.991 476.675C160.369 476.128 160.969 475.854 161.789 475.854ZM161.803 477.283C161.579 477.283 161.415 477.424 161.311 477.707C161.206 477.99 161.153 478.418 161.153 478.992C161.153 479.566 161.206 479.997 161.311 480.284C161.415 480.571 161.579 480.715 161.803 480.715C162.026 480.715 162.19 480.574 162.295 480.291C162.404 480.004 162.459 479.571 162.459 478.992C162.459 478.418 162.404 477.99 162.295 477.707C162.19 477.424 162.026 477.283 161.803 477.283Z" fill="#04977E"/>
</g>
<g clip-path="url(#clip6_4419_29801)">
<rect width="293" height="272" transform="translate(0 624)" fill="#FFFFFF"/>
<path d="M147 724.5C159.979 724.5 170.5 735.021 170.5 748C170.5 760.979 159.979 771.5 147 771.5C134.021 771.5 123.5 760.979 123.5 748C123.5 735.021 134.021 724.5 147 724.5ZM147 735.5C140.096 735.5 134.5 741.096 134.5 748C134.5 754.904 140.096 760.5 147 760.5C153.904 760.5 159.5 754.904 159.5 748C159.5 741.096 153.904 735.5 147 735.5Z" stroke="#8090A3"/>
<path d="M165 748C165 750.364 164.534 752.704 163.63 754.888C162.725 757.072 161.399 759.056 159.728 760.728C158.056 762.399 156.072 763.725 153.888 764.63C151.704 765.534 149.364 766 147 766C144.636 766 142.296 765.534 140.112 764.63C137.928 763.725 135.944 762.399 134.272 760.728C132.601 759.056 131.275 757.072 130.37 754.888C129.466 752.704 129 750.364 129 748C129 745.636 129.466 743.296 130.37 741.112C131.275 738.928 132.601 736.944 134.272 735.272C135.944 733.601 137.928 732.275 140.112 731.37C142.296 730.466 144.636 730 147 730C149.364 730 151.704 730.466 153.888 731.37C156.072 732.275 158.056 733.601 159.728 735.272C161.399 736.944 162.725 738.928 163.63 741.112C164.534 743.296 165 745.636 165 748L165 748Z" stroke="#FAFBFB" stroke-width="8" stroke-linecap="round" stroke-linejoin="round"/>
<path d="M147 730C149.364 730 151.704 730.466 153.888 731.37C156.072 732.275 158.056 733.601 159.728 735.272C161.399 736.944 162.725 738.928 163.63 741.112C164.534 743.296 165 745.636 165 748" stroke="#04977E" stroke-width="8"/>
<path d="M139.781 794H129.801V791.9L133.385 788.277C134.107 787.535 134.687 786.917 135.123 786.422C135.566 785.921 135.885 785.465 136.08 785.055C136.282 784.645 136.383 784.205 136.383 783.736C136.383 783.17 136.223 782.747 135.904 782.467C135.592 782.18 135.172 782.037 134.645 782.037C134.091 782.037 133.554 782.164 133.033 782.418C132.512 782.672 131.969 783.033 131.402 783.502L129.762 781.559C130.172 781.207 130.605 780.875 131.061 780.562C131.523 780.25 132.057 779.999 132.662 779.811C133.274 779.615 134.007 779.518 134.859 779.518C135.797 779.518 136.601 779.687 137.271 780.025C137.949 780.364 138.469 780.826 138.834 781.412C139.199 781.992 139.381 782.649 139.381 783.385C139.381 784.173 139.225 784.892 138.912 785.543C138.6 786.194 138.144 786.839 137.545 787.477C136.952 788.115 136.236 788.821 135.396 789.596L133.561 791.324V791.461H139.781V794ZM146.441 784.879C147.314 784.879 148.089 785.045 148.766 785.377C149.449 785.709 149.986 786.197 150.377 786.842C150.768 787.486 150.963 788.281 150.963 789.225C150.963 790.253 150.748 791.142 150.318 791.891C149.895 792.633 149.26 793.202 148.414 793.6C147.574 793.997 146.526 794.195 145.27 794.195C144.521 794.195 143.814 794.13 143.15 794C142.493 793.876 141.917 793.684 141.422 793.424V790.816C141.917 791.077 142.509 791.298 143.199 791.48C143.896 791.656 144.55 791.744 145.162 791.744C145.761 791.744 146.266 791.666 146.676 791.51C147.086 791.347 147.395 791.1 147.604 790.768C147.818 790.429 147.926 789.999 147.926 789.479C147.926 788.782 147.691 788.248 147.223 787.877C146.754 787.506 146.035 787.32 145.064 787.32C144.693 787.32 144.306 787.356 143.902 787.428C143.505 787.499 143.173 787.571 142.906 787.643L141.705 786.998L142.242 779.723H149.986V782.281H144.889L144.625 785.084C144.846 785.038 145.087 784.993 145.348 784.947C145.608 784.902 145.973 784.879 146.441 784.879Z" fill="#04977E"/>
<path d="M154.789 783.862C155.573 783.862 156.168 784.136 156.573 784.683C156.979 785.229 157.182 785.997 157.182 786.986C157.182 787.975 156.99 788.748 156.607 789.304C156.225 789.86 155.618 790.138 154.789 790.138C154.019 790.138 153.433 789.86 153.032 789.304C152.631 788.748 152.431 787.975 152.431 786.986C152.431 785.997 152.618 785.229 152.991 784.683C153.369 784.136 153.969 783.862 154.789 783.862ZM154.803 785.291C154.579 785.291 154.415 785.432 154.311 785.715C154.206 785.997 154.153 786.426 154.153 787C154.153 787.574 154.206 788.005 154.311 788.292C154.415 788.579 154.579 788.723 154.803 788.723C155.026 788.723 155.19 788.581 155.295 788.299C155.404 788.012 155.459 787.579 155.459 787C155.459 786.426 155.404 785.997 155.295 785.715C155.19 785.432 155.026 785.291 154.803 785.291ZM161.885 784.006L156.341 794H154.7L160.244 784.006H161.885ZM161.789 787.854C162.573 787.854 163.168 788.128 163.573 788.675C163.979 789.222 164.182 789.99 164.182 790.979C164.182 791.963 163.99 792.733 163.607 793.289C163.225 793.845 162.618 794.123 161.789 794.123C161.019 794.123 160.433 793.845 160.032 793.289C159.631 792.733 159.431 791.963 159.431 790.979C159.431 789.99 159.618 789.222 159.991 788.675C160.369 788.128 160.969 787.854 161.789 787.854ZM161.803 789.283C161.579 789.283 161.415 789.424 161.311 789.707C161.206 789.99 161.153 790.418 161.153 790.992C161.153 791.566 161.206 791.997 161.311 792.284C161.415 792.571 161.579 792.715 161.803 792.715C162.026 792.715 162.19 792.574 162.295 792.291C162.404 792.004 162.459 791.571 162.459 790.992C162.459 790.418 162.404 789.99 162.295 789.707C162.19 789.424 162.026 789.283 161.803 789.283Z" fill="#04977E"/>
<g clip-path="url(#clip7_4419_29801)">
<g clip-path="url(#clip8_4419_29801)">
<g clip-path="url(#clip9_4419_29801)">
<path d="M358.415 647V644.341L364.628 638.588C365.156 638.077 365.599 637.616 365.957 637.207C366.321 636.798 366.597 636.398 366.784 636.006C366.972 635.608 367.065 635.179 367.065 634.719C367.065 634.207 366.949 633.767 366.716 633.398C366.483 633.023 366.165 632.736 365.761 632.537C365.358 632.332 364.901 632.23 364.389 632.23C363.855 632.23 363.389 632.338 362.991 632.554C362.594 632.77 362.287 633.08 362.071 633.483C361.855 633.886 361.747 634.366 361.747 634.923H358.244C358.244 633.781 358.503 632.79 359.02 631.949C359.537 631.108 360.261 630.457 361.193 629.997C362.125 629.537 363.199 629.307 364.415 629.307C365.665 629.307 366.753 629.528 367.679 629.972C368.611 630.409 369.335 631.017 369.852 631.795C370.369 632.574 370.628 633.466 370.628 634.472C370.628 635.131 370.497 635.781 370.236 636.423C369.98 637.065 369.523 637.778 368.864 638.562C368.205 639.341 367.276 640.276 366.077 641.366L363.528 643.864V643.983H370.858V647H358.415ZM379.907 647.239C378.702 647.239 377.629 647.017 376.685 646.574C375.748 646.131 375.004 645.52 374.452 644.741C373.901 643.963 373.614 643.071 373.592 642.065H377.171C377.211 642.741 377.495 643.29 378.023 643.71C378.552 644.131 379.18 644.341 379.907 644.341C380.487 644.341 380.998 644.213 381.441 643.957C381.89 643.696 382.239 643.335 382.489 642.875C382.745 642.409 382.873 641.875 382.873 641.273C382.873 640.659 382.742 640.119 382.481 639.653C382.225 639.187 381.87 638.824 381.415 638.562C380.961 638.301 380.441 638.168 379.856 638.162C379.344 638.162 378.847 638.267 378.364 638.477C377.887 638.687 377.515 638.974 377.248 639.338L373.967 638.75L374.793 629.545H385.464V632.562H377.836L377.384 636.935H377.487C377.793 636.503 378.256 636.145 378.876 635.861C379.495 635.577 380.188 635.435 380.955 635.435C382.006 635.435 382.944 635.682 383.768 636.176C384.592 636.67 385.242 637.349 385.719 638.213C386.197 639.071 386.433 640.06 386.427 641.179C386.433 642.355 386.16 643.401 385.609 644.315C385.063 645.224 384.299 645.94 383.316 646.463C382.339 646.98 381.202 647.239 379.907 647.239ZM398.555 643.727V642.807C398.555 642.108 398.702 641.466 398.998 640.881C399.299 640.29 399.734 639.818 400.302 639.466C400.876 639.108 401.575 638.929 402.398 638.929C403.234 638.929 403.935 639.105 404.504 639.457C405.077 639.81 405.509 640.281 405.799 640.872C406.094 641.457 406.242 642.102 406.242 642.807V643.727C406.242 644.426 406.094 645.071 405.799 645.662C405.504 646.247 405.069 646.716 404.495 647.068C403.921 647.426 403.222 647.605 402.398 647.605C401.563 647.605 400.862 647.426 400.293 647.068C399.725 646.716 399.293 646.247 398.998 645.662C398.702 645.071 398.555 644.426 398.555 643.727ZM401.035 642.807V643.727C401.035 644.131 401.131 644.511 401.325 644.869C401.523 645.227 401.881 645.406 402.398 645.406C402.915 645.406 403.268 645.23 403.455 644.878C403.648 644.526 403.745 644.142 403.745 643.727V642.807C403.745 642.392 403.654 642.006 403.472 641.648C403.29 641.29 402.933 641.111 402.398 641.111C401.887 641.111 401.532 641.29 401.333 641.648C401.134 642.006 401.035 642.392 401.035 642.807ZM389.597 633.739V632.818C389.597 632.114 389.748 631.469 390.049 630.884C390.35 630.293 390.785 629.821 391.353 629.469C391.927 629.116 392.62 628.94 393.433 628.94C394.273 628.94 394.978 629.116 395.546 629.469C396.114 629.821 396.546 630.293 396.842 630.884C397.137 631.469 397.285 632.114 397.285 632.818V633.739C397.285 634.443 397.134 635.088 396.833 635.673C396.538 636.259 396.103 636.727 395.529 637.08C394.961 637.426 394.262 637.599 393.433 637.599C392.603 637.599 391.901 637.423 391.327 637.071C390.759 636.713 390.327 636.244 390.032 635.665C389.742 635.08 389.597 634.437 389.597 633.739ZM392.094 632.818V633.739C392.094 634.153 392.191 634.537 392.384 634.889C392.583 635.241 392.933 635.418 393.433 635.418C393.955 635.418 394.31 635.241 394.498 634.889C394.691 634.537 394.788 634.153 394.788 633.739V632.818C394.788 632.403 394.697 632.017 394.515 631.659C394.333 631.301 393.972 631.122 393.433 631.122C392.927 631.122 392.577 631.304 392.384 631.668C392.191 632.031 392.094 632.415 392.094 632.818ZM390.722 647L402.722 629.545H404.955L392.955 647H390.722Z" fill="black"/>
</g>
</g>
</g>
</g>
<g clip-path="url(#clip10_4419_29801)">
<rect width="293" height="272" transform="translate(0 936)" fill="#FFFFFF"/>
<path d="M147 1036.5C159.979 1036.5 170.5 1047.02 170.5 1060C170.5 1072.98 159.979 1083.5 147 1083.5C134.021 1083.5 123.5 1072.98 123.5 1060C123.5 1047.02 134.021 1036.5 147 1036.5ZM147 1047.5C140.096 1047.5 134.5 1053.1 134.5 1060C134.5 1066.9 140.096 1072.5 147 1072.5C153.904 1072.5 159.5 1066.9 159.5 1060C159.5 1053.1 153.904 1047.5 147 1047.5Z" stroke="#8090A3"/>
<path d="M165 1060C165 1062.36 164.534 1064.7 163.63 1066.89C162.725 1069.07 161.399 1071.06 159.728 1072.73C158.056 1074.4 156.072 1075.73 153.888 1076.63C151.704 1077.53 149.364 1078 147 1078C144.636 1078 142.296 1077.53 140.112 1076.63C137.928 1075.73 135.944 1074.4 134.272 1072.73C132.601 1071.06 131.275 1069.07 130.37 1066.89C129.466 1064.7 129 1062.36 129 1060C129 1057.64 129.466 1055.3 130.37 1053.11C131.275 1050.93 132.601 1048.94 134.272 1047.27C135.944 1045.6 137.928 1044.27 140.112 1043.37C142.296 1042.47 144.636 1042 147 1042C149.364 1042 151.704 1042.47 153.888 1043.37C156.072 1044.27 158.056 1045.6 159.728 1047.27C161.399 1048.94 162.725 1050.93 163.63 1053.11C164.534 1055.3 165 1057.64 165 1060L165 1060Z" stroke="#FAFBFB" stroke-width="8" stroke-linecap="round" stroke-linejoin="round"/>
<path d="M147 1042C150.56 1042 154.04 1043.06 157 1045.03C159.96 1047.01 162.267 1049.82 163.63 1053.11C164.992 1056.4 165.349 1060.02 164.654 1063.51C163.96 1067 162.245 1070.21 159.728 1072.73C157.211 1075.25 154.003 1076.96 150.512 1077.65C147.02 1078.35 143.401 1077.99 140.112 1076.63C136.823 1075.27 134.011 1072.96 132.034 1070C130.056 1067.04 129 1063.56 129 1060" stroke="#04977E" stroke-width="8"/>
<path d="M131.217 1106L136.578 1094.26H129.537V1091.72H139.781V1093.62L134.381 1106H131.217ZM146.441 1096.88C147.314 1096.88 148.089 1097.04 148.766 1097.38C149.449 1097.71 149.986 1098.2 150.377 1098.84C150.768 1099.49 150.963 1100.28 150.963 1101.22C150.963 1102.25 150.748 1103.14 150.318 1103.89C149.895 1104.63 149.26 1105.2 148.414 1105.6C147.574 1106 146.526 1106.2 145.27 1106.2C144.521 1106.2 143.814 1106.13 143.15 1106C142.493 1105.88 141.917 1105.68 141.422 1105.42V1102.82C141.917 1103.08 142.509 1103.3 143.199 1103.48C143.896 1103.66 144.55 1103.74 145.162 1103.74C145.761 1103.74 146.266 1103.67 146.676 1103.51C147.086 1103.35 147.395 1103.1 147.604 1102.77C147.818 1102.43 147.926 1102 147.926 1101.48C147.926 1100.78 147.691 1100.25 147.223 1099.88C146.754 1099.51 146.035 1099.32 145.064 1099.32C144.693 1099.32 144.306 1099.36 143.902 1099.43C143.505 1099.5 143.173 1099.57 142.906 1099.64L141.705 1099L142.242 1091.72H149.986V1094.28H144.889L144.625 1097.08C144.846 1097.04 145.087 1096.99 145.348 1096.95C145.608 1096.9 145.973 1096.88 146.441 1096.88Z" fill="#04977E"/>
<path d="M154.789 1095.86C155.573 1095.86 156.168 1096.14 156.573 1096.68C156.979 1097.23 157.182 1098 157.182 1098.99C157.182 1099.98 156.99 1100.75 156.607 1101.3C156.225 1101.86 155.618 1102.14 154.789 1102.14C154.019 1102.14 153.433 1101.86 153.032 1101.3C152.631 1100.75 152.431 1099.98 152.431 1098.99C152.431 1098 152.618 1097.23 152.991 1096.68C153.369 1096.14 153.969 1095.86 154.789 1095.86ZM154.803 1097.29C154.579 1097.29 154.415 1097.43 154.311 1097.71C154.206 1098 154.153 1098.43 154.153 1099C154.153 1099.57 154.206 1100 154.311 1100.29C154.415 1100.58 154.579 1100.72 154.803 1100.72C155.026 1100.72 155.19 1100.58 155.295 1100.3C155.404 1100.01 155.459 1099.58 155.459 1099C155.459 1098.43 155.404 1098 155.295 1097.71C155.19 1097.43 155.026 1097.29 154.803 1097.29ZM161.885 1096.01L156.341 1106H154.7L160.244 1096.01H161.885ZM161.789 1099.85C162.573 1099.85 163.168 1100.13 163.573 1100.67C163.979 1101.22 164.182 1101.99 164.182 1102.98C164.182 1103.96 163.99 1104.73 163.607 1105.29C163.225 1105.85 162.618 1106.12 161.789 1106.12C161.019 1106.12 160.433 1105.85 160.032 1105.29C159.631 1104.73 159.431 1103.96 159.431 1102.98C159.431 1101.99 159.618 1101.22 159.991 1100.67C160.369 1100.13 160.969 1099.85 161.789 1099.85ZM161.803 1101.28C161.579 1101.28 161.415 1101.42 161.311 1101.71C161.206 1101.99 161.153 1102.42 161.153 1102.99C161.153 1103.57 161.206 1104 161.311 1104.28C161.415 1104.57 161.579 1104.71 161.803 1104.71C162.026 1104.71 162.19 1104.57 162.295 1104.29C162.404 1104 162.459 1103.57 162.459 1102.99C162.459 1102.42 162.404 1101.99 162.295 1101.71C162.19 1101.42 162.026 1101.28 161.803 1101.28Z" fill="#04977E"/>
<g clip-path="url(#clip11_4419_29801)">
<g clip-path="url(#clip12_4419_29801)">
<g clip-path="url(#clip13_4419_29801)">
<path d="M359.105 959L366.341 944.682V944.562H357.912V941.545H370.159V944.605L362.915 959H359.105ZM378.829 959.239C377.624 959.239 376.55 959.017 375.607 958.574C374.67 958.131 373.925 957.52 373.374 956.741C372.823 955.963 372.536 955.071 372.513 954.065H376.093C376.133 954.741 376.417 955.29 376.945 955.71C377.474 956.131 378.102 956.341 378.829 956.341C379.408 956.341 379.92 956.213 380.363 955.957C380.812 955.696 381.161 955.335 381.411 954.875C381.667 954.409 381.795 953.875 381.795 953.273C381.795 952.659 381.664 952.119 381.403 951.653C381.147 951.187 380.792 950.824 380.337 950.562C379.883 950.301 379.363 950.168 378.778 950.162C378.266 950.162 377.769 950.267 377.286 950.477C376.809 950.687 376.437 950.974 376.17 951.338L372.888 950.75L373.715 941.545H384.386V944.562H376.758L376.306 948.935H376.408C376.715 948.503 377.178 948.145 377.798 947.861C378.417 947.577 379.11 947.435 379.877 947.435C380.928 947.435 381.866 947.682 382.69 948.176C383.513 948.67 384.164 949.349 384.641 950.213C385.119 951.071 385.354 952.06 385.349 953.179C385.354 954.355 385.082 955.401 384.531 956.315C383.985 957.224 383.221 957.94 382.238 958.463C381.261 958.98 380.124 959.239 378.829 959.239ZM397.477 955.727V954.807C397.477 954.108 397.624 953.466 397.92 952.881C398.221 952.29 398.656 951.818 399.224 951.466C399.798 951.108 400.496 950.929 401.32 950.929C402.156 950.929 402.857 951.105 403.425 951.457C403.999 951.81 404.431 952.281 404.721 952.872C405.016 953.457 405.164 954.102 405.164 954.807V955.727C405.164 956.426 405.016 957.071 404.721 957.662C404.425 958.247 403.991 958.716 403.417 959.068C402.843 959.426 402.144 959.605 401.32 959.605C400.485 959.605 399.783 959.426 399.215 959.068C398.647 958.716 398.215 958.247 397.92 957.662C397.624 957.071 397.477 956.426 397.477 955.727ZM399.957 954.807V955.727C399.957 956.131 400.053 956.511 400.246 956.869C400.445 957.227 400.803 957.406 401.32 957.406C401.837 957.406 402.19 957.23 402.377 956.878C402.57 956.526 402.667 956.142 402.667 955.727V954.807C402.667 954.392 402.576 954.006 402.394 953.648C402.212 953.29 401.854 953.111 401.32 953.111C400.809 953.111 400.454 953.29 400.255 953.648C400.056 954.006 399.957 954.392 399.957 954.807ZM388.519 945.739V944.818C388.519 944.114 388.67 943.469 388.971 942.884C389.272 942.293 389.707 941.821 390.275 941.469C390.849 941.116 391.542 940.94 392.354 940.94C393.195 940.94 393.9 941.116 394.468 941.469C395.036 941.821 395.468 942.293 395.763 942.884C396.059 943.469 396.207 944.114 396.207 944.818V945.739C396.207 946.443 396.056 947.088 395.755 947.673C395.46 948.259 395.025 948.727 394.451 949.08C393.883 949.426 393.184 949.599 392.354 949.599C391.525 949.599 390.823 949.423 390.249 949.071C389.681 948.713 389.249 948.244 388.954 947.665C388.664 947.08 388.519 946.437 388.519 945.739ZM391.016 944.818V945.739C391.016 946.153 391.113 946.537 391.306 946.889C391.505 947.241 391.854 947.418 392.354 947.418C392.877 947.418 393.232 947.241 393.42 946.889C393.613 946.537 393.71 946.153 393.71 945.739V944.818C393.71 944.403 393.619 944.017 393.437 943.659C393.255 943.301 392.894 943.122 392.354 943.122C391.849 943.122 391.499 943.304 391.306 943.668C391.113 944.031 391.016 944.415 391.016 944.818ZM389.644 959L401.644 941.545H403.877L391.877 959H389.644Z" fill="black"/>
</g>
</g>
</g>
</g>
<g clip-path="url(#clip14_4419_29801)">
<rect width="293" height="272" transform="translate(0 1248)" fill="#FFFFFF"/>
<path d="M147 1348.5C159.979 1348.5 170.5 1359.02 170.5 1372C170.5 1384.98 159.979 1395.5 147 1395.5C134.021 1395.5 123.5 1384.98 123.5 1372C123.5 1359.02 134.021 1348.5 147 1348.5ZM147 1359.5C140.096 1359.5 134.5 1365.1 134.5 1372C134.5 1378.9 140.096 1384.5 147 1384.5C153.904 1384.5 159.5 1378.9 159.5 1372C159.5 1365.1 153.904 1359.5 147 1359.5Z" stroke="#8090A3"/>
<path d="M165 1372C165 1374.36 164.534 1376.7 163.63 1378.89C162.725 1381.07 161.399 1383.06 159.728 1384.73C158.056 1386.4 156.072 1387.73 153.888 1388.63C151.704 1389.53 149.364 1390 147 1390C144.636 1390 142.296 1389.53 140.112 1388.63C137.928 1387.73 135.944 1386.4 134.272 1384.73C132.601 1383.06 131.275 1381.07 130.37 1378.89C129.466 1376.7 129 1374.36 129 1372C129 1369.64 129.466 1367.3 130.37 1365.11C131.275 1362.93 132.601 1360.94 134.272 1359.27C135.944 1357.6 137.928 1356.27 140.112 1355.37C142.296 1354.47 144.636 1354 147 1354C149.364 1354 151.704 1354.47 153.888 1355.37C156.072 1356.27 158.056 1357.6 159.728 1359.27C161.399 1360.94 162.725 1362.93 163.63 1365.11C164.534 1367.3 165 1369.64 165 1372L165 1372Z" stroke="#FAFBFB" stroke-width="8" stroke-linecap="round" stroke-linejoin="round"/>
<path d="M147 1354C149.364 1354 151.704 1354.47 153.888 1355.37C156.072 1356.27 158.056 1357.6 159.728 1359.27C161.399 1360.94 162.725 1362.93 163.63 1365.11C164.534 1367.3 165 1369.64 165 1372C165 1374.36 164.534 1376.7 163.63 1378.89C162.725 1381.07 161.399 1383.06 159.728 1384.73C158.056 1386.4 156.072 1387.73 153.888 1388.63C151.704 1389.53 149.364 1390 147 1390C144.636 1390 142.296 1389.53 140.112 1388.63C137.928 1387.73 135.944 1386.4 134.272 1384.73C132.601 1383.06 131.275 1381.07 130.37 1378.89C129.466 1376.7 129 1374.36 129 1372C129 1369.64 129.466 1367.3 130.37 1365.11C131.275 1362.93 132.601 1360.94 134.272 1359.27C135.944 1357.6 137.928 1356.27 140.112 1355.37C142.296 1354.47 144.636 1354 147 1354L147 1354Z" stroke="#04977E" stroke-width="8"/>
<path d="M131.262 1418H128.244V1409.74C128.244 1409.51 128.247 1409.23 128.254 1408.9C128.26 1408.56 128.27 1408.21 128.283 1407.86C128.296 1407.51 128.309 1407.18 128.322 1406.9C128.251 1406.98 128.104 1407.13 127.883 1407.34C127.668 1407.54 127.466 1407.72 127.277 1407.88L125.637 1409.2L124.182 1407.38L128.781 1403.72H131.262V1418ZM145.148 1410.86C145.148 1412.01 145.057 1413.04 144.875 1413.95C144.699 1414.85 144.413 1415.62 144.016 1416.25C143.625 1416.88 143.111 1417.37 142.473 1417.7C141.835 1418.03 141.06 1418.2 140.148 1418.2C139.003 1418.2 138.062 1417.91 137.326 1417.33C136.59 1416.74 136.047 1415.9 135.695 1414.81C135.344 1413.71 135.168 1412.39 135.168 1410.86C135.168 1409.32 135.327 1408 135.646 1406.91C135.972 1405.81 136.499 1404.96 137.229 1404.38C137.958 1403.79 138.931 1403.5 140.148 1403.5C141.288 1403.5 142.225 1403.79 142.961 1404.38C143.703 1404.96 144.253 1405.8 144.611 1406.9C144.969 1407.99 145.148 1409.31 145.148 1410.86ZM138.166 1410.86C138.166 1411.95 138.225 1412.86 138.342 1413.59C138.465 1414.31 138.671 1414.85 138.957 1415.22C139.243 1415.58 139.641 1415.76 140.148 1415.76C140.65 1415.76 141.044 1415.58 141.33 1415.23C141.623 1414.86 141.831 1414.32 141.955 1413.6C142.079 1412.87 142.141 1411.96 142.141 1410.86C142.141 1409.77 142.079 1408.87 141.955 1408.14C141.831 1407.41 141.623 1406.86 141.33 1406.5C141.044 1406.12 140.65 1405.94 140.148 1405.94C139.641 1405.94 139.243 1406.12 138.957 1406.5C138.671 1406.86 138.465 1407.41 138.342 1408.14C138.225 1408.87 138.166 1409.77 138.166 1410.86ZM156.594 1410.86C156.594 1412.01 156.503 1413.04 156.32 1413.95C156.145 1414.85 155.858 1415.62 155.461 1416.25C155.07 1416.88 154.556 1417.37 153.918 1417.7C153.28 1418.03 152.505 1418.2 151.594 1418.2C150.448 1418.2 149.507 1417.91 148.771 1417.33C148.036 1416.74 147.492 1415.9 147.141 1414.81C146.789 1413.71 146.613 1412.39 146.613 1410.86C146.613 1409.32 146.773 1408 147.092 1406.91C147.417 1405.81 147.945 1404.96 148.674 1404.38C149.403 1403.79 150.376 1403.5 151.594 1403.5C152.733 1403.5 153.671 1403.79 154.406 1404.38C155.148 1404.96 155.699 1405.8 156.057 1406.9C156.415 1407.99 156.594 1409.31 156.594 1410.86ZM149.611 1410.86C149.611 1411.95 149.67 1412.86 149.787 1413.59C149.911 1414.31 150.116 1414.85 150.402 1415.22C150.689 1415.58 151.086 1415.76 151.594 1415.76C152.095 1415.76 152.489 1415.58 152.775 1415.23C153.068 1414.86 153.277 1414.32 153.4 1413.6C153.524 1412.87 153.586 1411.96 153.586 1410.86C153.586 1409.77 153.524 1408.87 153.4 1408.14C153.277 1407.41 153.068 1406.86 152.775 1406.5C152.489 1406.12 152.095 1405.94 151.594 1405.94C151.086 1405.94 150.689 1406.12 150.402 1406.5C150.116 1406.86 149.911 1407.41 149.787 1408.14C149.67 1408.87 149.611 1409.77 149.611 1410.86Z" fill="#04977E"/>
<path d="M160.789 1407.86C161.573 1407.86 162.168 1408.14 162.573 1408.68C162.979 1409.23 163.182 1410 163.182 1410.99C163.182 1411.98 162.99 1412.75 162.607 1413.3C162.225 1413.86 161.618 1414.14 160.789 1414.14C160.019 1414.14 159.433 1413.86 159.032 1413.3C158.631 1412.75 158.431 1411.98 158.431 1410.99C158.431 1410 158.618 1409.23 158.991 1408.68C159.369 1408.14 159.969 1407.86 160.789 1407.86ZM160.803 1409.29C160.579 1409.29 160.415 1409.43 160.311 1409.71C160.206 1410 160.153 1410.43 160.153 1411C160.153 1411.57 160.206 1412 160.311 1412.29C160.415 1412.58 160.579 1412.72 160.803 1412.72C161.026 1412.72 161.19 1412.58 161.295 1412.3C161.404 1412.01 161.459 1411.58 161.459 1411C161.459 1410.43 161.404 1410 161.295 1409.71C161.19 1409.43 161.026 1409.29 160.803 1409.29ZM167.885 1408.01L162.341 1418H160.7L166.244 1408.01H167.885ZM167.789 1411.85C168.573 1411.85 169.168 1412.13 169.573 1412.67C169.979 1413.22 170.182 1413.99 170.182 1414.98C170.182 1415.96 169.99 1416.73 169.607 1417.29C169.225 1417.85 168.618 1418.12 167.789 1418.12C167.019 1418.12 166.433 1417.85 166.032 1417.29C165.631 1416.73 165.431 1415.96 165.431 1414.98C165.431 1413.99 165.618 1413.22 165.991 1412.67C166.369 1412.13 166.969 1411.85 167.789 1411.85ZM167.803 1413.28C167.579 1413.28 167.415 1413.42 167.311 1413.71C167.206 1413.99 167.153 1414.42 167.153 1414.99C167.153 1415.57 167.206 1416 167.311 1416.28C167.415 1416.57 167.579 1416.71 167.803 1416.71C168.026 1416.71 168.19 1416.57 168.295 1416.29C168.404 1416 168.459 1415.57 168.459 1414.99C168.459 1414.42 168.404 1413.99 168.295 1413.71C168.19 1413.42 168.026 1413.28 167.803 1413.28Z" fill="#04977E"/>
<g clip-path="url(#clip15_4419_29801)">
<g clip-path="url(#clip16_4419_29801)">
<g clip-path="url(#clip17_4419_29801)">
<path d="M366.009 1253.55V1271H362.318V1257.05H362.216L358.219 1259.55V1256.28L362.54 1253.55H366.009ZM377.001 1271.38C375.535 1271.38 374.273 1271.02 373.217 1270.3C372.165 1269.59 371.356 1268.55 370.788 1267.19C370.225 1265.83 369.947 1264.2 369.952 1262.29C369.952 1260.39 370.234 1258.76 370.796 1257.42C371.364 1256.08 372.174 1255.06 373.225 1254.36C374.282 1253.66 375.54 1253.31 377.001 1253.31C378.461 1253.31 379.717 1253.66 380.768 1254.36C381.825 1255.07 382.637 1256.09 383.205 1257.43C383.773 1258.77 384.055 1260.39 384.049 1262.29C384.049 1264.2 383.765 1265.84 383.197 1267.2C382.634 1268.56 381.827 1269.59 380.776 1270.31C379.725 1271.03 378.467 1271.38 377.001 1271.38ZM377.001 1268.32C378.001 1268.32 378.799 1267.82 379.396 1266.82C379.992 1265.81 380.288 1264.3 380.282 1262.29C380.282 1260.97 380.146 1259.86 379.873 1258.98C379.606 1258.1 379.225 1257.44 378.731 1257C378.242 1256.55 377.665 1256.33 377.001 1256.33C376.006 1256.33 375.211 1256.83 374.614 1257.82C374.018 1258.82 373.717 1260.31 373.711 1262.29C373.711 1263.63 373.844 1264.75 374.112 1265.65C374.384 1266.54 374.768 1267.21 375.262 1267.66C375.756 1268.1 376.336 1268.32 377.001 1268.32ZM393.524 1271.38C392.058 1271.38 390.797 1271.02 389.74 1270.3C388.689 1269.59 387.879 1268.55 387.311 1267.19C386.749 1265.83 386.47 1264.2 386.476 1262.29C386.476 1260.39 386.757 1258.76 387.32 1257.42C387.888 1256.08 388.697 1255.06 389.749 1254.36C390.805 1253.66 392.064 1253.31 393.524 1253.31C394.984 1253.31 396.24 1253.66 397.291 1254.36C398.348 1255.07 399.161 1256.09 399.729 1257.43C400.297 1258.77 400.578 1260.39 400.572 1262.29C400.572 1264.2 400.288 1265.84 399.72 1267.2C399.158 1268.56 398.351 1269.59 397.3 1270.31C396.249 1271.03 394.99 1271.38 393.524 1271.38ZM393.524 1268.32C394.524 1268.32 395.322 1267.82 395.919 1266.82C396.516 1265.81 396.811 1264.3 396.805 1262.29C396.805 1260.97 396.669 1259.86 396.396 1258.98C396.129 1258.1 395.749 1257.44 395.254 1257C394.766 1256.55 394.189 1256.33 393.524 1256.33C392.53 1256.33 391.734 1256.83 391.138 1257.82C390.541 1258.82 390.24 1260.31 390.234 1262.29C390.234 1263.63 390.368 1264.75 390.635 1265.65C390.908 1266.54 391.291 1267.21 391.786 1267.66C392.28 1268.1 392.859 1268.32 393.524 1268.32ZM412.758 1267.73V1266.81C412.758 1266.11 412.906 1265.47 413.201 1264.88C413.502 1264.29 413.937 1263.82 414.505 1263.47C415.079 1263.11 415.778 1262.93 416.602 1262.93C417.437 1262.93 418.138 1263.11 418.707 1263.46C419.281 1263.81 419.712 1264.28 420.002 1264.87C420.298 1265.46 420.445 1266.1 420.445 1266.81V1267.73C420.445 1268.43 420.298 1269.07 420.002 1269.66C419.707 1270.25 419.272 1270.72 418.698 1271.07C418.124 1271.43 417.425 1271.61 416.602 1271.61C415.766 1271.61 415.065 1271.43 414.496 1271.07C413.928 1270.72 413.496 1270.25 413.201 1269.66C412.906 1269.07 412.758 1268.43 412.758 1267.73ZM415.238 1266.81V1267.73C415.238 1268.13 415.335 1268.51 415.528 1268.87C415.727 1269.23 416.085 1269.41 416.602 1269.41C417.119 1269.41 417.471 1269.23 417.658 1268.88C417.852 1268.53 417.948 1268.14 417.948 1267.73V1266.81C417.948 1266.39 417.857 1266.01 417.675 1265.65C417.494 1265.29 417.136 1265.11 416.602 1265.11C416.09 1265.11 415.735 1265.29 415.536 1265.65C415.337 1266.01 415.238 1266.39 415.238 1266.81ZM403.8 1257.74V1256.82C403.8 1256.11 403.951 1255.47 404.252 1254.88C404.553 1254.29 404.988 1253.82 405.556 1253.47C406.13 1253.12 406.823 1252.94 407.636 1252.94C408.477 1252.94 409.181 1253.12 409.749 1253.47C410.317 1253.82 410.749 1254.29 411.045 1254.88C411.34 1255.47 411.488 1256.11 411.488 1256.82V1257.74C411.488 1258.44 411.337 1259.09 411.036 1259.67C410.741 1260.26 410.306 1260.73 409.732 1261.08C409.164 1261.43 408.465 1261.6 407.636 1261.6C406.806 1261.6 406.104 1261.42 405.531 1261.07C404.962 1260.71 404.531 1260.24 404.235 1259.66C403.945 1259.08 403.8 1258.44 403.8 1257.74ZM406.298 1256.82V1257.74C406.298 1258.15 406.394 1258.54 406.587 1258.89C406.786 1259.24 407.136 1259.42 407.636 1259.42C408.158 1259.42 408.513 1259.24 408.701 1258.89C408.894 1258.54 408.991 1258.15 408.991 1257.74V1256.82C408.991 1256.4 408.9 1256.02 408.718 1255.66C408.536 1255.3 408.175 1255.12 407.636 1255.12C407.13 1255.12 406.781 1255.3 406.587 1255.67C406.394 1256.03 406.298 1256.41 406.298 1256.82ZM404.925 1271L416.925 1253.55H419.158L407.158 1271H404.925Z" fill="black"/>
</g>
</g>
</g>
</g>
</g>
<g clip-path="url(#clip18_4419_29801)">
<g clip-path="url(#clip19_4419_29801)">
<rect width="293" height="272" transform="translate(0 1668)" fill="#FFFFFF"/>
<path d="M147 1768.5C159.979 1768.5 170.5 1779.02 170.5 1792C170.5 1804.98 159.979 1815.5 147 1815.5C134.021 1815.5 123.5 1804.98 123.5 1792C123.5 1779.02 134.021 1768.5 147 1768.5ZM147 1779.5C140.096 1779.5 134.5 1785.1 134.5 1792C134.5 1798.9 140.096 1804.5 147 1804.5C153.904 1804.5 159.5 1798.9 159.5 1792C159.5 1785.1 153.904 1779.5 147 1779.5Z" stroke="#8090A3"/>
<path d="M165 1792C165 1794.36 164.534 1796.7 163.63 1798.89C162.725 1801.07 161.399 1803.06 159.728 1804.73C158.056 1806.4 156.072 1807.73 153.888 1808.63C151.704 1809.53 149.364 1810 147 1810C144.636 1810 142.296 1809.53 140.112 1808.63C137.928 1807.73 135.944 1806.4 134.272 1804.73C132.601 1803.06 131.275 1801.07 130.37 1798.89C129.466 1796.7 129 1794.36 129 1792C129 1789.64 129.466 1787.3 130.37 1785.11C131.275 1782.93 132.601 1780.94 134.272 1779.27C135.944 1777.6 137.928 1776.27 140.112 1775.37C142.296 1774.47 144.636 1774 147 1774C149.364 1774 151.704 1774.47 153.888 1775.37C156.072 1776.27 158.056 1777.6 159.728 1779.27C161.399 1780.94 162.725 1782.93 163.63 1785.11C164.534 1787.3 165 1789.64 165 1792L165 1792Z" stroke="#FAFBFB" stroke-width="8" stroke-linecap="round" stroke-linejoin="round"/>
<path d="M147 1774C149.364 1774 151.704 1774.47 153.888 1775.37C156.072 1776.27 158.056 1777.6 159.728 1779.27C161.399 1780.94 162.725 1782.93 163.63 1785.11C164.534 1787.3 165 1789.64 165 1792" stroke="#04977E" stroke-width="8"/>
<path d="M139.781 1838H129.801V1835.9L133.385 1832.28C134.107 1831.54 134.687 1830.92 135.123 1830.42C135.566 1829.92 135.885 1829.46 136.08 1829.05C136.282 1828.64 136.383 1828.21 136.383 1827.74C136.383 1827.17 136.223 1826.75 135.904 1826.47C135.592 1826.18 135.172 1826.04 134.645 1826.04C134.091 1826.04 133.554 1826.16 133.033 1826.42C132.512 1826.67 131.969 1827.03 131.402 1827.5L129.762 1825.56C130.172 1825.21 130.605 1824.88 131.061 1824.56C131.523 1824.25 132.057 1824 132.662 1823.81C133.274 1823.62 134.007 1823.52 134.859 1823.52C135.797 1823.52 136.601 1823.69 137.271 1824.03C137.949 1824.36 138.469 1824.83 138.834 1825.41C139.199 1825.99 139.381 1826.65 139.381 1827.38C139.381 1828.17 139.225 1828.89 138.912 1829.54C138.6 1830.19 138.144 1830.84 137.545 1831.48C136.952 1832.11 136.236 1832.82 135.396 1833.6L133.561 1835.32V1835.46H139.781V1838ZM146.441 1828.88C147.314 1828.88 148.089 1829.04 148.766 1829.38C149.449 1829.71 149.986 1830.2 150.377 1830.84C150.768 1831.49 150.963 1832.28 150.963 1833.22C150.963 1834.25 150.748 1835.14 150.318 1835.89C149.895 1836.63 149.26 1837.2 148.414 1837.6C147.574 1838 146.526 1838.2 145.27 1838.2C144.521 1838.2 143.814 1838.13 143.15 1838C142.493 1837.88 141.917 1837.68 141.422 1837.42V1834.82C141.917 1835.08 142.509 1835.3 143.199 1835.48C143.896 1835.66 144.55 1835.74 145.162 1835.74C145.761 1835.74 146.266 1835.67 146.676 1835.51C147.086 1835.35 147.395 1835.1 147.604 1834.77C147.818 1834.43 147.926 1834 147.926 1833.48C147.926 1832.78 147.691 1832.25 147.223 1831.88C146.754 1831.51 146.035 1831.32 145.064 1831.32C144.693 1831.32 144.306 1831.36 143.902 1831.43C143.505 1831.5 143.173 1831.57 142.906 1831.64L141.705 1831L142.242 1823.72H149.986V1826.28H144.889L144.625 1829.08C144.846 1829.04 145.087 1828.99 145.348 1828.95C145.608 1828.9 145.973 1828.88 146.441 1828.88Z" fill="#04977E"/>
<path d="M154.789 1827.86C155.573 1827.86 156.168 1828.14 156.573 1828.68C156.979 1829.23 157.182 1830 157.182 1830.99C157.182 1831.98 156.99 1832.75 156.607 1833.3C156.225 1833.86 155.618 1834.14 154.789 1834.14C154.019 1834.14 153.433 1833.86 153.032 1833.3C152.631 1832.75 152.431 1831.98 152.431 1830.99C152.431 1830 152.618 1829.23 152.991 1828.68C153.369 1828.14 153.969 1827.86 154.789 1827.86ZM154.803 1829.29C154.579 1829.29 154.415 1829.43 154.311 1829.71C154.206 1830 154.153 1830.43 154.153 1831C154.153 1831.57 154.206 1832 154.311 1832.29C154.415 1832.58 154.579 1832.72 154.803 1832.72C155.026 1832.72 155.19 1832.58 155.295 1832.3C155.404 1832.01 155.459 1831.58 155.459 1831C155.459 1830.43 155.404 1830 155.295 1829.71C155.19 1829.43 155.026 1829.29 154.803 1829.29ZM161.885 1828.01L156.341 1838H154.7L160.244 1828.01H161.885ZM161.789 1831.85C162.573 1831.85 163.168 1832.13 163.573 1832.67C163.979 1833.22 164.182 1833.99 164.182 1834.98C164.182 1835.96 163.99 1836.73 163.607 1837.29C163.225 1837.85 162.618 1838.12 161.789 1838.12C161.019 1838.12 160.433 1837.85 160.032 1837.29C159.631 1836.73 159.431 1835.96 159.431 1834.98C159.431 1833.99 159.618 1833.22 159.991 1832.67C160.369 1832.13 160.969 1831.85 161.789 1831.85ZM161.803 1833.28C161.579 1833.28 161.415 1833.42 161.311 1833.71C161.206 1833.99 161.153 1834.42 161.153 1834.99C161.153 1835.57 161.206 1836 161.311 1836.28C161.415 1836.57 161.579 1836.71 161.803 1836.71C162.026 1836.71 162.19 1836.57 162.295 1836.29C162.404 1836 162.459 1835.57 162.459 1834.99C162.459 1834.42 162.404 1833.99 162.295 1833.71C162.19 1833.42 162.026 1833.28 161.803 1833.28Z" fill="#04977E"/>
<g clip-path="url(#clip20_4419_29801)">
<g clip-path="url(#clip21_4419_29801)">
<g clip-path="url(#clip22_4419_29801)">
<path d="M358.517 1691V1673.55H365.403C366.727 1673.55 367.855 1673.8 368.787 1674.3C369.719 1674.8 370.429 1675.5 370.918 1676.39C371.412 1677.28 371.659 1678.3 371.659 1679.46C371.659 1680.62 371.409 1681.64 370.909 1682.53C370.409 1683.41 369.685 1684.11 368.736 1684.6C367.793 1685.09 366.651 1685.34 365.31 1685.34H360.92V1682.38H364.713C365.423 1682.38 366.009 1682.26 366.469 1682.02C366.935 1681.77 367.281 1681.42 367.509 1680.99C367.741 1680.54 367.858 1680.03 367.858 1679.46C367.858 1678.88 367.741 1678.37 367.509 1677.94C367.281 1677.51 366.935 1677.17 366.469 1676.93C366.003 1676.68 365.412 1676.56 364.696 1676.56H362.207V1691H358.517ZM379.743 1691.26C378.396 1691.26 377.237 1690.98 376.266 1690.44C375.3 1689.89 374.555 1689.11 374.033 1688.1C373.51 1687.09 373.249 1685.89 373.249 1684.51C373.249 1683.17 373.51 1681.99 374.033 1680.97C374.555 1679.95 375.291 1679.16 376.24 1678.59C377.195 1678.02 378.314 1677.74 379.598 1677.74C380.462 1677.74 381.266 1677.88 382.01 1678.16C382.76 1678.43 383.413 1678.84 383.97 1679.39C384.533 1679.94 384.97 1680.64 385.283 1681.47C385.595 1682.3 385.751 1683.27 385.751 1684.39V1685.38H374.697V1683.13H382.334C382.334 1682.61 382.22 1682.15 381.993 1681.74C381.766 1681.34 381.45 1681.03 381.047 1680.8C380.649 1680.57 380.186 1680.45 379.658 1680.45C379.107 1680.45 378.618 1680.58 378.192 1680.83C377.771 1681.08 377.442 1681.42 377.203 1681.85C376.964 1682.27 376.842 1682.74 376.837 1683.25V1685.39C376.837 1686.04 376.956 1686.6 377.195 1687.07C377.439 1687.54 377.783 1687.91 378.226 1688.16C378.669 1688.42 379.195 1688.55 379.803 1688.55C380.206 1688.55 380.575 1688.49 380.911 1688.38C381.246 1688.26 381.533 1688.09 381.771 1687.86C382.01 1687.64 382.192 1687.36 382.317 1687.03L385.675 1687.25C385.504 1688.06 385.155 1688.76 384.626 1689.36C384.104 1689.96 383.428 1690.43 382.598 1690.76C381.774 1691.09 380.822 1691.26 379.743 1691.26ZM388.121 1691V1677.91H391.641V1680.19H391.777C392.016 1679.38 392.416 1678.77 392.979 1678.35C393.541 1677.93 394.189 1677.72 394.922 1677.72C395.104 1677.72 395.3 1677.73 395.51 1677.76C395.72 1677.78 395.905 1677.81 396.064 1677.85V1681.07C395.893 1681.02 395.658 1680.97 395.357 1680.93C395.055 1680.89 394.78 1680.88 394.53 1680.88C393.996 1680.88 393.518 1680.99 393.098 1681.22C392.683 1681.45 392.354 1681.77 392.109 1682.18C391.871 1682.59 391.751 1683.06 391.751 1683.59V1691H388.121ZM403.246 1691.26C401.906 1691.26 400.752 1690.97 399.786 1690.4C398.826 1689.83 398.087 1689.03 397.57 1688.02C397.059 1687 396.803 1685.83 396.803 1684.51C396.803 1683.16 397.062 1681.99 397.579 1680.98C398.102 1679.96 398.843 1679.17 399.803 1678.6C400.763 1678.03 401.906 1677.74 403.229 1677.74C404.371 1677.74 405.371 1677.95 406.229 1678.36C407.087 1678.78 407.766 1679.36 408.266 1680.11C408.766 1680.86 409.042 1681.74 409.093 1682.75H405.667C405.57 1682.1 405.315 1681.57 404.9 1681.17C404.491 1680.77 403.954 1680.57 403.289 1680.57C402.727 1680.57 402.235 1680.72 401.815 1681.03C401.4 1681.33 401.076 1681.77 400.843 1682.35C400.61 1682.93 400.494 1683.63 400.494 1684.45C400.494 1685.29 400.607 1686 400.835 1686.59C401.067 1687.17 401.394 1687.62 401.815 1687.92C402.235 1688.23 402.727 1688.38 403.289 1688.38C403.704 1688.38 404.076 1688.3 404.406 1688.13C404.741 1687.96 405.016 1687.71 405.232 1687.39C405.454 1687.06 405.599 1686.66 405.667 1686.2H409.093C409.036 1687.2 408.763 1688.08 408.275 1688.84C407.792 1689.6 407.124 1690.19 406.272 1690.62C405.42 1691.04 404.411 1691.26 403.246 1691.26ZM417.384 1691.26C416.037 1691.26 414.878 1690.98 413.906 1690.44C412.94 1689.89 412.196 1689.11 411.673 1688.1C411.151 1687.09 410.889 1685.89 410.889 1684.51C410.889 1683.17 411.151 1681.99 411.673 1680.97C412.196 1679.95 412.932 1679.16 413.881 1678.59C414.835 1678.02 415.955 1677.74 417.239 1677.74C418.102 1677.74 418.906 1677.88 419.651 1678.16C420.401 1678.43 421.054 1678.84 421.611 1679.39C422.173 1679.94 422.611 1680.64 422.923 1681.47C423.236 1682.3 423.392 1683.27 423.392 1684.39V1685.38H412.338V1683.13H419.974C419.974 1682.61 419.861 1682.15 419.634 1681.74C419.406 1681.34 419.091 1681.03 418.688 1680.8C418.29 1680.57 417.827 1680.45 417.298 1680.45C416.747 1680.45 416.259 1680.58 415.832 1680.83C415.412 1681.08 415.082 1681.42 414.844 1681.85C414.605 1682.27 414.483 1682.74 414.477 1683.25V1685.39C414.477 1686.04 414.597 1686.6 414.835 1687.07C415.08 1687.54 415.423 1687.91 415.866 1688.16C416.31 1688.42 416.835 1688.55 417.443 1688.55C417.847 1688.55 418.216 1688.49 418.551 1688.38C418.886 1688.26 419.173 1688.09 419.412 1687.86C419.651 1687.64 419.832 1687.36 419.957 1687.03L423.315 1687.25C423.145 1688.06 422.795 1688.76 422.267 1689.36C421.744 1689.96 421.068 1690.43 420.239 1690.76C419.415 1691.09 418.463 1691.26 417.384 1691.26ZM429.392 1683.43V1691H425.761V1677.91H429.222V1680.22H429.375C429.665 1679.46 430.151 1678.86 430.832 1678.41C431.514 1677.96 432.341 1677.74 433.312 1677.74C434.222 1677.74 435.014 1677.94 435.69 1678.34C436.366 1678.73 436.892 1679.3 437.267 1680.04C437.642 1680.77 437.83 1681.65 437.83 1682.66V1691H434.199V1683.31C434.205 1682.51 434 1681.89 433.585 1681.44C433.17 1680.98 432.599 1680.76 431.872 1680.76C431.384 1680.76 430.952 1680.86 430.577 1681.07C430.207 1681.28 429.918 1681.59 429.707 1681.99C429.503 1682.39 429.398 1682.87 429.392 1683.43ZM447.654 1677.91V1680.64H439.771V1677.91H447.654ZM441.56 1674.77H445.191V1686.98C445.191 1687.31 445.242 1687.57 445.344 1687.76C445.447 1687.94 445.589 1688.07 445.771 1688.14C445.958 1688.22 446.174 1688.26 446.418 1688.26C446.589 1688.26 446.759 1688.24 446.93 1688.21C447.1 1688.18 447.231 1688.15 447.322 1688.14L447.893 1690.84C447.711 1690.89 447.455 1690.96 447.126 1691.03C446.796 1691.11 446.396 1691.16 445.924 1691.18C445.049 1691.21 444.282 1691.1 443.623 1690.83C442.969 1690.56 442.461 1690.15 442.097 1689.59C441.734 1689.02 441.555 1688.31 441.56 1687.45V1674.77ZM453.752 1691.25C452.917 1691.25 452.173 1691.1 451.519 1690.81C450.866 1690.52 450.349 1690.08 449.968 1689.51C449.593 1688.93 449.406 1688.21 449.406 1687.34C449.406 1686.62 449.539 1686.01 449.806 1685.51C450.073 1685.02 450.437 1684.62 450.897 1684.32C451.357 1684.02 451.88 1683.79 452.465 1683.64C453.056 1683.48 453.675 1683.38 454.323 1683.31C455.085 1683.23 455.698 1683.16 456.164 1683.09C456.63 1683.02 456.968 1682.91 457.178 1682.77C457.388 1682.62 457.494 1682.41 457.494 1682.14V1682.09C457.494 1681.55 457.323 1681.13 456.982 1680.83C456.647 1680.54 456.17 1680.39 455.55 1680.39C454.897 1680.39 454.377 1680.53 453.991 1680.82C453.604 1681.11 453.349 1681.47 453.224 1681.9L449.866 1681.62C450.036 1680.83 450.371 1680.14 450.871 1679.56C451.371 1678.98 452.016 1678.53 452.806 1678.22C453.602 1677.9 454.522 1677.74 455.567 1677.74C456.295 1677.74 456.991 1677.82 457.656 1677.99C458.326 1678.16 458.92 1678.43 459.437 1678.79C459.96 1679.14 460.371 1679.61 460.673 1680.17C460.974 1680.72 461.124 1681.39 461.124 1682.17V1691H457.681V1689.18H457.579C457.369 1689.59 457.087 1689.95 456.735 1690.27C456.383 1690.57 455.96 1690.82 455.465 1690.99C454.971 1691.16 454.4 1691.25 453.752 1691.25ZM454.792 1688.74C455.326 1688.74 455.798 1688.64 456.207 1688.43C456.616 1688.21 456.937 1687.92 457.17 1687.56C457.403 1687.19 457.519 1686.78 457.519 1686.32V1684.93C457.406 1685.01 457.249 1685.07 457.05 1685.14C456.857 1685.19 456.638 1685.25 456.394 1685.3C456.15 1685.34 455.906 1685.39 455.661 1685.43C455.417 1685.46 455.195 1685.49 454.996 1685.52C454.57 1685.58 454.198 1685.68 453.88 1685.82C453.562 1685.95 453.315 1686.14 453.138 1686.37C452.962 1686.6 452.874 1686.88 452.874 1687.22C452.874 1687.72 453.053 1688.1 453.411 1688.36C453.775 1688.61 454.235 1688.74 454.792 1688.74ZM469.839 1696.18C468.663 1696.18 467.654 1696.02 466.813 1695.7C465.978 1695.38 465.313 1694.94 464.819 1694.39C464.325 1693.84 464.004 1693.22 463.856 1692.53L467.214 1692.08C467.316 1692.34 467.478 1692.59 467.7 1692.82C467.921 1693.04 468.214 1693.22 468.577 1693.36C468.947 1693.5 469.396 1693.57 469.924 1693.57C470.714 1693.57 471.364 1693.38 471.876 1692.99C472.393 1692.61 472.651 1691.97 472.651 1691.08V1688.68H472.498C472.339 1689.05 472.1 1689.39 471.782 1689.71C471.464 1690.04 471.055 1690.3 470.555 1690.51C470.055 1690.71 469.458 1690.81 468.765 1690.81C467.782 1690.81 466.887 1690.59 466.08 1690.13C465.279 1689.67 464.64 1688.97 464.163 1688.03C463.691 1687.08 463.455 1685.88 463.455 1684.43C463.455 1682.95 463.697 1681.71 464.18 1680.71C464.663 1679.72 465.305 1678.97 466.106 1678.48C466.913 1677.99 467.796 1677.74 468.756 1677.74C469.489 1677.74 470.103 1677.86 470.597 1678.11C471.092 1678.36 471.489 1678.66 471.79 1679.03C472.097 1679.4 472.333 1679.76 472.498 1680.11H472.634V1677.91H476.239V1691.13C476.239 1692.24 475.967 1693.17 475.421 1693.92C474.876 1694.67 474.12 1695.24 473.154 1695.61C472.194 1695.99 471.089 1696.18 469.839 1696.18ZM469.915 1688.09C470.501 1688.09 470.995 1687.94 471.398 1687.65C471.808 1687.36 472.12 1686.93 472.336 1686.39C472.558 1685.84 472.668 1685.18 472.668 1684.41C472.668 1683.64 472.56 1682.98 472.344 1682.42C472.129 1681.85 471.816 1681.41 471.407 1681.1C470.998 1680.78 470.501 1680.63 469.915 1680.63C469.319 1680.63 468.816 1680.79 468.407 1681.11C467.998 1681.43 467.688 1681.87 467.478 1682.44C467.268 1683.01 467.163 1683.67 467.163 1684.41C467.163 1685.17 467.268 1685.82 467.478 1686.37C467.694 1686.92 468.004 1687.34 468.407 1687.64C468.816 1687.94 469.319 1688.09 469.915 1688.09ZM485.094 1691.26C483.748 1691.26 482.589 1690.98 481.617 1690.44C480.651 1689.89 479.907 1689.11 479.384 1688.1C478.862 1687.09 478.6 1685.89 478.6 1684.51C478.6 1683.17 478.862 1681.99 479.384 1680.97C479.907 1679.95 480.643 1679.16 481.592 1678.59C482.546 1678.02 483.665 1677.74 484.95 1677.74C485.813 1677.74 486.617 1677.88 487.362 1678.16C488.112 1678.43 488.765 1678.84 489.322 1679.39C489.884 1679.94 490.322 1680.64 490.634 1681.47C490.947 1682.3 491.103 1683.27 491.103 1684.39V1685.38H480.049V1683.13H487.685C487.685 1682.61 487.572 1682.15 487.344 1681.74C487.117 1681.34 486.802 1681.03 486.398 1680.8C486.001 1680.57 485.538 1680.45 485.009 1680.45C484.458 1680.45 483.969 1680.58 483.543 1680.83C483.123 1681.08 482.793 1681.42 482.555 1681.85C482.316 1682.27 482.194 1682.74 482.188 1683.25V1685.39C482.188 1686.04 482.308 1686.6 482.546 1687.07C482.79 1687.54 483.134 1687.91 483.577 1688.16C484.021 1688.42 484.546 1688.55 485.154 1688.55C485.558 1688.55 485.927 1688.49 486.262 1688.38C486.597 1688.26 486.884 1688.09 487.123 1687.86C487.362 1687.64 487.543 1687.36 487.668 1687.03L491.026 1687.25C490.856 1688.06 490.506 1688.76 489.978 1689.36C489.455 1689.96 488.779 1690.43 487.95 1690.76C487.126 1691.09 486.174 1691.26 485.094 1691.26ZM504.364 1681.64L501.04 1681.85C500.984 1681.56 500.862 1681.31 500.674 1681.08C500.487 1680.85 500.239 1680.66 499.933 1680.53C499.631 1680.38 499.271 1680.31 498.85 1680.31C498.288 1680.31 497.813 1680.43 497.427 1680.67C497.04 1680.9 496.847 1681.22 496.847 1681.61C496.847 1681.92 496.972 1682.18 497.222 1682.4C497.472 1682.62 497.901 1682.79 498.509 1682.92L500.879 1683.4C502.151 1683.66 503.1 1684.08 503.725 1684.66C504.35 1685.24 504.663 1686 504.663 1686.94C504.663 1687.8 504.41 1688.55 503.904 1689.2C503.404 1689.85 502.717 1690.36 501.842 1690.72C500.972 1691.08 499.969 1691.26 498.833 1691.26C497.1 1691.26 495.719 1690.89 494.691 1690.17C493.668 1689.45 493.069 1688.46 492.893 1687.21L496.464 1687.02C496.572 1687.55 496.833 1687.95 497.248 1688.23C497.663 1688.5 498.194 1688.64 498.842 1688.64C499.478 1688.64 499.989 1688.52 500.376 1688.27C500.768 1688.02 500.967 1687.7 500.972 1687.31C500.967 1686.98 500.827 1686.71 500.555 1686.5C500.282 1686.28 499.862 1686.12 499.293 1686.01L497.026 1685.55C495.748 1685.3 494.796 1684.86 494.171 1684.22C493.552 1683.59 493.242 1682.79 493.242 1681.81C493.242 1680.97 493.469 1680.25 493.924 1679.64C494.384 1679.03 495.029 1678.56 495.859 1678.23C496.694 1677.9 497.671 1677.74 498.79 1677.74C500.444 1677.74 501.745 1678.09 502.694 1678.79C503.648 1679.49 504.205 1680.44 504.364 1681.64Z" fill="black"/>
</g>
</g>
</g>
</g>
<g clip-path="url(#clip23_4419_29801)">
<rect width="293" height="272" transform="translate(0 1980)" fill="#FFFFFF"/>
<path d="M146.5 2080.5C159.479 2080.5 170 2091.02 170 2104C170 2116.98 159.479 2127.5 146.5 2127.5C133.521 2127.5 123 2116.98 123 2104C123 2091.02 133.521 2080.5 146.5 2080.5ZM146.5 2091.5C139.596 2091.5 134 2097.1 134 2104C134 2110.9 139.596 2116.5 146.5 2116.5C153.404 2116.5 159 2110.9 159 2104C159 2097.1 153.404 2091.5 146.5 2091.5Z" stroke="#8090A3"/>
<path d="M164.5 2104C164.5 2106.36 164.034 2108.7 163.13 2110.89C162.225 2113.07 160.899 2115.06 159.228 2116.73C157.556 2118.4 155.572 2119.73 153.388 2120.63C151.204 2121.53 148.864 2122 146.5 2122C144.136 2122 141.796 2121.53 139.612 2120.63C137.428 2119.73 135.444 2118.4 133.772 2116.73C132.101 2115.06 130.775 2113.07 129.87 2110.89C128.966 2108.7 128.5 2106.36 128.5 2104C128.5 2101.64 128.966 2099.3 129.87 2097.11C130.775 2094.93 132.101 2092.94 133.772 2091.27C135.444 2089.6 137.428 2088.27 139.612 2087.37C141.796 2086.47 144.136 2086 146.5 2086C148.864 2086 151.204 2086.47 153.388 2087.37C155.572 2088.27 157.556 2089.6 159.228 2091.27C160.899 2092.94 162.225 2094.93 163.13 2097.11C164.034 2099.3 164.5 2101.64 164.5 2104L164.5 2104Z" stroke="#FAFBFB" stroke-width="8" stroke-linecap="round" stroke-linejoin="round"/>
<path d="M146.5 2086C148.864 2086 151.204 2086.47 153.388 2087.37C155.572 2088.27 157.556 2089.6 159.228 2091.27C160.899 2092.94 162.225 2094.93 163.13 2097.11C164.034 2099.3 164.5 2101.64 164.5 2104" stroke="#04977E" stroke-width="8"/>
<path d="M98.7812 2150H88.8008V2147.9L92.3848 2144.28C93.1074 2143.54 93.6868 2142.92 94.123 2142.42C94.5658 2141.92 94.8848 2141.46 95.0801 2141.05C95.2819 2140.64 95.3828 2140.21 95.3828 2139.74C95.3828 2139.17 95.2233 2138.75 94.9043 2138.47C94.5918 2138.18 94.1719 2138.04 93.6445 2138.04C93.0911 2138.04 92.554 2138.16 92.0332 2138.42C91.5124 2138.67 90.9688 2139.03 90.4023 2139.5L88.7617 2137.56C89.1719 2137.21 89.6048 2136.88 90.0605 2136.56C90.5228 2136.25 91.0566 2136 91.6621 2135.81C92.2741 2135.62 93.0065 2135.52 93.8594 2135.52C94.7969 2135.52 95.6009 2135.69 96.2715 2136.03C96.9486 2136.36 97.4694 2136.83 97.834 2137.41C98.1986 2137.99 98.3809 2138.65 98.3809 2139.38C98.3809 2140.17 98.2246 2140.89 97.9121 2141.54C97.5996 2142.19 97.1439 2142.84 96.5449 2143.48C95.9525 2144.11 95.2363 2144.82 94.3965 2145.6L92.5605 2147.32V2147.46H98.7812V2150ZM105.441 2140.88C106.314 2140.88 107.089 2141.04 107.766 2141.38C108.449 2141.71 108.986 2142.2 109.377 2142.84C109.768 2143.49 109.963 2144.28 109.963 2145.22C109.963 2146.25 109.748 2147.14 109.318 2147.89C108.895 2148.63 108.26 2149.2 107.414 2149.6C106.574 2150 105.526 2150.2 104.27 2150.2C103.521 2150.2 102.814 2150.13 102.15 2150C101.493 2149.88 100.917 2149.68 100.422 2149.42V2146.82C100.917 2147.08 101.509 2147.3 102.199 2147.48C102.896 2147.66 103.55 2147.74 104.162 2147.74C104.761 2147.74 105.266 2147.67 105.676 2147.51C106.086 2147.35 106.395 2147.1 106.604 2146.77C106.818 2146.43 106.926 2146 106.926 2145.48C106.926 2144.78 106.691 2144.25 106.223 2143.88C105.754 2143.51 105.035 2143.32 104.064 2143.32C103.693 2143.32 103.306 2143.36 102.902 2143.43C102.505 2143.5 102.173 2143.57 101.906 2143.64L100.705 2143L101.242 2135.72H108.986V2138.28H103.889L103.625 2141.08C103.846 2141.04 104.087 2140.99 104.348 2140.95C104.608 2140.9 104.973 2140.88 105.441 2140.88Z" fill="#04977E"/>
<path d="M116.715 2140.01L112.989 2150H111.096L114.821 2140.01H116.715Z" fill="#8090A3"/>
<path d="M120.514 2150.14C119.661 2150.14 118.966 2149.8 118.429 2149.14C117.896 2148.47 117.629 2147.49 117.629 2146.19C117.629 2144.88 117.9 2143.9 118.442 2143.23C118.985 2142.55 119.693 2142.21 120.568 2142.21C120.933 2142.21 121.254 2142.26 121.532 2142.36C121.81 2142.46 122.049 2142.6 122.25 2142.77C122.455 2142.94 122.628 2143.13 122.77 2143.33H122.838C122.811 2143.19 122.776 2142.97 122.735 2142.69C122.699 2142.41 122.681 2142.11 122.681 2141.81V2139.36H124.772V2150H123.173L122.77 2149.01H122.681C122.549 2149.22 122.382 2149.41 122.182 2149.58C121.986 2149.75 121.751 2149.89 121.478 2149.99C121.204 2150.09 120.883 2150.14 120.514 2150.14ZM121.245 2148.48C121.815 2148.48 122.216 2148.31 122.448 2147.97C122.685 2147.63 122.811 2147.12 122.824 2146.43V2146.21C122.824 2145.46 122.71 2144.9 122.482 2144.5C122.255 2144.11 121.831 2143.91 121.211 2143.91C120.751 2143.91 120.391 2144.11 120.131 2144.5C119.871 2144.9 119.741 2145.47 119.741 2146.22C119.741 2146.97 119.871 2147.53 120.131 2147.91C120.395 2148.29 120.767 2148.48 121.245 2148.48ZM130.104 2142.21C130.811 2142.21 131.419 2142.35 131.93 2142.62C132.44 2142.89 132.834 2143.28 133.112 2143.8C133.39 2144.31 133.529 2144.94 133.529 2145.69V2146.7H128.601C128.623 2147.29 128.799 2147.75 129.127 2148.09C129.46 2148.42 129.92 2148.58 130.508 2148.58C130.995 2148.58 131.442 2148.53 131.848 2148.43C132.253 2148.33 132.67 2148.18 133.099 2147.98V2149.6C132.72 2149.78 132.324 2149.92 131.909 2150.01C131.499 2150.09 131 2150.14 130.412 2150.14C129.646 2150.14 128.967 2150 128.375 2149.71C127.787 2149.43 127.325 2149 126.987 2148.42C126.655 2147.84 126.488 2147.11 126.488 2146.23C126.488 2145.34 126.639 2144.6 126.939 2144C127.245 2143.41 127.669 2142.96 128.211 2142.67C128.753 2142.36 129.384 2142.21 130.104 2142.21ZM130.118 2143.7C129.713 2143.7 129.375 2143.83 129.106 2144.09C128.842 2144.35 128.689 2144.75 128.648 2145.31H131.574C131.57 2145 131.513 2144.72 131.403 2144.48C131.299 2144.24 131.139 2144.05 130.925 2143.91C130.715 2143.77 130.446 2143.7 130.118 2143.7ZM139.565 2142.21C140.381 2142.21 141.037 2142.44 141.534 2142.88C142.031 2143.33 142.279 2144.04 142.279 2145.02V2150H140.194V2145.54C140.194 2144.99 140.094 2144.58 139.894 2144.3C139.698 2144.02 139.388 2143.88 138.964 2143.88C138.326 2143.88 137.891 2144.1 137.658 2144.53C137.426 2144.96 137.31 2145.59 137.31 2146.4V2150H135.225V2142.36H136.817L137.098 2143.33H137.214C137.378 2143.07 137.581 2142.86 137.822 2142.69C138.068 2142.53 138.34 2142.41 138.636 2142.33C138.937 2142.25 139.246 2142.21 139.565 2142.21ZM146.511 2142.36V2150H144.426V2142.36H146.511ZM145.472 2139.36C145.782 2139.36 146.048 2139.44 146.271 2139.58C146.495 2139.72 146.606 2139.99 146.606 2140.38C146.606 2140.77 146.495 2141.04 146.271 2141.19C146.048 2141.33 145.782 2141.41 145.472 2141.41C145.157 2141.41 144.888 2141.33 144.665 2141.19C144.446 2141.04 144.337 2140.77 144.337 2140.38C144.337 2139.99 144.446 2139.72 144.665 2139.58C144.888 2139.44 145.157 2139.36 145.472 2139.36ZM157.681 2142.21C158.547 2142.21 159.201 2142.44 159.643 2142.88C160.089 2143.33 160.312 2144.04 160.312 2145.02V2150H158.221V2145.54C158.221 2144.99 158.127 2144.58 157.94 2144.3C157.754 2144.02 157.464 2143.88 157.072 2143.88C156.521 2143.88 156.129 2144.08 155.896 2144.48C155.664 2144.87 155.548 2145.43 155.548 2146.17V2150H153.463V2145.54C153.463 2145.17 153.422 2144.87 153.34 2144.62C153.258 2144.37 153.132 2144.19 152.964 2144.07C152.795 2143.94 152.579 2143.88 152.314 2143.88C151.927 2143.88 151.622 2143.98 151.398 2144.18C151.18 2144.37 151.022 2144.65 150.927 2145.03C150.836 2145.4 150.79 2145.86 150.79 2146.4V2150H148.705V2142.36H150.298L150.578 2143.33H150.694C150.849 2143.07 151.043 2142.86 151.275 2142.69C151.512 2142.53 151.772 2142.41 152.055 2142.33C152.337 2142.25 152.624 2142.21 152.916 2142.21C153.477 2142.21 153.951 2142.31 154.338 2142.49C154.73 2142.67 155.031 2142.95 155.24 2143.33H155.425C155.653 2142.94 155.974 2142.66 156.389 2142.48C156.808 2142.3 157.239 2142.21 157.681 2142.21ZM164.544 2142.36V2150H162.459V2142.36H164.544ZM163.505 2139.36C163.815 2139.36 164.081 2139.44 164.305 2139.58C164.528 2139.72 164.64 2139.99 164.64 2140.38C164.64 2140.77 164.528 2141.04 164.305 2141.19C164.081 2141.33 163.815 2141.41 163.505 2141.41C163.19 2141.41 162.922 2141.33 162.698 2141.19C162.479 2141.04 162.37 2140.77 162.37 2140.38C162.37 2139.99 162.479 2139.72 162.698 2139.58C162.922 2139.44 163.19 2139.36 163.505 2139.36ZM171.079 2142.21C171.895 2142.21 172.551 2142.44 173.048 2142.88C173.545 2143.33 173.793 2144.04 173.793 2145.02V2150H171.708V2145.54C171.708 2144.99 171.608 2144.58 171.407 2144.3C171.211 2144.02 170.901 2143.88 170.478 2143.88C169.84 2143.88 169.404 2144.1 169.172 2144.53C168.939 2144.96 168.823 2145.59 168.823 2146.4V2150H166.738V2142.36H168.331L168.611 2143.33H168.728C168.892 2143.07 169.094 2142.86 169.336 2142.69C169.582 2142.53 169.853 2142.41 170.149 2142.33C170.45 2142.25 170.76 2142.21 171.079 2142.21ZM179.07 2142.2C180.096 2142.2 180.882 2142.42 181.429 2142.87C181.976 2143.32 182.249 2144 182.249 2144.91V2150H180.793L180.39 2148.96H180.335C180.116 2149.23 179.893 2149.46 179.665 2149.63C179.437 2149.8 179.175 2149.93 178.879 2150.01C178.583 2150.1 178.223 2150.14 177.799 2150.14C177.348 2150.14 176.942 2150.05 176.582 2149.88C176.227 2149.7 175.946 2149.44 175.741 2149.08C175.536 2148.72 175.434 2148.27 175.434 2147.72C175.434 2146.91 175.718 2146.31 176.288 2145.93C176.858 2145.54 177.712 2145.32 178.852 2145.28L180.178 2145.24V2144.91C180.178 2144.51 180.073 2144.21 179.863 2144.03C179.654 2143.84 179.362 2143.75 178.988 2143.75C178.619 2143.75 178.257 2143.8 177.901 2143.9C177.546 2144.01 177.19 2144.14 176.835 2144.3L176.145 2142.89C176.55 2142.68 177.004 2142.51 177.505 2142.38C178.011 2142.26 178.533 2142.2 179.07 2142.2ZM180.178 2146.46L179.371 2146.49C178.697 2146.5 178.227 2146.63 177.963 2146.85C177.703 2147.07 177.573 2147.37 177.573 2147.73C177.573 2148.05 177.667 2148.28 177.854 2148.41C178.04 2148.55 178.284 2148.61 178.585 2148.61C179.032 2148.61 179.408 2148.48 179.713 2148.22C180.023 2147.95 180.178 2147.58 180.178 2147.09V2146.46ZM187.622 2148.48C187.85 2148.48 188.071 2148.45 188.285 2148.41C188.504 2148.36 188.72 2148.3 188.935 2148.24V2149.79C188.711 2149.89 188.433 2149.97 188.101 2150.03C187.772 2150.1 187.412 2150.14 187.021 2150.14C186.565 2150.14 186.155 2150.06 185.79 2149.92C185.43 2149.77 185.145 2149.51 184.936 2149.15C184.73 2148.78 184.628 2148.26 184.628 2147.61V2143.92H183.63V2143.04L184.778 2142.34L185.38 2140.73H186.713V2142.36H188.853V2143.92H186.713V2147.61C186.713 2147.9 186.795 2148.12 186.959 2148.26C187.128 2148.4 187.349 2148.48 187.622 2148.48ZM197.432 2146.17C197.432 2146.8 197.345 2147.37 197.172 2147.86C197.003 2148.35 196.755 2148.77 196.427 2149.11C196.103 2149.45 195.711 2149.7 195.251 2149.88C194.795 2150.05 194.28 2150.14 193.706 2150.14C193.168 2150.14 192.674 2150.05 192.223 2149.88C191.776 2149.7 191.386 2149.45 191.054 2149.11C190.726 2148.77 190.47 2148.35 190.288 2147.86C190.11 2147.37 190.021 2146.8 190.021 2146.17C190.021 2145.32 190.172 2144.6 190.473 2144.01C190.773 2143.42 191.202 2142.98 191.758 2142.67C192.314 2142.37 192.977 2142.21 193.747 2142.21C194.463 2142.21 195.096 2142.37 195.647 2142.67C196.203 2142.98 196.639 2143.42 196.953 2144.01C197.272 2144.6 197.432 2145.32 197.432 2146.17ZM192.147 2146.17C192.147 2146.67 192.202 2147.09 192.312 2147.43C192.421 2147.77 192.592 2148.03 192.824 2148.2C193.057 2148.38 193.36 2148.46 193.733 2148.46C194.103 2148.46 194.401 2148.38 194.629 2148.2C194.861 2148.03 195.03 2147.77 195.135 2147.43C195.244 2147.09 195.299 2146.67 195.299 2146.17C195.299 2145.66 195.244 2145.24 195.135 2144.91C195.03 2144.57 194.861 2144.32 194.629 2144.15C194.396 2143.98 194.093 2143.9 193.72 2143.9C193.168 2143.9 192.767 2144.08 192.517 2144.46C192.271 2144.84 192.147 2145.41 192.147 2146.17ZM203.42 2142.21C203.525 2142.21 203.646 2142.22 203.782 2142.23C203.924 2142.24 204.037 2142.26 204.124 2142.28L203.967 2144.23C203.898 2144.21 203.8 2144.19 203.673 2144.18C203.55 2144.17 203.443 2144.16 203.352 2144.16C203.083 2144.16 202.821 2144.2 202.565 2144.26C202.315 2144.33 202.089 2144.44 201.889 2144.6C201.688 2144.75 201.529 2144.95 201.41 2145.2C201.296 2145.45 201.239 2145.75 201.239 2146.11V2150H199.154V2142.36H200.733L201.041 2143.64H201.144C201.294 2143.38 201.481 2143.15 201.704 2142.93C201.932 2142.71 202.189 2142.54 202.477 2142.41C202.768 2142.28 203.083 2142.21 203.42 2142.21Z" fill="#8090A3"/>
<g clip-path="url(#clip24_4419_29801)">
<g clip-path="url(#clip25_4419_29801)">
<g clip-path="url(#clip26_4419_29801)">
<path d="M358.517 2003V1985.55H370.074V1988.59H362.207V1992.75H369.307V1995.79H362.207V2003H358.517ZM372.277 2003V1989.91H375.797V1992.19H375.933C376.172 1991.38 376.572 1990.77 377.135 1990.35C377.697 1989.93 378.345 1989.72 379.078 1989.72C379.26 1989.72 379.456 1989.73 379.666 1989.76C379.876 1989.78 380.061 1989.81 380.22 1989.85V1993.07C380.05 1993.02 379.814 1992.97 379.513 1992.93C379.212 1992.89 378.936 1992.88 378.686 1992.88C378.152 1992.88 377.675 1992.99 377.254 1993.22C376.839 1993.45 376.51 1993.77 376.266 1994.18C376.027 1994.59 375.908 1995.06 375.908 1995.59V2003H372.277ZM385.455 2003.25C384.62 2003.25 383.876 2003.1 383.222 2002.81C382.569 2002.52 382.052 2002.08 381.671 2001.51C381.296 2000.93 381.109 2000.21 381.109 1999.34C381.109 1998.62 381.242 1998.01 381.509 1997.51C381.776 1997.02 382.14 1996.62 382.6 1996.32C383.06 1996.02 383.583 1995.79 384.168 1995.64C384.759 1995.48 385.379 1995.38 386.026 1995.31C386.788 1995.23 387.401 1995.16 387.867 1995.09C388.333 1995.02 388.671 1994.91 388.881 1994.77C389.092 1994.62 389.197 1994.41 389.197 1994.14V1994.09C389.197 1993.55 389.026 1993.13 388.685 1992.83C388.35 1992.54 387.873 1992.39 387.254 1992.39C386.6 1992.39 386.08 1992.53 385.694 1992.82C385.308 1993.11 385.052 1993.47 384.927 1993.9L381.569 1993.62C381.739 1992.83 382.075 1992.14 382.575 1991.56C383.075 1990.98 383.719 1990.53 384.509 1990.22C385.305 1989.9 386.225 1989.74 387.271 1989.74C387.998 1989.74 388.694 1989.82 389.359 1989.99C390.029 1990.16 390.623 1990.43 391.14 1990.79C391.663 1991.14 392.075 1991.61 392.376 1992.17C392.677 1992.72 392.827 1993.39 392.827 1994.17V2003H389.384V2001.18H389.282C389.072 2001.59 388.79 2001.95 388.438 2002.27C388.086 2002.57 387.663 2002.82 387.168 2002.99C386.674 2003.16 386.103 2003.25 385.455 2003.25ZM386.495 2000.74C387.029 2000.74 387.501 2000.64 387.91 2000.43C388.319 2000.21 388.64 1999.92 388.873 1999.56C389.106 1999.19 389.222 1998.78 389.222 1998.32V1996.93C389.109 1997.01 388.952 1997.07 388.754 1997.14C388.56 1997.19 388.342 1997.25 388.097 1997.3C387.853 1997.34 387.609 1997.39 387.364 1997.43C387.12 1997.46 386.898 1997.49 386.7 1997.52C386.273 1997.58 385.901 1997.68 385.583 1997.82C385.265 1997.95 385.018 1998.14 384.842 1998.37C384.665 1998.6 384.577 1998.88 384.577 1999.22C384.577 1999.72 384.756 2000.1 385.114 2000.36C385.478 2000.61 385.938 2000.74 386.495 2000.74ZM401.559 2003.26C400.218 2003.26 399.065 2002.97 398.099 2002.4C397.138 2001.83 396.4 2001.03 395.883 2000.02C395.371 1999 395.116 1997.83 395.116 1996.51C395.116 1995.16 395.374 1993.99 395.891 1992.98C396.414 1991.96 397.156 1991.17 398.116 1990.6C399.076 1990.03 400.218 1989.74 401.542 1989.74C402.684 1989.74 403.684 1989.95 404.542 1990.36C405.4 1990.78 406.079 1991.36 406.579 1992.11C407.079 1992.86 407.354 1993.74 407.406 1994.75H403.979C403.883 1994.1 403.627 1993.57 403.212 1993.17C402.803 1992.77 402.266 1992.57 401.602 1992.57C401.039 1992.57 400.548 1992.72 400.127 1993.03C399.712 1993.33 399.388 1993.77 399.156 1994.35C398.923 1994.93 398.806 1995.63 398.806 1996.45C398.806 1997.29 398.92 1998 399.147 1998.59C399.38 1999.17 399.707 1999.62 400.127 1999.92C400.548 2000.23 401.039 2000.38 401.602 2000.38C402.016 2000.38 402.388 2000.3 402.718 2000.13C403.053 1999.96 403.329 1999.71 403.545 1999.39C403.766 1999.06 403.911 1998.66 403.979 1998.2H407.406C407.349 1999.2 407.076 2000.08 406.587 2000.84C406.104 2001.6 405.437 2002.19 404.585 2002.62C403.732 2003.04 402.724 2003.26 401.559 2003.26ZM416.693 1989.91V1992.64H408.81V1989.91H416.693ZM410.599 1986.77H414.23V1998.98C414.23 1999.31 414.281 1999.57 414.384 1999.76C414.486 1999.94 414.628 2000.07 414.81 2000.14C414.997 2000.22 415.213 2000.26 415.457 2000.26C415.628 2000.26 415.798 2000.24 415.969 2000.21C416.139 2000.18 416.27 2000.15 416.361 2000.14L416.932 2002.84C416.75 2002.89 416.494 2002.96 416.165 2003.03C415.835 2003.11 415.435 2003.16 414.963 2003.18C414.088 2003.21 413.321 2003.1 412.662 2002.83C412.009 2002.56 411.5 2002.15 411.136 2001.59C410.773 2001.02 410.594 2000.31 410.599 1999.45V1986.77ZM419.058 2003V1989.91H422.689V2003H419.058ZM420.882 1988.22C420.342 1988.22 419.879 1988.04 419.493 1987.68C419.112 1987.32 418.922 1986.89 418.922 1986.38C418.922 1985.88 419.112 1985.45 419.493 1985.09C419.879 1984.73 420.342 1984.55 420.882 1984.55C421.422 1984.55 421.882 1984.73 422.263 1985.09C422.649 1985.45 422.842 1985.88 422.842 1986.38C422.842 1986.89 422.649 1987.32 422.263 1987.68C421.882 1988.04 421.422 1988.22 420.882 1988.22ZM431.512 2003.26C430.188 2003.26 429.043 2002.97 428.077 2002.41C427.117 2001.84 426.376 2001.05 425.853 2000.04C425.33 1999.03 425.069 1997.85 425.069 1996.51C425.069 1995.15 425.33 1993.97 425.853 1992.96C426.376 1991.94 427.117 1991.15 428.077 1990.59C429.043 1990.02 430.188 1989.74 431.512 1989.74C432.836 1989.74 433.978 1990.02 434.938 1990.59C435.904 1991.15 436.648 1991.94 437.171 1992.96C437.694 1993.97 437.955 1995.15 437.955 1996.51C437.955 1997.85 437.694 1999.03 437.171 2000.04C436.648 2001.05 435.904 2001.84 434.938 2002.41C433.978 2002.97 432.836 2003.26 431.512 2003.26ZM431.529 2000.44C432.131 2000.44 432.634 2000.27 433.038 1999.93C433.441 1999.59 433.745 1999.11 433.95 1998.52C434.16 1997.92 434.265 1997.24 434.265 1996.48C434.265 1995.72 434.16 1995.04 433.95 1994.44C433.745 1993.85 433.441 1993.37 433.038 1993.03C432.634 1992.68 432.131 1992.51 431.529 1992.51C430.921 1992.51 430.41 1992.68 429.995 1993.03C429.586 1993.37 429.276 1993.85 429.066 1994.44C428.862 1995.04 428.759 1995.72 428.759 1996.48C428.759 1997.24 428.862 1997.92 429.066 1998.52C429.276 1999.11 429.586 1999.59 429.995 1999.93C430.41 2000.27 430.921 2000.44 431.529 2000.44ZM443.947 1995.43V2003H440.316V1989.91H443.776V1992.22H443.93C444.219 1991.46 444.705 1990.86 445.387 1990.41C446.069 1989.96 446.896 1989.74 447.867 1989.74C448.776 1989.74 449.569 1989.94 450.245 1990.34C450.921 1990.73 451.447 1991.3 451.822 1992.04C452.197 1992.77 452.384 1993.65 452.384 1994.66V2003H448.754V1995.31C448.759 1994.51 448.555 1993.89 448.14 1993.44C447.725 1992.98 447.154 1992.76 446.427 1992.76C445.938 1992.76 445.506 1992.86 445.131 1993.07C444.762 1993.28 444.472 1993.59 444.262 1993.99C444.058 1994.39 443.952 1994.87 443.947 1995.43ZM466.138 1993.64L462.814 1993.85C462.757 1993.56 462.635 1993.31 462.447 1993.08C462.26 1992.85 462.013 1992.66 461.706 1992.53C461.405 1992.38 461.044 1992.31 460.624 1992.31C460.061 1992.31 459.587 1992.43 459.2 1992.67C458.814 1992.9 458.621 1993.22 458.621 1993.61C458.621 1993.92 458.746 1994.18 458.996 1994.4C459.246 1994.62 459.675 1994.79 460.283 1994.92L462.652 1995.4C463.925 1995.66 464.874 1996.08 465.499 1996.66C466.124 1997.24 466.436 1998 466.436 1998.94C466.436 1999.8 466.183 2000.55 465.678 2001.2C465.178 2001.85 464.49 2002.36 463.615 2002.72C462.746 2003.08 461.743 2003.26 460.607 2003.26C458.874 2003.26 457.493 2002.89 456.464 2002.17C455.442 2001.45 454.842 2000.46 454.666 1999.21L458.237 1999.02C458.345 1999.55 458.607 1999.95 459.021 2000.23C459.436 2000.5 459.967 2000.64 460.615 2000.64C461.251 2000.64 461.763 2000.52 462.149 2000.27C462.541 2000.02 462.74 1999.7 462.746 1999.31C462.74 1998.98 462.601 1998.71 462.328 1998.5C462.055 1998.28 461.635 1998.12 461.067 1998.01L458.8 1997.55C457.521 1997.3 456.57 1996.86 455.945 1996.22C455.325 1995.59 455.016 1994.79 455.016 1993.81C455.016 1992.97 455.243 1992.25 455.697 1991.64C456.158 1991.03 456.803 1990.56 457.632 1990.23C458.467 1989.9 459.445 1989.74 460.564 1989.74C462.217 1989.74 463.518 1990.09 464.467 1990.79C465.422 1991.49 465.979 1992.44 466.138 1993.64Z" fill="black"/>
</g>
</g>
</g>
</g>
</g>
<defs>
<clipPath id="clip0_4419_29801">
<rect width="574" height="1520" fill="white"/>
</clipPath>
<clipPath id="clip1_4419_29801">
<rect width="395" height="272" fill="white"/>
</clipPath>
<clipPath id="clip2_4419_29801">
<rect width="38" height="29" fill="white" transform="translate(357)"/>
</clipPath>
<clipPath id="clip3_4419_29801">
<rect width="38" height="29" fill="white" transform="translate(357)"/>
</clipPath>
<clipPath id="clip4_4419_29801">
<rect width="38" height="29" fill="white" transform="translate(357)"/>
</clipPath>
<clipPath id="clip5_4419_29801">
<rect width="574" height="272" fill="white" transform="translate(0 312)"/>
</clipPath>
<clipPath id="clip6_4419_29801">
<rect width="409" height="272" fill="white" transform="translate(0 624)"/>
</clipPath>
<clipPath id="clip7_4419_29801">
<rect width="52" height="29" fill="white" transform="translate(357 624)"/>
</clipPath>
<clipPath id="clip8_4419_29801">
<rect width="52" height="29" fill="white" transform="translate(357 624)"/>
</clipPath>
<clipPath id="clip9_4419_29801">
<rect width="52" height="29" fill="white" transform="translate(357 624)"/>
</clipPath>
<clipPath id="clip10_4419_29801">
<rect width="408" height="272" fill="white" transform="translate(0 936)"/>
</clipPath>
<clipPath id="clip11_4419_29801">
<rect width="51" height="29" fill="white" transform="translate(357 936)"/>
</clipPath>
<clipPath id="clip12_4419_29801">
<rect width="51" height="29" fill="white" transform="translate(357 936)"/>
</clipPath>
<clipPath id="clip13_4419_29801">
<rect width="51" height="29" fill="white" transform="translate(357 936)"/>
</clipPath>
<clipPath id="clip14_4419_29801">
<rect width="423" height="272" fill="white" transform="translate(0 1248)"/>
</clipPath>
<clipPath id="clip15_4419_29801">
<rect width="66" height="29" fill="white" transform="translate(357 1248)"/>
</clipPath>
<clipPath id="clip16_4419_29801">
<rect width="66" height="29" fill="white" transform="translate(357 1248)"/>
</clipPath>
<clipPath id="clip17_4419_29801">
<rect width="66" height="29" fill="white" transform="translate(357 1248)"/>
</clipPath>
<clipPath id="clip18_4419_29801">
<rect width="506" height="584" fill="white" transform="translate(0 1668)"/>
</clipPath>
<clipPath id="clip19_4419_29801">
<rect width="506" height="272" fill="white" transform="translate(0 1668)"/>
</clipPath>
<clipPath id="clip20_4419_29801">
<rect width="149" height="29" fill="white" transform="translate(357 1668)"/>
</clipPath>
<clipPath id="clip21_4419_29801">
<rect width="149" height="29" fill="white" transform="translate(357 1668)"/>
</clipPath>
<clipPath id="clip22_4419_29801">
<rect width="149" height="29" fill="white" transform="translate(357 1668)"/>
</clipPath>
<clipPath id="clip23_4419_29801">
<rect width="468" height="272" fill="white" transform="translate(0 1980)"/>
</clipPath>
<clipPath id="clip24_4419_29801">
<rect width="111" height="29" fill="white" transform="translate(357 1980)"/>
</clipPath>
<clipPath id="clip25_4419_29801">
<rect width="111" height="29" fill="white" transform="translate(357 1980)"/>
</clipPath>
<clipPath id="clip26_4419_29801">
<rect width="111" height="29" fill="white" transform="translate(357 1980)"/>
</clipPath>
</defs>
</svg>
