<svg width="423" height="1604" viewBox="0 0 423 1604" fill="none" xmlns="http://www.w3.org/2000/svg">
<g clip-path="url(#clip0_4192_140751)">
<path d="M7.00568 8.81818L13.3338 28.7102H13.5767L19.9176 8.81818H26.054L17.0284 35H9.89489L0.856534 8.81818H7.00568ZM32.5227 35.3707C31.2699 35.3707 30.1534 35.1534 29.1733 34.7188C28.1932 34.2756 27.4176 33.6236 26.8466 32.7628C26.2841 31.8935 26.0028 30.8111 26.0028 29.5156C26.0028 28.4247 26.2031 27.5085 26.6037 26.767C27.0043 26.0256 27.5497 25.429 28.2401 24.9773C28.9304 24.5256 29.7145 24.1847 30.5923 23.9545C31.4787 23.7244 32.4077 23.5625 33.3793 23.4688C34.5213 23.3494 35.4418 23.2386 36.1406 23.1364C36.8395 23.0256 37.3466 22.8636 37.6619 22.6506C37.9773 22.4375 38.1349 22.1222 38.1349 21.7045V21.6278C38.1349 20.8182 37.8793 20.1918 37.3679 19.7486C36.8651 19.3054 36.1491 19.0838 35.2202 19.0838C34.2401 19.0838 33.4602 19.3011 32.8807 19.7358C32.3011 20.1619 31.9176 20.6989 31.7301 21.3466L26.6932 20.9375C26.9489 19.7443 27.4517 18.7131 28.2017 17.8438C28.9517 16.9659 29.919 16.2926 31.1037 15.8239C32.2969 15.3466 33.6776 15.108 35.2457 15.108C36.3366 15.108 37.3807 15.2358 38.3778 15.4915C39.3835 15.7472 40.2741 16.1435 41.0497 16.6804C41.8338 17.2173 42.4517 17.9077 42.9034 18.7514C43.3551 19.5866 43.581 20.5881 43.581 21.7557V35H38.4162V32.277H38.2628C37.9474 32.8906 37.5256 33.4318 36.9972 33.9006C36.4688 34.3608 35.8338 34.723 35.0923 34.9872C34.3509 35.2429 33.4943 35.3707 32.5227 35.3707ZM34.0824 31.6122C34.8835 31.6122 35.5909 31.4545 36.2045 31.1392C36.8182 30.8153 37.2997 30.3807 37.6491 29.8352C37.9986 29.2898 38.1733 28.6719 38.1733 27.9815V25.8977C38.0028 26.0085 37.7685 26.1108 37.4702 26.2045C37.1804 26.2898 36.8523 26.3707 36.4858 26.4474C36.1193 26.5156 35.7528 26.5795 35.3864 26.6392C35.0199 26.6903 34.6875 26.7372 34.3892 26.7798C33.75 26.8736 33.1918 27.0227 32.7145 27.2273C32.2372 27.4318 31.8665 27.7088 31.6023 28.0582C31.3381 28.3991 31.206 28.8253 31.206 29.3366C31.206 30.0781 31.4744 30.6449 32.0114 31.0369C32.5568 31.4205 33.2472 31.6122 34.0824 31.6122ZM53.2521 8.81818V35H47.8061V8.81818H53.2521ZM70.207 26.6392V15.3636H75.6531V35H70.4244V31.4332H70.2198C69.7766 32.5838 69.0394 33.5085 68.0082 34.2074C66.9854 34.9062 65.7369 35.2557 64.2624 35.2557C62.9499 35.2557 61.7951 34.9574 60.7979 34.3608C59.8008 33.7642 59.021 32.9162 58.4585 31.8168C57.9045 30.7173 57.6232 29.4006 57.6147 27.8665V15.3636H63.0607V26.8949C63.0692 28.054 63.3803 28.9702 63.994 29.6435C64.6076 30.3168 65.43 30.6534 66.4613 30.6534C67.1175 30.6534 67.7312 30.5043 68.3022 30.206C68.8732 29.8991 69.3335 29.4474 69.6829 28.8509C70.0408 28.2543 70.2156 27.517 70.207 26.6392ZM88.9581 35.3835C86.9382 35.3835 85.1996 34.9744 83.7422 34.1562C82.2933 33.3295 81.1768 32.1619 80.3928 30.6534C79.6087 29.1364 79.2166 27.3423 79.2166 25.2713C79.2166 23.2514 79.6087 21.4787 80.3928 19.9531C81.1768 18.4276 82.2805 17.2386 83.7038 16.3864C85.1357 15.5341 86.8146 15.108 88.7408 15.108C90.0362 15.108 91.2422 15.3168 92.3587 15.7344C93.4837 16.1435 94.4638 16.7614 95.299 17.5881C96.1428 18.4148 96.799 19.4545 97.2678 20.7074C97.7365 21.9517 97.9709 23.4091 97.9709 25.0795V26.5753H81.3899V23.2003H92.8445C92.8445 22.4162 92.674 21.7216 92.3331 21.1165C91.9922 20.5114 91.5192 20.0384 90.9141 19.6974C90.3175 19.348 89.6229 19.1733 88.8303 19.1733C88.0036 19.1733 87.2706 19.3651 86.6314 19.7486C86.0007 20.1236 85.5064 20.6307 85.1484 21.2699C84.7905 21.9006 84.6072 22.6037 84.5987 23.3793V26.5881C84.5987 27.5597 84.7777 28.3991 85.1357 29.1065C85.5021 29.8139 86.0178 30.3594 86.6825 30.7429C87.3473 31.1264 88.1357 31.3182 89.0476 31.3182C89.6527 31.3182 90.2067 31.233 90.7095 31.0625C91.2124 30.892 91.6428 30.6364 92.0007 30.2955C92.3587 29.9545 92.6314 29.5369 92.8189 29.0426L97.8558 29.375C97.6001 30.5852 97.076 31.642 96.2834 32.5455C95.4993 33.4403 94.4851 34.1392 93.2408 34.642C92.005 35.1364 90.5774 35.3835 88.9581 35.3835Z" fill="black"/>
<g clip-path="url(#clip1_4192_140751)">
<g clip-path="url(#clip2_4192_140751)">
<rect width="293" height="272" transform="translate(0 84)" fill="#F2F2F2"/>
<path d="M147 184.5C159.979 184.5 170.5 195.021 170.5 208C170.5 220.979 159.979 231.5 147 231.5C134.021 231.5 123.5 220.979 123.5 208C123.5 195.021 134.021 184.5 147 184.5ZM147 195.5C140.096 195.5 134.5 201.096 134.5 208C134.5 214.904 140.096 220.5 147 220.5C153.904 220.5 159.5 214.904 159.5 208C159.5 201.096 153.904 195.5 147 195.5Z" stroke="#99A6B5"/>
<path d="M165 208C165 210.364 164.534 212.704 163.63 214.888C162.725 217.072 161.399 219.056 159.728 220.728C158.056 222.399 156.072 223.725 153.888 224.63C151.704 225.534 149.364 226 147 226C144.636 226 142.296 225.534 140.112 224.63C137.928 223.725 135.944 222.399 134.272 220.728C132.601 219.056 131.275 217.072 130.37 214.888C129.466 212.704 129 210.364 129 208C129 205.636 129.466 203.296 130.37 201.112C131.275 198.928 132.601 196.944 134.272 195.272C135.944 193.601 137.928 192.275 140.112 191.37C142.296 190.466 144.636 190 147 190C149.364 190 151.704 190.466 153.888 191.37C156.072 192.275 158.056 193.601 159.728 195.272C161.399 196.944 162.725 198.928 163.63 201.112C164.534 203.296 165 205.636 165 208L165 208Z" stroke="#FAFBFB" stroke-width="8" stroke-linecap="round" stroke-linejoin="round"/>
<path d="M145.203 246.861C145.203 248.014 145.112 249.042 144.93 249.947C144.754 250.852 144.467 251.62 144.07 252.252C143.68 252.883 143.165 253.365 142.527 253.697C141.889 254.029 141.115 254.195 140.203 254.195C139.057 254.195 138.117 253.906 137.381 253.326C136.645 252.74 136.102 251.9 135.75 250.807C135.398 249.706 135.223 248.391 135.223 246.861C135.223 245.318 135.382 244 135.701 242.906C136.027 241.806 136.554 240.963 137.283 240.377C138.012 239.791 138.986 239.498 140.203 239.498C141.342 239.498 142.28 239.791 143.016 240.377C143.758 240.956 144.308 241.796 144.666 242.896C145.024 243.99 145.203 245.312 145.203 246.861ZM138.221 246.861C138.221 247.949 138.279 248.857 138.396 249.586C138.52 250.309 138.725 250.852 139.012 251.217C139.298 251.581 139.695 251.764 140.203 251.764C140.704 251.764 141.098 251.585 141.385 251.227C141.678 250.862 141.886 250.318 142.01 249.596C142.133 248.867 142.195 247.955 142.195 246.861C142.195 245.774 142.133 244.866 142.01 244.137C141.886 243.408 141.678 242.861 141.385 242.496C141.098 242.125 140.704 241.939 140.203 241.939C139.695 241.939 139.298 242.125 139.012 242.496C138.725 242.861 138.52 243.408 138.396 244.137C138.279 244.866 138.221 245.774 138.221 246.861Z" fill="#04977E"/>
<path d="M149.289 243.862C150.073 243.862 150.668 244.136 151.073 244.683C151.479 245.229 151.682 245.997 151.682 246.986C151.682 247.975 151.49 248.748 151.107 249.304C150.725 249.86 150.118 250.138 149.289 250.138C148.519 250.138 147.933 249.86 147.532 249.304C147.131 248.748 146.931 247.975 146.931 246.986C146.931 245.997 147.118 245.229 147.491 244.683C147.869 244.136 148.469 243.862 149.289 243.862ZM149.303 245.291C149.079 245.291 148.915 245.432 148.811 245.715C148.706 245.997 148.653 246.426 148.653 247C148.653 247.574 148.706 248.005 148.811 248.292C148.915 248.579 149.079 248.723 149.303 248.723C149.526 248.723 149.69 248.581 149.795 248.299C149.904 248.012 149.959 247.579 149.959 247C149.959 246.426 149.904 245.997 149.795 245.715C149.69 245.432 149.526 245.291 149.303 245.291ZM156.385 244.006L150.841 254H149.2L154.744 244.006H156.385ZM156.289 247.854C157.073 247.854 157.668 248.128 158.073 248.675C158.479 249.222 158.682 249.99 158.682 250.979C158.682 251.963 158.49 252.733 158.107 253.289C157.725 253.845 157.118 254.123 156.289 254.123C155.519 254.123 154.933 253.845 154.532 253.289C154.131 252.733 153.931 251.963 153.931 250.979C153.931 249.99 154.118 249.222 154.491 248.675C154.869 248.128 155.469 247.854 156.289 247.854ZM156.303 249.283C156.079 249.283 155.915 249.424 155.811 249.707C155.706 249.99 155.653 250.418 155.653 250.992C155.653 251.566 155.706 251.997 155.811 252.284C155.915 252.571 156.079 252.715 156.303 252.715C156.526 252.715 156.69 252.574 156.795 252.291C156.904 252.004 156.959 251.571 156.959 250.992C156.959 250.418 156.904 249.99 156.795 249.707C156.69 249.424 156.526 249.283 156.303 249.283Z" fill="#04977E"/>
<g clip-path="url(#clip3_4192_140751)">
<g clip-path="url(#clip4_4192_140751)">
<g clip-path="url(#clip5_4192_140751)">
<path d="M365.259 107.384C363.793 107.378 362.531 107.017 361.474 106.301C360.423 105.585 359.614 104.548 359.045 103.19C358.483 101.832 358.205 100.199 358.21 98.2898C358.21 96.3864 358.491 94.7642 359.054 93.4233C359.622 92.0824 360.432 91.0625 361.483 90.3636C362.54 89.6591 363.798 89.3068 365.259 89.3068C366.719 89.3068 367.974 89.6591 369.026 90.3636C370.082 91.0682 370.895 92.0909 371.463 93.4318C372.031 94.767 372.313 96.3864 372.307 98.2898C372.307 100.205 372.023 101.841 371.455 103.199C370.892 104.557 370.085 105.594 369.034 106.31C367.983 107.026 366.724 107.384 365.259 107.384ZM365.259 104.324C366.259 104.324 367.057 103.821 367.653 102.815C368.25 101.81 368.545 100.301 368.54 98.2898C368.54 96.9659 368.403 95.8636 368.131 94.983C367.864 94.1023 367.483 93.4403 366.989 92.9972C366.5 92.554 365.923 92.3324 365.259 92.3324C364.264 92.3324 363.469 92.8295 362.872 93.8239C362.276 94.8182 361.974 96.3068 361.969 98.2898C361.969 99.6307 362.102 100.75 362.369 101.648C362.642 102.54 363.026 103.21 363.52 103.659C364.014 104.102 364.594 104.324 365.259 104.324ZM384.492 103.727V102.807C384.492 102.108 384.64 101.466 384.935 100.881C385.237 100.29 385.671 99.8182 386.239 99.4659C386.813 99.108 387.512 98.929 388.336 98.929C389.171 98.929 389.873 99.1051 390.441 99.4574C391.015 99.8097 391.447 100.281 391.737 100.872C392.032 101.457 392.18 102.102 392.18 102.807V103.727C392.18 104.426 392.032 105.071 391.737 105.662C391.441 106.247 391.006 106.716 390.433 107.068C389.859 107.426 389.16 107.605 388.336 107.605C387.501 107.605 386.799 107.426 386.231 107.068C385.663 106.716 385.231 106.247 384.935 105.662C384.64 105.071 384.492 104.426 384.492 103.727ZM386.972 102.807V103.727C386.972 104.131 387.069 104.511 387.262 104.869C387.461 105.227 387.819 105.406 388.336 105.406C388.853 105.406 389.205 105.23 389.393 104.878C389.586 104.526 389.683 104.142 389.683 103.727V102.807C389.683 102.392 389.592 102.006 389.41 101.648C389.228 101.29 388.87 101.111 388.336 101.111C387.825 101.111 387.469 101.29 387.271 101.648C387.072 102.006 386.972 102.392 386.972 102.807ZM375.535 93.7386V92.8182C375.535 92.1136 375.685 91.4687 375.987 90.8835C376.288 90.2926 376.722 89.821 377.29 89.4688C377.864 89.1165 378.558 88.9403 379.37 88.9403C380.211 88.9403 380.915 89.1165 381.484 89.4688C382.052 89.821 382.484 90.2926 382.779 90.8835C383.075 91.4687 383.222 92.1136 383.222 92.8182V93.7386C383.222 94.4432 383.072 95.0881 382.771 95.6733C382.475 96.2585 382.04 96.7273 381.467 97.0795C380.898 97.4261 380.2 97.5994 379.37 97.5994C378.54 97.5994 377.839 97.4233 377.265 97.071C376.697 96.7131 376.265 96.2443 375.969 95.6648C375.68 95.0795 375.535 94.4375 375.535 93.7386ZM378.032 92.8182V93.7386C378.032 94.1534 378.129 94.5369 378.322 94.8892C378.521 95.2415 378.87 95.4176 379.37 95.4176C379.893 95.4176 380.248 95.2415 380.435 94.8892C380.629 94.5369 380.725 94.1534 380.725 93.7386V92.8182C380.725 92.4034 380.634 92.017 380.452 91.6591C380.271 91.3011 379.91 91.1222 379.37 91.1222C378.864 91.1222 378.515 91.304 378.322 91.6676C378.129 92.0312 378.032 92.4148 378.032 92.8182ZM376.66 107L388.66 89.5455H390.893L378.893 107H376.66Z" fill="black"/>
</g>
</g>
</g>
</g>
<g clip-path="url(#clip6_4192_140751)">
<rect width="293" height="272" transform="translate(0 396)" fill="#F2F2F2"/>
<path d="M147 496.5C159.979 496.5 170.5 507.021 170.5 520C170.5 532.979 159.979 543.5 147 543.5C134.021 543.5 123.5 532.979 123.5 520C123.5 507.021 134.021 496.5 147 496.5ZM147 507.5C140.096 507.5 134.5 513.096 134.5 520C134.5 526.904 140.096 532.5 147 532.5C153.904 532.5 159.5 526.904 159.5 520C159.5 513.096 153.904 507.5 147 507.5Z" stroke="#8090A3"/>
<path d="M165 520C165 522.364 164.534 524.704 163.63 526.888C162.725 529.072 161.399 531.056 159.728 532.728C158.056 534.399 156.072 535.725 153.888 536.63C151.704 537.534 149.364 538 147 538C144.636 538 142.296 537.534 140.112 536.63C137.928 535.725 135.944 534.399 134.272 532.728C132.601 531.056 131.275 529.072 130.37 526.888C129.466 524.704 129 522.364 129 520C129 517.636 129.466 515.296 130.37 513.112C131.275 510.928 132.601 508.944 134.272 507.272C135.944 505.601 137.928 504.275 140.112 503.37C142.296 502.466 144.636 502 147 502C149.364 502 151.704 502.466 153.888 503.37C156.072 504.275 158.056 505.601 159.728 507.272C161.399 508.944 162.725 510.928 163.63 513.112C164.534 515.296 165 517.636 165 520L165 520Z" stroke="#FAFBFB" stroke-width="8" stroke-linecap="round" stroke-linejoin="round"/>
<path d="M147 502C149.364 502 151.704 502.466 153.888 503.37C156.072 504.275 158.056 505.601 159.728 507.272C161.399 508.944 162.725 510.928 163.63 513.112C164.534 515.296 165 517.636 165 520C165 522.364 164.534 524.704 163.63 526.888C162.725 529.072 161.399 531.056 159.728 532.728C158.056 534.399 156.072 535.725 153.888 536.63C151.704 537.534 149.364 538 147 538" stroke="#04977E" stroke-width="8"/>
<path d="M134.996 556.879C135.868 556.879 136.643 557.045 137.32 557.377C138.004 557.709 138.541 558.197 138.932 558.842C139.322 559.486 139.518 560.281 139.518 561.225C139.518 562.253 139.303 563.142 138.873 563.891C138.45 564.633 137.815 565.202 136.969 565.6C136.129 565.997 135.081 566.195 133.824 566.195C133.076 566.195 132.369 566.13 131.705 566C131.048 565.876 130.471 565.684 129.977 565.424V562.816C130.471 563.077 131.064 563.298 131.754 563.48C132.451 563.656 133.105 563.744 133.717 563.744C134.316 563.744 134.82 563.666 135.23 563.51C135.641 563.347 135.95 563.1 136.158 562.768C136.373 562.429 136.48 561.999 136.48 561.479C136.48 560.782 136.246 560.248 135.777 559.877C135.309 559.506 134.589 559.32 133.619 559.32C133.248 559.32 132.861 559.356 132.457 559.428C132.06 559.499 131.728 559.571 131.461 559.643L130.26 558.998L130.797 551.723H138.541V554.281H133.443L133.18 557.084C133.401 557.038 133.642 556.993 133.902 556.947C134.163 556.902 134.527 556.879 134.996 556.879ZM151.148 558.861C151.148 560.014 151.057 561.042 150.875 561.947C150.699 562.852 150.413 563.62 150.016 564.252C149.625 564.883 149.111 565.365 148.473 565.697C147.835 566.029 147.06 566.195 146.148 566.195C145.003 566.195 144.062 565.906 143.326 565.326C142.59 564.74 142.047 563.9 141.695 562.807C141.344 561.706 141.168 560.391 141.168 558.861C141.168 557.318 141.327 556 141.646 554.906C141.972 553.806 142.499 552.963 143.229 552.377C143.958 551.791 144.931 551.498 146.148 551.498C147.288 551.498 148.225 551.791 148.961 552.377C149.703 552.956 150.253 553.796 150.611 554.896C150.969 555.99 151.148 557.312 151.148 558.861ZM144.166 558.861C144.166 559.949 144.225 560.857 144.342 561.586C144.465 562.309 144.671 562.852 144.957 563.217C145.243 563.581 145.641 563.764 146.148 563.764C146.65 563.764 147.044 563.585 147.33 563.227C147.623 562.862 147.831 562.318 147.955 561.596C148.079 560.867 148.141 559.955 148.141 558.861C148.141 557.774 148.079 556.866 147.955 556.137C147.831 555.408 147.623 554.861 147.33 554.496C147.044 554.125 146.65 553.939 146.148 553.939C145.641 553.939 145.243 554.125 144.957 554.496C144.671 554.861 144.465 555.408 144.342 556.137C144.225 556.866 144.166 557.774 144.166 558.861Z" fill="#04977E"/>
<path d="M154.789 555.862C155.573 555.862 156.168 556.136 156.573 556.683C156.979 557.229 157.182 557.997 157.182 558.986C157.182 559.975 156.99 560.748 156.607 561.304C156.225 561.86 155.618 562.138 154.789 562.138C154.019 562.138 153.433 561.86 153.032 561.304C152.631 560.748 152.431 559.975 152.431 558.986C152.431 557.997 152.618 557.229 152.991 556.683C153.369 556.136 153.969 555.862 154.789 555.862ZM154.803 557.291C154.579 557.291 154.415 557.432 154.311 557.715C154.206 557.997 154.153 558.426 154.153 559C154.153 559.574 154.206 560.005 154.311 560.292C154.415 560.579 154.579 560.723 154.803 560.723C155.026 560.723 155.19 560.581 155.295 560.299C155.404 560.012 155.459 559.579 155.459 559C155.459 558.426 155.404 557.997 155.295 557.715C155.19 557.432 155.026 557.291 154.803 557.291ZM161.885 556.006L156.341 566H154.7L160.244 556.006H161.885ZM161.789 559.854C162.573 559.854 163.168 560.128 163.573 560.675C163.979 561.222 164.182 561.99 164.182 562.979C164.182 563.963 163.99 564.733 163.607 565.289C163.225 565.845 162.618 566.123 161.789 566.123C161.019 566.123 160.433 565.845 160.032 565.289C159.631 564.733 159.431 563.963 159.431 562.979C159.431 561.99 159.618 561.222 159.991 560.675C160.369 560.128 160.969 559.854 161.789 559.854ZM161.803 561.283C161.579 561.283 161.415 561.424 161.311 561.707C161.206 561.99 161.153 562.418 161.153 562.992C161.153 563.566 161.206 563.997 161.311 564.284C161.415 564.571 161.579 564.715 161.803 564.715C162.026 564.715 162.19 564.574 162.295 564.291C162.404 564.004 162.459 563.571 162.459 562.992C162.459 562.418 162.404 561.99 162.295 561.707C162.19 561.424 162.026 561.283 161.803 561.283Z" fill="#04977E"/>
<g clip-path="url(#clip7_4192_140751)">
<g clip-path="url(#clip8_4192_140751)">
<g clip-path="url(#clip9_4192_140751)">
<path d="M364.79 419.239C363.585 419.239 362.511 419.017 361.568 418.574C360.631 418.131 359.886 417.52 359.335 416.741C358.784 415.963 358.497 415.071 358.474 414.065H362.054C362.094 414.741 362.378 415.29 362.906 415.71C363.435 416.131 364.062 416.341 364.79 416.341C365.369 416.341 365.881 416.213 366.324 415.957C366.773 415.696 367.122 415.335 367.372 414.875C367.628 414.409 367.756 413.875 367.756 413.273C367.756 412.659 367.625 412.119 367.364 411.653C367.108 411.187 366.753 410.824 366.298 410.562C365.844 410.301 365.324 410.168 364.739 410.162C364.227 410.162 363.73 410.267 363.247 410.477C362.77 410.687 362.398 410.974 362.131 411.338L358.849 410.75L359.676 401.545H370.347V404.562H362.719L362.267 408.935H362.369C362.676 408.503 363.139 408.145 363.759 407.861C364.378 407.577 365.071 407.435 365.838 407.435C366.889 407.435 367.827 407.682 368.651 408.176C369.474 408.67 370.125 409.349 370.602 410.213C371.08 411.071 371.315 412.06 371.31 413.179C371.315 414.355 371.043 415.401 370.491 416.315C369.946 417.224 369.182 417.94 368.199 418.463C367.222 418.98 366.085 419.239 364.79 419.239ZM380.727 419.384C379.261 419.378 378 419.017 376.943 418.301C375.892 417.585 375.082 416.548 374.514 415.19C373.952 413.832 373.673 412.199 373.679 410.29C373.679 408.386 373.96 406.764 374.523 405.423C375.091 404.082 375.901 403.062 376.952 402.364C378.009 401.659 379.267 401.307 380.727 401.307C382.188 401.307 383.443 401.659 384.494 402.364C385.551 403.068 386.364 404.091 386.932 405.432C387.5 406.767 387.781 408.386 387.776 410.29C387.776 412.205 387.491 413.841 386.923 415.199C386.361 416.557 385.554 417.594 384.503 418.31C383.452 419.026 382.193 419.384 380.727 419.384ZM380.727 416.324C381.727 416.324 382.526 415.821 383.122 414.815C383.719 413.81 384.014 412.301 384.009 410.29C384.009 408.966 383.872 407.864 383.599 406.983C383.332 406.102 382.952 405.44 382.457 404.997C381.969 404.554 381.392 404.332 380.727 404.332C379.733 404.332 378.938 404.83 378.341 405.824C377.744 406.818 377.443 408.307 377.438 410.29C377.438 411.631 377.571 412.75 377.838 413.648C378.111 414.54 378.494 415.21 378.989 415.659C379.483 416.102 380.062 416.324 380.727 416.324ZM399.961 415.727V414.807C399.961 414.108 400.109 413.466 400.404 412.881C400.705 412.29 401.14 411.818 401.708 411.466C402.282 411.108 402.981 410.929 403.805 410.929C404.64 410.929 405.342 411.105 405.91 411.457C406.484 411.81 406.915 412.281 407.205 412.872C407.501 413.457 407.648 414.102 407.648 414.807V415.727C407.648 416.426 407.501 417.071 407.205 417.662C406.91 418.247 406.475 418.716 405.901 419.068C405.327 419.426 404.629 419.605 403.805 419.605C402.969 419.605 402.268 419.426 401.7 419.068C401.131 418.716 400.7 418.247 400.404 417.662C400.109 417.071 399.961 416.426 399.961 415.727ZM402.441 414.807V415.727C402.441 416.131 402.538 416.511 402.731 416.869C402.93 417.227 403.288 417.406 403.805 417.406C404.322 417.406 404.674 417.23 404.862 416.878C405.055 416.526 405.151 416.142 405.151 415.727V414.807C405.151 414.392 405.06 414.006 404.879 413.648C404.697 413.29 404.339 413.111 403.805 413.111C403.293 413.111 402.938 413.29 402.739 413.648C402.54 414.006 402.441 414.392 402.441 414.807ZM391.004 405.739V404.818C391.004 404.114 391.154 403.469 391.455 402.884C391.756 402.293 392.191 401.821 392.759 401.469C393.333 401.116 394.026 400.94 394.839 400.94C395.68 400.94 396.384 401.116 396.952 401.469C397.521 401.821 397.952 402.293 398.248 402.884C398.543 403.469 398.691 404.114 398.691 404.818V405.739C398.691 406.443 398.54 407.088 398.239 407.673C397.944 408.259 397.509 408.727 396.935 409.08C396.367 409.426 395.668 409.599 394.839 409.599C394.009 409.599 393.308 409.423 392.734 409.071C392.165 408.713 391.734 408.244 391.438 407.665C391.148 407.08 391.004 406.437 391.004 405.739ZM393.501 404.818V405.739C393.501 406.153 393.597 406.537 393.79 406.889C393.989 407.241 394.339 407.418 394.839 407.418C395.362 407.418 395.717 407.241 395.904 406.889C396.097 406.537 396.194 406.153 396.194 405.739V404.818C396.194 404.403 396.103 404.017 395.921 403.659C395.739 403.301 395.379 403.122 394.839 403.122C394.333 403.122 393.984 403.304 393.79 403.668C393.597 404.031 393.501 404.415 393.501 404.818ZM392.129 419L404.129 401.545H406.362L394.362 419H392.129Z" fill="black"/>
</g>
</g>
</g>
</g>
<g clip-path="url(#clip10_4192_140751)">
<rect width="293" height="272" transform="translate(0 708)" fill="#F2F2F2"/>
<path d="M147 808.5C159.979 808.5 170.5 819.021 170.5 832C170.5 844.979 159.979 855.5 147 855.5C134.021 855.5 123.5 844.979 123.5 832C123.5 819.021 134.021 808.5 147 808.5ZM147 819.5C140.096 819.5 134.5 825.096 134.5 832C134.5 838.904 140.096 844.5 147 844.5C153.904 844.5 159.5 838.904 159.5 832C159.5 825.096 153.904 819.5 147 819.5Z" stroke="#8090A3"/>
<path d="M165 832C165 834.364 164.534 836.704 163.63 838.888C162.725 841.072 161.399 843.056 159.728 844.728C158.056 846.399 156.072 847.725 153.888 848.63C151.704 849.534 149.364 850 147 850C144.636 850 142.296 849.534 140.112 848.63C137.928 847.725 135.944 846.399 134.272 844.728C132.601 843.056 131.275 841.072 130.37 838.888C129.466 836.704 129 834.364 129 832C129 829.636 129.466 827.296 130.37 825.112C131.275 822.928 132.601 820.944 134.272 819.272C135.944 817.601 137.928 816.275 140.112 815.37C142.296 814.466 144.636 814 147 814C149.364 814 151.704 814.466 153.888 815.37C156.072 816.275 158.056 817.601 159.728 819.272C161.399 820.944 162.725 822.928 163.63 825.112C164.534 827.296 165 829.636 165 832L165 832Z" stroke="#FAFBFB" stroke-width="8" stroke-linecap="round" stroke-linejoin="round"/>
<path d="M147 814C149.364 814 151.704 814.466 153.888 815.37C156.072 816.275 158.056 817.601 159.728 819.272C161.399 820.944 162.725 822.928 163.63 825.112C164.534 827.296 165 829.636 165 832" stroke="#04977E" stroke-width="8"/>
<path d="M139.781 878H129.801V875.9L133.385 872.277C134.107 871.535 134.687 870.917 135.123 870.422C135.566 869.921 135.885 869.465 136.08 869.055C136.282 868.645 136.383 868.205 136.383 867.736C136.383 867.17 136.223 866.747 135.904 866.467C135.592 866.18 135.172 866.037 134.645 866.037C134.091 866.037 133.554 866.164 133.033 866.418C132.512 866.672 131.969 867.033 131.402 867.502L129.762 865.559C130.172 865.207 130.605 864.875 131.061 864.562C131.523 864.25 132.057 863.999 132.662 863.811C133.274 863.615 134.007 863.518 134.859 863.518C135.797 863.518 136.601 863.687 137.271 864.025C137.949 864.364 138.469 864.826 138.834 865.412C139.199 865.992 139.381 866.649 139.381 867.385C139.381 868.173 139.225 868.892 138.912 869.543C138.6 870.194 138.144 870.839 137.545 871.477C136.952 872.115 136.236 872.821 135.396 873.596L133.561 875.324V875.461H139.781V878ZM146.441 868.879C147.314 868.879 148.089 869.045 148.766 869.377C149.449 869.709 149.986 870.197 150.377 870.842C150.768 871.486 150.963 872.281 150.963 873.225C150.963 874.253 150.748 875.142 150.318 875.891C149.895 876.633 149.26 877.202 148.414 877.6C147.574 877.997 146.526 878.195 145.27 878.195C144.521 878.195 143.814 878.13 143.15 878C142.493 877.876 141.917 877.684 141.422 877.424V874.816C141.917 875.077 142.509 875.298 143.199 875.48C143.896 875.656 144.55 875.744 145.162 875.744C145.761 875.744 146.266 875.666 146.676 875.51C147.086 875.347 147.395 875.1 147.604 874.768C147.818 874.429 147.926 873.999 147.926 873.479C147.926 872.782 147.691 872.248 147.223 871.877C146.754 871.506 146.035 871.32 145.064 871.32C144.693 871.32 144.306 871.356 143.902 871.428C143.505 871.499 143.173 871.571 142.906 871.643L141.705 870.998L142.242 863.723H149.986V866.281H144.889L144.625 869.084C144.846 869.038 145.087 868.993 145.348 868.947C145.608 868.902 145.973 868.879 146.441 868.879Z" fill="#04977E"/>
<path d="M154.789 867.862C155.573 867.862 156.168 868.136 156.573 868.683C156.979 869.229 157.182 869.997 157.182 870.986C157.182 871.975 156.99 872.748 156.607 873.304C156.225 873.86 155.618 874.138 154.789 874.138C154.019 874.138 153.433 873.86 153.032 873.304C152.631 872.748 152.431 871.975 152.431 870.986C152.431 869.997 152.618 869.229 152.991 868.683C153.369 868.136 153.969 867.862 154.789 867.862ZM154.803 869.291C154.579 869.291 154.415 869.432 154.311 869.715C154.206 869.997 154.153 870.426 154.153 871C154.153 871.574 154.206 872.005 154.311 872.292C154.415 872.579 154.579 872.723 154.803 872.723C155.026 872.723 155.19 872.581 155.295 872.299C155.404 872.012 155.459 871.579 155.459 871C155.459 870.426 155.404 869.997 155.295 869.715C155.19 869.432 155.026 869.291 154.803 869.291ZM161.885 868.006L156.341 878H154.7L160.244 868.006H161.885ZM161.789 871.854C162.573 871.854 163.168 872.128 163.573 872.675C163.979 873.222 164.182 873.99 164.182 874.979C164.182 875.963 163.99 876.733 163.607 877.289C163.225 877.845 162.618 878.123 161.789 878.123C161.019 878.123 160.433 877.845 160.032 877.289C159.631 876.733 159.431 875.963 159.431 874.979C159.431 873.99 159.618 873.222 159.991 872.675C160.369 872.128 160.969 871.854 161.789 871.854ZM161.803 873.283C161.579 873.283 161.415 873.424 161.311 873.707C161.206 873.99 161.153 874.418 161.153 874.992C161.153 875.566 161.206 875.997 161.311 876.284C161.415 876.571 161.579 876.715 161.803 876.715C162.026 876.715 162.19 876.574 162.295 876.291C162.404 876.004 162.459 875.571 162.459 874.992C162.459 874.418 162.404 873.99 162.295 873.707C162.19 873.424 162.026 873.283 161.803 873.283Z" fill="#04977E"/>
<g clip-path="url(#clip11_4192_140751)">
<g clip-path="url(#clip12_4192_140751)">
<g clip-path="url(#clip13_4192_140751)">
<path d="M358.415 731V728.341L364.628 722.588C365.156 722.077 365.599 721.616 365.957 721.207C366.321 720.798 366.597 720.398 366.784 720.006C366.972 719.608 367.065 719.179 367.065 718.719C367.065 718.207 366.949 717.767 366.716 717.398C366.483 717.023 366.165 716.736 365.761 716.537C365.358 716.332 364.901 716.23 364.389 716.23C363.855 716.23 363.389 716.338 362.991 716.554C362.594 716.77 362.287 717.08 362.071 717.483C361.855 717.886 361.747 718.366 361.747 718.923H358.244C358.244 717.781 358.503 716.79 359.02 715.949C359.537 715.108 360.261 714.457 361.193 713.997C362.125 713.537 363.199 713.307 364.415 713.307C365.665 713.307 366.753 713.528 367.679 713.972C368.611 714.409 369.335 715.017 369.852 715.795C370.369 716.574 370.628 717.466 370.628 718.472C370.628 719.131 370.497 719.781 370.236 720.423C369.98 721.065 369.523 721.778 368.864 722.562C368.205 723.341 367.276 724.276 366.077 725.366L363.528 727.864V727.983H370.858V731H358.415ZM379.907 731.239C378.702 731.239 377.629 731.017 376.685 730.574C375.748 730.131 375.004 729.52 374.452 728.741C373.901 727.963 373.614 727.071 373.592 726.065H377.171C377.211 726.741 377.495 727.29 378.023 727.71C378.552 728.131 379.18 728.341 379.907 728.341C380.487 728.341 380.998 728.213 381.441 727.957C381.89 727.696 382.239 727.335 382.489 726.875C382.745 726.409 382.873 725.875 382.873 725.273C382.873 724.659 382.742 724.119 382.481 723.653C382.225 723.187 381.87 722.824 381.415 722.562C380.961 722.301 380.441 722.168 379.856 722.162C379.344 722.162 378.847 722.267 378.364 722.477C377.887 722.687 377.515 722.974 377.248 723.338L373.967 722.75L374.793 713.545H385.464V716.562H377.836L377.384 720.935H377.487C377.793 720.503 378.256 720.145 378.876 719.861C379.495 719.577 380.188 719.435 380.955 719.435C382.006 719.435 382.944 719.682 383.768 720.176C384.592 720.67 385.242 721.349 385.719 722.213C386.197 723.071 386.433 724.06 386.427 725.179C386.433 726.355 386.16 727.401 385.609 728.315C385.063 729.224 384.299 729.94 383.316 730.463C382.339 730.98 381.202 731.239 379.907 731.239ZM398.555 727.727V726.807C398.555 726.108 398.702 725.466 398.998 724.881C399.299 724.29 399.734 723.818 400.302 723.466C400.876 723.108 401.575 722.929 402.398 722.929C403.234 722.929 403.935 723.105 404.504 723.457C405.077 723.81 405.509 724.281 405.799 724.872C406.094 725.457 406.242 726.102 406.242 726.807V727.727C406.242 728.426 406.094 729.071 405.799 729.662C405.504 730.247 405.069 730.716 404.495 731.068C403.921 731.426 403.222 731.605 402.398 731.605C401.563 731.605 400.862 731.426 400.293 731.068C399.725 730.716 399.293 730.247 398.998 729.662C398.702 729.071 398.555 728.426 398.555 727.727ZM401.035 726.807V727.727C401.035 728.131 401.131 728.511 401.325 728.869C401.523 729.227 401.881 729.406 402.398 729.406C402.915 729.406 403.268 729.23 403.455 728.878C403.648 728.526 403.745 728.142 403.745 727.727V726.807C403.745 726.392 403.654 726.006 403.472 725.648C403.29 725.29 402.933 725.111 402.398 725.111C401.887 725.111 401.532 725.29 401.333 725.648C401.134 726.006 401.035 726.392 401.035 726.807ZM389.597 717.739V716.818C389.597 716.114 389.748 715.469 390.049 714.884C390.35 714.293 390.785 713.821 391.353 713.469C391.927 713.116 392.62 712.94 393.433 712.94C394.273 712.94 394.978 713.116 395.546 713.469C396.114 713.821 396.546 714.293 396.842 714.884C397.137 715.469 397.285 716.114 397.285 716.818V717.739C397.285 718.443 397.134 719.088 396.833 719.673C396.538 720.259 396.103 720.727 395.529 721.08C394.961 721.426 394.262 721.599 393.433 721.599C392.603 721.599 391.901 721.423 391.327 721.071C390.759 720.713 390.327 720.244 390.032 719.665C389.742 719.08 389.597 718.437 389.597 717.739ZM392.094 716.818V717.739C392.094 718.153 392.191 718.537 392.384 718.889C392.583 719.241 392.933 719.418 393.433 719.418C393.955 719.418 394.31 719.241 394.498 718.889C394.691 718.537 394.788 718.153 394.788 717.739V716.818C394.788 716.403 394.697 716.017 394.515 715.659C394.333 715.301 393.972 715.122 393.433 715.122C392.927 715.122 392.577 715.304 392.384 715.668C392.191 716.031 392.094 716.415 392.094 716.818ZM390.722 731L402.722 713.545H404.955L392.955 731H390.722Z" fill="black"/>
</g>
</g>
</g>
</g>
<g clip-path="url(#clip14_4192_140751)">
<rect width="293" height="272" transform="translate(0 1020)" fill="#F2F2F2"/>
<path d="M147 1120.5C159.979 1120.5 170.5 1131.02 170.5 1144C170.5 1156.98 159.979 1167.5 147 1167.5C134.021 1167.5 123.5 1156.98 123.5 1144C123.5 1131.02 134.021 1120.5 147 1120.5ZM147 1131.5C140.096 1131.5 134.5 1137.1 134.5 1144C134.5 1150.9 140.096 1156.5 147 1156.5C153.904 1156.5 159.5 1150.9 159.5 1144C159.5 1137.1 153.904 1131.5 147 1131.5Z" stroke="#8090A3"/>
<path d="M165 1144C165 1146.36 164.534 1148.7 163.63 1150.89C162.725 1153.07 161.399 1155.06 159.728 1156.73C158.056 1158.4 156.072 1159.73 153.888 1160.63C151.704 1161.53 149.364 1162 147 1162C144.636 1162 142.296 1161.53 140.112 1160.63C137.928 1159.73 135.944 1158.4 134.272 1156.73C132.601 1155.06 131.275 1153.07 130.37 1150.89C129.466 1148.7 129 1146.36 129 1144C129 1141.64 129.466 1139.3 130.37 1137.11C131.275 1134.93 132.601 1132.94 134.272 1131.27C135.944 1129.6 137.928 1128.27 140.112 1127.37C142.296 1126.47 144.636 1126 147 1126C149.364 1126 151.704 1126.47 153.888 1127.37C156.072 1128.27 158.056 1129.6 159.728 1131.27C161.399 1132.94 162.725 1134.93 163.63 1137.11C164.534 1139.3 165 1141.64 165 1144L165 1144Z" stroke="#FAFBFB" stroke-width="8" stroke-linecap="round" stroke-linejoin="round"/>
<path d="M147 1126C150.56 1126 154.04 1127.06 157 1129.03C159.96 1131.01 162.267 1133.82 163.63 1137.11C164.992 1140.4 165.349 1144.02 164.654 1147.51C163.96 1151 162.245 1154.21 159.728 1156.73C157.211 1159.25 154.003 1160.96 150.512 1161.65C147.02 1162.35 143.401 1161.99 140.112 1160.63C136.823 1159.27 134.011 1156.96 132.034 1154C130.056 1151.04 129 1147.56 129 1144" stroke="#04977E" stroke-width="8"/>
<path d="M131.217 1190L136.578 1178.26H129.537V1175.72H139.781V1177.62L134.381 1190H131.217ZM146.441 1180.88C147.314 1180.88 148.089 1181.04 148.766 1181.38C149.449 1181.71 149.986 1182.2 150.377 1182.84C150.768 1183.49 150.963 1184.28 150.963 1185.22C150.963 1186.25 150.748 1187.14 150.318 1187.89C149.895 1188.63 149.26 1189.2 148.414 1189.6C147.574 1190 146.526 1190.2 145.27 1190.2C144.521 1190.2 143.814 1190.13 143.15 1190C142.493 1189.88 141.917 1189.68 141.422 1189.42V1186.82C141.917 1187.08 142.509 1187.3 143.199 1187.48C143.896 1187.66 144.55 1187.74 145.162 1187.74C145.761 1187.74 146.266 1187.67 146.676 1187.51C147.086 1187.35 147.395 1187.1 147.604 1186.77C147.818 1186.43 147.926 1186 147.926 1185.48C147.926 1184.78 147.691 1184.25 147.223 1183.88C146.754 1183.51 146.035 1183.32 145.064 1183.32C144.693 1183.32 144.306 1183.36 143.902 1183.43C143.505 1183.5 143.173 1183.57 142.906 1183.64L141.705 1183L142.242 1175.72H149.986V1178.28H144.889L144.625 1181.08C144.846 1181.04 145.087 1180.99 145.348 1180.95C145.608 1180.9 145.973 1180.88 146.441 1180.88Z" fill="#04977E"/>
<path d="M154.789 1179.86C155.573 1179.86 156.168 1180.14 156.573 1180.68C156.979 1181.23 157.182 1182 157.182 1182.99C157.182 1183.98 156.99 1184.75 156.607 1185.3C156.225 1185.86 155.618 1186.14 154.789 1186.14C154.019 1186.14 153.433 1185.86 153.032 1185.3C152.631 1184.75 152.431 1183.98 152.431 1182.99C152.431 1182 152.618 1181.23 152.991 1180.68C153.369 1180.14 153.969 1179.86 154.789 1179.86ZM154.803 1181.29C154.579 1181.29 154.415 1181.43 154.311 1181.71C154.206 1182 154.153 1182.43 154.153 1183C154.153 1183.57 154.206 1184 154.311 1184.29C154.415 1184.58 154.579 1184.72 154.803 1184.72C155.026 1184.72 155.19 1184.58 155.295 1184.3C155.404 1184.01 155.459 1183.58 155.459 1183C155.459 1182.43 155.404 1182 155.295 1181.71C155.19 1181.43 155.026 1181.29 154.803 1181.29ZM161.885 1180.01L156.341 1190H154.7L160.244 1180.01H161.885ZM161.789 1183.85C162.573 1183.85 163.168 1184.13 163.573 1184.67C163.979 1185.22 164.182 1185.99 164.182 1186.98C164.182 1187.96 163.99 1188.73 163.607 1189.29C163.225 1189.85 162.618 1190.12 161.789 1190.12C161.019 1190.12 160.433 1189.85 160.032 1189.29C159.631 1188.73 159.431 1187.96 159.431 1186.98C159.431 1185.99 159.618 1185.22 159.991 1184.67C160.369 1184.13 160.969 1183.85 161.789 1183.85ZM161.803 1185.28C161.579 1185.28 161.415 1185.42 161.311 1185.71C161.206 1185.99 161.153 1186.42 161.153 1186.99C161.153 1187.57 161.206 1188 161.311 1188.28C161.415 1188.57 161.579 1188.71 161.803 1188.71C162.026 1188.71 162.19 1188.57 162.295 1188.29C162.404 1188 162.459 1187.57 162.459 1186.99C162.459 1186.42 162.404 1185.99 162.295 1185.71C162.19 1185.42 162.026 1185.28 161.803 1185.28Z" fill="#04977E"/>
<g clip-path="url(#clip15_4192_140751)">
<g clip-path="url(#clip16_4192_140751)">
<g clip-path="url(#clip17_4192_140751)">
<path d="M359.105 1043L366.341 1028.68V1028.56H357.912V1025.55H370.159V1028.61L362.915 1043H359.105ZM378.829 1043.24C377.624 1043.24 376.55 1043.02 375.607 1042.57C374.67 1042.13 373.925 1041.52 373.374 1040.74C372.823 1039.96 372.536 1039.07 372.513 1038.07H376.093C376.133 1038.74 376.417 1039.29 376.945 1039.71C377.474 1040.13 378.102 1040.34 378.829 1040.34C379.408 1040.34 379.92 1040.21 380.363 1039.96C380.812 1039.7 381.161 1039.34 381.411 1038.88C381.667 1038.41 381.795 1037.87 381.795 1037.27C381.795 1036.66 381.664 1036.12 381.403 1035.65C381.147 1035.19 380.792 1034.82 380.337 1034.56C379.883 1034.3 379.363 1034.17 378.778 1034.16C378.266 1034.16 377.769 1034.27 377.286 1034.48C376.809 1034.69 376.437 1034.97 376.17 1035.34L372.888 1034.75L373.715 1025.55H384.386V1028.56H376.758L376.306 1032.93H376.408C376.715 1032.5 377.178 1032.14 377.798 1031.86C378.417 1031.58 379.11 1031.43 379.877 1031.43C380.928 1031.43 381.866 1031.68 382.69 1032.18C383.513 1032.67 384.164 1033.35 384.641 1034.21C385.119 1035.07 385.354 1036.06 385.349 1037.18C385.354 1038.36 385.082 1039.4 384.531 1040.32C383.985 1041.22 383.221 1041.94 382.238 1042.46C381.261 1042.98 380.124 1043.24 378.829 1043.24ZM397.477 1039.73V1038.81C397.477 1038.11 397.624 1037.47 397.92 1036.88C398.221 1036.29 398.656 1035.82 399.224 1035.47C399.798 1035.11 400.496 1034.93 401.32 1034.93C402.156 1034.93 402.857 1035.11 403.425 1035.46C403.999 1035.81 404.431 1036.28 404.721 1036.87C405.016 1037.46 405.164 1038.1 405.164 1038.81V1039.73C405.164 1040.43 405.016 1041.07 404.721 1041.66C404.425 1042.25 403.991 1042.72 403.417 1043.07C402.843 1043.43 402.144 1043.61 401.32 1043.61C400.485 1043.61 399.783 1043.43 399.215 1043.07C398.647 1042.72 398.215 1042.25 397.92 1041.66C397.624 1041.07 397.477 1040.43 397.477 1039.73ZM399.957 1038.81V1039.73C399.957 1040.13 400.053 1040.51 400.246 1040.87C400.445 1041.23 400.803 1041.41 401.32 1041.41C401.837 1041.41 402.19 1041.23 402.377 1040.88C402.57 1040.53 402.667 1040.14 402.667 1039.73V1038.81C402.667 1038.39 402.576 1038.01 402.394 1037.65C402.212 1037.29 401.854 1037.11 401.32 1037.11C400.809 1037.11 400.454 1037.29 400.255 1037.65C400.056 1038.01 399.957 1038.39 399.957 1038.81ZM388.519 1029.74V1028.82C388.519 1028.11 388.67 1027.47 388.971 1026.88C389.272 1026.29 389.707 1025.82 390.275 1025.47C390.849 1025.12 391.542 1024.94 392.354 1024.94C393.195 1024.94 393.9 1025.12 394.468 1025.47C395.036 1025.82 395.468 1026.29 395.763 1026.88C396.059 1027.47 396.207 1028.11 396.207 1028.82V1029.74C396.207 1030.44 396.056 1031.09 395.755 1031.67C395.46 1032.26 395.025 1032.73 394.451 1033.08C393.883 1033.43 393.184 1033.6 392.354 1033.6C391.525 1033.6 390.823 1033.42 390.249 1033.07C389.681 1032.71 389.249 1032.24 388.954 1031.66C388.664 1031.08 388.519 1030.44 388.519 1029.74ZM391.016 1028.82V1029.74C391.016 1030.15 391.113 1030.54 391.306 1030.89C391.505 1031.24 391.854 1031.42 392.354 1031.42C392.877 1031.42 393.232 1031.24 393.42 1030.89C393.613 1030.54 393.71 1030.15 393.71 1029.74V1028.82C393.71 1028.4 393.619 1028.02 393.437 1027.66C393.255 1027.3 392.894 1027.12 392.354 1027.12C391.849 1027.12 391.499 1027.3 391.306 1027.67C391.113 1028.03 391.016 1028.41 391.016 1028.82ZM389.644 1043L401.644 1025.55H403.877L391.877 1043H389.644Z" fill="black"/>
</g>
</g>
</g>
</g>
<g clip-path="url(#clip18_4192_140751)">
<rect width="293" height="272" transform="translate(0 1332)" fill="#F2F2F2"/>
<path d="M147 1432.5C159.979 1432.5 170.5 1443.02 170.5 1456C170.5 1468.98 159.979 1479.5 147 1479.5C134.021 1479.5 123.5 1468.98 123.5 1456C123.5 1443.02 134.021 1432.5 147 1432.5ZM147 1443.5C140.096 1443.5 134.5 1449.1 134.5 1456C134.5 1462.9 140.096 1468.5 147 1468.5C153.904 1468.5 159.5 1462.9 159.5 1456C159.5 1449.1 153.904 1443.5 147 1443.5Z" stroke="#8090A3"/>
<path d="M165 1456C165 1458.36 164.534 1460.7 163.63 1462.89C162.725 1465.07 161.399 1467.06 159.728 1468.73C158.056 1470.4 156.072 1471.73 153.888 1472.63C151.704 1473.53 149.364 1474 147 1474C144.636 1474 142.296 1473.53 140.112 1472.63C137.928 1471.73 135.944 1470.4 134.272 1468.73C132.601 1467.06 131.275 1465.07 130.37 1462.89C129.466 1460.7 129 1458.36 129 1456C129 1453.64 129.466 1451.3 130.37 1449.11C131.275 1446.93 132.601 1444.94 134.272 1443.27C135.944 1441.6 137.928 1440.27 140.112 1439.37C142.296 1438.47 144.636 1438 147 1438C149.364 1438 151.704 1438.47 153.888 1439.37C156.072 1440.27 158.056 1441.6 159.728 1443.27C161.399 1444.94 162.725 1446.93 163.63 1449.11C164.534 1451.3 165 1453.64 165 1456L165 1456Z" stroke="#FAFBFB" stroke-width="8" stroke-linecap="round" stroke-linejoin="round"/>
<path d="M147 1438C149.364 1438 151.704 1438.47 153.888 1439.37C156.072 1440.27 158.056 1441.6 159.728 1443.27C161.399 1444.94 162.725 1446.93 163.63 1449.11C164.534 1451.3 165 1453.64 165 1456C165 1458.36 164.534 1460.7 163.63 1462.89C162.725 1465.07 161.399 1467.06 159.728 1468.73C158.056 1470.4 156.072 1471.73 153.888 1472.63C151.704 1473.53 149.364 1474 147 1474C144.636 1474 142.296 1473.53 140.112 1472.63C137.928 1471.73 135.944 1470.4 134.272 1468.73C132.601 1467.06 131.275 1465.07 130.37 1462.89C129.466 1460.7 129 1458.36 129 1456C129 1453.64 129.466 1451.3 130.37 1449.11C131.275 1446.93 132.601 1444.94 134.272 1443.27C135.944 1441.6 137.928 1440.27 140.112 1439.37C142.296 1438.47 144.636 1438 147 1438L147 1438Z" stroke="#04977E" stroke-width="8"/>
<path d="M131.262 1502H128.244V1493.74C128.244 1493.51 128.247 1493.23 128.254 1492.9C128.26 1492.56 128.27 1492.21 128.283 1491.86C128.296 1491.51 128.309 1491.18 128.322 1490.9C128.251 1490.98 128.104 1491.13 127.883 1491.34C127.668 1491.54 127.466 1491.72 127.277 1491.88L125.637 1493.2L124.182 1491.38L128.781 1487.72H131.262V1502ZM145.148 1494.86C145.148 1496.01 145.057 1497.04 144.875 1497.95C144.699 1498.85 144.413 1499.62 144.016 1500.25C143.625 1500.88 143.111 1501.37 142.473 1501.7C141.835 1502.03 141.06 1502.2 140.148 1502.2C139.003 1502.2 138.062 1501.91 137.326 1501.33C136.59 1500.74 136.047 1499.9 135.695 1498.81C135.344 1497.71 135.168 1496.39 135.168 1494.86C135.168 1493.32 135.327 1492 135.646 1490.91C135.972 1489.81 136.499 1488.96 137.229 1488.38C137.958 1487.79 138.931 1487.5 140.148 1487.5C141.288 1487.5 142.225 1487.79 142.961 1488.38C143.703 1488.96 144.253 1489.8 144.611 1490.9C144.969 1491.99 145.148 1493.31 145.148 1494.86ZM138.166 1494.86C138.166 1495.95 138.225 1496.86 138.342 1497.59C138.465 1498.31 138.671 1498.85 138.957 1499.22C139.243 1499.58 139.641 1499.76 140.148 1499.76C140.65 1499.76 141.044 1499.58 141.33 1499.23C141.623 1498.86 141.831 1498.32 141.955 1497.6C142.079 1496.87 142.141 1495.96 142.141 1494.86C142.141 1493.77 142.079 1492.87 141.955 1492.14C141.831 1491.41 141.623 1490.86 141.33 1490.5C141.044 1490.12 140.65 1489.94 140.148 1489.94C139.641 1489.94 139.243 1490.12 138.957 1490.5C138.671 1490.86 138.465 1491.41 138.342 1492.14C138.225 1492.87 138.166 1493.77 138.166 1494.86ZM156.594 1494.86C156.594 1496.01 156.503 1497.04 156.32 1497.95C156.145 1498.85 155.858 1499.62 155.461 1500.25C155.07 1500.88 154.556 1501.37 153.918 1501.7C153.28 1502.03 152.505 1502.2 151.594 1502.2C150.448 1502.2 149.507 1501.91 148.771 1501.33C148.036 1500.74 147.492 1499.9 147.141 1498.81C146.789 1497.71 146.613 1496.39 146.613 1494.86C146.613 1493.32 146.773 1492 147.092 1490.91C147.417 1489.81 147.945 1488.96 148.674 1488.38C149.403 1487.79 150.376 1487.5 151.594 1487.5C152.733 1487.5 153.671 1487.79 154.406 1488.38C155.148 1488.96 155.699 1489.8 156.057 1490.9C156.415 1491.99 156.594 1493.31 156.594 1494.86ZM149.611 1494.86C149.611 1495.95 149.67 1496.86 149.787 1497.59C149.911 1498.31 150.116 1498.85 150.402 1499.22C150.689 1499.58 151.086 1499.76 151.594 1499.76C152.095 1499.76 152.489 1499.58 152.775 1499.23C153.068 1498.86 153.277 1498.32 153.4 1497.6C153.524 1496.87 153.586 1495.96 153.586 1494.86C153.586 1493.77 153.524 1492.87 153.4 1492.14C153.277 1491.41 153.068 1490.86 152.775 1490.5C152.489 1490.12 152.095 1489.94 151.594 1489.94C151.086 1489.94 150.689 1490.12 150.402 1490.5C150.116 1490.86 149.911 1491.41 149.787 1492.14C149.67 1492.87 149.611 1493.77 149.611 1494.86Z" fill="#04977E"/>
<path d="M160.789 1491.86C161.573 1491.86 162.168 1492.14 162.573 1492.68C162.979 1493.23 163.182 1494 163.182 1494.99C163.182 1495.98 162.99 1496.75 162.607 1497.3C162.225 1497.86 161.618 1498.14 160.789 1498.14C160.019 1498.14 159.433 1497.86 159.032 1497.3C158.631 1496.75 158.431 1495.98 158.431 1494.99C158.431 1494 158.618 1493.23 158.991 1492.68C159.369 1492.14 159.969 1491.86 160.789 1491.86ZM160.803 1493.29C160.579 1493.29 160.415 1493.43 160.311 1493.71C160.206 1494 160.153 1494.43 160.153 1495C160.153 1495.57 160.206 1496 160.311 1496.29C160.415 1496.58 160.579 1496.72 160.803 1496.72C161.026 1496.72 161.19 1496.58 161.295 1496.3C161.404 1496.01 161.459 1495.58 161.459 1495C161.459 1494.43 161.404 1494 161.295 1493.71C161.19 1493.43 161.026 1493.29 160.803 1493.29ZM167.885 1492.01L162.341 1502H160.7L166.244 1492.01H167.885ZM167.789 1495.85C168.573 1495.85 169.168 1496.13 169.573 1496.67C169.979 1497.22 170.182 1497.99 170.182 1498.98C170.182 1499.96 169.99 1500.73 169.607 1501.29C169.225 1501.85 168.618 1502.12 167.789 1502.12C167.019 1502.12 166.433 1501.85 166.032 1501.29C165.631 1500.73 165.431 1499.96 165.431 1498.98C165.431 1497.99 165.618 1497.22 165.991 1496.67C166.369 1496.13 166.969 1495.85 167.789 1495.85ZM167.803 1497.28C167.579 1497.28 167.415 1497.42 167.311 1497.71C167.206 1497.99 167.153 1498.42 167.153 1498.99C167.153 1499.57 167.206 1500 167.311 1500.28C167.415 1500.57 167.579 1500.71 167.803 1500.71C168.026 1500.71 168.19 1500.57 168.295 1500.29C168.404 1500 168.459 1499.57 168.459 1498.99C168.459 1498.42 168.404 1497.99 168.295 1497.71C168.19 1497.42 168.026 1497.28 167.803 1497.28Z" fill="#04977E"/>
<g clip-path="url(#clip19_4192_140751)">
<g clip-path="url(#clip20_4192_140751)">
<g clip-path="url(#clip21_4192_140751)">
<path d="M366.009 1337.55V1355H362.318V1341.05H362.216L358.219 1343.55V1340.28L362.54 1337.55H366.009ZM377.001 1355.38C375.535 1355.38 374.273 1355.02 373.217 1354.3C372.165 1353.59 371.356 1352.55 370.788 1351.19C370.225 1349.83 369.947 1348.2 369.952 1346.29C369.952 1344.39 370.234 1342.76 370.796 1341.42C371.364 1340.08 372.174 1339.06 373.225 1338.36C374.282 1337.66 375.54 1337.31 377.001 1337.31C378.461 1337.31 379.717 1337.66 380.768 1338.36C381.825 1339.07 382.637 1340.09 383.205 1341.43C383.773 1342.77 384.055 1344.39 384.049 1346.29C384.049 1348.2 383.765 1349.84 383.197 1351.2C382.634 1352.56 381.827 1353.59 380.776 1354.31C379.725 1355.03 378.467 1355.38 377.001 1355.38ZM377.001 1352.32C378.001 1352.32 378.799 1351.82 379.396 1350.82C379.992 1349.81 380.288 1348.3 380.282 1346.29C380.282 1344.97 380.146 1343.86 379.873 1342.98C379.606 1342.1 379.225 1341.44 378.731 1341C378.242 1340.55 377.665 1340.33 377.001 1340.33C376.006 1340.33 375.211 1340.83 374.614 1341.82C374.018 1342.82 373.717 1344.31 373.711 1346.29C373.711 1347.63 373.844 1348.75 374.112 1349.65C374.384 1350.54 374.768 1351.21 375.262 1351.66C375.756 1352.1 376.336 1352.32 377.001 1352.32ZM393.524 1355.38C392.058 1355.38 390.797 1355.02 389.74 1354.3C388.689 1353.59 387.879 1352.55 387.311 1351.19C386.749 1349.83 386.47 1348.2 386.476 1346.29C386.476 1344.39 386.757 1342.76 387.32 1341.42C387.888 1340.08 388.697 1339.06 389.749 1338.36C390.805 1337.66 392.064 1337.31 393.524 1337.31C394.984 1337.31 396.24 1337.66 397.291 1338.36C398.348 1339.07 399.161 1340.09 399.729 1341.43C400.297 1342.77 400.578 1344.39 400.572 1346.29C400.572 1348.2 400.288 1349.84 399.72 1351.2C399.158 1352.56 398.351 1353.59 397.3 1354.31C396.249 1355.03 394.99 1355.38 393.524 1355.38ZM393.524 1352.32C394.524 1352.32 395.322 1351.82 395.919 1350.82C396.516 1349.81 396.811 1348.3 396.805 1346.29C396.805 1344.97 396.669 1343.86 396.396 1342.98C396.129 1342.1 395.749 1341.44 395.254 1341C394.766 1340.55 394.189 1340.33 393.524 1340.33C392.53 1340.33 391.734 1340.83 391.138 1341.82C390.541 1342.82 390.24 1344.31 390.234 1346.29C390.234 1347.63 390.368 1348.75 390.635 1349.65C390.908 1350.54 391.291 1351.21 391.786 1351.66C392.28 1352.1 392.859 1352.32 393.524 1352.32ZM412.758 1351.73V1350.81C412.758 1350.11 412.906 1349.47 413.201 1348.88C413.502 1348.29 413.937 1347.82 414.505 1347.47C415.079 1347.11 415.778 1346.93 416.602 1346.93C417.437 1346.93 418.138 1347.11 418.707 1347.46C419.281 1347.81 419.712 1348.28 420.002 1348.87C420.298 1349.46 420.445 1350.1 420.445 1350.81V1351.73C420.445 1352.43 420.298 1353.07 420.002 1353.66C419.707 1354.25 419.272 1354.72 418.698 1355.07C418.124 1355.43 417.425 1355.61 416.602 1355.61C415.766 1355.61 415.065 1355.43 414.496 1355.07C413.928 1354.72 413.496 1354.25 413.201 1353.66C412.906 1353.07 412.758 1352.43 412.758 1351.73ZM415.238 1350.81V1351.73C415.238 1352.13 415.335 1352.51 415.528 1352.87C415.727 1353.23 416.085 1353.41 416.602 1353.41C417.119 1353.41 417.471 1353.23 417.658 1352.88C417.852 1352.53 417.948 1352.14 417.948 1351.73V1350.81C417.948 1350.39 417.857 1350.01 417.675 1349.65C417.494 1349.29 417.136 1349.11 416.602 1349.11C416.09 1349.11 415.735 1349.29 415.536 1349.65C415.337 1350.01 415.238 1350.39 415.238 1350.81ZM403.8 1341.74V1340.82C403.8 1340.11 403.951 1339.47 404.252 1338.88C404.553 1338.29 404.988 1337.82 405.556 1337.47C406.13 1337.12 406.823 1336.94 407.636 1336.94C408.477 1336.94 409.181 1337.12 409.749 1337.47C410.317 1337.82 410.749 1338.29 411.045 1338.88C411.34 1339.47 411.488 1340.11 411.488 1340.82V1341.74C411.488 1342.44 411.337 1343.09 411.036 1343.67C410.741 1344.26 410.306 1344.73 409.732 1345.08C409.164 1345.43 408.465 1345.6 407.636 1345.6C406.806 1345.6 406.104 1345.42 405.531 1345.07C404.962 1344.71 404.531 1344.24 404.235 1343.66C403.945 1343.08 403.8 1342.44 403.8 1341.74ZM406.298 1340.82V1341.74C406.298 1342.15 406.394 1342.54 406.587 1342.89C406.786 1343.24 407.136 1343.42 407.636 1343.42C408.158 1343.42 408.513 1343.24 408.701 1342.89C408.894 1342.54 408.991 1342.15 408.991 1341.74V1340.82C408.991 1340.4 408.9 1340.02 408.718 1339.66C408.536 1339.3 408.175 1339.12 407.636 1339.12C407.13 1339.12 406.781 1339.3 406.587 1339.67C406.394 1340.03 406.298 1340.41 406.298 1340.82ZM404.925 1355L416.925 1337.55H419.158L407.158 1355H404.925Z" fill="black"/>
</g>
</g>
</g>
</g>
</g>
</g>
<defs>
<clipPath id="clip0_4192_140751">
<rect width="423" height="1604" fill="white"/>
</clipPath>
<clipPath id="clip1_4192_140751">
<rect width="423" height="1520" fill="white" transform="translate(0 84)"/>
</clipPath>
<clipPath id="clip2_4192_140751">
<rect width="395" height="272" fill="white" transform="translate(0 84)"/>
</clipPath>
<clipPath id="clip3_4192_140751">
<rect width="38" height="29" fill="white" transform="translate(357 84)"/>
</clipPath>
<clipPath id="clip4_4192_140751">
<rect width="38" height="29" fill="white" transform="translate(357 84)"/>
</clipPath>
<clipPath id="clip5_4192_140751">
<rect width="38" height="29" fill="white" transform="translate(357 84)"/>
</clipPath>
<clipPath id="clip6_4192_140751">
<rect width="410" height="272" fill="white" transform="translate(0 396)"/>
</clipPath>
<clipPath id="clip7_4192_140751">
<rect width="53" height="29" fill="white" transform="translate(357 396)"/>
</clipPath>
<clipPath id="clip8_4192_140751">
<rect width="53" height="29" fill="white" transform="translate(357 396)"/>
</clipPath>
<clipPath id="clip9_4192_140751">
<rect width="53" height="29" fill="white" transform="translate(357 396)"/>
</clipPath>
<clipPath id="clip10_4192_140751">
<rect width="409" height="272" fill="white" transform="translate(0 708)"/>
</clipPath>
<clipPath id="clip11_4192_140751">
<rect width="52" height="29" fill="white" transform="translate(357 708)"/>
</clipPath>
<clipPath id="clip12_4192_140751">
<rect width="52" height="29" fill="white" transform="translate(357 708)"/>
</clipPath>
<clipPath id="clip13_4192_140751">
<rect width="52" height="29" fill="white" transform="translate(357 708)"/>
</clipPath>
<clipPath id="clip14_4192_140751">
<rect width="408" height="272" fill="white" transform="translate(0 1020)"/>
</clipPath>
<clipPath id="clip15_4192_140751">
<rect width="51" height="29" fill="white" transform="translate(357 1020)"/>
</clipPath>
<clipPath id="clip16_4192_140751">
<rect width="51" height="29" fill="white" transform="translate(357 1020)"/>
</clipPath>
<clipPath id="clip17_4192_140751">
<rect width="51" height="29" fill="white" transform="translate(357 1020)"/>
</clipPath>
<clipPath id="clip18_4192_140751">
<rect width="423" height="272" fill="white" transform="translate(0 1332)"/>
</clipPath>
<clipPath id="clip19_4192_140751">
<rect width="66" height="29" fill="white" transform="translate(357 1332)"/>
</clipPath>
<clipPath id="clip20_4192_140751">
<rect width="66" height="29" fill="white" transform="translate(357 1332)"/>
</clipPath>
<clipPath id="clip21_4192_140751">
<rect width="66" height="29" fill="white" transform="translate(357 1332)"/>
</clipPath>
</defs>
</svg>
