<svg width="506" height="668" viewBox="0 0 506 668" fill="none" xmlns="http://www.w3.org/2000/svg">
<g clip-path="url(#clip0_4192_140790)">
<path d="M7.00568 8.81818L13.3338 28.7102H13.5767L19.9176 8.81818H26.054L17.0284 35H9.89489L0.856534 8.81818H7.00568ZM32.5227 35.3707C31.2699 35.3707 30.1534 35.1534 29.1733 34.7188C28.1932 34.2756 27.4176 33.6236 26.8466 32.7628C26.2841 31.8935 26.0028 30.8111 26.0028 29.5156C26.0028 28.4247 26.2031 27.5085 26.6037 26.767C27.0043 26.0256 27.5497 25.429 28.2401 24.9773C28.9304 24.5256 29.7145 24.1847 30.5923 23.9545C31.4787 23.7244 32.4077 23.5625 33.3793 23.4688C34.5213 23.3494 35.4418 23.2386 36.1406 23.1364C36.8395 23.0256 37.3466 22.8636 37.6619 22.6506C37.9773 22.4375 38.1349 22.1222 38.1349 21.7045V21.6278C38.1349 20.8182 37.8793 20.1918 37.3679 19.7486C36.8651 19.3054 36.1491 19.0838 35.2202 19.0838C34.2401 19.0838 33.4602 19.3011 32.8807 19.7358C32.3011 20.1619 31.9176 20.6989 31.7301 21.3466L26.6932 20.9375C26.9489 19.7443 27.4517 18.7131 28.2017 17.8438C28.9517 16.9659 29.919 16.2926 31.1037 15.8239C32.2969 15.3466 33.6776 15.108 35.2457 15.108C36.3366 15.108 37.3807 15.2358 38.3778 15.4915C39.3835 15.7472 40.2741 16.1435 41.0497 16.6804C41.8338 17.2173 42.4517 17.9077 42.9034 18.7514C43.3551 19.5866 43.581 20.5881 43.581 21.7557V35H38.4162V32.277H38.2628C37.9474 32.8906 37.5256 33.4318 36.9972 33.9006C36.4688 34.3608 35.8338 34.723 35.0923 34.9872C34.3509 35.2429 33.4943 35.3707 32.5227 35.3707ZM34.0824 31.6122C34.8835 31.6122 35.5909 31.4545 36.2045 31.1392C36.8182 30.8153 37.2997 30.3807 37.6491 29.8352C37.9986 29.2898 38.1733 28.6719 38.1733 27.9815V25.8977C38.0028 26.0085 37.7685 26.1108 37.4702 26.2045C37.1804 26.2898 36.8523 26.3707 36.4858 26.4474C36.1193 26.5156 35.7528 26.5795 35.3864 26.6392C35.0199 26.6903 34.6875 26.7372 34.3892 26.7798C33.75 26.8736 33.1918 27.0227 32.7145 27.2273C32.2372 27.4318 31.8665 27.7088 31.6023 28.0582C31.3381 28.3991 31.206 28.8253 31.206 29.3366C31.206 30.0781 31.4744 30.6449 32.0114 31.0369C32.5568 31.4205 33.2472 31.6122 34.0824 31.6122ZM53.2521 8.81818V35H47.8061V8.81818H53.2521ZM70.207 26.6392V15.3636H75.6531V35H70.4244V31.4332H70.2198C69.7766 32.5838 69.0394 33.5085 68.0082 34.2074C66.9854 34.9062 65.7369 35.2557 64.2624 35.2557C62.9499 35.2557 61.7951 34.9574 60.7979 34.3608C59.8008 33.7642 59.021 32.9162 58.4585 31.8168C57.9045 30.7173 57.6232 29.4006 57.6147 27.8665V15.3636H63.0607V26.8949C63.0692 28.054 63.3803 28.9702 63.994 29.6435C64.6076 30.3168 65.43 30.6534 66.4613 30.6534C67.1175 30.6534 67.7312 30.5043 68.3022 30.206C68.8732 29.8991 69.3335 29.4474 69.6829 28.8509C70.0408 28.2543 70.2156 27.517 70.207 26.6392ZM88.9581 35.3835C86.9382 35.3835 85.1996 34.9744 83.7422 34.1562C82.2933 33.3295 81.1768 32.1619 80.3928 30.6534C79.6087 29.1364 79.2166 27.3423 79.2166 25.2713C79.2166 23.2514 79.6087 21.4787 80.3928 19.9531C81.1768 18.4276 82.2805 17.2386 83.7038 16.3864C85.1357 15.5341 86.8146 15.108 88.7408 15.108C90.0362 15.108 91.2422 15.3168 92.3587 15.7344C93.4837 16.1435 94.4638 16.7614 95.299 17.5881C96.1428 18.4148 96.799 19.4545 97.2678 20.7074C97.7365 21.9517 97.9709 23.4091 97.9709 25.0795V26.5753H81.3899V23.2003H92.8445C92.8445 22.4162 92.674 21.7216 92.3331 21.1165C91.9922 20.5114 91.5192 20.0384 90.9141 19.6974C90.3175 19.348 89.6229 19.1733 88.8303 19.1733C88.0036 19.1733 87.2706 19.3651 86.6314 19.7486C86.0007 20.1236 85.5064 20.6307 85.1484 21.2699C84.7905 21.9006 84.6072 22.6037 84.5987 23.3793V26.5881C84.5987 27.5597 84.7777 28.3991 85.1357 29.1065C85.5021 29.8139 86.0178 30.3594 86.6825 30.7429C87.3473 31.1264 88.1357 31.3182 89.0476 31.3182C89.6527 31.3182 90.2067 31.233 90.7095 31.0625C91.2124 30.892 91.6428 30.6364 92.0007 30.2955C92.3587 29.9545 92.6314 29.5369 92.8189 29.0426L97.8558 29.375C97.6001 30.5852 97.076 31.642 96.2834 32.5455C95.4993 33.4403 94.4851 34.1392 93.2408 34.642C92.005 35.1364 90.5774 35.3835 88.9581 35.3835ZM120.301 15.3636V19.4545H108.476V15.3636H120.301ZM111.161 10.6591H116.607V28.9659C116.607 29.4687 116.684 29.8608 116.837 30.142C116.99 30.4148 117.203 30.6065 117.476 30.7173C117.757 30.8281 118.081 30.8835 118.448 30.8835C118.703 30.8835 118.959 30.8622 119.215 30.8196C119.471 30.7685 119.667 30.7301 119.803 30.7045L120.659 34.7571C120.387 34.8423 120.003 34.9403 119.509 35.0511C119.015 35.1705 118.414 35.2429 117.706 35.2685C116.394 35.3196 115.243 35.1449 114.255 34.7443C113.275 34.3437 112.512 33.7216 111.966 32.8778C111.421 32.0341 111.152 30.9687 111.161 29.6818V10.6591ZM127.211 42.3636C126.521 42.3636 125.873 42.3082 125.268 42.1974C124.672 42.0952 124.177 41.9631 123.785 41.8011L125.012 37.7358C125.652 37.9318 126.227 38.0384 126.738 38.0554C127.258 38.0724 127.706 37.9531 128.081 37.6974C128.464 37.4418 128.775 37.0071 129.014 36.3935L129.333 35.5625L122.289 15.3636H128.017L132.082 29.7841H132.287L136.39 15.3636H142.156L134.524 37.1222C134.157 38.179 133.659 39.0994 133.028 39.8835C132.406 40.6761 131.618 41.2855 130.663 41.7116C129.708 42.1463 128.558 42.3636 127.211 42.3636ZM144.943 42.3636V15.3636H150.312V18.6619H150.555C150.794 18.1335 151.139 17.5966 151.591 17.0511C152.051 16.4972 152.647 16.0369 153.38 15.6705C154.122 15.2955 155.042 15.108 156.142 15.108C157.574 15.108 158.895 15.483 160.105 16.233C161.315 16.9744 162.282 18.0952 163.007 19.5952C163.731 21.0866 164.093 22.9574 164.093 25.2074C164.093 27.3977 163.74 29.2472 163.032 30.7557C162.333 32.2557 161.379 33.3935 160.169 34.169C158.967 34.9361 157.62 35.3196 156.129 35.3196C155.072 35.3196 154.173 35.1449 153.431 34.7955C152.699 34.446 152.098 34.0071 151.629 33.4787C151.16 32.9418 150.802 32.4006 150.555 31.8551H150.389V42.3636H144.943ZM150.274 25.1818C150.274 26.3494 150.436 27.3679 150.76 28.2372C151.083 29.1065 151.552 29.7841 152.166 30.2699C152.779 30.7472 153.525 30.9858 154.403 30.9858C155.289 30.9858 156.039 30.7429 156.653 30.2571C157.267 29.7628 157.731 29.081 158.047 28.2116C158.37 27.3338 158.532 26.3239 158.532 25.1818C158.532 24.0483 158.375 23.0511 158.059 22.1903C157.744 21.3295 157.279 20.6562 156.666 20.1705C156.052 19.6847 155.298 19.4418 154.403 19.4418C153.517 19.4418 152.767 19.6761 152.153 20.1449C151.548 20.6136 151.083 21.2784 150.76 22.1392C150.436 23 150.274 24.0142 150.274 25.1818ZM176.673 35.3835C174.653 35.3835 172.914 34.9744 171.457 34.1562C170.008 33.3295 168.892 32.1619 168.108 30.6534C167.324 29.1364 166.931 27.3423 166.931 25.2713C166.931 23.2514 167.324 21.4787 168.108 19.9531C168.892 18.4276 169.995 17.2386 171.419 16.3864C172.85 15.5341 174.529 15.108 176.456 15.108C177.751 15.108 178.957 15.3168 180.074 15.7344C181.199 16.1435 182.179 16.7614 183.014 17.5881C183.858 18.4148 184.514 19.4545 184.983 20.7074C185.451 21.9517 185.686 23.4091 185.686 25.0795V26.5753H169.105V23.2003H180.559C180.559 22.4162 180.389 21.7216 180.048 21.1165C179.707 20.5114 179.234 20.0384 178.629 19.6974C178.032 19.348 177.338 19.1733 176.545 19.1733C175.718 19.1733 174.985 19.3651 174.346 19.7486C173.716 20.1236 173.221 20.6307 172.863 21.2699C172.505 21.9006 172.322 22.6037 172.314 23.3793V26.5881C172.314 27.5597 172.493 28.3991 172.85 29.1065C173.217 29.8139 173.733 30.3594 174.397 30.7429C175.062 31.1264 175.85 31.3182 176.762 31.3182C177.368 31.3182 177.922 31.233 178.424 31.0625C178.927 30.892 179.358 30.6364 179.716 30.2955C180.074 29.9545 180.346 29.5369 180.534 29.0426L185.571 29.375C185.315 30.5852 184.791 31.642 183.998 32.5455C183.214 33.4403 182.2 34.1392 180.956 34.642C179.72 35.1364 178.292 35.3835 176.673 35.3835Z" fill="black"/>
<g clip-path="url(#clip1_4192_140790)">
<g clip-path="url(#clip2_4192_140790)">
<rect width="293" height="272" transform="translate(0 84)" fill="#F2F2F2"/>
<path d="M147 184.5C159.979 184.5 170.5 195.021 170.5 208C170.5 220.979 159.979 231.5 147 231.5C134.021 231.5 123.5 220.979 123.5 208C123.5 195.021 134.021 184.5 147 184.5ZM147 195.5C140.096 195.5 134.5 201.096 134.5 208C134.5 214.904 140.096 220.5 147 220.5C153.904 220.5 159.5 214.904 159.5 208C159.5 201.096 153.904 195.5 147 195.5Z" stroke="#8090A3"/>
<path d="M165 208C165 210.364 164.534 212.704 163.63 214.888C162.725 217.072 161.399 219.056 159.728 220.728C158.056 222.399 156.072 223.725 153.888 224.63C151.704 225.534 149.364 226 147 226C144.636 226 142.296 225.534 140.112 224.63C137.928 223.725 135.944 222.399 134.272 220.728C132.601 219.056 131.275 217.072 130.37 214.888C129.466 212.704 129 210.364 129 208C129 205.636 129.466 203.296 130.37 201.112C131.275 198.928 132.601 196.944 134.272 195.272C135.944 193.601 137.928 192.275 140.112 191.37C142.296 190.466 144.636 190 147 190C149.364 190 151.704 190.466 153.888 191.37C156.072 192.275 158.056 193.601 159.728 195.272C161.399 196.944 162.725 198.928 163.63 201.112C164.534 203.296 165 205.636 165 208L165 208Z" stroke="#FAFBFB" stroke-width="8" stroke-linecap="round" stroke-linejoin="round"/>
<path d="M147 190C149.364 190 151.704 190.466 153.888 191.37C156.072 192.275 158.056 193.601 159.728 195.272C161.399 196.944 162.725 198.928 163.63 201.112C164.534 203.296 165 205.636 165 208" stroke="#04977E" stroke-width="8"/>
<path d="M139.781 254H129.801V251.9L133.385 248.277C134.107 247.535 134.687 246.917 135.123 246.422C135.566 245.921 135.885 245.465 136.08 245.055C136.282 244.645 136.383 244.205 136.383 243.736C136.383 243.17 136.223 242.747 135.904 242.467C135.592 242.18 135.172 242.037 134.645 242.037C134.091 242.037 133.554 242.164 133.033 242.418C132.512 242.672 131.969 243.033 131.402 243.502L129.762 241.559C130.172 241.207 130.605 240.875 131.061 240.562C131.523 240.25 132.057 239.999 132.662 239.811C133.274 239.615 134.007 239.518 134.859 239.518C135.797 239.518 136.601 239.687 137.271 240.025C137.949 240.364 138.469 240.826 138.834 241.412C139.199 241.992 139.381 242.649 139.381 243.385C139.381 244.173 139.225 244.892 138.912 245.543C138.6 246.194 138.144 246.839 137.545 247.477C136.952 248.115 136.236 248.821 135.396 249.596L133.561 251.324V251.461H139.781V254ZM146.441 244.879C147.314 244.879 148.089 245.045 148.766 245.377C149.449 245.709 149.986 246.197 150.377 246.842C150.768 247.486 150.963 248.281 150.963 249.225C150.963 250.253 150.748 251.142 150.318 251.891C149.895 252.633 149.26 253.202 148.414 253.6C147.574 253.997 146.526 254.195 145.27 254.195C144.521 254.195 143.814 254.13 143.15 254C142.493 253.876 141.917 253.684 141.422 253.424V250.816C141.917 251.077 142.509 251.298 143.199 251.48C143.896 251.656 144.55 251.744 145.162 251.744C145.761 251.744 146.266 251.666 146.676 251.51C147.086 251.347 147.395 251.1 147.604 250.768C147.818 250.429 147.926 249.999 147.926 249.479C147.926 248.782 147.691 248.248 147.223 247.877C146.754 247.506 146.035 247.32 145.064 247.32C144.693 247.32 144.306 247.356 143.902 247.428C143.505 247.499 143.173 247.571 142.906 247.643L141.705 246.998L142.242 239.723H149.986V242.281H144.889L144.625 245.084C144.846 245.038 145.087 244.993 145.348 244.947C145.608 244.902 145.973 244.879 146.441 244.879Z" fill="#04977E"/>
<path d="M154.789 243.862C155.573 243.862 156.168 244.136 156.573 244.683C156.979 245.229 157.182 245.997 157.182 246.986C157.182 247.975 156.99 248.748 156.607 249.304C156.225 249.86 155.618 250.138 154.789 250.138C154.019 250.138 153.433 249.86 153.032 249.304C152.631 248.748 152.431 247.975 152.431 246.986C152.431 245.997 152.618 245.229 152.991 244.683C153.369 244.136 153.969 243.862 154.789 243.862ZM154.803 245.291C154.579 245.291 154.415 245.432 154.311 245.715C154.206 245.997 154.153 246.426 154.153 247C154.153 247.574 154.206 248.005 154.311 248.292C154.415 248.579 154.579 248.723 154.803 248.723C155.026 248.723 155.19 248.581 155.295 248.299C155.404 248.012 155.459 247.579 155.459 247C155.459 246.426 155.404 245.997 155.295 245.715C155.19 245.432 155.026 245.291 154.803 245.291ZM161.885 244.006L156.341 254H154.7L160.244 244.006H161.885ZM161.789 247.854C162.573 247.854 163.168 248.128 163.573 248.675C163.979 249.222 164.182 249.99 164.182 250.979C164.182 251.963 163.99 252.733 163.607 253.289C163.225 253.845 162.618 254.123 161.789 254.123C161.019 254.123 160.433 253.845 160.032 253.289C159.631 252.733 159.431 251.963 159.431 250.979C159.431 249.99 159.618 249.222 159.991 248.675C160.369 248.128 160.969 247.854 161.789 247.854ZM161.803 249.283C161.579 249.283 161.415 249.424 161.311 249.707C161.206 249.99 161.153 250.418 161.153 250.992C161.153 251.566 161.206 251.997 161.311 252.284C161.415 252.571 161.579 252.715 161.803 252.715C162.026 252.715 162.19 252.574 162.295 252.291C162.404 252.004 162.459 251.571 162.459 250.992C162.459 250.418 162.404 249.99 162.295 249.707C162.19 249.424 162.026 249.283 161.803 249.283Z" fill="#04977E"/>
<g clip-path="url(#clip3_4192_140790)">
<g clip-path="url(#clip4_4192_140790)">
<g clip-path="url(#clip5_4192_140790)">
<path d="M358.517 107V89.5455H365.403C366.727 89.5455 367.855 89.7983 368.787 90.304C369.719 90.804 370.429 91.5 370.918 92.392C371.412 93.2784 371.659 94.3011 371.659 95.4602C371.659 96.6193 371.409 97.642 370.909 98.5284C370.409 99.4148 369.685 100.105 368.736 100.599C367.793 101.094 366.651 101.341 365.31 101.341H360.92V98.3835H364.713C365.423 98.3835 366.009 98.2614 366.469 98.017C366.935 97.767 367.281 97.4233 367.509 96.9858C367.741 96.5426 367.858 96.0341 367.858 95.4602C367.858 94.8807 367.741 94.375 367.509 93.9432C367.281 93.5057 366.935 93.1676 366.469 92.929C366.003 92.6847 365.412 92.5625 364.696 92.5625H362.207V107H358.517ZM379.743 107.256C378.396 107.256 377.237 106.983 376.266 106.438C375.3 105.886 374.555 105.108 374.033 104.102C373.51 103.091 373.249 101.895 373.249 100.514C373.249 99.1676 373.51 97.9858 374.033 96.9688C374.555 95.9517 375.291 95.1591 376.24 94.5909C377.195 94.0227 378.314 93.7386 379.598 93.7386C380.462 93.7386 381.266 93.8778 382.01 94.1562C382.76 94.429 383.413 94.8409 383.97 95.392C384.533 95.9432 384.97 96.6364 385.283 97.4716C385.595 98.3011 385.751 99.2727 385.751 100.386V101.384H374.697V99.1335H382.334C382.334 98.6108 382.22 98.1477 381.993 97.7443C381.766 97.3409 381.45 97.0256 381.047 96.7983C380.649 96.5653 380.186 96.4489 379.658 96.4489C379.107 96.4489 378.618 96.5767 378.192 96.8324C377.771 97.0824 377.442 97.4205 377.203 97.8466C376.964 98.267 376.842 98.7358 376.837 99.2528V101.392C376.837 102.04 376.956 102.599 377.195 103.071C377.439 103.543 377.783 103.906 378.226 104.162C378.669 104.418 379.195 104.545 379.803 104.545C380.206 104.545 380.575 104.489 380.911 104.375C381.246 104.261 381.533 104.091 381.771 103.864C382.01 103.636 382.192 103.358 382.317 103.028L385.675 103.25C385.504 104.057 385.155 104.761 384.626 105.364C384.104 105.96 383.428 106.426 382.598 106.761C381.774 107.091 380.822 107.256 379.743 107.256ZM388.121 107V93.9091H391.641V96.1932H391.777C392.016 95.3807 392.416 94.767 392.979 94.3523C393.541 93.9318 394.189 93.7216 394.922 93.7216C395.104 93.7216 395.3 93.733 395.51 93.7557C395.72 93.7784 395.905 93.8097 396.064 93.8494V97.071C395.893 97.0199 395.658 96.9744 395.357 96.9347C395.055 96.8949 394.78 96.875 394.53 96.875C393.996 96.875 393.518 96.9915 393.098 97.2244C392.683 97.4517 392.354 97.7699 392.109 98.179C391.871 98.5881 391.751 99.0597 391.751 99.5938V107H388.121ZM403.246 107.256C401.906 107.256 400.752 106.972 399.786 106.403C398.826 105.83 398.087 105.034 397.57 104.017C397.059 103 396.803 101.83 396.803 100.506C396.803 99.1648 397.062 97.9886 397.579 96.9773C398.102 95.9602 398.843 95.1676 399.803 94.5994C400.763 94.0256 401.906 93.7386 403.229 93.7386C404.371 93.7386 405.371 93.946 406.229 94.3608C407.087 94.7756 407.766 95.358 408.266 96.108C408.766 96.858 409.042 97.7386 409.093 98.75H405.667C405.57 98.0966 405.315 97.571 404.9 97.1733C404.491 96.7699 403.954 96.5682 403.289 96.5682C402.727 96.5682 402.235 96.7216 401.815 97.0284C401.4 97.3295 401.076 97.7699 400.843 98.3494C400.61 98.929 400.494 99.6307 400.494 100.455C400.494 101.29 400.607 102 400.835 102.585C401.067 103.17 401.394 103.616 401.815 103.923C402.235 104.23 402.727 104.384 403.289 104.384C403.704 104.384 404.076 104.298 404.406 104.128C404.741 103.957 405.016 103.71 405.232 103.386C405.454 103.057 405.599 102.662 405.667 102.202H409.093C409.036 103.202 408.763 104.082 408.275 104.844C407.792 105.599 407.124 106.19 406.272 106.616C405.42 107.043 404.411 107.256 403.246 107.256ZM417.384 107.256C416.037 107.256 414.878 106.983 413.906 106.438C412.94 105.886 412.196 105.108 411.673 104.102C411.151 103.091 410.889 101.895 410.889 100.514C410.889 99.1676 411.151 97.9858 411.673 96.9688C412.196 95.9517 412.932 95.1591 413.881 94.5909C414.835 94.0227 415.955 93.7386 417.239 93.7386C418.102 93.7386 418.906 93.8778 419.651 94.1562C420.401 94.429 421.054 94.8409 421.611 95.392C422.173 95.9432 422.611 96.6364 422.923 97.4716C423.236 98.3011 423.392 99.2727 423.392 100.386V101.384H412.338V99.1335H419.974C419.974 98.6108 419.861 98.1477 419.634 97.7443C419.406 97.3409 419.091 97.0256 418.688 96.7983C418.29 96.5653 417.827 96.4489 417.298 96.4489C416.747 96.4489 416.259 96.5767 415.832 96.8324C415.412 97.0824 415.082 97.4205 414.844 97.8466C414.605 98.267 414.483 98.7358 414.477 99.2528V101.392C414.477 102.04 414.597 102.599 414.835 103.071C415.08 103.543 415.423 103.906 415.866 104.162C416.31 104.418 416.835 104.545 417.443 104.545C417.847 104.545 418.216 104.489 418.551 104.375C418.886 104.261 419.173 104.091 419.412 103.864C419.651 103.636 419.832 103.358 419.957 103.028L423.315 103.25C423.145 104.057 422.795 104.761 422.267 105.364C421.744 105.96 421.068 106.426 420.239 106.761C419.415 107.091 418.463 107.256 417.384 107.256ZM429.392 99.4318V107H425.761V93.9091H429.222V96.2188H429.375C429.665 95.4574 430.151 94.8551 430.832 94.4119C431.514 93.9631 432.341 93.7386 433.312 93.7386C434.222 93.7386 435.014 93.9375 435.69 94.3352C436.366 94.733 436.892 95.3011 437.267 96.0398C437.642 96.7727 437.83 97.6477 437.83 98.6648V107H434.199V99.3125C434.205 98.5114 434 97.8864 433.585 97.4375C433.17 96.983 432.599 96.7557 431.872 96.7557C431.384 96.7557 430.952 96.8608 430.577 97.071C430.207 97.2812 429.918 97.5881 429.707 97.9915C429.503 98.3892 429.398 98.8693 429.392 99.4318ZM447.654 93.9091V96.6364H439.771V93.9091H447.654ZM441.56 90.7727H445.191V102.977C445.191 103.312 445.242 103.574 445.344 103.761C445.447 103.943 445.589 104.071 445.771 104.145C445.958 104.219 446.174 104.256 446.418 104.256C446.589 104.256 446.759 104.241 446.93 104.213C447.1 104.179 447.231 104.153 447.322 104.136L447.893 106.838C447.711 106.895 447.455 106.96 447.126 107.034C446.796 107.114 446.396 107.162 445.924 107.179C445.049 107.213 444.282 107.097 443.623 106.83C442.969 106.562 442.461 106.148 442.097 105.585C441.734 105.023 441.555 104.312 441.56 103.455V90.7727ZM453.752 107.247C452.917 107.247 452.173 107.102 451.519 106.812C450.866 106.517 450.349 106.082 449.968 105.509C449.593 104.929 449.406 104.207 449.406 103.344C449.406 102.616 449.539 102.006 449.806 101.511C450.073 101.017 450.437 100.619 450.897 100.318C451.357 100.017 451.88 99.7898 452.465 99.6364C453.056 99.483 453.675 99.375 454.323 99.3125C455.085 99.233 455.698 99.1591 456.164 99.0909C456.63 99.017 456.968 98.9091 457.178 98.767C457.388 98.625 457.494 98.4148 457.494 98.1364V98.0852C457.494 97.5455 457.323 97.1278 456.982 96.8324C456.647 96.5369 456.17 96.3892 455.55 96.3892C454.897 96.3892 454.377 96.5341 453.991 96.8239C453.604 97.108 453.349 97.4659 453.224 97.8977L449.866 97.625C450.036 96.8295 450.371 96.142 450.871 95.5625C451.371 94.9773 452.016 94.5284 452.806 94.2159C453.602 93.8977 454.522 93.7386 455.567 93.7386C456.295 93.7386 456.991 93.8239 457.656 93.9943C458.326 94.1648 458.92 94.429 459.437 94.7869C459.96 95.1449 460.371 95.6051 460.673 96.1676C460.974 96.7244 461.124 97.392 461.124 98.1705V107H457.681V105.185H457.579C457.369 105.594 457.087 105.955 456.735 106.267C456.383 106.574 455.96 106.815 455.465 106.991C454.971 107.162 454.4 107.247 453.752 107.247ZM454.792 104.741C455.326 104.741 455.798 104.636 456.207 104.426C456.616 104.21 456.937 103.92 457.17 103.557C457.403 103.193 457.519 102.781 457.519 102.321V100.932C457.406 101.006 457.249 101.074 457.05 101.136C456.857 101.193 456.638 101.247 456.394 101.298C456.15 101.344 455.906 101.386 455.661 101.426C455.417 101.46 455.195 101.491 454.996 101.52C454.57 101.582 454.198 101.682 453.88 101.818C453.562 101.955 453.315 102.139 453.138 102.372C452.962 102.599 452.874 102.884 452.874 103.224C452.874 103.719 453.053 104.097 453.411 104.358C453.775 104.614 454.235 104.741 454.792 104.741ZM469.839 112.182C468.663 112.182 467.654 112.02 466.813 111.696C465.978 111.378 465.313 110.943 464.819 110.392C464.325 109.841 464.004 109.222 463.856 108.534L467.214 108.082C467.316 108.344 467.478 108.588 467.7 108.815C467.921 109.043 468.214 109.224 468.577 109.361C468.947 109.503 469.396 109.574 469.924 109.574C470.714 109.574 471.364 109.381 471.876 108.994C472.393 108.614 472.651 107.974 472.651 107.077V104.682H472.498C472.339 105.045 472.1 105.389 471.782 105.713C471.464 106.037 471.055 106.301 470.555 106.506C470.055 106.71 469.458 106.812 468.765 106.812C467.782 106.812 466.887 106.585 466.08 106.131C465.279 105.67 464.64 104.969 464.163 104.026C463.691 103.077 463.455 101.878 463.455 100.429C463.455 98.946 463.697 97.7074 464.18 96.7131C464.663 95.7187 465.305 94.9744 466.106 94.4801C466.913 93.9858 467.796 93.7386 468.756 93.7386C469.489 93.7386 470.103 93.8636 470.597 94.1136C471.092 94.358 471.489 94.6648 471.79 95.0341C472.097 95.3977 472.333 95.7557 472.498 96.108H472.634V93.9091H476.239V107.128C476.239 108.241 475.967 109.173 475.421 109.923C474.876 110.673 474.12 111.236 473.154 111.611C472.194 111.991 471.089 112.182 469.839 112.182ZM469.915 104.085C470.501 104.085 470.995 103.94 471.398 103.651C471.808 103.355 472.12 102.935 472.336 102.389C472.558 101.838 472.668 101.179 472.668 100.412C472.668 99.6449 472.56 98.9801 472.344 98.4176C472.129 97.8494 471.816 97.4091 471.407 97.0966C470.998 96.7841 470.501 96.6278 469.915 96.6278C469.319 96.6278 468.816 96.7898 468.407 97.1136C467.998 97.4318 467.688 97.875 467.478 98.4432C467.268 99.0114 467.163 99.6676 467.163 100.412C467.163 101.168 467.268 101.821 467.478 102.372C467.694 102.918 468.004 103.341 468.407 103.642C468.816 103.937 469.319 104.085 469.915 104.085ZM485.094 107.256C483.748 107.256 482.589 106.983 481.617 106.438C480.651 105.886 479.907 105.108 479.384 104.102C478.862 103.091 478.6 101.895 478.6 100.514C478.6 99.1676 478.862 97.9858 479.384 96.9688C479.907 95.9517 480.643 95.1591 481.592 94.5909C482.546 94.0227 483.665 93.7386 484.95 93.7386C485.813 93.7386 486.617 93.8778 487.362 94.1562C488.112 94.429 488.765 94.8409 489.322 95.392C489.884 95.9432 490.322 96.6364 490.634 97.4716C490.947 98.3011 491.103 99.2727 491.103 100.386V101.384H480.049V99.1335H487.685C487.685 98.6108 487.572 98.1477 487.344 97.7443C487.117 97.3409 486.802 97.0256 486.398 96.7983C486.001 96.5653 485.538 96.4489 485.009 96.4489C484.458 96.4489 483.969 96.5767 483.543 96.8324C483.123 97.0824 482.793 97.4205 482.555 97.8466C482.316 98.267 482.194 98.7358 482.188 99.2528V101.392C482.188 102.04 482.308 102.599 482.546 103.071C482.79 103.543 483.134 103.906 483.577 104.162C484.021 104.418 484.546 104.545 485.154 104.545C485.558 104.545 485.927 104.489 486.262 104.375C486.597 104.261 486.884 104.091 487.123 103.864C487.362 103.636 487.543 103.358 487.668 103.028L491.026 103.25C490.856 104.057 490.506 104.761 489.978 105.364C489.455 105.96 488.779 106.426 487.95 106.761C487.126 107.091 486.174 107.256 485.094 107.256ZM504.364 97.642L501.04 97.8466C500.984 97.5625 500.862 97.3068 500.674 97.0795C500.487 96.8466 500.239 96.6619 499.933 96.5256C499.631 96.3835 499.271 96.3125 498.85 96.3125C498.288 96.3125 497.813 96.4318 497.427 96.6705C497.04 96.9034 496.847 97.2159 496.847 97.608C496.847 97.9205 496.972 98.1847 497.222 98.4006C497.472 98.6165 497.901 98.7898 498.509 98.9205L500.879 99.3977C502.151 99.6591 503.1 100.08 503.725 100.659C504.35 101.239 504.663 102 504.663 102.943C504.663 103.801 504.41 104.554 503.904 105.202C503.404 105.849 502.717 106.355 501.842 106.719C500.972 107.077 499.969 107.256 498.833 107.256C497.1 107.256 495.719 106.895 494.691 106.173C493.668 105.446 493.069 104.457 492.893 103.207L496.464 103.02C496.572 103.548 496.833 103.952 497.248 104.23C497.663 104.503 498.194 104.639 498.842 104.639C499.478 104.639 499.989 104.517 500.376 104.273C500.768 104.023 500.967 103.702 500.972 103.31C500.967 102.98 500.827 102.71 500.555 102.5C500.282 102.284 499.862 102.119 499.293 102.006L497.026 101.554C495.748 101.298 494.796 100.855 494.171 100.224C493.552 99.5937 493.242 98.7898 493.242 97.8125C493.242 96.9716 493.469 96.2472 493.924 95.6392C494.384 95.0312 495.029 94.5625 495.859 94.233C496.694 93.9034 497.671 93.7386 498.79 93.7386C500.444 93.7386 501.745 94.0881 502.694 94.7869C503.648 95.4858 504.205 96.4375 504.364 97.642Z" fill="black"/>
</g>
</g>
</g>
</g>
<g clip-path="url(#clip6_4192_140790)">
<rect width="293" height="272" transform="translate(0 396)" fill="#F2F2F2"/>
<path d="M146.5 496.5C159.479 496.5 170 507.021 170 520C170 532.979 159.479 543.5 146.5 543.5C133.521 543.5 123 532.979 123 520C123 507.021 133.521 496.5 146.5 496.5ZM146.5 507.5C139.596 507.5 134 513.096 134 520C134 526.904 139.596 532.5 146.5 532.5C153.404 532.5 159 526.904 159 520C159 513.096 153.404 507.5 146.5 507.5Z" stroke="#8090A3"/>
<path d="M164.5 520C164.5 522.364 164.034 524.704 163.13 526.888C162.225 529.072 160.899 531.056 159.228 532.728C157.556 534.399 155.572 535.725 153.388 536.63C151.204 537.534 148.864 538 146.5 538C144.136 538 141.796 537.534 139.612 536.63C137.428 535.725 135.444 534.399 133.772 532.728C132.101 531.056 130.775 529.072 129.87 526.888C128.966 524.704 128.5 522.364 128.5 520C128.5 517.636 128.966 515.296 129.87 513.112C130.775 510.928 132.101 508.944 133.772 507.272C135.444 505.601 137.428 504.275 139.612 503.37C141.796 502.466 144.136 502 146.5 502C148.864 502 151.204 502.466 153.388 503.37C155.572 504.275 157.556 505.601 159.228 507.272C160.899 508.944 162.225 510.928 163.13 513.112C164.034 515.296 164.5 517.636 164.5 520L164.5 520Z" stroke="#FAFBFB" stroke-width="8" stroke-linecap="round" stroke-linejoin="round"/>
<path d="M146.5 502C148.864 502 151.204 502.466 153.388 503.37C155.572 504.275 157.556 505.601 159.228 507.272C160.899 508.944 162.225 510.928 163.13 513.112C164.034 515.296 164.5 517.636 164.5 520" stroke="#04977E" stroke-width="8"/>
<path d="M98.7812 566H88.8008V563.9L92.3848 560.277C93.1074 559.535 93.6868 558.917 94.123 558.422C94.5658 557.921 94.8848 557.465 95.0801 557.055C95.2819 556.645 95.3828 556.205 95.3828 555.736C95.3828 555.17 95.2233 554.747 94.9043 554.467C94.5918 554.18 94.1719 554.037 93.6445 554.037C93.0911 554.037 92.554 554.164 92.0332 554.418C91.5124 554.672 90.9688 555.033 90.4023 555.502L88.7617 553.559C89.1719 553.207 89.6048 552.875 90.0605 552.562C90.5228 552.25 91.0566 551.999 91.6621 551.811C92.2741 551.615 93.0065 551.518 93.8594 551.518C94.7969 551.518 95.6009 551.687 96.2715 552.025C96.9486 552.364 97.4694 552.826 97.834 553.412C98.1986 553.992 98.3809 554.649 98.3809 555.385C98.3809 556.173 98.2246 556.892 97.9121 557.543C97.5996 558.194 97.1439 558.839 96.5449 559.477C95.9525 560.115 95.2363 560.821 94.3965 561.596L92.5605 563.324V563.461H98.7812V566ZM105.441 556.879C106.314 556.879 107.089 557.045 107.766 557.377C108.449 557.709 108.986 558.197 109.377 558.842C109.768 559.486 109.963 560.281 109.963 561.225C109.963 562.253 109.748 563.142 109.318 563.891C108.895 564.633 108.26 565.202 107.414 565.6C106.574 565.997 105.526 566.195 104.27 566.195C103.521 566.195 102.814 566.13 102.15 566C101.493 565.876 100.917 565.684 100.422 565.424V562.816C100.917 563.077 101.509 563.298 102.199 563.48C102.896 563.656 103.55 563.744 104.162 563.744C104.761 563.744 105.266 563.666 105.676 563.51C106.086 563.347 106.395 563.1 106.604 562.768C106.818 562.429 106.926 561.999 106.926 561.479C106.926 560.782 106.691 560.248 106.223 559.877C105.754 559.506 105.035 559.32 104.064 559.32C103.693 559.32 103.306 559.356 102.902 559.428C102.505 559.499 102.173 559.571 101.906 559.643L100.705 558.998L101.242 551.723H108.986V554.281H103.889L103.625 557.084C103.846 557.038 104.087 556.993 104.348 556.947C104.608 556.902 104.973 556.879 105.441 556.879Z" fill="#04977E"/>
<path d="M116.715 556.006L112.989 566H111.096L114.821 556.006H116.715Z" fill="#8090A3"/>
<path d="M120.514 566.137C119.661 566.137 118.966 565.804 118.429 565.139C117.896 564.469 117.629 563.487 117.629 562.192C117.629 560.884 117.9 559.896 118.442 559.226C118.985 558.551 119.693 558.214 120.568 558.214C120.933 558.214 121.254 558.264 121.532 558.364C121.81 558.465 122.049 558.599 122.25 558.768C122.455 558.936 122.628 559.125 122.77 559.335H122.838C122.811 559.189 122.776 558.975 122.735 558.692C122.699 558.405 122.681 558.111 122.681 557.811V555.363H124.772V566H123.173L122.77 565.009H122.681C122.549 565.218 122.382 565.41 122.182 565.583C121.986 565.752 121.751 565.886 121.478 565.986C121.204 566.087 120.883 566.137 120.514 566.137ZM121.245 564.476C121.815 564.476 122.216 564.307 122.448 563.97C122.685 563.628 122.811 563.115 122.824 562.432V562.206C122.824 561.463 122.71 560.896 122.482 560.504C122.255 560.107 121.831 559.909 121.211 559.909C120.751 559.909 120.391 560.107 120.131 560.504C119.871 560.9 119.741 561.472 119.741 562.22C119.741 562.967 119.871 563.53 120.131 563.908C120.395 564.286 120.767 564.476 121.245 564.476ZM130.104 558.214C130.811 558.214 131.419 558.351 131.93 558.624C132.44 558.893 132.834 559.285 133.112 559.8C133.39 560.315 133.529 560.944 133.529 561.687V562.698H128.601C128.623 563.286 128.799 563.749 129.127 564.086C129.46 564.419 129.92 564.585 130.508 564.585C130.995 564.585 131.442 564.535 131.848 564.435C132.253 564.334 132.67 564.184 133.099 563.983V565.597C132.72 565.784 132.324 565.92 131.909 566.007C131.499 566.093 131 566.137 130.412 566.137C129.646 566.137 128.967 565.995 128.375 565.713C127.787 565.43 127.325 565 126.987 564.421C126.655 563.842 126.488 563.113 126.488 562.233C126.488 561.34 126.639 560.597 126.939 560.005C127.245 559.408 127.669 558.961 128.211 558.665C128.753 558.364 129.384 558.214 130.104 558.214ZM130.118 559.697C129.713 559.697 129.375 559.827 129.106 560.087C128.842 560.347 128.689 560.755 128.648 561.311H131.574C131.57 561.001 131.513 560.725 131.403 560.483C131.299 560.242 131.139 560.05 130.925 559.909C130.715 559.768 130.446 559.697 130.118 559.697ZM139.565 558.214C140.381 558.214 141.037 558.437 141.534 558.884C142.031 559.326 142.279 560.037 142.279 561.017V566H140.194V561.536C140.194 560.989 140.094 560.577 139.894 560.299C139.698 560.021 139.388 559.882 138.964 559.882C138.326 559.882 137.891 560.098 137.658 560.531C137.426 560.964 137.31 561.589 137.31 562.404V566H135.225V558.357H136.817L137.098 559.335H137.214C137.378 559.071 137.581 558.856 137.822 558.692C138.068 558.528 138.34 558.408 138.636 558.33C138.937 558.253 139.246 558.214 139.565 558.214ZM146.511 558.357V566H144.426V558.357H146.511ZM145.472 555.363C145.782 555.363 146.048 555.436 146.271 555.582C146.495 555.723 146.606 555.99 146.606 556.382C146.606 556.769 146.495 557.038 146.271 557.188C146.048 557.334 145.782 557.407 145.472 557.407C145.157 557.407 144.888 557.334 144.665 557.188C144.446 557.038 144.337 556.769 144.337 556.382C144.337 555.99 144.446 555.723 144.665 555.582C144.888 555.436 145.157 555.363 145.472 555.363ZM157.681 558.214C158.547 558.214 159.201 558.437 159.643 558.884C160.089 559.326 160.312 560.037 160.312 561.017V566H158.221V561.536C158.221 560.989 158.127 560.577 157.94 560.299C157.754 560.021 157.464 559.882 157.072 559.882C156.521 559.882 156.129 560.08 155.896 560.477C155.664 560.868 155.548 561.431 155.548 562.165V566H153.463V561.536C153.463 561.172 153.422 560.866 153.34 560.62C153.258 560.374 153.132 560.189 152.964 560.066C152.795 559.943 152.579 559.882 152.314 559.882C151.927 559.882 151.622 559.98 151.398 560.176C151.18 560.367 151.022 560.652 150.927 561.03C150.836 561.404 150.79 561.862 150.79 562.404V566H148.705V558.357H150.298L150.578 559.335H150.694C150.849 559.071 151.043 558.856 151.275 558.692C151.512 558.528 151.772 558.408 152.055 558.33C152.337 558.253 152.624 558.214 152.916 558.214C153.477 558.214 153.951 558.305 154.338 558.487C154.73 558.67 155.031 558.952 155.24 559.335H155.425C155.653 558.943 155.974 558.658 156.389 558.48C156.808 558.303 157.239 558.214 157.681 558.214ZM164.544 558.357V566H162.459V558.357H164.544ZM163.505 555.363C163.815 555.363 164.081 555.436 164.305 555.582C164.528 555.723 164.64 555.99 164.64 556.382C164.64 556.769 164.528 557.038 164.305 557.188C164.081 557.334 163.815 557.407 163.505 557.407C163.19 557.407 162.922 557.334 162.698 557.188C162.479 557.038 162.37 556.769 162.37 556.382C162.37 555.99 162.479 555.723 162.698 555.582C162.922 555.436 163.19 555.363 163.505 555.363ZM171.079 558.214C171.895 558.214 172.551 558.437 173.048 558.884C173.545 559.326 173.793 560.037 173.793 561.017V566H171.708V561.536C171.708 560.989 171.608 560.577 171.407 560.299C171.211 560.021 170.901 559.882 170.478 559.882C169.84 559.882 169.404 560.098 169.172 560.531C168.939 560.964 168.823 561.589 168.823 562.404V566H166.738V558.357H168.331L168.611 559.335H168.728C168.892 559.071 169.094 558.856 169.336 558.692C169.582 558.528 169.853 558.408 170.149 558.33C170.45 558.253 170.76 558.214 171.079 558.214ZM179.07 558.2C180.096 558.2 180.882 558.424 181.429 558.87C181.976 559.317 182.249 559.996 182.249 560.907V566H180.793L180.39 564.961H180.335C180.116 565.234 179.893 565.458 179.665 565.631C179.437 565.804 179.175 565.932 178.879 566.014C178.583 566.096 178.223 566.137 177.799 566.137C177.348 566.137 176.942 566.05 176.582 565.877C176.227 565.704 175.946 565.439 175.741 565.084C175.536 564.724 175.434 564.268 175.434 563.717C175.434 562.906 175.718 562.309 176.288 561.926C176.858 561.538 177.712 561.324 178.852 561.283L180.178 561.242V560.907C180.178 560.506 180.073 560.212 179.863 560.025C179.654 559.839 179.362 559.745 178.988 559.745C178.619 559.745 178.257 559.798 177.901 559.902C177.546 560.007 177.19 560.139 176.835 560.299L176.145 558.891C176.55 558.676 177.004 558.508 177.505 558.385C178.011 558.262 178.533 558.2 179.07 558.2ZM180.178 562.459L179.371 562.486C178.697 562.505 178.227 562.625 177.963 562.849C177.703 563.072 177.573 563.366 177.573 563.73C177.573 564.049 177.667 564.277 177.854 564.414C178.04 564.546 178.284 564.612 178.585 564.612C179.032 564.612 179.408 564.48 179.713 564.216C180.023 563.951 180.178 563.576 180.178 563.088V562.459ZM187.622 564.476C187.85 564.476 188.071 564.453 188.285 564.407C188.504 564.362 188.72 564.305 188.935 564.236V565.788C188.711 565.888 188.433 565.97 188.101 566.034C187.772 566.103 187.412 566.137 187.021 566.137C186.565 566.137 186.155 566.064 185.79 565.918C185.43 565.768 185.145 565.51 184.936 565.146C184.73 564.776 184.628 564.264 184.628 563.607V559.923H183.63V559.041L184.778 558.344L185.38 556.73H186.713V558.357H188.853V559.923H186.713V563.607C186.713 563.899 186.795 564.118 186.959 564.264C187.128 564.405 187.349 564.476 187.622 564.476ZM197.432 562.165C197.432 562.803 197.345 563.368 197.172 563.86C197.003 564.353 196.755 564.77 196.427 565.111C196.103 565.449 195.711 565.704 195.251 565.877C194.795 566.05 194.28 566.137 193.706 566.137C193.168 566.137 192.674 566.05 192.223 565.877C191.776 565.704 191.386 565.449 191.054 565.111C190.726 564.77 190.47 564.353 190.288 563.86C190.11 563.368 190.021 562.803 190.021 562.165C190.021 561.317 190.172 560.6 190.473 560.012C190.773 559.424 191.202 558.977 191.758 558.672C192.314 558.367 192.977 558.214 193.747 558.214C194.463 558.214 195.096 558.367 195.647 558.672C196.203 558.977 196.639 559.424 196.953 560.012C197.272 560.6 197.432 561.317 197.432 562.165ZM192.147 562.165C192.147 562.666 192.202 563.088 192.312 563.43C192.421 563.771 192.592 564.029 192.824 564.202C193.057 564.375 193.36 564.462 193.733 564.462C194.103 564.462 194.401 564.375 194.629 564.202C194.861 564.029 195.03 563.771 195.135 563.43C195.244 563.088 195.299 562.666 195.299 562.165C195.299 561.659 195.244 561.24 195.135 560.907C195.03 560.57 194.861 560.317 194.629 560.148C194.396 559.98 194.093 559.896 193.72 559.896C193.168 559.896 192.767 560.085 192.517 560.463C192.271 560.841 192.147 561.409 192.147 562.165ZM203.42 558.214C203.525 558.214 203.646 558.221 203.782 558.234C203.924 558.243 204.037 558.257 204.124 558.275L203.967 560.23C203.898 560.208 203.8 560.192 203.673 560.183C203.55 560.169 203.443 560.162 203.352 560.162C203.083 560.162 202.821 560.196 202.565 560.265C202.315 560.333 202.089 560.445 201.889 560.6C201.688 560.75 201.529 560.951 201.41 561.201C201.296 561.447 201.239 561.75 201.239 562.11V566H199.154V558.357H200.733L201.041 559.643H201.144C201.294 559.383 201.481 559.146 201.704 558.932C201.932 558.713 202.189 558.54 202.477 558.412C202.768 558.28 203.083 558.214 203.42 558.214Z" fill="#8090A3"/>
<g clip-path="url(#clip7_4192_140790)">
<g clip-path="url(#clip8_4192_140790)">
<g clip-path="url(#clip9_4192_140790)">
<path d="M358.517 419V401.545H370.074V404.588H362.207V408.747H369.307V411.79H362.207V419H358.517ZM372.277 419V405.909H375.797V408.193H375.933C376.172 407.381 376.572 406.767 377.135 406.352C377.697 405.932 378.345 405.722 379.078 405.722C379.26 405.722 379.456 405.733 379.666 405.756C379.876 405.778 380.061 405.81 380.22 405.849V409.071C380.05 409.02 379.814 408.974 379.513 408.935C379.212 408.895 378.936 408.875 378.686 408.875C378.152 408.875 377.675 408.991 377.254 409.224C376.839 409.452 376.51 409.77 376.266 410.179C376.027 410.588 375.908 411.06 375.908 411.594V419H372.277ZM385.455 419.247C384.62 419.247 383.876 419.102 383.222 418.812C382.569 418.517 382.052 418.082 381.671 417.509C381.296 416.929 381.109 416.207 381.109 415.344C381.109 414.616 381.242 414.006 381.509 413.511C381.776 413.017 382.14 412.619 382.6 412.318C383.06 412.017 383.583 411.79 384.168 411.636C384.759 411.483 385.379 411.375 386.026 411.312C386.788 411.233 387.401 411.159 387.867 411.091C388.333 411.017 388.671 410.909 388.881 410.767C389.092 410.625 389.197 410.415 389.197 410.136V410.085C389.197 409.545 389.026 409.128 388.685 408.832C388.35 408.537 387.873 408.389 387.254 408.389C386.6 408.389 386.08 408.534 385.694 408.824C385.308 409.108 385.052 409.466 384.927 409.898L381.569 409.625C381.739 408.83 382.075 408.142 382.575 407.562C383.075 406.977 383.719 406.528 384.509 406.216C385.305 405.898 386.225 405.739 387.271 405.739C387.998 405.739 388.694 405.824 389.359 405.994C390.029 406.165 390.623 406.429 391.14 406.787C391.663 407.145 392.075 407.605 392.376 408.168C392.677 408.724 392.827 409.392 392.827 410.17V419H389.384V417.185H389.282C389.072 417.594 388.79 417.955 388.438 418.267C388.086 418.574 387.663 418.815 387.168 418.991C386.674 419.162 386.103 419.247 385.455 419.247ZM386.495 416.741C387.029 416.741 387.501 416.636 387.91 416.426C388.319 416.21 388.64 415.92 388.873 415.557C389.106 415.193 389.222 414.781 389.222 414.321V412.932C389.109 413.006 388.952 413.074 388.754 413.136C388.56 413.193 388.342 413.247 388.097 413.298C387.853 413.344 387.609 413.386 387.364 413.426C387.12 413.46 386.898 413.491 386.7 413.52C386.273 413.582 385.901 413.682 385.583 413.818C385.265 413.955 385.018 414.139 384.842 414.372C384.665 414.599 384.577 414.884 384.577 415.224C384.577 415.719 384.756 416.097 385.114 416.358C385.478 416.614 385.938 416.741 386.495 416.741ZM401.559 419.256C400.218 419.256 399.065 418.972 398.099 418.403C397.138 417.83 396.4 417.034 395.883 416.017C395.371 415 395.116 413.83 395.116 412.506C395.116 411.165 395.374 409.989 395.891 408.977C396.414 407.96 397.156 407.168 398.116 406.599C399.076 406.026 400.218 405.739 401.542 405.739C402.684 405.739 403.684 405.946 404.542 406.361C405.4 406.776 406.079 407.358 406.579 408.108C407.079 408.858 407.354 409.739 407.406 410.75H403.979C403.883 410.097 403.627 409.571 403.212 409.173C402.803 408.77 402.266 408.568 401.602 408.568C401.039 408.568 400.548 408.722 400.127 409.028C399.712 409.33 399.388 409.77 399.156 410.349C398.923 410.929 398.806 411.631 398.806 412.455C398.806 413.29 398.92 414 399.147 414.585C399.38 415.17 399.707 415.616 400.127 415.923C400.548 416.23 401.039 416.384 401.602 416.384C402.016 416.384 402.388 416.298 402.718 416.128C403.053 415.957 403.329 415.71 403.545 415.386C403.766 415.057 403.911 414.662 403.979 414.202H407.406C407.349 415.202 407.076 416.082 406.587 416.844C406.104 417.599 405.437 418.19 404.585 418.616C403.732 419.043 402.724 419.256 401.559 419.256ZM416.693 405.909V408.636H408.81V405.909H416.693ZM410.599 402.773H414.23V414.977C414.23 415.312 414.281 415.574 414.384 415.761C414.486 415.943 414.628 416.071 414.81 416.145C414.997 416.219 415.213 416.256 415.457 416.256C415.628 416.256 415.798 416.241 415.969 416.213C416.139 416.179 416.27 416.153 416.361 416.136L416.932 418.838C416.75 418.895 416.494 418.96 416.165 419.034C415.835 419.114 415.435 419.162 414.963 419.179C414.088 419.213 413.321 419.097 412.662 418.83C412.009 418.562 411.5 418.148 411.136 417.585C410.773 417.023 410.594 416.312 410.599 415.455V402.773ZM419.058 419V405.909H422.689V419H419.058ZM420.882 404.222C420.342 404.222 419.879 404.043 419.493 403.685C419.112 403.321 418.922 402.886 418.922 402.381C418.922 401.881 419.112 401.452 419.493 401.094C419.879 400.73 420.342 400.548 420.882 400.548C421.422 400.548 421.882 400.73 422.263 401.094C422.649 401.452 422.842 401.881 422.842 402.381C422.842 402.886 422.649 403.321 422.263 403.685C421.882 404.043 421.422 404.222 420.882 404.222ZM431.512 419.256C430.188 419.256 429.043 418.974 428.077 418.412C427.117 417.844 426.376 417.054 425.853 416.043C425.33 415.026 425.069 413.847 425.069 412.506C425.069 411.153 425.33 409.972 425.853 408.96C426.376 407.943 427.117 407.153 428.077 406.591C429.043 406.023 430.188 405.739 431.512 405.739C432.836 405.739 433.978 406.023 434.938 406.591C435.904 407.153 436.648 407.943 437.171 408.96C437.694 409.972 437.955 411.153 437.955 412.506C437.955 413.847 437.694 415.026 437.171 416.043C436.648 417.054 435.904 417.844 434.938 418.412C433.978 418.974 432.836 419.256 431.512 419.256ZM431.529 416.443C432.131 416.443 432.634 416.273 433.038 415.932C433.441 415.585 433.745 415.114 433.95 414.517C434.16 413.92 434.265 413.241 434.265 412.48C434.265 411.719 434.16 411.04 433.95 410.443C433.745 409.847 433.441 409.375 433.038 409.028C432.634 408.682 432.131 408.509 431.529 408.509C430.921 408.509 430.41 408.682 429.995 409.028C429.586 409.375 429.276 409.847 429.066 410.443C428.862 411.04 428.759 411.719 428.759 412.48C428.759 413.241 428.862 413.92 429.066 414.517C429.276 415.114 429.586 415.585 429.995 415.932C430.41 416.273 430.921 416.443 431.529 416.443ZM443.947 411.432V419H440.316V405.909H443.776V408.219H443.93C444.219 407.457 444.705 406.855 445.387 406.412C446.069 405.963 446.896 405.739 447.867 405.739C448.776 405.739 449.569 405.938 450.245 406.335C450.921 406.733 451.447 407.301 451.822 408.04C452.197 408.773 452.384 409.648 452.384 410.665V419H448.754V411.312C448.759 410.511 448.555 409.886 448.14 409.438C447.725 408.983 447.154 408.756 446.427 408.756C445.938 408.756 445.506 408.861 445.131 409.071C444.762 409.281 444.472 409.588 444.262 409.991C444.058 410.389 443.952 410.869 443.947 411.432ZM466.138 409.642L462.814 409.847C462.757 409.562 462.635 409.307 462.447 409.08C462.26 408.847 462.013 408.662 461.706 408.526C461.405 408.384 461.044 408.312 460.624 408.312C460.061 408.312 459.587 408.432 459.2 408.67C458.814 408.903 458.621 409.216 458.621 409.608C458.621 409.92 458.746 410.185 458.996 410.401C459.246 410.616 459.675 410.79 460.283 410.92L462.652 411.398C463.925 411.659 464.874 412.08 465.499 412.659C466.124 413.239 466.436 414 466.436 414.943C466.436 415.801 466.183 416.554 465.678 417.202C465.178 417.849 464.49 418.355 463.615 418.719C462.746 419.077 461.743 419.256 460.607 419.256C458.874 419.256 457.493 418.895 456.464 418.173C455.442 417.446 454.842 416.457 454.666 415.207L458.237 415.02C458.345 415.548 458.607 415.952 459.021 416.23C459.436 416.503 459.967 416.639 460.615 416.639C461.251 416.639 461.763 416.517 462.149 416.273C462.541 416.023 462.74 415.702 462.746 415.31C462.74 414.98 462.601 414.71 462.328 414.5C462.055 414.284 461.635 414.119 461.067 414.006L458.8 413.554C457.521 413.298 456.57 412.855 455.945 412.224C455.325 411.594 455.016 410.79 455.016 409.812C455.016 408.972 455.243 408.247 455.697 407.639C456.158 407.031 456.803 406.562 457.632 406.233C458.467 405.903 459.445 405.739 460.564 405.739C462.217 405.739 463.518 406.088 464.467 406.787C465.422 407.486 465.979 408.437 466.138 409.642Z" fill="black"/>
</g>
</g>
</g>
</g>
</g>
</g>
<defs>
<clipPath id="clip0_4192_140790">
<rect width="506" height="668" fill="white"/>
</clipPath>
<clipPath id="clip1_4192_140790">
<rect width="506" height="584" fill="white" transform="translate(0 84)"/>
</clipPath>
<clipPath id="clip2_4192_140790">
<rect width="506" height="272" fill="white" transform="translate(0 84)"/>
</clipPath>
<clipPath id="clip3_4192_140790">
<rect width="149" height="29" fill="white" transform="translate(357 84)"/>
</clipPath>
<clipPath id="clip4_4192_140790">
<rect width="149" height="29" fill="white" transform="translate(357 84)"/>
</clipPath>
<clipPath id="clip5_4192_140790">
<rect width="149" height="29" fill="white" transform="translate(357 84)"/>
</clipPath>
<clipPath id="clip6_4192_140790">
<rect width="468" height="272" fill="white" transform="translate(0 396)"/>
</clipPath>
<clipPath id="clip7_4192_140790">
<rect width="111" height="29" fill="white" transform="translate(357 396)"/>
</clipPath>
<clipPath id="clip8_4192_140790">
<rect width="111" height="29" fill="white" transform="translate(357 396)"/>
</clipPath>
<clipPath id="clip9_4192_140790">
<rect width="111" height="29" fill="white" transform="translate(357 396)"/>
</clipPath>
</defs>
</svg>
