<svg width="640" height="320" viewBox="0 0 640 320" fill="none" xmlns="http://www.w3.org/2000/svg">
  <rect width="640" height="320" rx="16" fill="#F7F9FB"/>

  <text x="36" y="40" font-family="'Inter', system-ui, sans-serif" font-size="10" font-weight="700" letter-spacing="0.18em" fill="#26A69A">LAYOUT · SPACING</text>
  <text x="36" y="56" font-family="'Inter', system-ui, sans-serif" font-size="10" fill="#8A97B0">Every gap, padding, and hit-area measured in tokens</text>

  <!-- TabList container -->
  <rect x="36" y="100" width="568" height="64" rx="8" fill="#FFFFFF" stroke="#E4E9F0"/>

  <!-- Tab 1 — active -->
  <rect x="56" y="112" width="118" height="40" rx="6" fill="#F0FAF9"/>
  <text x="115" y="137" font-family="'Inter', system-ui, sans-serif" font-size="13" font-weight="600" fill="#1A2035" text-anchor="middle">Overview</text>
  <rect x="56" y="152" width="118" height="4" rx="2" fill="#26A69A"/>

  <!-- Tab 2 -->
  <rect x="190" y="112" width="118" height="40" rx="6" fill="transparent"/>
  <text x="249" y="137" font-family="'Inter', system-ui, sans-serif" font-size="13" fill="#5A6784" text-anchor="middle">Vocabulary</text>

  <!-- Tab 3 -->
  <rect x="324" y="112" width="118" height="40" rx="6" fill="transparent"/>
  <text x="383" y="137" font-family="'Inter', system-ui, sans-serif" font-size="13" fill="#5A6784" text-anchor="middle">Practice</text>

  <!-- Tab 4 -->
  <rect x="458" y="112" width="118" height="40" rx="6" fill="transparent"/>
  <text x="517" y="137" font-family="'Inter', system-ui, sans-serif" font-size="13" fill="#5A6784" text-anchor="middle">Reports</text>

  <!-- Height dimension -->
  <line x1="20" y1="100" x2="20" y2="164" stroke="#26A69A" stroke-width="1"/>
  <line x1="16" y1="100" x2="24" y2="100" stroke="#26A69A" stroke-width="1"/>
  <line x1="16" y1="164" x2="24" y2="164" stroke="#26A69A" stroke-width="1"/>
  <text x="12" y="135" font-family="'Menlo', 'Consolas', monospace" font-size="9" fill="#26A69A" text-anchor="end" transform="rotate(-90 12 135)">h 64 · touch-safe</text>

  <!-- Tab width dimension -->
  <line x1="56" y1="188" x2="174" y2="188" stroke="#26A69A" stroke-width="1"/>
  <line x1="56" y1="184" x2="56" y2="192" stroke="#26A69A" stroke-width="1"/>
  <line x1="174" y1="184" x2="174" y2="192" stroke="#26A69A" stroke-width="1"/>
  <text x="115" y="204" font-family="'Menlo', 'Consolas', monospace" font-size="9" fill="#26A69A" text-anchor="middle">tab · 118</text>

  <!-- Gap dimension -->
  <line x1="174" y1="188" x2="190" y2="188" stroke="#26A69A" stroke-width="1" stroke-dasharray="2 2"/>
  <line x1="174" y1="184" x2="174" y2="192" stroke="#26A69A" stroke-width="1"/>
  <line x1="190" y1="184" x2="190" y2="192" stroke="#26A69A" stroke-width="1"/>
  <text x="182" y="204" font-family="'Menlo', 'Consolas', monospace" font-size="9" fill="#26A69A" text-anchor="middle">gap 16</text>

  <!-- Indicator height -->
  <line x1="596" y1="152" x2="596" y2="156" stroke="#26A69A" stroke-width="1"/>
  <line x1="592" y1="152" x2="600" y2="152" stroke="#26A69A" stroke-width="1"/>
  <line x1="592" y1="156" x2="600" y2="156" stroke="#26A69A" stroke-width="1"/>
  <text x="604" y="157" font-family="'Menlo', 'Consolas', monospace" font-size="9" fill="#26A69A">4 indicator</text>

  <!-- Padding callout -->
  <line x1="56" y1="108" x2="36" y2="88" stroke="#26A69A" stroke-width="1" stroke-dasharray="2 3"/>
  <circle cx="56" cy="108" r="2.5" fill="#26A69A"/>
  <text x="36" y="84" font-family="'Menlo', 'Consolas', monospace" font-size="9" fill="#26A69A">pad-x 20</text>

  <!-- Token legend -->
  <line x1="36" y1="240" x2="604" y2="240" stroke="#E4E9F0"/>
  <text x="36" y="262" font-family="'Inter', system-ui, sans-serif" font-size="10" font-weight="700" letter-spacing="0.12em" fill="#8A97B0">TOKENS</text>

  <rect x="36" y="274" width="128" height="30" rx="6" fill="#FFFFFF" stroke="#E4E9F0"/>
  <text x="50" y="293" font-family="'Menlo', 'Consolas', monospace" font-size="10" fill="#26A69A">space-3</text>
  <text x="130" y="293" font-family="'Menlo', 'Consolas', monospace" font-size="10" fill="#1A2035" text-anchor="end">16px</text>

  <rect x="180" y="274" width="128" height="30" rx="6" fill="#FFFFFF" stroke="#E4E9F0"/>
  <text x="194" y="293" font-family="'Menlo', 'Consolas', monospace" font-size="10" fill="#26A69A">space-4</text>
  <text x="274" y="293" font-family="'Menlo', 'Consolas', monospace" font-size="10" fill="#1A2035" text-anchor="end">20px</text>

  <rect x="324" y="274" width="128" height="30" rx="6" fill="#FFFFFF" stroke="#E4E9F0"/>
  <text x="338" y="293" font-family="'Menlo', 'Consolas', monospace" font-size="10" fill="#26A69A">size-tap</text>
  <text x="418" y="293" font-family="'Menlo', 'Consolas', monospace" font-size="10" fill="#1A2035" text-anchor="end">64px</text>

  <rect x="468" y="274" width="136" height="30" rx="6" fill="#FFFFFF" stroke="#E4E9F0"/>
  <text x="482" y="293" font-family="'Menlo', 'Consolas', monospace" font-size="10" fill="#26A69A">indicator-h</text>
  <text x="590" y="293" font-family="'Menlo', 'Consolas', monospace" font-size="10" fill="#1A2035" text-anchor="end">4px</text>
</svg>
