<svg width="420" height="280" viewBox="0 0 420 280" fill="none" xmlns="http://www.w3.org/2000/svg">
  <rect width="420" height="280" rx="16" fill="#0A0C14"/>

  <text x="36" y="40" font-family="'Inter', system-ui, sans-serif" font-size="10" font-weight="700" letter-spacing="0.18em" fill="#26A69A">STATE MATRIX</text>
  <text x="36" y="56" font-family="'Inter', system-ui, sans-serif" font-size="10" fill="#5A6784">selection × interaction · every cell named</text>

  <!-- Row labels -->
  <text x="36" y="120" font-family="'Inter', system-ui, sans-serif" font-size="9" fill="#5A6784" letter-spacing="0.08em" font-weight="600">SELECTED</text>
  <text x="36" y="196" font-family="'Inter', system-ui, sans-serif" font-size="9" fill="#5A6784" letter-spacing="0.08em" font-weight="600">UNSELECTED</text>

  <!-- Col labels -->
  <text x="162" y="88" font-family="'Menlo', 'Consolas', monospace" font-size="8" fill="#5A6784" text-anchor="middle">default</text>
  <text x="238" y="88" font-family="'Menlo', 'Consolas', monospace" font-size="8" fill="#5A6784" text-anchor="middle">hover</text>
  <text x="314" y="88" font-family="'Menlo', 'Consolas', monospace" font-size="8" fill="#5A6784" text-anchor="middle">focused</text>
  <text x="390" y="88" font-family="'Menlo', 'Consolas', monospace" font-size="8" fill="#5A6784" text-anchor="middle">disabled</text>

  <!-- Selected row -->
  <rect x="124" y="100" width="76" height="36" rx="3"/>
  <rect x="124" y="132" width="76" height="3" rx="1.5" fill="#26A69A"/>
  <text x="162" y="122" font-family="'Inter', system-ui, sans-serif" font-size="11" font-weight="600" fill="#F0F4F8" text-anchor="middle">Overview</text>

  <rect x="200" y="100" width="76" height="36" rx="3" fill="#111524"/>
  <rect x="200" y="132" width="76" height="3" rx="1.5" fill="#26A69A"/>
  <text x="238" y="122" font-family="'Inter', system-ui, sans-serif" font-size="11" font-weight="600" fill="#F0F4F8" text-anchor="middle">Overview</text>

  <rect x="276" y="98" width="80" height="40" rx="5" stroke="#26A69A" stroke-width="2" fill="none"/>
  <rect x="278" y="132" width="76" height="3" rx="1.5" fill="#26A69A"/>
  <text x="314" y="122" font-family="'Inter', system-ui, sans-serif" font-size="11" font-weight="600" fill="#F0F4F8" text-anchor="middle">Overview</text>

  <rect x="352" y="100" width="76" height="36" rx="3" opacity="0.4"/>
  <rect x="352" y="132" width="76" height="3" rx="1.5" fill="#26A69A" opacity="0.25"/>
  <text x="390" y="122" font-family="'Inter', system-ui, sans-serif" font-size="11" font-weight="600" fill="#F0F4F8" text-anchor="middle" opacity="0.35">Overview</text>

  <!-- Unselected row -->
  <text x="162" y="198" font-family="'Inter', system-ui, sans-serif" font-size="11" fill="#6B7A9A" text-anchor="middle">Vocabulary</text>

  <rect x="200" y="176" width="76" height="36" rx="3" fill="#111524"/>
  <text x="238" y="198" font-family="'Inter', system-ui, sans-serif" font-size="11" fill="#A0AABF" text-anchor="middle">Vocabulary</text>

  <rect x="276" y="174" width="80" height="40" rx="5" stroke="#26A69A" stroke-width="2" fill="none"/>
  <text x="314" y="198" font-family="'Inter', system-ui, sans-serif" font-size="11" fill="#A0AABF" text-anchor="middle">Vocabulary</text>

  <text x="390" y="198" font-family="'Inter', system-ui, sans-serif" font-size="11" fill="#6B7A9A" text-anchor="middle" opacity="0.4">Vocabulary</text>

  <!-- Bottom note -->
  <line x1="36" y1="234" x2="394" y2="234" stroke="#161A2A"/>
  <text x="36" y="252" font-family="'Menlo', 'Consolas', monospace" font-size="9" fill="#6B7A9A">2 × 4 = 8 states · loading variant adds 4 more</text>
  <text x="36" y="266" font-family="'Menlo', 'Consolas', monospace" font-size="9" fill="#26A69A">Every cell token-referenced · never a raw hex</text>
</svg>
