<svg width="420" height="280" viewBox="0 0 420 280" fill="none" xmlns="http://www.w3.org/2000/svg">
  <defs>
    <linearGradient id="activeGlow" x1="0" y1="0" x2="1" y2="0">
      <stop offset="0%" stop-color="#26A69A" stop-opacity="0"/>
      <stop offset="50%" stop-color="#26A69A"/>
      <stop offset="100%" stop-color="#26A69A" stop-opacity="0"/>
    </linearGradient>
  </defs>
  <rect width="420" height="280" rx="16" fill="#0A0C14"/>

  <text x="36" y="40" font-family="'Inter', system-ui, sans-serif" font-size="10" font-weight="700" letter-spacing="0.18em" fill="#26A69A">TAB ANATOMY</text>
  <text x="36" y="56" font-family="'Inter', system-ui, sans-serif" font-size="10" fill="#5A6784">Active indicator · label · bounding box</text>

  <!-- Tab container -->
  <rect x="36" y="88" width="348" height="60" rx="6" fill="#0F1322"/>

  <!-- Active tab content -->
  <text x="86" y="124" font-family="'Inter', system-ui, sans-serif" font-size="13" font-weight="600" fill="#F0F4F8" text-anchor="middle">My Tasks</text>
  <rect x="36" y="144" width="100" height="4" rx="2" fill="url(#activeGlow)"/>
  <rect x="36" y="144" width="100" height="4" rx="2" fill="#26A69A"/>

  <!-- Inactive -->
  <text x="196" y="124" font-family="'Inter', system-ui, sans-serif" font-size="13" fill="#6B7A9A" text-anchor="middle">Classes</text>
  <text x="296" y="124" font-family="'Inter', system-ui, sans-serif" font-size="13" fill="#6B7A9A" text-anchor="middle">Reports</text>

  <!-- Annotations -->
  <!-- Label -->
  <line x1="86" y1="128" x2="86" y2="172" stroke="#26A69A" stroke-width="1" stroke-dasharray="2 3" opacity="0.7"/>
  <circle cx="86" cy="128" r="2.5" fill="#26A69A"/>
  <text x="92" y="178" font-family="'Menlo', 'Consolas', monospace" font-size="9" fill="#26A69A">label</text>
  <text x="92" y="190" font-family="'Menlo', 'Consolas', monospace" font-size="9" fill="#5A6784">color-text-primary</text>

  <!-- Indicator -->
  <line x1="200" y1="146" x2="240" y2="178" stroke="#26A69A" stroke-width="1" stroke-dasharray="2 3" opacity="0.7"/>
  <circle cx="200" cy="146" r="2.5" fill="#26A69A"/>
  <text x="246" y="178" font-family="'Menlo', 'Consolas', monospace" font-size="9" fill="#26A69A">active indicator</text>
  <text x="246" y="190" font-family="'Menlo', 'Consolas', monospace" font-size="9" fill="#5A6784">h: 4px · animates</text>

  <!-- Bounding box -->
  <rect x="36" y="206" width="100" height="52" rx="4" fill="none" stroke="#26A69A" stroke-dasharray="3 3" opacity="0.4"/>
  <text x="36" y="276" font-family="'Menlo', 'Consolas', monospace" font-size="9" fill="#5A6784">44 × 44 min · bounding box</text>

  <!-- Measurement -->
  <line x1="144" y1="206" x2="144" y2="258" stroke="#26A69A" stroke-width="1"/>
  <line x1="140" y1="206" x2="148" y2="206" stroke="#26A69A" stroke-width="1"/>
  <line x1="140" y1="258" x2="148" y2="258" stroke="#26A69A" stroke-width="1"/>
  <text x="156" y="238" font-family="'Menlo', 'Consolas', monospace" font-size="9" fill="#26A69A">52</text>
</svg>
